{
	"patcher" : 	{
		"fileversion" : 1,
		"appversion" : 		{
			"major" : 7,
			"minor" : 3,
			"revision" : 4,
			"architecture" : "x64",
			"modernui" : 1
		}
,
		"rect" : [ 162.0, 79.0, 1206.0, 841.0 ],
		"bglocked" : 0,
		"openinpresentation" : 0,
		"default_fontsize" : 12.0,
		"default_fontface" : 0,
		"default_fontname" : "Arial",
		"gridonopen" : 2,
		"gridsize" : [ 15.0, 15.0 ],
		"gridsnaponopen" : 2,
		"objectsnaponopen" : 0,
		"statusbarvisible" : 2,
		"toolbarvisible" : 1,
		"lefttoolbarpinned" : 0,
		"toptoolbarpinned" : 0,
		"righttoolbarpinned" : 0,
		"bottomtoolbarpinned" : 0,
		"toolbars_unpinned_last_save" : 0,
		"tallnewobj" : 0,
		"boxanimatetime" : 200,
		"enablehscroll" : 1,
		"enablevscroll" : 1,
		"devicewidth" : 0.0,
		"description" : "",
		"digest" : "",
		"tags" : "",
		"style" : "",
		"subpatcher_template" : "",
		"boxes" : [ 			{
				"box" : 				{
					"format" : 6,
					"id" : "obj-24",
					"maxclass" : "flonum",
					"numinlets" : 1,
					"numoutlets" : 2,
					"outlettype" : [ "", "bang" ],
					"parameter_enable" : 0,
					"patching_rect" : [ 150.0, 225.0, 50.0, 22.0 ],
					"style" : ""
				}

			}
, 			{
				"box" : 				{
					"id" : "obj-5",
					"maxclass" : "newobj",
					"numinlets" : 0,
					"numoutlets" : 0,
					"patcher" : 					{
						"fileversion" : 1,
						"appversion" : 						{
							"major" : 7,
							"minor" : 3,
							"revision" : 4,
							"architecture" : "x64",
							"modernui" : 1
						}
,
						"rect" : [ 59.0, 104.0, 239.0, 292.0 ],
						"bglocked" : 0,
						"openinpresentation" : 0,
						"default_fontsize" : 12.0,
						"default_fontface" : 0,
						"default_fontname" : "Arial",
						"gridonopen" : 1,
						"gridsize" : [ 15.0, 15.0 ],
						"gridsnaponopen" : 1,
						"objectsnaponopen" : 1,
						"statusbarvisible" : 2,
						"toolbarvisible" : 1,
						"lefttoolbarpinned" : 0,
						"toptoolbarpinned" : 0,
						"righttoolbarpinned" : 0,
						"bottomtoolbarpinned" : 0,
						"toolbars_unpinned_last_save" : 0,
						"tallnewobj" : 0,
						"boxanimatetime" : 200,
						"enablehscroll" : 1,
						"enablevscroll" : 1,
						"devicewidth" : 0.0,
						"description" : "",
						"digest" : "",
						"tags" : "",
						"style" : "",
						"subpatcher_template" : "",
						"visible" : 1,
						"boxes" : [ 							{
								"box" : 								{
									"fontname" : "Arial",
									"fontsize" : 12.0,
									"id" : "obj-16",
									"maxclass" : "message",
									"numinlets" : 2,
									"numoutlets" : 1,
									"outlettype" : [ "" ],
									"patching_rect" : [ 15.0, 225.0, 90.0, 22.0 ],
									"style" : "",
									"text" : "swish"
								}

							}
, 							{
								"box" : 								{
									"fontface" : 0,
									"fontname" : "Arial",
									"fontsize" : 12.0,
									"id" : "obj-13",
									"maxclass" : "newobj",
									"numinlets" : 1,
									"numoutlets" : 1,
									"outlettype" : [ "" ],
									"patching_rect" : [ 15.0, 255.0, 137.0, 22.0 ],
									"style" : "",
									"text" : "j.send /cues_rogs/recall"
								}

							}
, 							{
								"box" : 								{
									"fontface" : 0,
									"fontname" : "Arial",
									"fontsize" : 12.0,
									"id" : "obj-12",
									"maxclass" : "newobj",
									"numinlets" : 1,
									"numoutlets" : 3,
									"outlettype" : [ "", "", "" ],
									"patching_rect" : [ 15.0, 195.0, 175.0, 22.0 ],
									"style" : "",
									"text" : "j.receive /cues_rogs/read/done"
								}

							}
, 							{
								"box" : 								{
									"fontface" : 0,
									"fontname" : "Arial",
									"fontsize" : 12.0,
									"id" : "obj-11",
									"maxclass" : "newobj",
									"numinlets" : 1,
									"numoutlets" : 1,
									"outlettype" : [ "" ],
									"patching_rect" : [ 15.0, 150.0, 150.0, 22.0 ],
									"style" : "",
									"text" : "j.send /cues_rogs/file/path"
								}

							}
, 							{
								"box" : 								{
									"fontname" : "Arial",
									"fontsize" : 12.0,
									"id" : "obj-6",
									"maxclass" : "newobj",
									"numinlets" : 2,
									"numoutlets" : 2,
									"outlettype" : [ "", "" ],
									"patching_rect" : [ 15.0, 120.0, 203.0, 22.0 ],
									"style" : "",
									"text" : "combine PATH tf.rogs.max7.cues.txt"
								}

							}
, 							{
								"box" : 								{
									"fontface" : 0,
									"fontname" : "Arial",
									"fontsize" : 12.0,
									"id" : "obj-10",
									"maxclass" : "newobj",
									"numinlets" : 0,
									"numoutlets" : 1,
									"outlettype" : [ "" ],
									"patching_rect" : [ 15.0, 15.0, 151.0, 22.0 ],
									"style" : "",
									"text" : "j.initialized /cues_rogs 400"
								}

							}
, 							{
								"box" : 								{
									"fontname" : "Arial",
									"fontsize" : 12.0,
									"id" : "obj-8",
									"maxclass" : "message",
									"numinlets" : 2,
									"numoutlets" : 1,
									"outlettype" : [ "" ],
									"patching_rect" : [ 15.0, 45.0, 34.0, 22.0 ],
									"style" : "",
									"text" : "path"
								}

							}
, 							{
								"box" : 								{
									"fontname" : "Arial",
									"fontsize" : 12.0,
									"id" : "obj-2",
									"maxclass" : "newobj",
									"numinlets" : 1,
									"numoutlets" : 2,
									"outlettype" : [ "", "" ],
									"patching_rect" : [ 15.0, 75.0, 69.0, 22.0 ],
									"save" : [ "#N", "thispatcher", ";", "#Q", "end", ";" ],
									"style" : "",
									"text" : "thispatcher"
								}

							}
 ],
						"lines" : [ 							{
								"patchline" : 								{
									"destination" : [ "obj-8", 0 ],
									"source" : [ "obj-10", 0 ]
								}

							}
, 							{
								"patchline" : 								{
									"destination" : [ "obj-16", 0 ],
									"source" : [ "obj-12", 0 ]
								}

							}
, 							{
								"patchline" : 								{
									"destination" : [ "obj-13", 0 ],
									"source" : [ "obj-16", 0 ]
								}

							}
, 							{
								"patchline" : 								{
									"destination" : [ "obj-6", 0 ],
									"source" : [ "obj-2", 1 ]
								}

							}
, 							{
								"patchline" : 								{
									"destination" : [ "obj-11", 0 ],
									"source" : [ "obj-6", 0 ]
								}

							}
, 							{
								"patchline" : 								{
									"destination" : [ "obj-2", 0 ],
									"source" : [ "obj-8", 0 ]
								}

							}
 ]
					}
,
					"patching_rect" : [ 840.0, 195.0, 36.0, 22.0 ],
					"saved_object_attributes" : 					{
						"description" : "",
						"digest" : "",
						"globalpatchername" : "",
						"style" : "",
						"tags" : ""
					}
,
					"style" : "",
					"text" : "p init"
				}

			}
, 			{
				"box" : 				{
					"format" : 6,
					"id" : "obj-68",
					"maxclass" : "flonum",
					"numinlets" : 1,
					"numoutlets" : 2,
					"outlettype" : [ "", "bang" ],
					"parameter_enable" : 0,
					"patching_rect" : [ 583.0, 209.0, 50.0, 22.0 ],
					"style" : ""
				}

			}
, 			{
				"box" : 				{
					"annotation" : "none",
					"id" : "obj-65",
					"maxclass" : "newobj",
					"numinlets" : 0,
					"numoutlets" : 0,
					"patcher" : 					{
						"fileversion" : 1,
						"appversion" : 						{
							"major" : 7,
							"minor" : 3,
							"revision" : 4,
							"architecture" : "x64",
							"modernui" : 1
						}
,
						"rect" : [ 59.0, 104.0, 496.0, 121.0 ],
						"bglocked" : 0,
						"openinpresentation" : 0,
						"default_fontsize" : 12.0,
						"default_fontface" : 0,
						"default_fontname" : "Arial",
						"gridonopen" : 1,
						"gridsize" : [ 15.0, 15.0 ],
						"gridsnaponopen" : 1,
						"objectsnaponopen" : 1,
						"statusbarvisible" : 2,
						"toolbarvisible" : 1,
						"lefttoolbarpinned" : 0,
						"toptoolbarpinned" : 0,
						"righttoolbarpinned" : 0,
						"bottomtoolbarpinned" : 0,
						"toolbars_unpinned_last_save" : 0,
						"tallnewobj" : 0,
						"boxanimatetime" : 200,
						"enablehscroll" : 1,
						"enablevscroll" : 1,
						"devicewidth" : 0.0,
						"description" : "",
						"digest" : "",
						"tags" : "",
						"style" : "",
						"subpatcher_template" : "",
						"boxes" : [ 							{
								"box" : 								{
									"id" : "obj-1",
									"maxclass" : "newobj",
									"numinlets" : 1,
									"numoutlets" : 2,
									"outlettype" : [ "", "" ],
									"patching_rect" : [ 15.0, 90.0, 49.0, 22.0 ],
									"style" : "",
									"text" : "j.model"
								}

							}
, 							{
								"box" : 								{
									"id" : "obj-61",
									"linecount" : 3,
									"maxclass" : "newobj",
									"numinlets" : 1,
									"numoutlets" : 2,
									"outlettype" : [ "", "" ],
									"patching_rect" : [ 255.0, 15.0, 105.0, 49.0 ],
									"style" : "",
									"text" : "j.parameter 1dry @type decimal @range 0. 1."
								}

							}
, 							{
								"box" : 								{
									"id" : "obj-62",
									"linecount" : 3,
									"maxclass" : "newobj",
									"numinlets" : 1,
									"numoutlets" : 2,
									"outlettype" : [ "", "" ],
									"patching_rect" : [ 375.0, 15.0, 101.0, 49.0 ],
									"style" : "",
									"text" : "j.parameter 2dry @type decimal @range 0. 1."
								}

							}
, 							{
								"box" : 								{
									"id" : "obj-63",
									"linecount" : 3,
									"maxclass" : "newobj",
									"numinlets" : 1,
									"numoutlets" : 2,
									"outlettype" : [ "", "" ],
									"patching_rect" : [ 135.0, 15.0, 105.0, 49.0 ],
									"style" : "",
									"text" : "j.parameter 2wet @type decimal @range 0. 1."
								}

							}
, 							{
								"box" : 								{
									"id" : "obj-64",
									"linecount" : 3,
									"maxclass" : "newobj",
									"numinlets" : 1,
									"numoutlets" : 2,
									"outlettype" : [ "", "" ],
									"patching_rect" : [ 15.0, 15.0, 105.0, 49.0 ],
									"style" : "",
									"text" : "j.parameter 1wet @type decimal @range 0. 1."
								}

							}
 ],
						"lines" : [  ]
					}
,
					"patching_rect" : [ 885.0, 195.0, 67.0, 22.0 ],
					"saved_object_attributes" : 					{
						"description" : "",
						"digest" : "",
						"globalpatchername" : "",
						"style" : "",
						"tags" : ""
					}
,
					"style" : "",
					"text" : "p rogsgain"
				}

			}
, 			{
				"box" : 				{
					"id" : "obj-60",
					"maxclass" : "message",
					"numinlets" : 2,
					"numoutlets" : 1,
					"outlettype" : [ "" ],
					"patching_rect" : [ 480.0, 255.0, 82.0, 22.0 ],
					"style" : "",
					"text" : "linearGain $1"
				}

			}
, 			{
				"box" : 				{
					"id" : "obj-59",
					"maxclass" : "message",
					"numinlets" : 2,
					"numoutlets" : 1,
					"outlettype" : [ "" ],
					"patching_rect" : [ 345.0, 255.0, 82.0, 22.0 ],
					"style" : "",
					"text" : "linearGain $1"
				}

			}
, 			{
				"box" : 				{
					"id" : "obj-58",
					"maxclass" : "message",
					"numinlets" : 2,
					"numoutlets" : 1,
					"outlettype" : [ "" ],
					"patching_rect" : [ 195.0, 255.0, 82.0, 22.0 ],
					"style" : "",
					"text" : "linearGain $1"
				}

			}
, 			{
				"box" : 				{
					"id" : "obj-57",
					"maxclass" : "message",
					"numinlets" : 2,
					"numoutlets" : 1,
					"outlettype" : [ "" ],
					"patching_rect" : [ 45.0, 255.0, 82.0, 22.0 ],
					"style" : "",
					"text" : "linearGain $1"
				}

			}
, 			{
				"box" : 				{
					"id" : "obj-2",
					"linecount" : 2,
					"maxclass" : "newobj",
					"numinlets" : 1,
					"numoutlets" : 4,
					"outlettype" : [ "", "", "", "" ],
					"patching_rect" : [ 345.0, 195.0, 88.0, 35.0 ],
					"style" : "",
					"text" : "j.remote /rogsgain/1dry"
				}

			}
, 			{
				"box" : 				{
					"id" : "obj-8",
					"linecount" : 2,
					"maxclass" : "newobj",
					"numinlets" : 1,
					"numoutlets" : 4,
					"outlettype" : [ "", "", "", "" ],
					"patching_rect" : [ 480.0, 195.0, 88.0, 35.0 ],
					"style" : "",
					"text" : "j.remote /rogsgain/2dry"
				}

			}
, 			{
				"box" : 				{
					"id" : "obj-11",
					"linecount" : 2,
					"maxclass" : "newobj",
					"numinlets" : 1,
					"numoutlets" : 4,
					"outlettype" : [ "", "", "", "" ],
					"patching_rect" : [ 195.0, 195.0, 90.0, 35.0 ],
					"style" : "",
					"text" : "j.remote /rogsgain/2wet"
				}

			}
, 			{
				"box" : 				{
					"id" : "obj-17",
					"linecount" : 2,
					"maxclass" : "newobj",
					"numinlets" : 1,
					"numoutlets" : 4,
					"outlettype" : [ "", "", "", "" ],
					"patching_rect" : [ 45.0, 195.0, 90.0, 35.0 ],
					"style" : "",
					"text" : "j.remote /rogsgain/1wet"
				}

			}
, 			{
				"box" : 				{
					"id" : "obj-19",
					"maxclass" : "newobj",
					"numinlets" : 1,
					"numoutlets" : 3,
					"outlettype" : [ "signal", "signal", "" ],
					"patching_rect" : [ 315.0, 345.0, 72.0, 22.0 ],
					"style" : "",
					"text" : "j.unpack= 2"
				}

			}
, 			{
				"box" : 				{
					"id" : "obj-28",
					"maxclass" : "newobj",
					"numinlets" : 1,
					"numoutlets" : 3,
					"outlettype" : [ "signal", "signal", "" ],
					"patching_rect" : [ 450.0, 345.0, 72.0, 22.0 ],
					"style" : "",
					"text" : "j.unpack= 2"
				}

			}
, 			{
				"box" : 				{
					"args" : [ "out~top" ],
					"bgmode" : 0,
					"border" : 0,
					"clickthrough" : 0,
					"enablehscroll" : 0,
					"enablevscroll" : 0,
					"id" : "obj-40",
					"lockeddragscroll" : 1,
					"maxclass" : "bpatcher",
					"name" : "output~.module.maxpat",
					"numinlets" : 2,
					"numoutlets" : 1,
					"offset" : [ 0.0, 0.0 ],
					"outlettype" : [ "" ],
					"patching_rect" : [ 345.0, 450.0, 300.0, 175.0 ],
					"presentation_rect" : [ 683.0, 686.0, 300.0, 175.0 ],
					"varname" : "output~[2]",
					"viewvisibility" : 1
				}

			}
, 			{
				"box" : 				{
					"args" : [ "out~plinth" ],
					"bgmode" : 0,
					"border" : 0,
					"clickthrough" : 0,
					"enablehscroll" : 0,
					"enablevscroll" : 0,
					"id" : "obj-43",
					"lockeddragscroll" : 1,
					"maxclass" : "bpatcher",
					"name" : "output~.module.maxpat",
					"numinlets" : 2,
					"numoutlets" : 1,
					"offset" : [ 0.0, 0.0 ],
					"outlettype" : [ "" ],
					"patching_rect" : [ 15.0, 450.0, 300.0, 175.0 ],
					"presentation_rect" : [ 15.0, 15.0, 300.0, 175.0 ],
					"varname" : "output~[1]",
					"viewvisibility" : 1
				}

			}
, 			{
				"box" : 				{
					"id" : "obj-48",
					"maxclass" : "newobj",
					"numinlets" : 1,
					"numoutlets" : 2,
					"outlettype" : [ "audio.connect", "" ],
					"patching_rect" : [ 165.0, 300.0, 46.0, 22.0 ],
					"style" : "",
					"text" : "j.gain="
				}

			}
, 			{
				"box" : 				{
					"id" : "obj-50",
					"maxclass" : "newobj",
					"numinlets" : 1,
					"numoutlets" : 2,
					"outlettype" : [ "audio.connect", "" ],
					"patching_rect" : [ 450.0, 300.0, 46.0, 22.0 ],
					"style" : "",
					"text" : "j.gain="
				}

			}
, 			{
				"box" : 				{
					"id" : "obj-51",
					"maxclass" : "newobj",
					"numinlets" : 1,
					"numoutlets" : 2,
					"outlettype" : [ "audio.connect", "" ],
					"patching_rect" : [ 315.0, 300.0, 46.0, 22.0 ],
					"style" : "",
					"text" : "j.gain="
				}

			}
, 			{
				"box" : 				{
					"id" : "obj-52",
					"maxclass" : "newobj",
					"numinlets" : 1,
					"numoutlets" : 2,
					"outlettype" : [ "audio.connect", "" ],
					"patching_rect" : [ 15.0, 300.0, 46.0, 22.0 ],
					"style" : "",
					"text" : "j.gain="
				}

			}
, 			{
				"box" : 				{
					"id" : "obj-53",
					"maxclass" : "newobj",
					"numinlets" : 1,
					"numoutlets" : 3,
					"outlettype" : [ "signal", "signal", "" ],
					"patching_rect" : [ 165.0, 345.0, 72.0, 22.0 ],
					"style" : "",
					"text" : "j.unpack= 2"
				}

			}
, 			{
				"box" : 				{
					"fontname" : "Arial",
					"fontsize" : 11.0,
					"id" : "obj-54",
					"maxclass" : "newobj",
					"numinlets" : 4,
					"numoutlets" : 3,
					"outlettype" : [ "signal", "signal", "" ],
					"patching_rect" : [ 15.0, 405.0, 245.0, 21.0 ],
					"style" : "",
					"text" : "spat5.spat~ @inputs 4 @outputs 2 @internals 8"
				}

			}
, 			{
				"box" : 				{
					"id" : "obj-55",
					"maxclass" : "newobj",
					"numinlets" : 1,
					"numoutlets" : 3,
					"outlettype" : [ "signal", "signal", "" ],
					"patching_rect" : [ 15.0, 345.0, 72.0, 22.0 ],
					"style" : "",
					"text" : "j.unpack= 2"
				}

			}
, 			{
				"box" : 				{
					"args" : [ "cues_rogs" ],
					"bgmode" : 0,
					"border" : 0,
					"clickthrough" : 0,
					"enablehscroll" : 0,
					"enablevscroll" : 0,
					"id" : "obj-32",
					"lockeddragscroll" : 0,
					"maxclass" : "bpatcher",
					"name" : "cue_manager.module.maxpat",
					"numinlets" : 1,
					"numoutlets" : 1,
					"offset" : [ 0.0, 0.0 ],
					"outlettype" : [ "" ],
					"patching_rect" : [ 840.0, 15.0, 300.0, 175.0 ],
					"presentation_rect" : [ 0.0, 0.0, 300.0, 175.0 ],
					"viewvisibility" : 1
				}

			}
, 			{
				"box" : 				{
					"args" : [ "sounds1" ],
					"bgmode" : 0,
					"border" : 0,
					"clickthrough" : 0,
					"enablehscroll" : 0,
					"enablevscroll" : 0,
					"id" : "obj-27",
					"lockeddragscroll" : 0,
					"maxclass" : "bpatcher",
					"name" : "j.nav.scale~.module.maxpat",
					"numinlets" : 2,
					"numoutlets" : 3,
					"offset" : [ 0.0, 0.0 ],
					"outlettype" : [ "", "signal", "" ],
					"patching_rect" : [ 675.0, 15.0, 150.0, 315.0 ],
					"presentation_rect" : [ 0.0, 0.0, 150.0, 315.0 ],
					"viewvisibility" : 1
				}

			}
, 			{
				"box" : 				{
					"id" : "obj-9",
					"maxclass" : "comment",
					"numinlets" : 1,
					"numoutlets" : 0,
					"patching_rect" : [ 750.0, 1335.0, 150.0, 20.0 ],
					"style" : "",
					"text" : "reverb"
				}

			}
, 			{
				"box" : 				{
					"fontname" : "Arial",
					"fontsize" : 12.0,
					"id" : "obj-46",
					"maxclass" : "message",
					"numinlets" : 2,
					"numoutlets" : 1,
					"outlettype" : [ "" ],
					"patching_rect" : [ 1257.0, 1507.0, 32.5, 22.0 ],
					"style" : "",
					"text" : "0"
				}

			}
, 			{
				"box" : 				{
					"fontname" : "Arial",
					"fontsize" : 12.0,
					"id" : "obj-41",
					"maxclass" : "message",
					"numinlets" : 2,
					"numoutlets" : 1,
					"outlettype" : [ "" ],
					"patching_rect" : [ 1218.0, 1507.0, 32.5, 22.0 ],
					"style" : "",
					"text" : "1"
				}

			}
, 			{
				"box" : 				{
					"fontname" : "Arial",
					"fontsize" : 12.0,
					"id" : "obj-37",
					"maxclass" : "newobj",
					"numinlets" : 3,
					"numoutlets" : 3,
					"outlettype" : [ "bang", "bang", "" ],
					"patching_rect" : [ 1142.0, 1460.0, 46.0, 22.0 ],
					"style" : "",
					"text" : "sel 1 0"
				}

			}
, 			{
				"box" : 				{
					"fontname" : "Arial",
					"fontsize" : 12.0,
					"id" : "obj-33",
					"maxclass" : "newobj",
					"numinlets" : 3,
					"numoutlets" : 3,
					"outlettype" : [ "bang", "bang", "" ],
					"patching_rect" : [ 1086.0, 1460.0, 46.0, 22.0 ],
					"style" : "",
					"text" : "sel 1 0"
				}

			}
, 			{
				"box" : 				{
					"fontname" : "Arial",
					"fontsize" : 12.0,
					"id" : "obj-18",
					"maxclass" : "newobj",
					"numinlets" : 1,
					"numoutlets" : 1,
					"outlettype" : [ "" ],
					"patching_rect" : [ 1269.0, 1393.0, 99.0, 22.0 ],
					"presentation" : 1,
					"presentation_rect" : [ 892.0, 406.0, 99.0, 22.0 ],
					"style" : "",
					"text" : "udpreceive 9996"
				}

			}
, 			{
				"box" : 				{
					"fontname" : "Arial",
					"fontsize" : 12.0,
					"id" : "obj-30",
					"maxclass" : "newobj",
					"numinlets" : 1,
					"numoutlets" : 0,
					"patching_rect" : [ 820.5, 1515.0, 74.0, 22.0 ],
					"style" : "",
					"text" : "s 2cueRogs"
				}

			}
, 			{
				"box" : 				{
					"fontname" : "Arial",
					"fontsize" : 12.0,
					"id" : "obj-29",
					"maxclass" : "newobj",
					"numinlets" : 1,
					"numoutlets" : 0,
					"patching_rect" : [ 1086.0, 1565.5, 74.0, 22.0 ],
					"style" : "",
					"text" : "s 2cueRogs"
				}

			}
, 			{
				"box" : 				{
					"fontname" : "Arial",
					"fontsize" : 12.0,
					"id" : "obj-26",
					"maxclass" : "newobj",
					"numinlets" : 1,
					"numoutlets" : 1,
					"outlettype" : [ "" ],
					"patching_rect" : [ 1174.0, 1607.0, 125.0, 22.0 ],
					"style" : "",
					"text" : "prepend /*/numInputs"
				}

			}
, 			{
				"box" : 				{
					"fontname" : "Arial",
					"fontsize" : 12.0,
					"id" : "obj-20",
					"maxclass" : "newobj",
					"numinlets" : 1,
					"numoutlets" : 1,
					"outlettype" : [ "" ],
					"patching_rect" : [ 1028.0, 1607.0, 143.0, 22.0 ],
					"style" : "",
					"text" : "prepend /*/numSpeakers"
				}

			}
, 			{
				"box" : 				{
					"fontname" : "Arial",
					"fontsize" : 12.0,
					"id" : "obj-14",
					"maxclass" : "newobj",
					"numinlets" : 2,
					"numoutlets" : 1,
					"outlettype" : [ "" ],
					"patching_rect" : [ 750.0, 1545.0, 63.0, 22.0 ],
					"style" : "",
					"text" : "pipe 2000"
				}

			}
, 			{
				"box" : 				{
					"fontname" : "Arial",
					"fontsize" : 12.0,
					"id" : "obj-13",
					"maxclass" : "newobj",
					"numinlets" : 1,
					"numoutlets" : 2,
					"outlettype" : [ "int", "int" ],
					"patching_rect" : [ 954.0, 1562.0, 34.0, 22.0 ],
					"style" : "",
					"text" : "t 2 1"
				}

			}
, 			{
				"box" : 				{
					"fontname" : "Arial",
					"fontsize" : 12.0,
					"id" : "obj-1",
					"maxclass" : "newobj",
					"numinlets" : 2,
					"numoutlets" : 1,
					"outlettype" : [ "bang" ],
					"patching_rect" : [ 750.0, 1487.0, 69.0, 22.0 ],
					"style" : "",
					"text" : "delay 4000"
				}

			}
, 			{
				"box" : 				{
					"fontname" : "Arial",
					"fontsize" : 12.0,
					"id" : "obj-38",
					"maxclass" : "newobj",
					"numinlets" : 0,
					"numoutlets" : 1,
					"outlettype" : [ "" ],
					"patching_rect" : [ 750.0, 1460.0, 174.0, 22.0 ],
					"style" : "",
					"text" : "jcom.initialized /myModule 500"
				}

			}
, 			{
				"box" : 				{
					"fontname" : "Arial",
					"fontsize" : 12.0,
					"id" : "obj-35",
					"maxclass" : "message",
					"numinlets" : 2,
					"numoutlets" : 1,
					"outlettype" : [ "" ],
					"patching_rect" : [ 820.5, 1487.0, 119.0, 22.0 ],
					"style" : "",
					"text" : "load tf.rogs.max6.txt"
				}

			}
, 			{
				"box" : 				{
					"id" : "obj-49",
					"maxclass" : "ezadc~",
					"numinlets" : 1,
					"numoutlets" : 2,
					"outlettype" : [ "signal", "signal" ],
					"patching_rect" : [ 1222.0, 1545.0, 29.0, 29.0 ],
					"style" : ""
				}

			}
, 			{
				"box" : 				{
					"fontname" : "Arial",
					"fontsize" : 12.0,
					"id" : "obj-44",
					"maxclass" : "message",
					"numinlets" : 2,
					"numoutlets" : 1,
					"outlettype" : [ "" ],
					"patching_rect" : [ 1086.0, 1535.0, 55.0, 22.0 ],
					"style" : "",
					"text" : "/select 2"
				}

			}
, 			{
				"box" : 				{
					"fontname" : "Arial",
					"fontsize" : 12.0,
					"id" : "obj-42",
					"maxclass" : "message",
					"numinlets" : 2,
					"numoutlets" : 1,
					"outlettype" : [ "" ],
					"patching_rect" : [ 1142.0, 1535.0, 55.0, 22.0 ],
					"style" : "",
					"text" : "/select 3"
				}

			}
, 			{
				"box" : 				{
					"fontname" : "Arial",
					"fontsize" : 12.0,
					"id" : "obj-34",
					"maxclass" : "newobj",
					"numinlets" : 3,
					"numoutlets" : 3,
					"outlettype" : [ "", "", "" ],
					"patching_rect" : [ 1086.0, 1430.0, 111.0, 22.0 ],
					"style" : "",
					"text" : "route /electro /pizzi"
				}

			}
, 			{
				"box" : 				{
					"fontname" : "Arial",
					"fontsize" : 12.0,
					"id" : "obj-10",
					"maxclass" : "newobj",
					"numinlets" : 1,
					"numoutlets" : 1,
					"outlettype" : [ "" ],
					"patching_rect" : [ 1086.0, 1393.0, 113.0, 22.0 ],
					"presentation" : 1,
					"presentation_rect" : [ 64.0, 342.0, 113.0, 22.0 ],
					"style" : "",
					"text" : "udpreceive 696969"
				}

			}
, 			{
				"box" : 				{
					"fontname" : "Arial",
					"fontsize" : 12.0,
					"id" : "obj-22",
					"maxclass" : "comment",
					"numinlets" : 1,
					"numoutlets" : 0,
					"patching_rect" : [ 800.0, 1578.0, 150.0, 20.0 ],
					"presentation" : 1,
					"presentation_rect" : [ 64.0, 276.0, 89.0, 20.0 ],
					"style" : "",
					"text" : "num speakers:"
				}

			}
, 			{
				"box" : 				{
					"fontname" : "Arial",
					"fontsize" : 12.0,
					"id" : "obj-16",
					"maxclass" : "newobj",
					"numinlets" : 1,
					"numoutlets" : 1,
					"outlettype" : [ "" ],
					"patching_rect" : [ 893.0, 1607.0, 135.0, 22.0 ],
					"style" : "",
					"text" : "prepend /*/numOutputs"
				}

			}
, 			{
				"box" : 				{
					"fontname" : "Arial",
					"fontsize" : 12.0,
					"id" : "obj-15",
					"maxclass" : "number",
					"numinlets" : 1,
					"numoutlets" : 2,
					"outlettype" : [ "", "bang" ],
					"parameter_enable" : 0,
					"patching_rect" : [ 750.0, 1578.0, 50.0, 22.0 ],
					"presentation" : 1,
					"presentation_rect" : [ 153.0, 276.0, 50.0, 22.0 ],
					"style" : ""
				}

			}
, 			{
				"box" : 				{
					"fontname" : "Arial",
					"fontsize" : 12.0,
					"id" : "obj-7",
					"maxclass" : "newobj",
					"numinlets" : 1,
					"numoutlets" : 1,
					"outlettype" : [ "" ],
					"patching_rect" : [ 750.0, 1607.0, 143.0, 22.0 ],
					"style" : "",
					"text" : "prepend /*/numChannels"
				}

			}
, 			{
				"box" : 				{
					"color" : [ 0.619608, 0.0, 0.360784, 0.698039 ],
					"fontname" : "Verdana",
					"fontsize" : 10.0,
					"id" : "obj-12",
					"maxclass" : "newobj",
					"numinlets" : 1,
					"numoutlets" : 0,
					"patching_rect" : [ 750.0, 1637.0, 182.0, 21.0 ],
					"style" : "",
					"text" : "jcom.send jcom.remote.module.to"
				}

			}
, 			{
				"box" : 				{
					"args" : [ "Rogs2~" ],
					"bgmode" : 0,
					"border" : 0,
					"clickthrough" : 0,
					"enablehscroll" : 0,
					"enablevscroll" : 0,
					"id" : "obj-4",
					"lockeddragscroll" : 0,
					"maxclass" : "bpatcher",
					"name" : "j.nav.rogs=.module.maxpat",
					"numinlets" : 1,
					"numoutlets" : 2,
					"offset" : [ 0.0, 0.0 ],
					"outlettype" : [ "audio.connect", "" ],
					"patching_rect" : [ 360.0, 15.0, 300.0, 140.0 ],
					"presentation_rect" : [ 0.0, 0.0, 300.0, 140.0 ],
					"viewvisibility" : 1
				}

			}
, 			{
				"box" : 				{
					"args" : [ "Rogs1~" ],
					"bgmode" : 0,
					"border" : 0,
					"clickthrough" : 0,
					"enablehscroll" : 0,
					"enablevscroll" : 0,
					"id" : "obj-3",
					"lockeddragscroll" : 0,
					"maxclass" : "bpatcher",
					"name" : "j.nav.rogs=.module.maxpat",
					"numinlets" : 1,
					"numoutlets" : 2,
					"offset" : [ 0.0, 0.0 ],
					"outlettype" : [ "audio.connect", "" ],
					"patching_rect" : [ 15.0, 15.0, 300.0, 140.0 ],
					"presentation_rect" : [ 0.0, 0.0, 300.0, 140.0 ],
					"viewvisibility" : 1
				}

			}
 ],
		"lines" : [ 			{
				"patchline" : 				{
					"destination" : [ "obj-13", 0 ],
					"source" : [ "obj-1", 0 ]
				}

			}
, 			{
				"patchline" : 				{
					"destination" : [ "obj-58", 0 ],
					"midpoints" : [ 228.166667, 242.0, 204.5, 242.0 ],
					"source" : [ "obj-11", 1 ]
				}

			}
, 			{
				"patchline" : 				{
					"destination" : [ "obj-14", 0 ],
					"source" : [ "obj-13", 0 ]
				}

			}
, 			{
				"patchline" : 				{
					"destination" : [ "obj-15", 0 ],
					"source" : [ "obj-13", 1 ]
				}

			}
, 			{
				"patchline" : 				{
					"destination" : [ "obj-15", 0 ],
					"source" : [ "obj-14", 0 ]
				}

			}
, 			{
				"patchline" : 				{
					"destination" : [ "obj-16", 0 ],
					"order" : 2,
					"source" : [ "obj-15", 0 ]
				}

			}
, 			{
				"patchline" : 				{
					"destination" : [ "obj-20", 0 ],
					"order" : 1,
					"source" : [ "obj-15", 0 ]
				}

			}
, 			{
				"patchline" : 				{
					"destination" : [ "obj-26", 0 ],
					"order" : 0,
					"source" : [ "obj-15", 0 ]
				}

			}
, 			{
				"patchline" : 				{
					"destination" : [ "obj-7", 0 ],
					"order" : 3,
					"source" : [ "obj-15", 0 ]
				}

			}
, 			{
				"patchline" : 				{
					"destination" : [ "obj-12", 0 ],
					"source" : [ "obj-16", 0 ]
				}

			}
, 			{
				"patchline" : 				{
					"destination" : [ "obj-57", 0 ],
					"midpoints" : [ 78.166667, 242.0, 54.5, 242.0 ],
					"source" : [ "obj-17", 1 ]
				}

			}
, 			{
				"patchline" : 				{
					"destination" : [ "obj-34", 0 ],
					"source" : [ "obj-18", 0 ]
				}

			}
, 			{
				"patchline" : 				{
					"destination" : [ "obj-40", 1 ],
					"source" : [ "obj-19", 1 ]
				}

			}
, 			{
				"patchline" : 				{
					"destination" : [ "obj-40", 0 ],
					"source" : [ "obj-19", 0 ]
				}

			}
, 			{
				"patchline" : 				{
					"destination" : [ "obj-59", 0 ],
					"midpoints" : [ 377.5, 242.0, 354.5, 242.0 ],
					"source" : [ "obj-2", 1 ]
				}

			}
, 			{
				"patchline" : 				{
					"destination" : [ "obj-12", 0 ],
					"source" : [ "obj-20", 0 ]
				}

			}
, 			{
				"patchline" : 				{
					"destination" : [ "obj-57", 0 ],
					"source" : [ "obj-24", 0 ]
				}

			}
, 			{
				"patchline" : 				{
					"destination" : [ "obj-12", 0 ],
					"source" : [ "obj-26", 0 ]
				}

			}
, 			{
				"patchline" : 				{
					"destination" : [ "obj-51", 0 ],
					"midpoints" : [ 24.5, 181.0, 324.5, 181.0 ],
					"order" : 0,
					"source" : [ "obj-3", 0 ]
				}

			}
, 			{
				"patchline" : 				{
					"destination" : [ "obj-52", 0 ],
					"order" : 1,
					"source" : [ "obj-3", 0 ]
				}

			}
, 			{
				"patchline" : 				{
					"destination" : [ "obj-41", 0 ],
					"order" : 0,
					"source" : [ "obj-33", 0 ]
				}

			}
, 			{
				"patchline" : 				{
					"destination" : [ "obj-44", 0 ],
					"order" : 1,
					"source" : [ "obj-33", 0 ]
				}

			}
, 			{
				"patchline" : 				{
					"destination" : [ "obj-46", 0 ],
					"source" : [ "obj-33", 1 ]
				}

			}
, 			{
				"patchline" : 				{
					"destination" : [ "obj-33", 0 ],
					"source" : [ "obj-34", 0 ]
				}

			}
, 			{
				"patchline" : 				{
					"destination" : [ "obj-37", 0 ],
					"source" : [ "obj-34", 1 ]
				}

			}
, 			{
				"patchline" : 				{
					"destination" : [ "obj-30", 0 ],
					"source" : [ "obj-35", 0 ]
				}

			}
, 			{
				"patchline" : 				{
					"destination" : [ "obj-41", 0 ],
					"order" : 0,
					"source" : [ "obj-37", 0 ]
				}

			}
, 			{
				"patchline" : 				{
					"destination" : [ "obj-42", 0 ],
					"order" : 1,
					"source" : [ "obj-37", 0 ]
				}

			}
, 			{
				"patchline" : 				{
					"destination" : [ "obj-46", 0 ],
					"source" : [ "obj-37", 1 ]
				}

			}
, 			{
				"patchline" : 				{
					"destination" : [ "obj-1", 0 ],
					"order" : 1,
					"source" : [ "obj-38", 0 ]
				}

			}
, 			{
				"patchline" : 				{
					"destination" : [ "obj-35", 0 ],
					"order" : 0,
					"source" : [ "obj-38", 0 ]
				}

			}
, 			{
				"patchline" : 				{
					"destination" : [ "obj-48", 0 ],
					"midpoints" : [ 369.5, 166.0, 174.5, 166.0 ],
					"order" : 1,
					"source" : [ "obj-4", 0 ]
				}

			}
, 			{
				"patchline" : 				{
					"destination" : [ "obj-50", 0 ],
					"midpoints" : [ 369.5, 166.5, 459.5, 166.5 ],
					"order" : 0,
					"source" : [ "obj-4", 0 ]
				}

			}
, 			{
				"patchline" : 				{
					"destination" : [ "obj-49", 0 ],
					"source" : [ "obj-41", 0 ]
				}

			}
, 			{
				"patchline" : 				{
					"destination" : [ "obj-29", 0 ],
					"source" : [ "obj-42", 0 ]
				}

			}
, 			{
				"patchline" : 				{
					"destination" : [ "obj-29", 0 ],
					"source" : [ "obj-44", 0 ]
				}

			}
, 			{
				"patchline" : 				{
					"destination" : [ "obj-49", 0 ],
					"source" : [ "obj-46", 0 ]
				}

			}
, 			{
				"patchline" : 				{
					"destination" : [ "obj-53", 0 ],
					"source" : [ "obj-48", 0 ]
				}

			}
, 			{
				"patchline" : 				{
					"destination" : [ "obj-28", 0 ],
					"source" : [ "obj-50", 0 ]
				}

			}
, 			{
				"patchline" : 				{
					"destination" : [ "obj-19", 0 ],
					"source" : [ "obj-51", 0 ]
				}

			}
, 			{
				"patchline" : 				{
					"destination" : [ "obj-55", 0 ],
					"source" : [ "obj-52", 0 ]
				}

			}
, 			{
				"patchline" : 				{
					"destination" : [ "obj-54", 3 ],
					"source" : [ "obj-53", 1 ]
				}

			}
, 			{
				"patchline" : 				{
					"destination" : [ "obj-54", 2 ],
					"source" : [ "obj-53", 0 ]
				}

			}
, 			{
				"patchline" : 				{
					"destination" : [ "obj-43", 1 ],
					"source" : [ "obj-54", 1 ]
				}

			}
, 			{
				"patchline" : 				{
					"destination" : [ "obj-43", 0 ],
					"source" : [ "obj-54", 0 ]
				}

			}
, 			{
				"patchline" : 				{
					"destination" : [ "obj-54", 1 ],
					"source" : [ "obj-55", 1 ]
				}

			}
, 			{
				"patchline" : 				{
					"destination" : [ "obj-54", 0 ],
					"source" : [ "obj-55", 0 ]
				}

			}
, 			{
				"patchline" : 				{
					"destination" : [ "obj-52", 0 ],
					"midpoints" : [ 54.5, 288.0, 24.5, 288.0 ],
					"source" : [ "obj-57", 0 ]
				}

			}
, 			{
				"patchline" : 				{
					"destination" : [ "obj-48", 0 ],
					"midpoints" : [ 204.5, 288.0, 174.5, 288.0 ],
					"source" : [ "obj-58", 0 ]
				}

			}
, 			{
				"patchline" : 				{
					"destination" : [ "obj-51", 0 ],
					"midpoints" : [ 354.5, 288.0, 324.5, 288.0 ],
					"source" : [ "obj-59", 0 ]
				}

			}
, 			{
				"patchline" : 				{
					"destination" : [ "obj-50", 0 ],
					"midpoints" : [ 489.5, 288.0, 459.5, 288.0 ],
					"source" : [ "obj-60", 0 ]
				}

			}
, 			{
				"patchline" : 				{
					"destination" : [ "obj-59", 0 ],
					"source" : [ "obj-68", 0 ]
				}

			}
, 			{
				"patchline" : 				{
					"destination" : [ "obj-12", 0 ],
					"source" : [ "obj-7", 0 ]
				}

			}
, 			{
				"patchline" : 				{
					"destination" : [ "obj-60", 0 ],
					"midpoints" : [ 512.5, 242.0, 489.5, 242.0 ],
					"source" : [ "obj-8", 1 ]
				}

			}
 ],
		"parameters" : 		{
			"obj-4::obj-3::obj-7::obj-133::obj-10::obj-10::obj-145" : [ "live.menu[11]", "live.menu", 0 ],
			"obj-40::obj-1::obj-98" : [ "live.menu[31]", "live.menu", 0 ],
			"obj-3::obj-3::obj-108::obj-67" : [ "SelectAll[4]", "SelectAll", 0 ],
			"obj-4::obj-3::obj-7::obj-66::obj-10::obj-10::obj-145" : [ "live.menu[20]", "live.menu", 0 ],
			"obj-43::obj-1::obj-90" : [ "live.text[80]", "live.text[1]", 0 ],
			"obj-4::obj-3::obj-51" : [ "Soundfile[2]", "Soundfile", 0 ],
			"obj-3::obj-3::obj-7::obj-68::obj-10::obj-196" : [ "live.text[16]", "live.text", 0 ],
			"obj-4::obj-3::obj-7::obj-67::obj-182" : [ "live.text[38]", "live.text[4]", 0 ],
			"obj-40::obj-1::obj-12::obj-42" : [ "live.text[73]", "live.text", 0 ],
			"obj-3::obj-3::obj-7::obj-123::obj-10::obj-10::obj-145" : [ "live.menu[2]", "live.menu", 0 ],
			"obj-27::obj-1::obj-118" : [ "live.text[64]", "FILTER", 0 ],
			"obj-4::obj-3::obj-7::obj-70::obj-10::obj-196" : [ "live.text[35]", "live.text", 0 ],
			"obj-40::obj-1::obj-12::obj-13" : [ "Release[3]", "Release", 0 ],
			"obj-3::obj-3::obj-7::obj-121::obj-182" : [ "live.text[11]", "live.text[4]", 0 ],
			"obj-43::obj-1::obj-12::obj-45" : [ "live.text[77]", "live.text", 0 ],
			"obj-4::obj-3::obj-7::obj-117::obj-10::obj-10::obj-145" : [ "live.menu[15]", "live.menu", 0 ],
			"obj-40::obj-1::obj-97" : [ "live.numbox[10]", "CPU", 0 ],
			"obj-3::obj-3::obj-7::obj-70::obj-10::obj-196" : [ "live.text[14]", "live.text", 0 ],
			"obj-3::obj-3::obj-7::obj-124::obj-182" : [ "live.text[1]", "live.text[4]", 0 ],
			"obj-3::obj-3::obj-89" : [ "lock[1]", "Lock", 0 ],
			"obj-43::obj-1::obj-12::obj-15" : [ "Postamp[4]", "Postamp", 0 ],
			"obj-3::obj-3::obj-108::obj-101" : [ "Scrub[1]", "Scrub", 0 ],
			"obj-4::obj-3::obj-7::obj-105::obj-182" : [ "live.text[28]", "live.text[4]", 0 ],
			"obj-40::obj-1::obj-100" : [ "live.text[76]", "live.text[1]", 0 ],
			"obj-3::obj-3::obj-7::obj-67::obj-10::obj-196" : [ "live.text[18]", "live.text", 0 ],
			"obj-43::obj-1::obj-106" : [ "live.dial[13]", "Release", 0 ],
			"obj-4::obj-3::obj-7::obj-124::obj-10::obj-196" : [ "live.text[25]", "live.text", 0 ],
			"obj-40::obj-1::obj-17" : [ "Master Gain[4]", "Master Gain", 0 ],
			"obj-4::obj-3::obj-108::obj-67" : [ "SelectAll[1]", "SelectAll", 0 ],
			"obj-43::obj-1::obj-97" : [ "live.numbox[13]", "CPU", 0 ],
			"obj-4::obj-3::obj-74" : [ "note[2]", "Note", 0 ],
			"obj-3::obj-3::obj-7::obj-66::obj-10::obj-10::obj-145" : [ "live.menu[10]", "live.menu", 0 ],
			"obj-4::obj-3::obj-7::obj-67::obj-10::obj-10::obj-145" : [ "live.menu[19]", "live.menu", 0 ],
			"obj-43::obj-1::obj-104" : [ "live.dial[14]", "Depth", 0 ],
			"obj-3::obj-3::obj-7::obj-117::obj-10::obj-10::obj-145" : [ "live.menu[5]", "live.menu", 0 ],
			"obj-27::obj-1::obj-76" : [ "live.text[63]", "live.text", 0 ],
			"obj-4::obj-3::obj-7::obj-68::obj-182" : [ "live.text[36]", "live.text[4]", 0 ],
			"obj-40::obj-1::obj-12::obj-45" : [ "live.text[72]", "live.text", 0 ],
			"obj-3::obj-3::obj-7::obj-121::obj-10::obj-10::obj-145" : [ "live.menu[6]", "live.menu", 0 ],
			"obj-43::obj-1::obj-12::obj-13" : [ "Release[4]", "Release", 0 ],
			"obj-4::obj-3::obj-7::obj-121::obj-10::obj-196" : [ "live.text[33]", "live.text", 0 ],
			"obj-40::obj-1::obj-12::obj-6" : [ "live.text[74]", "live.text", 0 ],
			"obj-3::obj-3::obj-7::obj-70::obj-182" : [ "live.text[13]", "live.text[4]", 0 ],
			"obj-3::obj-3::obj-7::obj-133::obj-182" : [ "live.text[8]", "live.text[4]", 0 ],
			"obj-43::obj-1::obj-12::obj-5" : [ "Preamp[4]", "Preamp", 0 ],
			"obj-4::obj-3::obj-7::obj-105::obj-10::obj-10::obj-145" : [ "live.menu[14]", "live.menu", 0 ],
			"obj-40::obj-1::obj-90" : [ "live.text[45]", "live.text[1]", 0 ],
			"obj-3::obj-3::obj-7::obj-66::obj-10::obj-196" : [ "live.text[20]", "live.text", 0 ],
			"obj-43::obj-1::obj-98" : [ "live.menu[34]", "live.menu", 0 ],
			"obj-4::obj-3::obj-7::obj-123::obj-182" : [ "live.text[26]", "live.text[4]", 0 ],
			"obj-40::obj-1::obj-104" : [ "live.dial[11]", "Depth", 0 ],
			"obj-4::obj-3::obj-108::obj-32" : [ "live.text[42]", "live.text[3]", 0 ],
			"obj-43::obj-1::obj-82" : [ "pan[2]", "Pan", 0 ],
			"obj-4::obj-3::obj-7::obj-133::obj-10::obj-196" : [ "live.text[23]", "live.text", 0 ],
			"obj-40::obj-1::obj-82" : [ "pan[1]", "Pan", 0 ],
			"obj-4::obj-3::obj-7::obj-66::obj-10::obj-196" : [ "live.text[41]", "live.text", 0 ],
			"obj-43::obj-1::obj-111" : [ "live.numbox[11]", "live.numbox[2]", 0 ],
			"obj-3::obj-3::obj-7::obj-124::obj-10::obj-10::obj-145" : [ "live.menu[1]", "live.menu", 0 ],
			"obj-4::obj-3::obj-89" : [ "lock[2]", "Lock", 0 ],
			"obj-4::obj-3::obj-7::obj-68::obj-10::obj-10::obj-145" : [ "live.menu[18]", "live.menu", 0 ],
			"obj-40::obj-1::obj-12::obj-12" : [ "Lookahead[3]", "Lookahead", 0 ],
			"obj-3::obj-3::obj-7::obj-105::obj-182" : [ "live.text[5]", "live.text[4]", 0 ],
			"obj-3::obj-3::obj-7::obj-123::obj-10::obj-196" : [ "live.text[4]", "live.text", 0 ],
			"obj-43::obj-1::obj-12::obj-42" : [ "live.text[46]", "live.text", 0 ],
			"obj-4::obj-3::obj-7::obj-70::obj-182" : [ "live.text[34]", "live.text[4]", 0 ],
			"obj-40::obj-1::obj-12::obj-30" : [ "live.menu[21]", "live.menu", 0 ],
			"obj-3::obj-3::obj-7::obj-70::obj-10::obj-10::obj-145" : [ "live.menu[7]", "live.menu", 0 ],
			"obj-43::obj-1::obj-12::obj-27" : [ "Threshold[4]", "Threshold", 0 ],
			"obj-4::obj-3::obj-7::obj-117::obj-10::obj-196" : [ "live.text[31]", "live.text", 0 ],
			"obj-40::obj-1::obj-106" : [ "live.dial[10]", "Release", 0 ],
			"obj-3::obj-3::obj-7::obj-68::obj-182" : [ "live.text[15]", "live.text[4]", 0 ],
			"obj-43::obj-1::obj-107" : [ "live.dial[12]", "Preamp", 0 ],
			"obj-4::obj-3::obj-7::obj-123::obj-10::obj-10::obj-145" : [ "live.menu[13]", "live.menu", 0 ],
			"obj-40::obj-1::obj-110" : [ "live.numbox[9]", "live.numbox[1]", 0 ],
			"obj-3::obj-3::obj-7::obj-117::obj-182" : [ "live.text[7]", "live.text[4]", 0 ],
			"obj-4::obj-4::obj-131::obj-54::obj-9::obj-61" : [ "TriggersMode[1]", "Mode", 0 ],
			"obj-43::obj-1::obj-99" : [ "live.menu[33]", "live.menu[2]", 0 ],
			"obj-4::obj-3::obj-7::obj-124::obj-182" : [ "live.text[24]", "live.text[4]", 0 ],
			"obj-40::obj-1::obj-108" : [ "live.text[43]", "live.text[4]", 0 ],
			"obj-3::obj-3::obj-7::obj-67::obj-10::obj-10::obj-145" : [ "live.menu[9]", "live.menu", 0 ],
			"obj-3::obj-3::obj-51" : [ "Soundfile[1]", "Soundfile", 0 ],
			"obj-4::obj-3::obj-108::obj-101" : [ "Scrub[2]", "Scrub", 0 ],
			"obj-43::obj-1::obj-108" : [ "live.text[48]", "live.text[4]", 0 ],
			"obj-4::obj-3::obj-69" : [ "SelectFile[2]", "SelectFile", 0 ],
			"obj-4::obj-3::obj-7::obj-67::obj-10::obj-196" : [ "live.text[39]", "live.text", 0 ],
			"obj-43::obj-1::obj-102" : [ "live.text[79]", "live.text", 0 ],
			"obj-3::obj-3::obj-7::obj-123::obj-182" : [ "live.text[3]", "live.text[4]", 0 ],
			"obj-4::obj-3::obj-7::obj-70::obj-10::obj-10::obj-145" : [ "live.menu[17]", "live.menu", 0 ],
			"obj-40::obj-1::obj-12::obj-5" : [ "Preamp[3]", "Preamp", 0 ],
			"obj-3::obj-3::obj-7::obj-117::obj-10::obj-196" : [ "live.text[10]", "live.text", 0 ],
			"obj-43::obj-1::obj-12::obj-12" : [ "Lookahead[4]", "Lookahead", 0 ],
			"obj-4::obj-3::obj-7::obj-121::obj-182" : [ "live.text[32]", "live.text[4]", 0 ],
			"obj-40::obj-1::obj-111" : [ "live.numbox[8]", "live.numbox[2]", 0 ],
			"obj-3::obj-3::obj-108::obj-103" : [ "Direction[9]", "Direction", 0 ],
			"obj-3::obj-3::obj-7::obj-68::obj-10::obj-10::obj-145" : [ "live.menu[8]", "live.menu", 0 ],
			"obj-43::obj-1::obj-12::obj-30" : [ "live.menu[32]", "live.menu", 0 ],
			"obj-4::obj-3::obj-7::obj-105::obj-10::obj-196" : [ "live.text[29]", "live.text", 0 ],
			"obj-40::obj-1::obj-102" : [ "live.text[75]", "live.text", 0 ],
			"obj-3::obj-3::obj-7::obj-66::obj-182" : [ "live.text[19]", "live.text[4]", 0 ],
			"obj-3::obj-3::obj-7::obj-133::obj-10::obj-196" : [ "live.text[9]", "live.text", 0 ],
			"obj-3::obj-3::obj-74" : [ "note[1]", "Note", 0 ],
			"obj-43::obj-1::obj-110" : [ "live.numbox[12]", "live.numbox[1]", 0 ],
			"obj-4::obj-3::obj-7::obj-124::obj-10::obj-10::obj-145" : [ "live.menu[12]", "live.menu", 0 ],
			"obj-40::obj-1::obj-99" : [ "live.menu[22]", "live.menu[2]", 0 ],
			"obj-3::obj-3::obj-68" : [ "DropFile[1]", "DropFile", 0 ],
			"obj-4::obj-3::obj-108::obj-87" : [ "Direction[11]", "Direction", 0 ],
			"obj-43::obj-1::obj-103" : [ "live.text[78]", "live.text", 0 ],
			"obj-4::obj-3::obj-7::obj-133::obj-182" : [ "live.text[22]", "live.text[4]", 0 ],
			"obj-4::obj-3::obj-7::obj-66::obj-182" : [ "live.text[40]", "live.text[4]", 0 ],
			"obj-43::obj-1::obj-17" : [ "Master Gain[5]", "Master Gain", 0 ],
			"obj-3::obj-3::obj-7::obj-124::obj-10::obj-196" : [ "live.text[2]", "live.text", 0 ],
			"obj-4::obj-3::obj-68" : [ "DropFile[2]", "DropFile", 0 ],
			"obj-3::obj-3::obj-7::obj-67::obj-182" : [ "live.text[17]", "live.text[4]", 0 ],
			"obj-4::obj-3::obj-7::obj-68::obj-10::obj-196" : [ "live.text[37]", "live.text", 0 ],
			"obj-40::obj-1::obj-12::obj-27" : [ "Threshold[3]", "Threshold", 0 ],
			"obj-3::obj-3::obj-7::obj-105::obj-10::obj-196" : [ "live.text[6]", "live.text", 0 ],
			"obj-3::obj-3::obj-108::obj-87" : [ "Direction[10]", "Direction", 0 ],
			"obj-4::obj-3::obj-7::obj-121::obj-10::obj-10::obj-145" : [ "live.menu[16]", "live.menu", 0 ],
			"obj-40::obj-1::obj-12::obj-15" : [ "Postamp[3]", "Postamp", 0 ],
			"obj-3::obj-3::obj-7::obj-121::obj-10::obj-196" : [ "live.text[12]", "live.text", 0 ],
			"obj-3::obj-3::obj-7::obj-105::obj-10::obj-10::obj-145" : [ "live.menu[3]", "live.menu", 0 ],
			"obj-3::obj-3::obj-7::obj-133::obj-10::obj-10::obj-145" : [ "live.menu[4]", "live.menu", 0 ],
			"obj-43::obj-1::obj-12::obj-6" : [ "live.text[47]", "live.text", 0 ],
			"obj-4::obj-3::obj-7::obj-117::obj-182" : [ "live.text[30]", "live.text[4]", 0 ],
			"obj-40::obj-1::obj-103" : [ "live.text[44]", "live.text", 0 ],
			"obj-3::obj-3::obj-108::obj-32" : [ "live.text[21]", "live.text[3]", 0 ],
			"obj-3::obj-3::obj-69" : [ "SelectFile[1]", "SelectFile", 0 ],
			"obj-4::obj-3::obj-7::obj-123::obj-10::obj-196" : [ "live.text[27]", "live.text", 0 ],
			"obj-40::obj-1::obj-107" : [ "live.dial[9]", "Preamp", 0 ],
			"obj-3::obj-4::obj-131::obj-54::obj-9::obj-61" : [ "TriggersMode[4]", "Mode", 0 ],
			"obj-4::obj-3::obj-108::obj-103" : [ "Direction[12]", "Direction", 0 ],
			"obj-43::obj-1::obj-100" : [ "live.text[81]", "live.text[1]", 0 ]
		}
,
		"dependency_cache" : [ 			{
				"name" : "j.nav.rogs=.module.maxpat",
				"bootpath" : "~/code/Nav/Jamoma-v1/j.nav.rogs=",
				"patcherrelativepath" : "../../../Jamoma-v1/j.nav.rogs=",
				"type" : "JSON",
				"implicit" : 1
			}
, 			{
				"name" : "j.nav.rogs=.model.maxpat",
				"bootpath" : "~/code/Nav/Jamoma-v1/j.nav.rogs=",
				"patcherrelativepath" : "../../../Jamoma-v1/j.nav.rogs=",
				"type" : "JSON",
				"implicit" : 1
			}
, 			{
				"name" : "j.absdiff.maxpat",
				"bootpath" : "~/Documents/Max 7/Packages/Jamoma/patchers/components/data/absdiff",
				"patcherrelativepath" : "../../../../../Documents/Max 7/Packages/Jamoma/patchers/components/data/absdiff",
				"type" : "JSON",
				"implicit" : 1
			}
, 			{
				"name" : "j.nav.oscroute.model.maxpat",
				"bootpath" : "~/code/Nav/Jamoma-v1/j.nav.oscroute",
				"patcherrelativepath" : "../../../Jamoma-v1/j.nav.oscroute",
				"type" : "JSON",
				"implicit" : 1
			}
, 			{
				"name" : "thru.maxpat",
				"bootpath" : "C74:/patchers/m4l/Pluggo for Live resources/patches",
				"type" : "JSON",
				"implicit" : 1
			}
, 			{
				"name" : "j.nav.rogs=.view.maxpat",
				"bootpath" : "~/code/Nav/Jamoma-v1/j.nav.rogs=",
				"patcherrelativepath" : "../../../Jamoma-v1/j.nav.rogs=",
				"type" : "JSON",
				"implicit" : 1
			}
, 			{
				"name" : "j.nav.oscroute.view.maxpat",
				"bootpath" : "~/code/Nav/Jamoma-v1/j.nav.oscroute",
				"patcherrelativepath" : "../../../Jamoma-v1/j.nav.oscroute",
				"type" : "JSON",
				"implicit" : 1
			}
, 			{
				"name" : "j.namespacebrowser.view.maxpat",
				"bootpath" : "~/Documents/Max 7/Packages/Jamoma/patchers/components/namespace/namespacebrowser",
				"patcherrelativepath" : "../../../../../Documents/Max 7/Packages/Jamoma/patchers/components/namespace/namespacebrowser",
				"type" : "JSON",
				"implicit" : 1
			}
, 			{
				"name" : "j.get_onscreen_position.js",
				"bootpath" : "~/Documents/Max 7/Packages/Jamoma/javascript",
				"patcherrelativepath" : "../../../../../Documents/Max 7/Packages/Jamoma/javascript",
				"type" : "TEXT",
				"implicit" : 1
			}
, 			{
				"name" : "jcom.initialized.maxpat",
				"bootpath" : "~/Documents/Max 7/Packages/Jamoma-0.5.7/patchers/library/components/initialized",
				"patcherrelativepath" : "../../../../../Documents/Max 7/Packages/Jamoma-0.5.7/patchers/library/components/initialized",
				"type" : "JSON",
				"implicit" : 1
			}
, 			{
				"name" : "j.nav.scale~.module.maxpat",
				"bootpath" : "~/code/Nav/Jamoma-v1/j.nav.scale~",
				"patcherrelativepath" : "../../../Jamoma-v1/j.nav.scale~",
				"type" : "JSON",
				"implicit" : 1
			}
, 			{
				"name" : "j.nav.scale~.model.maxpat",
				"bootpath" : "~/code/Nav/Jamoma-v1/j.nav.scale~",
				"patcherrelativepath" : "../../../Jamoma-v1/j.nav.scale~",
				"type" : "JSON",
				"implicit" : 1
			}
, 			{
				"name" : "j.nav.autoscale~.model.maxpat",
				"bootpath" : "~/code/Nav/Jamoma-v1/j.nav.autoscale~",
				"patcherrelativepath" : "../../../Jamoma-v1/j.nav.autoscale~",
				"type" : "JSON",
				"implicit" : 1
			}
, 			{
				"name" : "j.route~.maxpat",
				"bootpath" : "~/code/Nav/Jamoma-v1/j.route~",
				"patcherrelativepath" : "../../../Jamoma-v1/j.route~",
				"type" : "JSON",
				"implicit" : 1
			}
, 			{
				"name" : "j.nav.clip~.model.maxpat",
				"bootpath" : "~/code/Nav/Jamoma-v1/j.nav.clip~",
				"patcherrelativepath" : "../../../Jamoma-v1/j.nav.clip~",
				"type" : "JSON",
				"implicit" : 1
			}
, 			{
				"name" : "j.nav.scale~.view.maxpat",
				"bootpath" : "~/code/Nav/Jamoma-v1/j.nav.scale~",
				"patcherrelativepath" : "../../../Jamoma-v1/j.nav.scale~",
				"type" : "JSON",
				"implicit" : 1
			}
, 			{
				"name" : "cue_manager.module.maxpat",
				"bootpath" : "~/Documents/Max 7/Packages/Jamoma/patchers/models/data/cue_manager",
				"patcherrelativepath" : "../../../../../Documents/Max 7/Packages/Jamoma/patchers/models/data/cue_manager",
				"type" : "JSON",
				"implicit" : 1
			}
, 			{
				"name" : "cue_manager.model.maxpat",
				"bootpath" : "~/Documents/Max 7/Packages/Jamoma/patchers/models/data/cue_manager",
				"patcherrelativepath" : "../../../../../Documents/Max 7/Packages/Jamoma/patchers/models/data/cue_manager",
				"type" : "JSON",
				"implicit" : 1
			}
, 			{
				"name" : "cue_manager.view.maxpat",
				"bootpath" : "~/Documents/Max 7/Packages/Jamoma/patchers/models/data/cue_manager",
				"patcherrelativepath" : "../../../../../Documents/Max 7/Packages/Jamoma/patchers/models/data/cue_manager",
				"type" : "JSON",
				"implicit" : 1
			}
, 			{
				"name" : "j.datetime.maxpat",
				"bootpath" : "~/Documents/Max 7/Packages/Jamoma/patchers/components/data/datetime",
				"patcherrelativepath" : "../../../../../Documents/Max 7/Packages/Jamoma/patchers/components/data/datetime",
				"type" : "JSON",
				"implicit" : 1
			}
, 			{
				"name" : "j.namespace_selector.maxpat",
				"bootpath" : "~/Documents/Max 7/Packages/Jamoma/patchers/components/namespace/namespace_selector",
				"patcherrelativepath" : "../../../../../Documents/Max 7/Packages/Jamoma/patchers/components/namespace/namespace_selector",
				"type" : "JSON",
				"implicit" : 1
			}
, 			{
				"name" : "output~.module.maxpat",
				"bootpath" : "~/Documents/Max 7/Packages/Jamoma/patchers/models/audio/stereo/output/output",
				"patcherrelativepath" : "../../../../../Documents/Max 7/Packages/Jamoma/patchers/models/audio/stereo/output/output",
				"type" : "JSON",
				"implicit" : 1
			}
, 			{
				"name" : "output~.model.maxpat",
				"bootpath" : "~/Documents/Max 7/Packages/Jamoma/patchers/models/audio/stereo/output/output",
				"patcherrelativepath" : "../../../../../Documents/Max 7/Packages/Jamoma/patchers/models/audio/stereo/output/output",
				"type" : "JSON",
				"implicit" : 1
			}
, 			{
				"name" : "saturation~.model.maxpat",
				"bootpath" : "~/Documents/Max 7/Packages/Jamoma/patchers/models/audio/stereo/distortion/saturation",
				"patcherrelativepath" : "../../../../../Documents/Max 7/Packages/Jamoma/patchers/models/audio/stereo/distortion/saturation",
				"type" : "JSON",
				"implicit" : 1
			}
, 			{
				"name" : "limiter~.model.maxpat",
				"bootpath" : "~/Documents/Max 7/Packages/Jamoma/patchers/models/audio/stereo/dynamics/limiter",
				"patcherrelativepath" : "../../../../../Documents/Max 7/Packages/Jamoma/patchers/models/audio/stereo/dynamics/limiter",
				"type" : "JSON",
				"implicit" : 1
			}
, 			{
				"name" : "limiter.parametersAndMessages.maxpat",
				"bootpath" : "~/Documents/Max 7/Packages/Jamoma/patchers/models/audio/stereo/dynamics/limiter",
				"patcherrelativepath" : "../../../../../Documents/Max 7/Packages/Jamoma/patchers/models/audio/stereo/dynamics/limiter",
				"type" : "JSON",
				"implicit" : 1
			}
, 			{
				"name" : "balance~.model.maxpat",
				"bootpath" : "~/Documents/Max 7/Packages/Jamoma/patchers/models/audio/stereo/imaging/balance",
				"patcherrelativepath" : "../../../../../Documents/Max 7/Packages/Jamoma/patchers/models/audio/stereo/imaging/balance",
				"type" : "JSON",
				"implicit" : 1
			}
, 			{
				"name" : "record~.model.maxpat",
				"bootpath" : "~/Documents/Max 7/Packages/Jamoma/patchers/models/audio/stereo/output/record",
				"patcherrelativepath" : "../../../../../Documents/Max 7/Packages/Jamoma/patchers/models/audio/stereo/output/record",
				"type" : "JSON",
				"implicit" : 1
			}
, 			{
				"name" : "record.parametersAndMessages.maxpat",
				"bootpath" : "~/Documents/Max 7/Packages/Jamoma/patchers/models/audio/stereo/output/record",
				"patcherrelativepath" : "../../../../../Documents/Max 7/Packages/Jamoma/patchers/models/audio/stereo/output/record",
				"type" : "JSON",
				"implicit" : 1
			}
, 			{
				"name" : "output~.view.maxpat",
				"bootpath" : "~/Documents/Max 7/Packages/Jamoma/patchers/models/audio/stereo/output/output",
				"patcherrelativepath" : "../../../../../Documents/Max 7/Packages/Jamoma/patchers/models/audio/stereo/output/output",
				"type" : "JSON",
				"implicit" : 1
			}
, 			{
				"name" : "limiter~.view.maxpat",
				"bootpath" : "~/Documents/Max 7/Packages/Jamoma/patchers/models/audio/stereo/dynamics/limiter",
				"patcherrelativepath" : "../../../../../Documents/Max 7/Packages/Jamoma/patchers/models/audio/stereo/dynamics/limiter",
				"type" : "JSON",
				"implicit" : 1
			}
, 			{
				"name" : "j.initialized.maxpat",
				"bootpath" : "~/Documents/Max 7/Packages/Jamoma/patchers/components/data/initialized",
				"patcherrelativepath" : "../../../../../Documents/Max 7/Packages/Jamoma/patchers/components/data/initialized",
				"type" : "JSON",
				"implicit" : 1
			}
, 			{
				"name" : "rogs~.mxo",
				"type" : "iLaX"
			}
, 			{
				"name" : "j.parameter.mxo",
				"type" : "iLaX"
			}
, 			{
				"name" : "j.message.mxo",
				"type" : "iLaX"
			}
, 			{
				"name" : "j.model.mxo",
				"type" : "iLaX"
			}
, 			{
				"name" : "j.parameter_array.mxo",
				"type" : "iLaX"
			}
, 			{
				"name" : "j.receive.mxo",
				"type" : "iLaX"
			}
, 			{
				"name" : "j.map.mxo",
				"type" : "iLaX"
			}
, 			{
				"name" : "j.stats.mxo",
				"type" : "iLaX"
			}
, 			{
				"name" : "j.out.mxo",
				"type" : "iLaX"
			}
, 			{
				"name" : "j.pack=.mxo",
				"type" : "iLaX"
			}
, 			{
				"name" : "j.gain=.mxo",
				"type" : "iLaX"
			}
, 			{
				"name" : "j.remote.mxo",
				"type" : "iLaX"
			}
, 			{
				"name" : "j.return.mxo",
				"type" : "iLaX"
			}
, 			{
				"name" : "j.dcblock=.mxo",
				"type" : "iLaX"
			}
, 			{
				"name" : "j.unit.mxo",
				"type" : "iLaX"
			}
, 			{
				"name" : "j.out~.mxo",
				"type" : "iLaX"
			}
, 			{
				"name" : "j.ui.mxo",
				"type" : "iLaX"
			}
, 			{
				"name" : "j.send.mxo",
				"type" : "iLaX"
			}
, 			{
				"name" : "j.view.mxo",
				"type" : "iLaX"
			}
, 			{
				"name" : "j.textslider.mxo",
				"type" : "iLaX"
			}
, 			{
				"name" : "j.remote_array.mxo",
				"type" : "iLaX"
			}
, 			{
				"name" : "j.init.mxo",
				"type" : "iLaX"
			}
, 			{
				"name" : "j.in~.mxo",
				"type" : "iLaX"
			}
, 			{
				"name" : "j.oscroute.mxo",
				"type" : "iLaX"
			}
, 			{
				"name" : "j.receive~.mxo",
				"type" : "iLaX"
			}
, 			{
				"name" : "j.cue.mxo",
				"type" : "iLaX"
			}
, 			{
				"name" : "j.namespace.mxo",
				"type" : "iLaX"
			}
, 			{
				"name" : "j.unpack=.mxo",
				"type" : "iLaX"
			}
, 			{
				"name" : "spat5.spat~.mxo",
				"type" : "iLaX"
			}
, 			{
				"name" : "j.overdrive~.mxo",
				"type" : "iLaX"
			}
, 			{
				"name" : "j.limiter~.mxo",
				"type" : "iLaX"
			}
, 			{
				"name" : "j.panorama~.mxo",
				"type" : "iLaX"
			}
, 			{
				"name" : "j.savebang.mxo",
				"type" : "iLaX"
			}
 ],
		"autosave" : 0
	}

}
