{
	"patcher" : 	{
		"fileversion" : 1,
		"appversion" : 		{
			"major" : 8,
			"minor" : 0,
			"revision" : 0,
			"architecture" : "x64",
			"modernui" : 1
		}
,
		"rect" : [ 199.0, 79.0, 925.0, 750.0 ],
		"bgcolor" : [ 1.0, 1.0, 1.0, 1.0 ],
		"bglocked" : 0,
		"openinpresentation" : 0,
		"default_fontsize" : 12.0,
		"default_fontface" : 0,
		"default_fontname" : "Arial",
		"gridonopen" : 1,
		"gridsize" : [ 15.0, 15.0 ],
		"gridsnaponopen" : 1,
		"objectsnaponopen" : 1,
		"statusbarvisible" : 2,
		"toolbarvisible" : 1,
		"lefttoolbarpinned" : 0,
		"toptoolbarpinned" : 0,
		"righttoolbarpinned" : 0,
		"bottomtoolbarpinned" : 0,
		"toolbars_unpinned_last_save" : 0,
		"tallnewobj" : 0,
		"boxanimatetime" : 200,
		"enablehscroll" : 1,
		"enablevscroll" : 1,
		"devicewidth" : 0.0,
		"description" : "",
		"digest" : "",
		"tags" : "",
		"style" : "",
		"subpatcher_template" : "no_top",
		"boxes" : [ 			{
				"box" : 				{
					"fontsize" : 12.0,
					"id" : "obj-19",
					"maxclass" : "live.numbox",
					"numinlets" : 1,
					"numoutlets" : 2,
					"outlettype" : [ "", "float" ],
					"parameter_enable" : 1,
					"patching_rect" : [ 670.0, 520.0, 54.0, 18.0 ],
					"presentation_rect" : [ 670.0, 520.0, 54.0, 18.0 ],
					"saved_attribute_attributes" : 					{
						"valueof" : 						{
							"parameter_mmax" : 24.0,
							"parameter_initial" : [ 1.0 ],
							"parameter_shortname" : "live.numbox",
							"parameter_type" : 0,
							"parameter_unitstyle" : 0,
							"parameter_mmin" : -24.0,
							"parameter_longname" : "live.numbox[2]",
							"parameter_initial_enable" : 1
						}

					}
,
					"varname" : "live.numbox[2]"
				}

			}
, 			{
				"box" : 				{
					"activebgcolor" : [ 0.0, 0.0, 0.0, 1.0 ],
					"activebgoncolor" : [ 0.180392, 0.631373, 1.0, 1.0 ],
					"bgcolor" : [ 0.0, 0.0, 0.0, 1.0 ],
					"id" : "obj-13",
					"maxclass" : "live.button",
					"numinlets" : 1,
					"numoutlets" : 1,
					"outlettype" : [ "" ],
					"parameter_enable" : 1,
					"patching_rect" : [ 730.0, 520.0, 18.0, 18.0 ],
					"presentation_rect" : [ 730.0, 520.0, 18.0, 18.0 ],
					"saved_attribute_attributes" : 					{
						"valueof" : 						{
							"parameter_mmax" : 1.0,
							"parameter_shortname" : "live.button",
							"parameter_enum" : [ "off", "on" ],
							"parameter_type" : 2,
							"parameter_longname" : "live.button[5]"
						}

					}
,
					"varname" : "live.button[1]"
				}

			}
, 			{
				"box" : 				{
					"id" : "obj-12",
					"maxclass" : "newobj",
					"numinlets" : 3,
					"numoutlets" : 1,
					"outlettype" : [ "" ],
					"patching_rect" : [ 610.0, 547.0, 139.0, 22.0 ],
					"presentation_rect" : [ 610.0, 547.0, 139.0, 22.0 ],
					"style" : "",
					"text" : "eurotate_me"
				}

			}
, 			{
				"box" : 				{
					"id" : "obj-5",
					"maxclass" : "live.toggle",
					"numinlets" : 1,
					"numoutlets" : 1,
					"outlettype" : [ "" ],
					"parameter_enable" : 1,
					"patching_rect" : [ 229.0, 29.0, 23.5, 24.0 ],
					"presentation_rect" : [ 229.0, 29.0, 23.5, 24.0 ],
					"saved_attribute_attributes" : 					{
						"valueof" : 						{
							"parameter_mmax" : 1.0,
							"parameter_shortname" : "live.toggle",
							"parameter_enum" : [ "off", "on" ],
							"parameter_type" : 2,
							"parameter_longname" : "live.toggle[1]"
						}

					}
,
					"varname" : "live.toggle[1]"
				}

			}
, 			{
				"box" : 				{
					"fontsize" : 12.0,
					"id" : "obj-15",
					"maxclass" : "live.menu",
					"numinlets" : 1,
					"numoutlets" : 3,
					"outlettype" : [ "", "", "float" ],
					"parameter_enable" : 1,
					"patching_rect" : [ 334.5, 36.0, 64.0, 18.0 ],
					"presentation_rect" : [ 334.5, 36.0, 64.0, 18.0 ],
					"saved_attribute_attributes" : 					{
						"valueof" : 						{
							"parameter_initial" : [ 12.0 ],
							"parameter_shortname" : "live.menu",
							"parameter_enum" : [ "1n", "1nd", "1nt", "2n", "2nd", "2nt", "4n", "4nd", "4nt", "8n", "8nd", "8nt", "16n", "16nd", "16nt", "32n", "32nd", "32nt", "64n", "64nd", "64nt", "128n", "128nd", "128nt" ],
							"parameter_type" : 2,
							"parameter_longname" : "live.menu[3]",
							"parameter_initial_enable" : 1
						}

					}
,
					"varname" : "rate1[3]"
				}

			}
, 			{
				"box" : 				{
					"id" : "obj-20",
					"maxclass" : "comment",
					"numinlets" : 1,
					"numoutlets" : 0,
					"patching_rect" : [ 398.0, 36.0, 64.0, 20.0 ],
					"presentation_rect" : [ 398.0, 36.0, 64.0, 20.0 ],
					"style" : "",
					"text" : "note value",
					"textjustification" : 1
				}

			}
, 			{
				"box" : 				{
					"id" : "obj-21",
					"maxclass" : "newobj",
					"numinlets" : 2,
					"numoutlets" : 1,
					"outlettype" : [ "bang" ],
					"patching_rect" : [ 229.0, 63.0, 147.0, 22.0 ],
					"presentation_rect" : [ 229.0, 63.0, 147.0, 22.0 ],
					"style" : "",
					"text" : "clock_me 16n @bpm 120"
				}

			}
, 			{
				"box" : 				{
					"id" : "obj-7",
					"maxclass" : "live.text",
					"numinlets" : 1,
					"numoutlets" : 2,
					"outlettype" : [ "", "" ],
					"parameter_enable" : 1,
					"patching_rect" : [ 305.0, 134.0, 60.0, 20.0 ],
					"presentation_rect" : [ 305.0, 134.0, 60.0, 20.0 ],
					"saved_attribute_attributes" : 					{
						"valueof" : 						{
							"parameter_mmax" : 1.0,
							"parameter_initial" : [ 0.0 ],
							"parameter_shortname" : "live.text",
							"parameter_enum" : [ "val1", "val2" ],
							"parameter_type" : 2,
							"parameter_longname" : "live.text[1]",
							"parameter_initial_enable" : 1
						}

					}
,
					"text" : "counter",
					"texton" : "random",
					"varname" : "live.text[1]"
				}

			}
, 			{
				"box" : 				{
					"id" : "obj-14",
					"linecount" : 2,
					"maxclass" : "comment",
					"numinlets" : 1,
					"numoutlets" : 0,
					"patching_rect" : [ 305.0, 93.5, 65.0, 33.0 ],
					"presentation_linecount" : 2,
					"presentation_rect" : [ 305.0, 93.5, 65.0, 33.0 ],
					"style" : "",
					"text" : "set count\nor random"
				}

			}
, 			{
				"box" : 				{
					"id" : "obj-17",
					"maxclass" : "newobj",
					"numinlets" : 3,
					"numoutlets" : 1,
					"outlettype" : [ "int" ],
					"patching_rect" : [ 229.0, 161.0, 171.0, 22.0 ],
					"presentation_rect" : [ 229.0, 161.0, 171.0, 22.0 ],
					"style" : "",
					"text" : "count_for_me 24"
				}

			}
, 			{
				"box" : 				{
					"id" : "obj-25",
					"linecount" : 2,
					"maxclass" : "comment",
					"numinlets" : 1,
					"numoutlets" : 0,
					"patching_rect" : [ 381.0, 93.5, 82.0, 33.0 ],
					"presentation_linecount" : 2,
					"presentation_rect" : [ 381.0, 93.5, 82.0, 33.0 ],
					"style" : "",
					"text" : "restart the sequence"
				}

			}
, 			{
				"box" : 				{
					"activebgcolor" : [ 0.0, 0.0, 0.0, 1.0 ],
					"activebgoncolor" : [ 0.180392, 0.631373, 1.0, 1.0 ],
					"bgcolor" : [ 0.0, 0.0, 0.0, 1.0 ],
					"id" : "obj-29",
					"maxclass" : "live.button",
					"numinlets" : 1,
					"numoutlets" : 1,
					"outlettype" : [ "" ],
					"parameter_enable" : 1,
					"patching_rect" : [ 381.0, 134.0, 18.0, 18.0 ],
					"presentation_rect" : [ 381.0, 134.0, 18.0, 18.0 ],
					"saved_attribute_attributes" : 					{
						"valueof" : 						{
							"parameter_mmax" : 1.0,
							"parameter_shortname" : "live.button",
							"parameter_enum" : [ "off", "on" ],
							"parameter_type" : 2,
							"parameter_longname" : "live.button[4]"
						}

					}
,
					"varname" : "live.button[4]"
				}

			}
, 			{
				"box" : 				{
					"id" : "obj-30",
					"maxclass" : "comment",
					"numinlets" : 1,
					"numoutlets" : 0,
					"patching_rect" : [ 523.0, 107.0, 58.0, 20.0 ],
					"presentation_rect" : [ 523.0, 107.0, 58.0, 20.0 ],
					"style" : "",
					"text" : "display",
					"textjustification" : 1
				}

			}
, 			{
				"box" : 				{
					"id" : "obj-31",
					"maxclass" : "newobj",
					"numinlets" : 2,
					"numoutlets" : 1,
					"outlettype" : [ "int" ],
					"patching_rect" : [ 457.0, 132.0, 29.5, 22.0 ],
					"presentation_rect" : [ 457.0, 132.0, 29.5, 22.0 ],
					"style" : "",
					"text" : "+ 1"
				}

			}
, 			{
				"box" : 				{
					"id" : "obj-38",
					"maxclass" : "message",
					"numinlets" : 2,
					"numoutlets" : 1,
					"outlettype" : [ "" ],
					"patching_rect" : [ 456.5, 161.0, 55.0, 22.0 ],
					"presentation_rect" : [ 456.5, 161.0, 55.0, 22.0 ],
					"style" : "",
					"text" : "mode $1"
				}

			}
, 			{
				"box" : 				{
					"fontsize" : 12.0,
					"id" : "obj-39",
					"maxclass" : "live.menu",
					"numinlets" : 1,
					"numoutlets" : 3,
					"outlettype" : [ "", "", "float" ],
					"parameter_enable" : 1,
					"patching_rect" : [ 457.0, 109.5, 64.0, 18.0 ],
					"presentation_rect" : [ 457.0, 109.5, 64.0, 18.0 ],
					"saved_attribute_attributes" : 					{
						"valueof" : 						{
							"parameter_shortname" : "live.menu",
							"parameter_enum" : [ "note", "velocity", "duration" ],
							"parameter_type" : 2,
							"parameter_longname" : "live.menu[2]"
						}

					}
,
					"varname" : "rate1[2]"
				}

			}
, 			{
				"box" : 				{
					"id" : "obj-6",
					"maxclass" : "comment",
					"numinlets" : 1,
					"numoutlets" : 0,
					"patching_rect" : [ 750.0, 520.0, 56.0, 20.0 ],
					"presentation_rect" : [ 750.0, 520.0, 56.0, 20.0 ],
					"style" : "",
					"text" : "< rotate!"
				}

			}
, 			{
				"box" : 				{
					"id" : "obj-112",
					"maxclass" : "newobj",
					"numinlets" : 2,
					"numoutlets" : 1,
					"outlettype" : [ "clear" ],
					"patching_rect" : [ 272.0, 416.5, 219.0, 22.0 ],
					"presentation_rect" : [ 272.0, 416.5, 219.0, 22.0 ],
					"style" : "",
					"text" : "event_distribute @events 8 @length 24"
				}

			}
, 			{
				"box" : 				{
					"fontsize" : 12.0,
					"id" : "obj-86",
					"maxclass" : "live.numbox",
					"numinlets" : 1,
					"numoutlets" : 2,
					"outlettype" : [ "", "float" ],
					"parameter_enable" : 1,
					"patching_rect" : [ 472.0, 393.5, 54.0, 18.0 ],
					"presentation_rect" : [ 472.0, 393.5, 54.0, 18.0 ],
					"saved_attribute_attributes" : 					{
						"valueof" : 						{
							"parameter_initial" : [ 24.0 ],
							"parameter_shortname" : "live.numbox",
							"parameter_type" : 0,
							"parameter_unitstyle" : 0,
							"parameter_longname" : "live.numbox[5]",
							"parameter_initial_enable" : 1
						}

					}
,
					"varname" : "live.numbox[5]"
				}

			}
, 			{
				"box" : 				{
					"fontsize" : 12.0,
					"id" : "obj-87",
					"maxclass" : "live.numbox",
					"numinlets" : 1,
					"numoutlets" : 2,
					"outlettype" : [ "", "float" ],
					"parameter_enable" : 1,
					"patching_rect" : [ 272.0, 393.5, 54.0, 18.0 ],
					"presentation_rect" : [ 272.0, 393.5, 54.0, 18.0 ],
					"saved_attribute_attributes" : 					{
						"valueof" : 						{
							"parameter_initial" : [ 8.0 ],
							"parameter_shortname" : "live.numbox",
							"parameter_type" : 0,
							"parameter_unitstyle" : 0,
							"parameter_longname" : "live.numbox[6]",
							"parameter_initial_enable" : 1
						}

					}
,
					"varname" : "live.numbox[6]"
				}

			}
, 			{
				"box" : 				{
					"id" : "obj-36",
					"maxclass" : "newobj",
					"numinlets" : 2,
					"numoutlets" : 1,
					"outlettype" : [ "" ],
					"patching_rect" : [ 229.0, 547.0, 56.0, 22.0 ],
					"presentation_rect" : [ 229.0, 547.0, 56.0, 22.0 ],
					"style" : "",
					"text" : "play_me"
				}

			}
, 			{
				"box" : 				{
					"id" : "obj-11",
					"maxclass" : "newobj",
					"numinlets" : 1,
					"numoutlets" : 1,
					"outlettype" : [ "" ],
					"patching_rect" : [ 588.0, 130.0, 73.0, 22.0 ],
					"presentation_rect" : [ 588.0, 130.0, 73.0, 22.0 ],
					"style" : "",
					"text" : "setup_1_24"
				}

			}
, 			{
				"box" : 				{
					"id" : "obj-9",
					"maxclass" : "newobj",
					"numinlets" : 1,
					"numoutlets" : 1,
					"outlettype" : [ "bang" ],
					"patching_rect" : [ 588.0, 105.0, 60.0, 22.0 ],
					"presentation_rect" : [ 588.0, 105.0, 60.0, 22.0 ],
					"style" : "",
					"text" : "loadbang"
				}

			}
, 			{
				"box" : 				{
					"id" : "obj-28",
					"maxclass" : "newobj",
					"numinlets" : 1,
					"numoutlets" : 1,
					"outlettype" : [ "" ],
					"patching_rect" : [ 272.0, 491.0, 65.0, 22.0 ],
					"presentation_rect" : [ 272.0, 491.0, 65.0, 22.0 ],
					"style" : "",
					"text" : "watch_me"
				}

			}
, 			{
				"box" : 				{
					"bgcolor" : [ 1.0, 1.0, 1.0, 1.0 ],
					"color" : [ 0.180392, 0.631373, 1.0, 1.0 ],
					"columns" : 24,
					"elementcolor" : [ 0.875, 0.875, 0.875, 1.0 ],
					"horizontalmargin" : 0,
					"id" : "obj-34",
					"maxclass" : "matrixctrl",
					"numinlets" : 1,
					"numoutlets" : 2,
					"outlettype" : [ "list", "list" ],
					"parameter_enable" : 1,
					"patching_rect" : [ 272.0, 464.0, 357.0, 18.0 ],
					"presentation_rect" : [ 272.0, 464.0, 357.0, 18.0 ],
					"rows" : 1,
					"saved_attribute_attributes" : 					{
						"valueof" : 						{
							"parameter_initial" : [ 0, 0, 1, 1, 0, 1, 2, 0, 1, 3, 0, 1, 4, 0, 1, 5, 0, 1, 6, 0, 1, 7, 0, 1, 8, 0, 1, 9, 0, 1, 10, 0, 1, 11, 0, 1, 12, 0, 1, 13, 0, 1, 14, 0, 1, 15, 0, 1 ],
							"parameter_shortname" : "matrixctrl",
							"parameter_type" : 3,
							"parameter_longname" : "matrixctrl",
							"parameter_initial_enable" : 1,
							"parameter_invisible" : 1
						}

					}
,
					"style" : "",
					"varname" : "matrixctrl"
				}

			}
, 			{
				"box" : 				{
					"id" : "obj-18",
					"maxclass" : "comment",
					"numinlets" : 1,
					"numoutlets" : 0,
					"patching_rect" : [ 398.0, 547.0, 62.0, 20.0 ],
					"presentation_rect" : [ 398.0, 547.0, 62.0, 20.0 ],
					"style" : "",
					"text" : "transpose",
					"textjustification" : 1
				}

			}
, 			{
				"box" : 				{
					"fontsize" : 12.0,
					"id" : "obj-43",
					"maxclass" : "live.numbox",
					"numinlets" : 1,
					"numoutlets" : 2,
					"outlettype" : [ "", "float" ],
					"parameter_enable" : 1,
					"patching_rect" : [ 360.0, 547.0, 37.0, 18.0 ],
					"presentation_rect" : [ 360.0, 547.0, 37.0, 18.0 ],
					"saved_attribute_attributes" : 					{
						"valueof" : 						{
							"parameter_mmax" : 24.0,
							"parameter_initial" : [ 0.0 ],
							"parameter_shortname" : "live.numbox",
							"parameter_type" : 0,
							"parameter_unitstyle" : 0,
							"parameter_mmin" : -24.0,
							"parameter_longname" : "live.numbox[1]",
							"parameter_initial_enable" : 1
						}

					}
,
					"varname" : "live.numbox[1]"
				}

			}
, 			{
				"box" : 				{
					"id" : "obj-32",
					"maxclass" : "newobj",
					"numinlets" : 2,
					"numoutlets" : 2,
					"outlettype" : [ "float", "float" ],
					"patching_rect" : [ 229.0, 579.0, 150.0, 22.0 ],
					"presentation_rect" : [ 229.0, 579.0, 150.0, 22.0 ],
					"style" : "",
					"text" : "transpose_me 0"
				}

			}
, 			{
				"box" : 				{
					"id" : "obj-16",
					"maxclass" : "newobj",
					"numinlets" : 3,
					"numoutlets" : 0,
					"patching_rect" : [ 229.0, 635.0, 51.0, 22.0 ],
					"presentation_rect" : [ 229.0, 635.0, 51.0, 22.0 ],
					"style" : "",
					"text" : "noteout"
				}

			}
, 			{
				"box" : 				{
					"extra1_active" : 0,
					"extra2_active" : 0,
					"fontface" : 0,
					"fontname" : "Arial",
					"id" : "obj-8",
					"loopruler" : 0,
					"maxclass" : "live.step",
					"mode" : 1,
					"numinlets" : 1,
					"numoutlets" : 5,
					"outlettype" : [ "", "", "", "", "" ],
					"parameter_enable" : 1,
					"patching_rect" : [ 229.0, 209.5, 400.0, 170.0 ],
					"presentation_rect" : [ 229.0, 209.5, 400.0, 170.0 ],
					"saved_attribute_attributes" : 					{
						"valueof" : 						{
							"parameter_mmax" : 1.0,
							"parameter_initial" : [ 1.0 ],
							"parameter_shortname" : "live.step",
							"parameter_enum" : [ "off", "on" ],
							"parameter_type" : 2,
							"parameter_longname" : "live.step",
							"parameter_initial_enable" : 1
						}

					}
,
					"usestepcolor2" : 0,
					"varname" : "live.step"
				}

			}
 ],
		"lines" : [ 			{
				"patchline" : 				{
					"destination" : [ "obj-8", 0 ],
					"midpoints" : [ 597.5, 195.0, 238.5, 195.0 ],
					"source" : [ "obj-11", 0 ]
				}

			}
, 			{
				"patchline" : 				{
					"destination" : [ "obj-34", 0 ],
					"source" : [ "obj-112", 0 ]
				}

			}
, 			{
				"patchline" : 				{
					"destination" : [ "obj-34", 0 ],
					"midpoints" : [ 619.5, 589.0, 822.5, 589.0, 822.5, 450.0, 281.5, 450.0 ],
					"source" : [ "obj-12", 0 ]
				}

			}
, 			{
				"patchline" : 				{
					"destination" : [ "obj-12", 2 ],
					"source" : [ "obj-13", 0 ]
				}

			}
, 			{
				"patchline" : 				{
					"destination" : [ "obj-21", 1 ],
					"source" : [ "obj-15", 1 ]
				}

			}
, 			{
				"patchline" : 				{
					"destination" : [ "obj-8", 0 ],
					"source" : [ "obj-17", 0 ]
				}

			}
, 			{
				"patchline" : 				{
					"destination" : [ "obj-12", 1 ],
					"source" : [ "obj-19", 0 ]
				}

			}
, 			{
				"patchline" : 				{
					"destination" : [ "obj-17", 0 ],
					"source" : [ "obj-21", 0 ]
				}

			}
, 			{
				"patchline" : 				{
					"destination" : [ "obj-34", 0 ],
					"midpoints" : [ 281.5, 525.0, 255.5, 525.0, 255.5, 449.0, 281.5, 449.0 ],
					"source" : [ "obj-28", 0 ]
				}

			}
, 			{
				"patchline" : 				{
					"destination" : [ "obj-17", 2 ],
					"source" : [ "obj-29", 0 ]
				}

			}
, 			{
				"patchline" : 				{
					"destination" : [ "obj-38", 0 ],
					"source" : [ "obj-31", 0 ]
				}

			}
, 			{
				"patchline" : 				{
					"destination" : [ "obj-16", 1 ],
					"midpoints" : [ 369.5, 615.5, 254.5, 615.5 ],
					"source" : [ "obj-32", 1 ]
				}

			}
, 			{
				"patchline" : 				{
					"destination" : [ "obj-16", 0 ],
					"source" : [ "obj-32", 0 ]
				}

			}
, 			{
				"patchline" : 				{
					"destination" : [ "obj-12", 0 ],
					"order" : 0,
					"source" : [ "obj-34", 1 ]
				}

			}
, 			{
				"patchline" : 				{
					"destination" : [ "obj-28", 0 ],
					"source" : [ "obj-34", 0 ]
				}

			}
, 			{
				"patchline" : 				{
					"destination" : [ "obj-36", 1 ],
					"midpoints" : [ 619.5, 531.0, 275.5, 531.0 ],
					"order" : 1,
					"source" : [ "obj-34", 1 ]
				}

			}
, 			{
				"patchline" : 				{
					"destination" : [ "obj-32", 0 ],
					"source" : [ "obj-36", 0 ]
				}

			}
, 			{
				"patchline" : 				{
					"destination" : [ "obj-8", 0 ],
					"midpoints" : [ 466.0, 195.75, 238.5, 195.75 ],
					"source" : [ "obj-38", 0 ]
				}

			}
, 			{
				"patchline" : 				{
					"destination" : [ "obj-31", 0 ],
					"source" : [ "obj-39", 0 ]
				}

			}
, 			{
				"patchline" : 				{
					"destination" : [ "obj-32", 1 ],
					"source" : [ "obj-43", 0 ]
				}

			}
, 			{
				"patchline" : 				{
					"destination" : [ "obj-21", 0 ],
					"source" : [ "obj-5", 0 ]
				}

			}
, 			{
				"patchline" : 				{
					"destination" : [ "obj-17", 1 ],
					"source" : [ "obj-7", 0 ]
				}

			}
, 			{
				"patchline" : 				{
					"destination" : [ "obj-36", 0 ],
					"source" : [ "obj-8", 0 ]
				}

			}
, 			{
				"patchline" : 				{
					"destination" : [ "obj-112", 1 ],
					"source" : [ "obj-86", 0 ]
				}

			}
, 			{
				"patchline" : 				{
					"destination" : [ "obj-112", 0 ],
					"source" : [ "obj-87", 0 ]
				}

			}
, 			{
				"patchline" : 				{
					"destination" : [ "obj-11", 0 ],
					"source" : [ "obj-9", 0 ]
				}

			}
 ],
		"parameters" : 		{
			"obj-7" : [ "live.text[1]", "live.text", 0 ],
			"obj-15" : [ "live.menu[3]", "live.menu", 0 ],
			"obj-13" : [ "live.button[5]", "live.button", 0 ],
			"obj-86" : [ "live.numbox[5]", "live.numbox", 0 ],
			"obj-19" : [ "live.numbox[2]", "live.numbox", 0 ],
			"obj-5" : [ "live.toggle[1]", "live.toggle", 0 ],
			"obj-34" : [ "matrixctrl", "matrixctrl", 0 ],
			"obj-39" : [ "live.menu[2]", "live.menu", 0 ],
			"obj-29" : [ "live.button[4]", "live.button", 0 ],
			"obj-8" : [ "live.step", "live.step", 0 ],
			"obj-43" : [ "live.numbox[1]", "live.numbox", 0 ],
			"obj-87" : [ "live.numbox[6]", "live.numbox", 0 ],
			"parameterbanks" : 			{

			}

		}
,
		"dependency_cache" : [ 			{
				"name" : "09_euclidean_6.maxsnap",
				"bootpath" : "~/Documents/Max/Max 8/Snapshots",
				"patcherrelativepath" : "../../../Documents/Max/Max 8/Snapshots",
				"type" : "mx@s",
				"implicit" : 1
			}
, 			{
				"name" : "transpose_me.maxpat",
				"bootpath" : "~/Desktop/StepbyStep_Patches/08_To_Play_Or_Not_Play_2",
				"patcherrelativepath" : ".",
				"type" : "JSON",
				"implicit" : 1
			}
, 			{
				"name" : "watch_me.maxpat",
				"bootpath" : "~/Desktop/StepbyStep_Patches/08_To_Play_Or_Not_Play_2",
				"patcherrelativepath" : ".",
				"type" : "JSON",
				"implicit" : 1
			}
, 			{
				"name" : "setup_1_24.maxpat",
				"bootpath" : "~/Desktop/StepbyStep_Patches/08_To_Play_Or_Not_Play_2",
				"patcherrelativepath" : ".",
				"type" : "JSON",
				"implicit" : 1
			}
, 			{
				"name" : "play_me.maxpat",
				"bootpath" : "~/Desktop/StepbyStep_Patches/08_To_Play_Or_Not_Play_2",
				"patcherrelativepath" : ".",
				"type" : "JSON",
				"implicit" : 1
			}
, 			{
				"name" : "event_distribute.maxpat",
				"bootpath" : "~/Desktop/StepbyStep_Patches/08_To_Play_Or_Not_Play_2",
				"patcherrelativepath" : ".",
				"type" : "JSON",
				"implicit" : 1
			}
, 			{
				"name" : "count_for_me.maxpat",
				"bootpath" : "~/Desktop/StepbyStep_Patches/08_To_Play_Or_Not_Play_2",
				"patcherrelativepath" : ".",
				"type" : "JSON",
				"implicit" : 1
			}
, 			{
				"name" : "clock_me.maxpat",
				"bootpath" : "~/Desktop/StepbyStep_Patches/08_To_Play_Or_Not_Play_2",
				"patcherrelativepath" : ".",
				"type" : "JSON",
				"implicit" : 1
			}
, 			{
				"name" : "eurotate_me.maxpat",
				"bootpath" : "~/Desktop/StepbyStep_Patches/08_To_Play_Or_Not_Play_2",
				"patcherrelativepath" : ".",
				"type" : "JSON",
				"implicit" : 1
			}
 ],
		"autosave" : 0,
		"snapshot" : 		{
			"filetype" : "C74Snapshot",
			"version" : 2,
			"minorversion" : 0,
			"name" : "snapshotlist",
			"origin" : "jpatcher",
			"type" : "list",
			"subtype" : "Undefined",
			"embed" : 1,
			"snapshot" : 			{
				"valuedictionary" : 				{
					"parameter_values" : 					{
						"live.button[1]" : 0.0,
						"live.button[3]" : 0.0,
						"live.menu[1]" : 15.0,
						"live.numbox[1]" : 0.0,
						"live.numbox[5]" : 24.0,
						"live.numbox[6]" : 8.0,
						"live.numbox[9]" : 1.0,
						"live.step" : 1.0,
						"live.toggle" : 0.0,
						"blob" : 						{
							"matrixctrl" : [ 0, 0, 1, 3, 0, 1, 6, 0, 1, 9, 0, 1, 12, 0, 1, 15, 0, 1, 18, 0, 1, 21, 0, 1 ]
						}

					}

				}

			}
,
			"snapshotlist" : 			{
				"current_snapshot" : 0,
				"entries" : [ 					{
						"filetype" : "C74Snapshot",
						"version" : 2,
						"minorversion" : 0,
						"name" : "09_euclidean_6",
						"origin" : "09_euclidean_6",
						"type" : "patcher",
						"subtype" : "Undefined",
						"embed" : 1,
						"snapshot" : 						{
							"valuedictionary" : 							{
								"parameter_values" : 								{
									"live.button[1]" : 0.0,
									"live.button[3]" : 0.0,
									"live.menu[1]" : 15.0,
									"live.numbox[1]" : 0.0,
									"live.numbox[5]" : 24.0,
									"live.numbox[6]" : 8.0,
									"live.numbox[9]" : 1.0,
									"live.step" : 1.0,
									"live.toggle" : 0.0,
									"blob" : 									{
										"matrixctrl" : [ 0, 0, 1, 3, 0, 1, 6, 0, 1, 9, 0, 1, 12, 0, 1, 15, 0, 1, 18, 0, 1, 21, 0, 1 ]
									}

								}

							}

						}
,
						"fileref" : 						{
							"name" : "09_euclidean_6",
							"filename" : "09_euclidean_6.maxsnap",
							"filepath" : "~/Documents/Max/Max 8/Snapshots",
							"filepos" : -1,
							"snapshotfileid" : "f43124ad088d29351a04576308314ce6"
						}

					}
 ]
			}

		}
,
		"bgfillcolor_type" : "gradient",
		"bgfillcolor_color1" : [ 0.376471, 0.384314, 0.4, 1.0 ],
		"bgfillcolor_color2" : [ 0.290196, 0.309804, 0.301961, 1.0 ],
		"bgfillcolor_color" : [ 0.290196, 0.309804, 0.301961, 1.0 ],
		"bgfillcolor_angle" : 270.0,
		"bgfillcolor_proportion" : 0.39
	}

}
