{
	"patcher" : 	{
		"fileversion" : 1,
		"appversion" : 		{
			"major" : 8,
			"minor" : 5,
			"revision" : 2,
			"architecture" : "x64",
			"modernui" : 1
		}
,
		"classnamespace" : "box",
		"rect" : [ 1579.0, 38.0, 1372.0, 727.0 ],
		"bglocked" : 0,
		"openinpresentation" : 1,
		"default_fontsize" : 12.0,
		"default_fontface" : 0,
		"default_fontname" : "Arial",
		"gridonopen" : 2,
		"gridsize" : [ 15.0, 15.0 ],
		"gridsnaponopen" : 2,
		"objectsnaponopen" : 0,
		"statusbarvisible" : 2,
		"toolbarvisible" : 1,
		"lefttoolbarpinned" : 0,
		"toptoolbarpinned" : 0,
		"righttoolbarpinned" : 0,
		"bottomtoolbarpinned" : 0,
		"toolbars_unpinned_last_save" : 0,
		"tallnewobj" : 0,
		"boxanimatetime" : 200,
		"enablehscroll" : 1,
		"enablevscroll" : 1,
		"devicewidth" : 0.0,
		"description" : "",
		"digest" : "",
		"tags" : "",
		"style" : "",
		"subpatcher_template" : "evan_template",
		"assistshowspatchername" : 0,
		"boxes" : [ 			{
				"box" : 				{
					"fontname" : "Arial",
					"fontsize" : 9.0,
					"hidden" : 1,
					"id" : "obj-3",
					"maxclass" : "comment",
					"numinlets" : 1,
					"numoutlets" : 0,
					"patching_rect" : [ 285.0, 990.0, 33.0, 17.0 ],
					"presentation" : 1,
					"presentation_rect" : [ 0.0, 450.0, 30.0, 17.0 ],
					"text" : "fold",
					"varname" : "var4[1]"
				}

			}
, 			{
				"box" : 				{
					"activebgoncolor" : [ 1.0, 0.345098039215686, 0.298039215686275, 1.0 ],
					"automation" : "Hz",
					"automationon" : "Lock",
					"fontface" : 1,
					"id" : "obj-68",
					"maxclass" : "live.text",
					"numinlets" : 1,
					"numoutlets" : 2,
					"outlettype" : [ "", "" ],
					"parameter_enable" : 1,
					"patching_rect" : [ 240.0, 885.0, 36.0, 15.0 ],
					"presentation" : 1,
					"presentation_rect" : [ 1.0, 528.0, 36.0, 17.0 ],
					"saved_attribute_attributes" : 					{
						"activebgoncolor" : 						{
							"expression" : "themecolor.live_active_automation"
						}
,
						"valueof" : 						{
							"parameter_enum" : [ "Hz", "Lock" ],
							"parameter_longname" : "live.text[22]",
							"parameter_mmax" : 1,
							"parameter_shortname" : "live.text",
							"parameter_type" : 2
						}

					}
,
					"text" : "Hz",
					"texton" : "Lock",
					"varname" : "live.text"
				}

			}
, 			{
				"box" : 				{
					"fontname" : "Verdana",
					"fontsize" : 12.0,
					"id" : "obj-67",
					"maxclass" : "newobj",
					"numinlets" : 1,
					"numoutlets" : 3,
					"outlettype" : [ "", "", "" ],
					"patching_rect" : [ 240.0, 915.0, 163.0, 23.0 ],
					"text" : "ossia.remote phaserMode",
					"varname" : "rate/max[12]"
				}

			}
, 			{
				"box" : 				{
					"fontname" : "Arial",
					"fontsize" : 13.0,
					"id" : "obj-62",
					"maxclass" : "newobj",
					"numinlets" : 1,
					"numoutlets" : 3,
					"outlettype" : [ "", "", "" ],
					"patching_rect" : [ 585.0, 705.0, 169.0, 23.0 ],
					"text" : "ossia.remote rateNoteValue",
					"varname" : "rate/min[1]"
				}

			}
, 			{
				"box" : 				{
					"id" : "obj-44",
					"maxclass" : "comment",
					"numinlets" : 1,
					"numoutlets" : 0,
					"patching_rect" : [ 630.0, 795.0, 74.0, 20.0 ],
					"text" : "filter out INF"
				}

			}
, 			{
				"box" : 				{
					"id" : "obj-27",
					"maxclass" : "newobj",
					"numinlets" : 3,
					"numoutlets" : 2,
					"outlettype" : [ "float", "float" ],
					"patching_rect" : [ 555.0, 795.0, 63.0, 22.0 ],
					"text" : "split 1000."
				}

			}
, 			{
				"box" : 				{
					"fontname" : "Arial",
					"fontsize" : 12.0,
					"id" : "obj-46",
					"maxclass" : "newobj",
					"numinlets" : 1,
					"numoutlets" : 1,
					"outlettype" : [ "" ],
					"patching_rect" : [ 555.0, 886.0, 132.0, 22.0 ],
					"text" : "translate hz notevalues"
				}

			}
, 			{
				"box" : 				{
					"id" : "obj-48",
					"maxclass" : "newobj",
					"numinlets" : 1,
					"numoutlets" : 1,
					"outlettype" : [ "" ],
					"patching_rect" : [ 555.0, 915.0, 72.0, 22.0 ],
					"text" : "prepend set"
				}

			}
, 			{
				"box" : 				{
					"fontname" : "Arial",
					"fontsize" : 12.0,
					"id" : "obj-33",
					"maxclass" : "newobj",
					"numinlets" : 1,
					"numoutlets" : 1,
					"outlettype" : [ "" ],
					"patching_rect" : [ 555.0, 765.0, 134.0, 22.0 ],
					"text" : "translate notevalues hz"
				}

			}
, 			{
				"box" : 				{
					"align" : 1,
					"allowdrag" : 0,
					"arrow" : 0,
					"bgfillcolor_angle" : 270.0,
					"bgfillcolor_autogradient" : 0.0,
					"bgfillcolor_color" : [ 0.815686274509804, 0.815686274509804, 0.815686274509804, 0.37 ],
					"bgfillcolor_color1" : [ 0.815686274509804, 0.815686274509804, 0.815686274509804, 0.37 ],
					"bgfillcolor_color2" : [ 0.2, 0.2, 0.2, 1.0 ],
					"bgfillcolor_proportion" : 0.5,
					"bgfillcolor_type" : "gradient",
					"fontname" : "Arial Bold",
					"hint" : "notevalue select",
					"id" : "obj-50",
					"items" : [ "1n", ",", "1nd", ",", "1nt", ",", "2n", ",", "2nd", ",", "2nt", ",", "4n", ",", "4nd", ",", "4nt", ",", "8n", ",", "8nd", ",", "8nt", ",", "16n", ",", "16nd", ",", "16nt", ",", "32n", ",", "32nd", ",", "32nt", ",", "64n", ",", "64nd", ",", "64nt", ",", "128n", ",", "128nd", ",", "128nt" ],
					"maxclass" : "umenu",
					"numinlets" : 1,
					"numoutlets" : 3,
					"outlettype" : [ "int", "", "" ],
					"parameter_enable" : 0,
					"patching_rect" : [ 555.0, 660.0, 40.0, 22.0 ],
					"presentation" : 1,
					"presentation_rect" : [ 0.0, 495.0, 40.0, 22.0 ],
					"textcolor" : [ 0.0, 0.0, 0.0, 1.0 ],
					"textjustification" : 1,
					"varname" : "#1_notevalue_rate[1]"
				}

			}
, 			{
				"box" : 				{
					"bgcolor" : [ 0.227450980392157, 0.219607843137255, 0.211764705882353, 0.101960784313725 ],
					"fontface" : 1,
					"fontname" : "Arial",
					"fontsize" : 9.0,
					"format" : 6,
					"id" : "obj-21",
					"maxclass" : "flonum",
					"numinlets" : 1,
					"numoutlets" : 2,
					"outlettype" : [ "", "bang" ],
					"parameter_enable" : 0,
					"patching_rect" : [ 240.0, 795.0, 48.0, 19.0 ],
					"presentation" : 1,
					"presentation_rect" : [ 30.0, 390.0, 41.0, 19.0 ],
					"textcolor" : [ 0.0, 0.0, 0.0, 1.0 ],
					"triangle" : 0,
					"triscale" : 0.9,
					"varname" : "var1"
				}

			}
, 			{
				"box" : 				{
					"fontname" : "Arial",
					"fontsize" : 9.0,
					"id" : "obj-22",
					"maxclass" : "comment",
					"numinlets" : 1,
					"numoutlets" : 0,
					"patching_rect" : [ 300.0, 795.0, 44.0, 17.0 ],
					"presentation" : 1,
					"presentation_rect" : [ 0.0, 390.0, 26.0, 17.0 ],
					"text" : "duty",
					"varname" : "var2"
				}

			}
, 			{
				"box" : 				{
					"fontname" : "Verdana",
					"fontsize" : 12.0,
					"id" : "obj-1",
					"maxclass" : "newobj",
					"numinlets" : 1,
					"numoutlets" : 3,
					"outlettype" : [ "", "", "" ],
					"patching_rect" : [ 240.0, 825.0, 149.0, 23.0 ],
					"text" : "ossia.remote dutyCycle",
					"varname" : "rate/max[2]"
				}

			}
, 			{
				"box" : 				{
					"fontname" : "Arial",
					"fontsize" : 9.0,
					"hidden" : 1,
					"id" : "obj-17",
					"maxclass" : "comment",
					"numinlets" : 1,
					"numoutlets" : 0,
					"patching_rect" : [ 300.0, 1065.0, 33.0, 17.0 ],
					"presentation" : 1,
					"presentation_rect" : [ -1.0, 417.0, 33.0, 17.0 ],
					"text" : "shape",
					"varname" : "var4"
				}

			}
, 			{
				"box" : 				{
					"fontname" : "Arial",
					"fontsize" : 13.0,
					"id" : "obj-2",
					"maxclass" : "newobj",
					"numinlets" : 1,
					"numoutlets" : 3,
					"outlettype" : [ "", "", "" ],
					"patching_rect" : [ 255.0, 1095.0, 122.0, 23.0 ],
					"text" : "ossia.remote shape",
					"varname" : "rate/min[8]"
				}

			}
, 			{
				"box" : 				{
					"bgcolor" : [ 0.2, 0.2, 0.2, 0.62 ],
					"fontsize" : 9.0,
					"hidden" : 1,
					"id" : "obj-12",
					"maxclass" : "number",
					"maximum" : 100,
					"minimum" : 0,
					"numinlets" : 1,
					"numoutlets" : 2,
					"outlettype" : [ "", "bang" ],
					"parameter_enable" : 0,
					"patching_rect" : [ 255.0, 1065.0, 30.0, 19.0 ],
					"presentation" : 1,
					"presentation_rect" : [ 30.0, 420.0, 30.0, 19.0 ],
					"triangle" : 0,
					"varname" : "var3"
				}

			}
, 			{
				"box" : 				{
					"fontname" : "Arial",
					"fontsize" : 13.0,
					"id" : "obj-18",
					"maxclass" : "newobj",
					"numinlets" : 1,
					"numoutlets" : 3,
					"outlettype" : [ "", "", "" ],
					"patching_rect" : [ 255.0, 1020.0, 107.0, 23.0 ],
					"text" : "ossia.remote fold",
					"varname" : "rate/min[7]"
				}

			}
, 			{
				"box" : 				{
					"bgcolor" : [ 0.2, 0.2, 0.2, 0.62 ],
					"fontsize" : 9.0,
					"id" : "obj-6",
					"maxclass" : "number",
					"maximum" : 100,
					"minimum" : 0,
					"numinlets" : 1,
					"numoutlets" : 2,
					"outlettype" : [ "", "bang" ],
					"parameter_enable" : 0,
					"patching_rect" : [ 255.0, 990.0, 30.0, 19.0 ],
					"presentation" : 1,
					"presentation_rect" : [ 30.0, 450.0, 30.0, 19.0 ],
					"triangle" : 0
				}

			}
, 			{
				"box" : 				{
					"bgcolor" : [ 0.227450980392157, 0.219607843137255, 0.211764705882353, 0.101960784313725 ],
					"fontface" : 1,
					"fontname" : "Arial",
					"fontsize" : 9.0,
					"format" : 6,
					"id" : "obj-37",
					"maxclass" : "flonum",
					"numinlets" : 1,
					"numoutlets" : 2,
					"outlettype" : [ "", "bang" ],
					"parameter_enable" : 0,
					"patching_rect" : [ 555.0, 840.0, 48.0, 19.0 ],
					"presentation" : 1,
					"presentation_rect" : [ 30.0, 465.0, 41.0, 19.0 ],
					"textcolor" : [ 0.0, 0.0, 0.0, 1.0 ],
					"triangle" : 0,
					"triscale" : 0.9,
					"varname" : "RTmin[6]"
				}

			}
, 			{
				"box" : 				{
					"fontname" : "Arial",
					"fontsize" : 13.0,
					"id" : "obj-38",
					"maxclass" : "newobj",
					"numinlets" : 1,
					"numoutlets" : 3,
					"outlettype" : [ "", "", "" ],
					"patching_rect" : [ 630.0, 840.0, 109.0, 23.0 ],
					"text" : "ossia.remote rate",
					"varname" : "rate/min[6]"
				}

			}
, 			{
				"box" : 				{
					"fontname" : "Arial",
					"fontsize" : 9.0,
					"id" : "obj-8",
					"maxclass" : "comment",
					"numinlets" : 1,
					"numoutlets" : 0,
					"patching_rect" : [ 750.0, 840.0, 33.0, 17.0 ],
					"presentation" : 1,
					"presentation_rect" : [ 0.0, 465.0, 28.0, 17.0 ],
					"text" : "rate"
				}

			}
, 			{
				"box" : 				{
					"bgcolor" : [ 0.545098039215686, 0.388235294117647, 0.611764705882353, 0.23921568627451 ],
					"fontface" : 1,
					"fontname" : "Arial",
					"fontsize" : 9.0,
					"format" : 6,
					"hidden" : 1,
					"id" : "obj-1363",
					"maxclass" : "flonum",
					"maximum" : 1.0,
					"minimum" : 0.0,
					"numinlets" : 1,
					"numoutlets" : 2,
					"outlettype" : [ "", "bang" ],
					"parameter_enable" : 1,
					"patching_rect" : [ 45.0, 330.0, 64.0, 19.0 ],
					"presentation" : 1,
					"presentation_rect" : [ 0.0, 39.0, 40.0, 19.0 ],
					"saved_attribute_attributes" : 					{
						"valueof" : 						{
							"parameter_invisible" : 1,
							"parameter_longname" : "RTmin[58]",
							"parameter_mmax" : 1.0,
							"parameter_shortname" : "RTmin[10]",
							"parameter_type" : 3
						}

					}
,
					"textcolor" : [ 0.0, 0.0, 0.0, 1.0 ],
					"triangle" : 0,
					"triscale" : 0.9,
					"varname" : "RTmin[90]"
				}

			}
, 			{
				"box" : 				{
					"fontname" : "Arial",
					"fontsize" : 13.0,
					"id" : "obj-1364",
					"linecount" : 2,
					"maxclass" : "newobj",
					"numinlets" : 1,
					"numoutlets" : 3,
					"outlettype" : [ "", "", "" ],
					"patching_rect" : [ 45.0, 360.0, 144.0, 38.0 ],
					"text" : "ossia.remote #1/lfo1/phase",
					"varname" : "rate/min[81]"
				}

			}
, 			{
				"box" : 				{
					"bgcolor" : [ 0.545098039215686, 0.388235294117647, 0.611764705882353, 0.24 ],
					"fontface" : 1,
					"fontname" : "Arial",
					"fontsize" : 9.0,
					"format" : 6,
					"hidden" : 1,
					"id" : "obj-1345",
					"maxclass" : "flonum",
					"maximum" : 1.0,
					"minimum" : 0.0,
					"numinlets" : 1,
					"numoutlets" : 2,
					"outlettype" : [ "", "bang" ],
					"parameter_enable" : 1,
					"patching_rect" : [ 255.0, 345.0, 52.0, 19.0 ],
					"presentation" : 1,
					"presentation_rect" : [ 14.0, 103.0, 40.0, 19.0 ],
					"saved_attribute_attributes" : 					{
						"valueof" : 						{
							"parameter_invisible" : 1,
							"parameter_longname" : "RTmin[56]",
							"parameter_mmax" : 1.0,
							"parameter_shortname" : "RTmin[10]",
							"parameter_type" : 3
						}

					}
,
					"textcolor" : [ 0.0, 0.0, 0.0, 1.0 ],
					"triangle" : 0,
					"triscale" : 0.9,
					"varname" : "RTmin[81]"
				}

			}
, 			{
				"box" : 				{
					"fontname" : "Arial",
					"fontsize" : 13.0,
					"id" : "obj-1346",
					"linecount" : 2,
					"maxclass" : "newobj",
					"numinlets" : 1,
					"numoutlets" : 3,
					"outlettype" : [ "", "", "" ],
					"patching_rect" : [ 255.0, 375.0, 144.0, 38.0 ],
					"text" : "ossia.remote #1/lfo2/phase",
					"varname" : "rate/min[72]"
				}

			}
, 			{
				"box" : 				{
					"fontface" : 1,
					"fontsize" : 16.0,
					"id" : "obj-1285",
					"maxclass" : "comment",
					"numinlets" : 1,
					"numoutlets" : 0,
					"patching_rect" : [ 1290.0, 15.0, 80.0, 24.0 ],
					"text" : "Meters"
				}

			}
, 			{
				"box" : 				{
					"fontface" : 1,
					"fontsize" : 16.0,
					"id" : "obj-1284",
					"maxclass" : "comment",
					"numinlets" : 1,
					"numoutlets" : 0,
					"patching_rect" : [ 870.0, 15.0, 80.0, 24.0 ],
					"text" : "Faders"
				}

			}
, 			{
				"box" : 				{
					"fontface" : 1,
					"fontsize" : 16.0,
					"id" : "obj-1283",
					"maxclass" : "comment",
					"numinlets" : 1,
					"numoutlets" : 0,
					"patching_rect" : [ 630.0, 15.0, 80.0, 24.0 ],
					"text" : "Random"
				}

			}
, 			{
				"box" : 				{
					"fontface" : 1,
					"fontsize" : 16.0,
					"id" : "obj-1282",
					"maxclass" : "comment",
					"numinlets" : 1,
					"numoutlets" : 0,
					"patching_rect" : [ 15.0, 15.0, 80.0, 24.0 ],
					"text" : "LFOs"
				}

			}
, 			{
				"box" : 				{
					"id" : "obj-1264",
					"linecount" : 2,
					"maxclass" : "newobj",
					"numinlets" : 1,
					"numoutlets" : 3,
					"outlettype" : [ "", "", "" ],
					"patching_rect" : [ 1290.0, 300.0, 106.0, 35.0 ],
					"text" : "ossia.remote #1/value"
				}

			}
, 			{
				"box" : 				{
					"id" : "obj-1258",
					"maxclass" : "newobj",
					"numinlets" : 2,
					"numoutlets" : 1,
					"outlettype" : [ "" ],
					"patching_rect" : [ 1290.0, 345.0, 73.0, 22.0 ],
					"text" : "speedlim 30"
				}

			}
, 			{
				"box" : 				{
					"id" : "obj-1204",
					"maxclass" : "newobj",
					"numinlets" : 1,
					"numoutlets" : 1,
					"outlettype" : [ "" ],
					"patching_rect" : [ 1290.0, 75.0, 72.0, 22.0 ],
					"text" : "prepend set"
				}

			}
, 			{
				"box" : 				{
					"id" : "obj-1202",
					"maxclass" : "newobj",
					"numinlets" : 2,
					"numoutlets" : 1,
					"outlettype" : [ "int" ],
					"patching_rect" : [ 1290.0, 45.0, 29.5, 22.0 ],
					"text" : "- 1"
				}

			}
, 			{
				"box" : 				{
					"bgcolor" : [ 0.227450980392157, 0.219607843137255, 0.211764705882353, 0.250980392156863 ],
					"fontsize" : 9.0,
					"hidden" : 1,
					"id" : "obj-1151",
					"maxclass" : "number",
					"maximum" : 10000,
					"minimum" : 1,
					"numinlets" : 1,
					"numoutlets" : 2,
					"outlettype" : [ "", "bang" ],
					"parameter_enable" : 1,
					"patching_rect" : [ 630.0, 210.0, 48.0, 19.0 ],
					"presentation" : 1,
					"presentation_rect" : [ 0.0, 29.0, 45.0, 19.0 ],
					"saved_attribute_attributes" : 					{
						"valueof" : 						{
							"parameter_invisible" : 1,
							"parameter_longname" : "number[54]",
							"parameter_mmax" : 10000.0,
							"parameter_mmin" : 1.0,
							"parameter_shortname" : "number[96]",
							"parameter_type" : 3
						}

					}
,
					"textcolor" : [ 0.0, 0.0, 0.0, 1.0 ],
					"triangle" : 0,
					"varname" : "RTmin[64]"
				}

			}
, 			{
				"box" : 				{
					"fontname" : "Arial",
					"fontsize" : 13.0,
					"id" : "obj-1152",
					"linecount" : 2,
					"maxclass" : "newobj",
					"numinlets" : 1,
					"numoutlets" : 3,
					"outlettype" : [ "", "", "" ],
					"patching_rect" : [ 630.0, 240.0, 182.0, 38.0 ],
					"text" : "ossia.remote #1/random/rate/max",
					"varname" : "rate/max[19]"
				}

			}
, 			{
				"box" : 				{
					"bgcolor" : [ 0.227450980392157, 0.219607843137255, 0.211764705882353, 0.101960784313725 ],
					"fontsize" : 9.0,
					"hidden" : 1,
					"id" : "obj-1135",
					"maxclass" : "number",
					"maximum" : 10000,
					"minimum" : 1,
					"numinlets" : 1,
					"numoutlets" : 2,
					"outlettype" : [ "", "bang" ],
					"parameter_enable" : 1,
					"patching_rect" : [ 630.0, 105.0, 66.0, 19.0 ],
					"presentation" : 1,
					"presentation_rect" : [ 0.0, 11.0, 45.0, 19.0 ],
					"saved_attribute_attributes" : 					{
						"valueof" : 						{
							"parameter_invisible" : 1,
							"parameter_longname" : "number[55]",
							"parameter_mmax" : 10000.0,
							"parameter_mmin" : 1.0,
							"parameter_shortname" : "number[96]",
							"parameter_type" : 3
						}

					}
,
					"textcolor" : [ 0.0, 0.0, 0.0, 1.0 ],
					"triangle" : 0,
					"varname" : "RTmin[56]"
				}

			}
, 			{
				"box" : 				{
					"fontname" : "Arial",
					"fontsize" : 13.0,
					"id" : "obj-1136",
					"linecount" : 2,
					"maxclass" : "newobj",
					"numinlets" : 1,
					"numoutlets" : 3,
					"outlettype" : [ "", "", "" ],
					"patching_rect" : [ 630.0, 135.0, 178.0, 38.0 ],
					"text" : "ossia.remote #1/random/rate/min",
					"varname" : "rate/min[56]"
				}

			}
, 			{
				"box" : 				{
					"id" : "obj-1089",
					"linecount" : 2,
					"maxclass" : "newobj",
					"numinlets" : 1,
					"numoutlets" : 3,
					"outlettype" : [ "", "", "" ],
					"patching_rect" : [ 450.0, 150.0, 129.0, 35.0 ],
					"text" : "ossia.remote #1/mixer/mix",
					"varname" : "live.tab[2]"
				}

			}
, 			{
				"box" : 				{
					"hidden" : 1,
					"id" : "obj-76",
					"maxclass" : "live.tab",
					"num_lines_patching" : 3,
					"num_lines_presentation" : 3,
					"numinlets" : 1,
					"numoutlets" : 3,
					"outlettype" : [ "", "", "float" ],
					"parameter_enable" : 1,
					"patching_rect" : [ 450.0, 90.0, 45.0, 45.0 ],
					"presentation" : 1,
					"presentation_rect" : [ 0.0, 61.0, 15.0, 45.0 ],
					"saved_attribute_attributes" : 					{
						"valueof" : 						{
							"parameter_enum" : [ "'", "*", "+" ],
							"parameter_longname" : "live.tab[20]",
							"parameter_mmax" : 2,
							"parameter_shortname" : "live.tab[2]",
							"parameter_type" : 2,
							"parameter_unitstyle" : 9
						}

					}
,
					"varname" : "live.tab[1]"
				}

			}
, 			{
				"box" : 				{
					"bgcolor" : [ 0.227450980392157, 0.219607843137255, 0.211764705882353, 0.101960784313725 ],
					"fontface" : 1,
					"fontname" : "Arial",
					"fontsize" : 9.0,
					"format" : 6,
					"hidden" : 1,
					"id" : "obj-1025",
					"maxclass" : "flonum",
					"maximum" : 20.0,
					"minimum" : 0.0,
					"numinlets" : 1,
					"numoutlets" : 2,
					"outlettype" : [ "", "bang" ],
					"parameter_enable" : 1,
					"patching_rect" : [ 255.0, 225.0, 48.0, 19.0 ],
					"presentation" : 1,
					"presentation_rect" : [ 15.0, 84.0, 43.0, 19.0 ],
					"saved_attribute_attributes" : 					{
						"valueof" : 						{
							"parameter_invisible" : 1,
							"parameter_longname" : "RTmin[59]",
							"parameter_mmax" : 20.0,
							"parameter_shortname" : "RTmin[10]",
							"parameter_type" : 3
						}

					}
,
					"textcolor" : [ 0.0, 0.0, 0.0, 1.0 ],
					"triangle" : 0,
					"triscale" : 0.9,
					"varname" : "RTmin[32]"
				}

			}
, 			{
				"box" : 				{
					"fontname" : "Arial",
					"fontsize" : 13.0,
					"id" : "obj-1027",
					"linecount" : 2,
					"maxclass" : "newobj",
					"numinlets" : 1,
					"numoutlets" : 3,
					"outlettype" : [ "", "", "" ],
					"patching_rect" : [ 255.0, 255.0, 130.0, 38.0 ],
					"text" : "ossia.remote #1/lfo2/rate",
					"varname" : "rate/min[32]"
				}

			}
, 			{
				"box" : 				{
					"align" : 1,
					"allowdrag" : 0,
					"arrow" : 0,
					"fontname" : "Arial",
					"fontsize" : 9.0,
					"hidden" : 1,
					"id" : "obj-1042",
					"items" : [ "sine", ",", "+", "ramp", ",", "–", "ramp", ",", "triangle", ",", "square", ",", "s/hold" ],
					"maxclass" : "umenu",
					"numinlets" : 1,
					"numoutlets" : 3,
					"outlettype" : [ "int", "", "" ],
					"parameter_enable" : 1,
					"patching_rect" : [ 255.0, 105.0, 56.0, 19.0 ],
					"presentation" : 1,
					"presentation_rect" : [ 15.0, 63.0, 43.0, 19.0 ],
					"saved_attribute_attributes" : 					{
						"valueof" : 						{
							"parameter_enum" : [ "sine", "+ ramp", "– ramp", "triangle", "square", "s/hold" ],
							"parameter_longname" : "RTmin[55]",
							"parameter_mmax" : 5,
							"parameter_shortname" : "RTmin[2]",
							"parameter_type" : 2
						}

					}
,
					"textjustification" : 1,
					"varname" : "RTmin[48]"
				}

			}
, 			{
				"box" : 				{
					"fontname" : "Arial",
					"fontsize" : 13.0,
					"id" : "obj-1043",
					"linecount" : 2,
					"maxclass" : "newobj",
					"numinlets" : 1,
					"numoutlets" : 3,
					"outlettype" : [ "", "", "" ],
					"patching_rect" : [ 255.0, 135.0, 164.0, 38.0 ],
					"text" : "ossia.remote #1/lfo2/waveform",
					"varname" : "rate/min[48]"
				}

			}
, 			{
				"box" : 				{
					"id" : "obj-938",
					"maxclass" : "newobj",
					"numinlets" : 0,
					"numoutlets" : 0,
					"patcher" : 					{
						"fileversion" : 1,
						"appversion" : 						{
							"major" : 8,
							"minor" : 5,
							"revision" : 2,
							"architecture" : "x64",
							"modernui" : 1
						}
,
						"classnamespace" : "box",
						"rect" : [ 1020.0, 409.0, 269.0, 179.0 ],
						"bglocked" : 0,
						"openinpresentation" : 0,
						"default_fontsize" : 12.0,
						"default_fontface" : 0,
						"default_fontname" : "Arial",
						"gridonopen" : 2,
						"gridsize" : [ 15.0, 15.0 ],
						"gridsnaponopen" : 2,
						"objectsnaponopen" : 0,
						"statusbarvisible" : 2,
						"toolbarvisible" : 1,
						"lefttoolbarpinned" : 0,
						"toptoolbarpinned" : 0,
						"righttoolbarpinned" : 0,
						"bottomtoolbarpinned" : 0,
						"toolbars_unpinned_last_save" : 0,
						"tallnewobj" : 0,
						"boxanimatetime" : 200,
						"enablehscroll" : 1,
						"enablevscroll" : 1,
						"devicewidth" : 0.0,
						"description" : "",
						"digest" : "",
						"tags" : "",
						"style" : "",
						"subpatcher_template" : "evan_template",
						"assistshowspatchername" : 0,
						"boxes" : [ 							{
								"box" : 								{
									"id" : "obj-8",
									"maxclass" : "newobj",
									"numinlets" : 1,
									"numoutlets" : 2,
									"outlettype" : [ "float", "float" ],
									"patching_rect" : [ 15.0, 75.0, 61.0, 22.0 ],
									"text" : "unpack f f"
								}

							}
, 							{
								"box" : 								{
									"id" : "obj-94",
									"linecount" : 3,
									"maxclass" : "newobj",
									"numinlets" : 1,
									"numoutlets" : 3,
									"outlettype" : [ "", "", "" ],
									"patching_rect" : [ 135.0, 120.0, 105.0, 49.0 ],
									"text" : "ossia.remote #1/lfo2/out/max"
								}

							}
, 							{
								"box" : 								{
									"id" : "obj-92",
									"linecount" : 3,
									"maxclass" : "newobj",
									"numinlets" : 1,
									"numoutlets" : 3,
									"outlettype" : [ "", "", "" ],
									"patching_rect" : [ 15.0, 120.0, 101.0, 49.0 ],
									"text" : "ossia.remote #1/lfo2/out/min"
								}

							}
, 							{
								"box" : 								{
									"id" : "obj-123",
									"maxclass" : "newobj",
									"numinlets" : 1,
									"numoutlets" : 3,
									"outlettype" : [ "", "", "" ],
									"patching_rect" : [ 15.0, 15.0, 232.0, 22.0 ],
									"text" : "ossia.remote #1/range2/minmax"
								}

							}
 ],
						"lines" : [ 							{
								"patchline" : 								{
									"destination" : [ "obj-8", 0 ],
									"midpoints" : [ 131.0, 62.0, 24.5, 62.0 ],
									"source" : [ "obj-123", 1 ]
								}

							}
, 							{
								"patchline" : 								{
									"destination" : [ "obj-92", 0 ],
									"midpoints" : [ 24.5, 108.0, 24.5, 108.0 ],
									"source" : [ "obj-8", 0 ]
								}

							}
, 							{
								"patchline" : 								{
									"destination" : [ "obj-94", 0 ],
									"midpoints" : [ 66.5, 108.0, 144.5, 108.0 ],
									"source" : [ "obj-8", 1 ]
								}

							}
 ],
						"styles" : [ 							{
								"name" : "Jamoma_highlighted_orange",
								"default" : 								{
									"accentcolor" : [ 1.0, 0.5, 0.0, 1.0 ]
								}
,
								"parentstyle" : "",
								"multi" : 0
							}
 ]
					}
,
					"patching_rect" : [ 1065.0, 285.0, 89.0, 22.0 ],
					"saved_object_attributes" : 					{
						"description" : "",
						"digest" : "",
						"globalpatchername" : "",
						"tags" : ""
					}
,
					"text" : "p fader1_LFO2"
				}

			}
, 			{
				"box" : 				{
					"id" : "obj-929",
					"linecount" : 2,
					"maxclass" : "newobj",
					"numinlets" : 1,
					"numoutlets" : 3,
					"outlettype" : [ "", "", "" ],
					"patching_rect" : [ 870.0, 450.0, 165.0, 35.0 ],
					"text" : "ossia.remote #1/range2/minmax"
				}

			}
, 			{
				"box" : 				{
					"id" : "obj-773",
					"maxclass" : "newobj",
					"numinlets" : 0,
					"numoutlets" : 1,
					"outlettype" : [ "" ],
					"patcher" : 					{
						"fileversion" : 1,
						"appversion" : 						{
							"major" : 8,
							"minor" : 5,
							"revision" : 2,
							"architecture" : "x64",
							"modernui" : 1
						}
,
						"classnamespace" : "box",
						"rect" : [ 59.0, 104.0, 137.0, 194.0 ],
						"bglocked" : 0,
						"openinpresentation" : 0,
						"default_fontsize" : 12.0,
						"default_fontface" : 0,
						"default_fontname" : "Arial",
						"gridonopen" : 2,
						"gridsize" : [ 15.0, 15.0 ],
						"gridsnaponopen" : 2,
						"objectsnaponopen" : 0,
						"statusbarvisible" : 2,
						"toolbarvisible" : 1,
						"lefttoolbarpinned" : 0,
						"toptoolbarpinned" : 0,
						"righttoolbarpinned" : 0,
						"bottomtoolbarpinned" : 0,
						"toolbars_unpinned_last_save" : 0,
						"tallnewobj" : 0,
						"boxanimatetime" : 200,
						"enablehscroll" : 1,
						"enablevscroll" : 1,
						"devicewidth" : 0.0,
						"description" : "",
						"digest" : "",
						"tags" : "",
						"style" : "",
						"subpatcher_template" : "evan_template",
						"assistshowspatchername" : 0,
						"boxes" : [ 							{
								"box" : 								{
									"id" : "obj-983",
									"linecount" : 3,
									"maxclass" : "newobj",
									"numinlets" : 1,
									"numoutlets" : 3,
									"outlettype" : [ "", "", "" ],
									"patching_rect" : [ 15.0, 15.0, 105.0, 49.0 ],
									"presentation" : 1,
									"presentation_linecount" : 3,
									"presentation_rect" : [ 5070.0, 1335.0, 105.0, 49.0 ],
									"text" : "ossia.remote #1/mixer/source"
								}

							}
, 							{
								"box" : 								{
									"id" : "obj-931",
									"maxclass" : "newobj",
									"numinlets" : 1,
									"numoutlets" : 1,
									"outlettype" : [ "" ],
									"patching_rect" : [ 15.0, 120.0, 92.0, 22.0 ],
									"presentation" : 1,
									"presentation_rect" : [ 5070.0, 1440.0, 92.0, 22.0 ],
									"text" : "prepend hidden"
								}

							}
, 							{
								"box" : 								{
									"id" : "obj-930",
									"maxclass" : "newobj",
									"numinlets" : 2,
									"numoutlets" : 1,
									"outlettype" : [ "int" ],
									"patching_rect" : [ 15.0, 90.0, 29.5, 22.0 ],
									"presentation" : 1,
									"presentation_rect" : [ 5070.0, 1410.0, 33.0, 22.0 ],
									"text" : "!= 2"
								}

							}
, 							{
								"box" : 								{
									"comment" : "",
									"id" : "obj-984",
									"index" : 1,
									"maxclass" : "outlet",
									"numinlets" : 1,
									"numoutlets" : 0,
									"patching_rect" : [ 15.0, 150.0, 30.0, 30.0 ]
								}

							}
 ],
						"lines" : [ 							{
								"patchline" : 								{
									"destination" : [ "obj-931", 0 ],
									"source" : [ "obj-930", 0 ]
								}

							}
, 							{
								"patchline" : 								{
									"destination" : [ "obj-984", 0 ],
									"source" : [ "obj-931", 0 ]
								}

							}
, 							{
								"patchline" : 								{
									"destination" : [ "obj-930", 0 ],
									"midpoints" : [ 67.5, 77.0, 24.5, 77.0 ],
									"source" : [ "obj-983", 1 ]
								}

							}
 ]
					}
,
					"patching_rect" : [ 870.0, 285.0, 55.0, 22.0 ],
					"saved_object_attributes" : 					{
						"description" : "",
						"digest" : "",
						"globalpatchername" : "",
						"tags" : ""
					}
,
					"text" : "p hide_1"
				}

			}
, 			{
				"box" : 				{
					"bgcolor" : [ 0.875, 0.875, 0.875, 1.0 ],
					"bordercolor" : [ 0.5, 0.5, 0.5, 1.0 ],
					"fgcolor" : [ 0.513725490196078, 0.701960784313725, 0.76078431372549, 1.0 ],
					"floatoutput" : 1,
					"hidden" : 1,
					"id" : "obj-848",
					"listmode" : 1,
					"maxclass" : "rslider",
					"numinlets" : 2,
					"numoutlets" : 2,
					"outlettype" : [ "", "" ],
					"parameter_enable" : 1,
					"patching_rect" : [ 870.0, 330.0, 41.0, 114.0 ],
					"presentation" : 1,
					"presentation_rect" : [ 30.0, 150.0, 27.5, 144.0 ],
					"saved_attribute_attributes" : 					{
						"valueof" : 						{
							"parameter_invisible" : 1,
							"parameter_longname" : "rslider[15]",
							"parameter_shortname" : "rslider[1]",
							"parameter_type" : 3
						}

					}
,
					"size" : 1.0,
					"varname" : "rslider[15]"
				}

			}
, 			{
				"box" : 				{
					"id" : "obj-678",
					"maxclass" : "newobj",
					"numinlets" : 0,
					"numoutlets" : 1,
					"outlettype" : [ "" ],
					"patcher" : 					{
						"fileversion" : 1,
						"appversion" : 						{
							"major" : 8,
							"minor" : 5,
							"revision" : 2,
							"architecture" : "x64",
							"modernui" : 1
						}
,
						"classnamespace" : "box",
						"rect" : [ 59.0, 104.0, 137.0, 194.0 ],
						"bglocked" : 0,
						"openinpresentation" : 0,
						"default_fontsize" : 12.0,
						"default_fontface" : 0,
						"default_fontname" : "Arial",
						"gridonopen" : 2,
						"gridsize" : [ 15.0, 15.0 ],
						"gridsnaponopen" : 2,
						"objectsnaponopen" : 0,
						"statusbarvisible" : 2,
						"toolbarvisible" : 1,
						"lefttoolbarpinned" : 0,
						"toptoolbarpinned" : 0,
						"righttoolbarpinned" : 0,
						"bottomtoolbarpinned" : 0,
						"toolbars_unpinned_last_save" : 0,
						"tallnewobj" : 0,
						"boxanimatetime" : 200,
						"enablehscroll" : 1,
						"enablevscroll" : 1,
						"devicewidth" : 0.0,
						"description" : "",
						"digest" : "",
						"tags" : "",
						"style" : "",
						"subpatcher_template" : "evan_template",
						"assistshowspatchername" : 0,
						"boxes" : [ 							{
								"box" : 								{
									"id" : "obj-983",
									"linecount" : 3,
									"maxclass" : "newobj",
									"numinlets" : 1,
									"numoutlets" : 3,
									"outlettype" : [ "", "", "" ],
									"patching_rect" : [ 15.0, 15.0, 105.0, 49.0 ],
									"presentation" : 1,
									"presentation_linecount" : 3,
									"presentation_rect" : [ 5070.0, 1335.0, 105.0, 49.0 ],
									"text" : "ossia.remote #1/mixer/source"
								}

							}
, 							{
								"box" : 								{
									"id" : "obj-931",
									"maxclass" : "newobj",
									"numinlets" : 1,
									"numoutlets" : 1,
									"outlettype" : [ "" ],
									"patching_rect" : [ 15.0, 120.0, 92.0, 22.0 ],
									"presentation" : 1,
									"presentation_rect" : [ 5070.0, 1440.0, 92.0, 22.0 ],
									"text" : "prepend hidden"
								}

							}
, 							{
								"box" : 								{
									"id" : "obj-930",
									"maxclass" : "newobj",
									"numinlets" : 2,
									"numoutlets" : 1,
									"outlettype" : [ "int" ],
									"patching_rect" : [ 15.0, 90.0, 29.5, 22.0 ],
									"presentation" : 1,
									"presentation_rect" : [ 5070.0, 1410.0, 33.0, 22.0 ],
									"text" : "!= 2"
								}

							}
, 							{
								"box" : 								{
									"comment" : "",
									"id" : "obj-984",
									"index" : 1,
									"maxclass" : "outlet",
									"numinlets" : 1,
									"numoutlets" : 0,
									"patching_rect" : [ 15.0, 150.0, 30.0, 30.0 ]
								}

							}
 ],
						"lines" : [ 							{
								"patchline" : 								{
									"destination" : [ "obj-931", 0 ],
									"source" : [ "obj-930", 0 ]
								}

							}
, 							{
								"patchline" : 								{
									"destination" : [ "obj-984", 0 ],
									"source" : [ "obj-931", 0 ]
								}

							}
, 							{
								"patchline" : 								{
									"destination" : [ "obj-930", 0 ],
									"midpoints" : [ 67.5, 77.0, 24.5, 77.0 ],
									"source" : [ "obj-983", 1 ]
								}

							}
 ]
					}
,
					"patching_rect" : [ 15.0, 45.0, 55.0, 22.0 ],
					"saved_object_attributes" : 					{
						"description" : "",
						"digest" : "",
						"globalpatchername" : "",
						"tags" : ""
					}
,
					"text" : "p hide_1"
				}

			}
, 			{
				"box" : 				{
					"id" : "obj-278",
					"maxclass" : "newobj",
					"numinlets" : 0,
					"numoutlets" : 1,
					"outlettype" : [ "" ],
					"patcher" : 					{
						"fileversion" : 1,
						"appversion" : 						{
							"major" : 8,
							"minor" : 5,
							"revision" : 2,
							"architecture" : "x64",
							"modernui" : 1
						}
,
						"classnamespace" : "box",
						"rect" : [ 59.0, 104.0, 137.0, 194.0 ],
						"bglocked" : 0,
						"openinpresentation" : 0,
						"default_fontsize" : 12.0,
						"default_fontface" : 0,
						"default_fontname" : "Arial",
						"gridonopen" : 2,
						"gridsize" : [ 15.0, 15.0 ],
						"gridsnaponopen" : 2,
						"objectsnaponopen" : 0,
						"statusbarvisible" : 2,
						"toolbarvisible" : 1,
						"lefttoolbarpinned" : 0,
						"toptoolbarpinned" : 0,
						"righttoolbarpinned" : 0,
						"bottomtoolbarpinned" : 0,
						"toolbars_unpinned_last_save" : 0,
						"tallnewobj" : 0,
						"boxanimatetime" : 200,
						"enablehscroll" : 1,
						"enablevscroll" : 1,
						"devicewidth" : 0.0,
						"description" : "",
						"digest" : "",
						"tags" : "",
						"style" : "",
						"subpatcher_template" : "evan_template",
						"assistshowspatchername" : 0,
						"boxes" : [ 							{
								"box" : 								{
									"id" : "obj-983",
									"linecount" : 3,
									"maxclass" : "newobj",
									"numinlets" : 1,
									"numoutlets" : 3,
									"outlettype" : [ "", "", "" ],
									"patching_rect" : [ 15.0, 15.0, 105.0, 49.0 ],
									"presentation" : 1,
									"presentation_linecount" : 3,
									"presentation_rect" : [ 5070.0, 1335.0, 105.0, 49.0 ],
									"text" : "ossia.remote #1/mixer/source"
								}

							}
, 							{
								"box" : 								{
									"id" : "obj-931",
									"maxclass" : "newobj",
									"numinlets" : 1,
									"numoutlets" : 1,
									"outlettype" : [ "" ],
									"patching_rect" : [ 15.0, 120.0, 92.0, 22.0 ],
									"presentation" : 1,
									"presentation_rect" : [ 5070.0, 1440.0, 92.0, 22.0 ],
									"text" : "prepend hidden"
								}

							}
, 							{
								"box" : 								{
									"id" : "obj-930",
									"maxclass" : "newobj",
									"numinlets" : 2,
									"numoutlets" : 1,
									"outlettype" : [ "int" ],
									"patching_rect" : [ 15.0, 90.0, 29.5, 22.0 ],
									"presentation" : 1,
									"presentation_rect" : [ 5070.0, 1410.0, 33.0, 22.0 ],
									"text" : "!= 3"
								}

							}
, 							{
								"box" : 								{
									"comment" : "",
									"id" : "obj-984",
									"index" : 1,
									"maxclass" : "outlet",
									"numinlets" : 1,
									"numoutlets" : 0,
									"patching_rect" : [ 15.0, 150.0, 30.0, 30.0 ]
								}

							}
 ],
						"lines" : [ 							{
								"patchline" : 								{
									"destination" : [ "obj-931", 0 ],
									"source" : [ "obj-930", 0 ]
								}

							}
, 							{
								"patchline" : 								{
									"destination" : [ "obj-984", 0 ],
									"source" : [ "obj-931", 0 ]
								}

							}
, 							{
								"patchline" : 								{
									"destination" : [ "obj-930", 0 ],
									"midpoints" : [ 67.5, 77.0, 24.5, 77.0 ],
									"source" : [ "obj-983", 1 ]
								}

							}
 ]
					}
,
					"patching_rect" : [ 630.0, 45.0, 55.0, 22.0 ],
					"saved_object_attributes" : 					{
						"description" : "",
						"digest" : "",
						"globalpatchername" : "",
						"tags" : ""
					}
,
					"text" : "p hide_1"
				}

			}
, 			{
				"box" : 				{
					"floatoutput" : 1,
					"hidden" : 1,
					"id" : "obj-157",
					"maxclass" : "dial",
					"numinlets" : 1,
					"numoutlets" : 1,
					"outlettype" : [ "float" ],
					"parameter_enable" : 1,
					"patching_rect" : [ 630.0, 420.0, 23.599999904632568, 23.599999904632568 ],
					"presentation" : 1,
					"presentation_rect" : [ 2.0, 81.0, 22.0, 22.0 ],
					"saved_attribute_attributes" : 					{
						"valueof" : 						{
							"parameter_longname" : "dial[10]",
							"parameter_mmax" : 1.0,
							"parameter_shortname" : "dial",
							"parameter_type" : 0
						}

					}
,
					"size" : 1.0,
					"varname" : "RTmin[20]"
				}

			}
, 			{
				"box" : 				{
					"fontname" : "Arial",
					"fontsize" : 13.0,
					"id" : "obj-158",
					"linecount" : 2,
					"maxclass" : "newobj",
					"numinlets" : 1,
					"numoutlets" : 3,
					"outlettype" : [ "", "", "" ],
					"patching_rect" : [ 630.0, 450.0, 155.0, 38.0 ],
					"text" : "ossia.remote #1/random/step",
					"varname" : "rate/min[20]"
				}

			}
, 			{
				"box" : 				{
					"bgcolor" : [ 0.227450980392157, 0.219607843137255, 0.211764705882353, 0.101960784313725 ],
					"fontsize" : 9.0,
					"hidden" : 1,
					"id" : "obj-151",
					"maxclass" : "number",
					"maximum" : 10000,
					"minimum" : 0,
					"numinlets" : 1,
					"numoutlets" : 2,
					"outlettype" : [ "", "bang" ],
					"parameter_enable" : 1,
					"patching_rect" : [ 630.0, 315.0, 58.0, 19.0 ],
					"presentation" : 1,
					"presentation_rect" : [ 0.0, 56.0, 45.0, 19.0 ],
					"saved_attribute_attributes" : 					{
						"valueof" : 						{
							"parameter_invisible" : 1,
							"parameter_longname" : "number[56]",
							"parameter_mmax" : 10000.0,
							"parameter_shortname" : "number[96]",
							"parameter_type" : 3
						}

					}
,
					"textcolor" : [ 0.0, 0.0, 0.0, 1.0 ],
					"triangle" : 0,
					"varname" : "RTmin[19]"
				}

			}
, 			{
				"box" : 				{
					"fontname" : "Arial",
					"fontsize" : 13.0,
					"id" : "obj-152",
					"linecount" : 2,
					"maxclass" : "newobj",
					"numinlets" : 1,
					"numoutlets" : 3,
					"outlettype" : [ "", "", "" ],
					"patching_rect" : [ 630.0, 345.0, 192.0, 38.0 ],
					"text" : "ossia.remote #1/random/interpolate",
					"varname" : "rate/min[19]"
				}

			}
, 			{
				"box" : 				{
					"id" : "obj-994",
					"maxclass" : "newobj",
					"numinlets" : 0,
					"numoutlets" : 1,
					"outlettype" : [ "float" ],
					"patcher" : 					{
						"fileversion" : 1,
						"appversion" : 						{
							"major" : 8,
							"minor" : 5,
							"revision" : 2,
							"architecture" : "x64",
							"modernui" : 1
						}
,
						"classnamespace" : "box",
						"rect" : [ 59.0, 104.0, 401.0, 292.0 ],
						"bglocked" : 0,
						"openinpresentation" : 0,
						"default_fontsize" : 12.0,
						"default_fontface" : 0,
						"default_fontname" : "Arial",
						"gridonopen" : 2,
						"gridsize" : [ 15.0, 15.0 ],
						"gridsnaponopen" : 2,
						"objectsnaponopen" : 0,
						"statusbarvisible" : 2,
						"toolbarvisible" : 1,
						"lefttoolbarpinned" : 0,
						"toptoolbarpinned" : 0,
						"righttoolbarpinned" : 0,
						"bottomtoolbarpinned" : 0,
						"toolbars_unpinned_last_save" : 0,
						"tallnewobj" : 0,
						"boxanimatetime" : 200,
						"enablehscroll" : 1,
						"enablevscroll" : 1,
						"devicewidth" : 0.0,
						"description" : "",
						"digest" : "",
						"tags" : "",
						"style" : "",
						"subpatcher_template" : "evan_template",
						"assistshowspatchername" : 0,
						"boxes" : [ 							{
								"box" : 								{
									"id" : "obj-944",
									"maxclass" : "newobj",
									"numinlets" : 2,
									"numoutlets" : 2,
									"outlettype" : [ "bang", "" ],
									"patching_rect" : [ 255.0, 120.0, 34.0, 22.0 ],
									"text" : "sel 1"
								}

							}
, 							{
								"box" : 								{
									"id" : "obj-941",
									"maxclass" : "newobj",
									"numinlets" : 2,
									"numoutlets" : 1,
									"outlettype" : [ "float" ],
									"patching_rect" : [ 45.0, 165.0, 29.5, 22.0 ],
									"text" : "f"
								}

							}
, 							{
								"box" : 								{
									"id" : "obj-934",
									"maxclass" : "newobj",
									"numinlets" : 1,
									"numoutlets" : 3,
									"outlettype" : [ "", "", "" ],
									"patching_rect" : [ 45.0, 120.0, 177.0, 22.0 ],
									"text" : "ossia.remote #1/fader"
								}

							}
, 							{
								"box" : 								{
									"id" : "obj-929",
									"maxclass" : "newobj",
									"numinlets" : 1,
									"numoutlets" : 1,
									"outlettype" : [ "" ],
									"patching_rect" : [ 15.0, 90.0, 92.0, 22.0 ],
									"text" : "prepend hidden"
								}

							}
, 							{
								"box" : 								{
									"id" : "obj-927",
									"maxclass" : "newobj",
									"numinlets" : 2,
									"numoutlets" : 1,
									"outlettype" : [ "int" ],
									"patching_rect" : [ 15.0, 60.0, 29.5, 22.0 ],
									"text" : "!= 1"
								}

							}
, 							{
								"box" : 								{
									"id" : "obj-926",
									"linecount" : 2,
									"maxclass" : "newobj",
									"numinlets" : 1,
									"numoutlets" : 3,
									"outlettype" : [ "", "", "" ],
									"patching_rect" : [ 15.0, 15.0, 209.0, 35.0 ],
									"text" : "ossia.remote #1/mixer/source"
								}

							}
, 							{
								"box" : 								{
									"comment" : "",
									"id" : "obj-993",
									"index" : 1,
									"maxclass" : "outlet",
									"numinlets" : 1,
									"numoutlets" : 0,
									"patching_rect" : [ 15.0, 240.0, 30.0, 30.0 ]
								}

							}
 ],
						"lines" : [ 							{
								"patchline" : 								{
									"destination" : [ "obj-927", 0 ],
									"midpoints" : [ 119.5, 47.0, 24.5, 47.0 ],
									"order" : 1,
									"source" : [ "obj-926", 1 ]
								}

							}
, 							{
								"patchline" : 								{
									"destination" : [ "obj-944", 0 ],
									"midpoints" : [ 119.5, 80.799999833106995, 264.5, 80.799999833106995 ],
									"order" : 0,
									"source" : [ "obj-926", 1 ]
								}

							}
, 							{
								"patchline" : 								{
									"destination" : [ "obj-929", 0 ],
									"source" : [ "obj-927", 0 ]
								}

							}
, 							{
								"patchline" : 								{
									"destination" : [ "obj-993", 0 ],
									"source" : [ "obj-929", 0 ]
								}

							}
, 							{
								"patchline" : 								{
									"destination" : [ "obj-941", 0 ],
									"source" : [ "obj-934", 1 ]
								}

							}
, 							{
								"patchline" : 								{
									"destination" : [ "obj-993", 0 ],
									"midpoints" : [ 54.5, 228.0, 24.5, 228.0 ],
									"source" : [ "obj-941", 0 ]
								}

							}
, 							{
								"patchline" : 								{
									"destination" : [ "obj-941", 0 ],
									"midpoints" : [ 264.5, 153.0, 54.5, 153.0 ],
									"source" : [ "obj-944", 0 ]
								}

							}
 ]
					}
,
					"patching_rect" : [ 1065.0, 30.0, 71.0, 22.0 ],
					"saved_object_attributes" : 					{
						"description" : "",
						"digest" : "",
						"globalpatchername" : "",
						"tags" : ""
					}
,
					"text" : "p in_hide_1"
				}

			}
, 			{
				"box" : 				{
					"id" : "obj-985",
					"maxclass" : "newobj",
					"numinlets" : 0,
					"numoutlets" : 1,
					"outlettype" : [ "" ],
					"patcher" : 					{
						"fileversion" : 1,
						"appversion" : 						{
							"major" : 8,
							"minor" : 5,
							"revision" : 2,
							"architecture" : "x64",
							"modernui" : 1
						}
,
						"classnamespace" : "box",
						"rect" : [ 59.0, 104.0, 137.0, 194.0 ],
						"bglocked" : 0,
						"openinpresentation" : 0,
						"default_fontsize" : 12.0,
						"default_fontface" : 0,
						"default_fontname" : "Arial",
						"gridonopen" : 2,
						"gridsize" : [ 15.0, 15.0 ],
						"gridsnaponopen" : 2,
						"objectsnaponopen" : 0,
						"statusbarvisible" : 2,
						"toolbarvisible" : 1,
						"lefttoolbarpinned" : 0,
						"toptoolbarpinned" : 0,
						"righttoolbarpinned" : 0,
						"bottomtoolbarpinned" : 0,
						"toolbars_unpinned_last_save" : 0,
						"tallnewobj" : 0,
						"boxanimatetime" : 200,
						"enablehscroll" : 1,
						"enablevscroll" : 1,
						"devicewidth" : 0.0,
						"description" : "",
						"digest" : "",
						"tags" : "",
						"style" : "",
						"subpatcher_template" : "evan_template",
						"assistshowspatchername" : 0,
						"boxes" : [ 							{
								"box" : 								{
									"id" : "obj-983",
									"linecount" : 3,
									"maxclass" : "newobj",
									"numinlets" : 1,
									"numoutlets" : 3,
									"outlettype" : [ "", "", "" ],
									"patching_rect" : [ 15.0, 15.0, 105.0, 49.0 ],
									"presentation" : 1,
									"presentation_linecount" : 3,
									"presentation_rect" : [ 5070.0, 1335.0, 105.0, 49.0 ],
									"text" : "ossia.remote #1/mixer/source"
								}

							}
, 							{
								"box" : 								{
									"id" : "obj-931",
									"maxclass" : "newobj",
									"numinlets" : 1,
									"numoutlets" : 1,
									"outlettype" : [ "" ],
									"patching_rect" : [ 15.0, 120.0, 92.0, 22.0 ],
									"presentation" : 1,
									"presentation_rect" : [ 5070.0, 1440.0, 92.0, 22.0 ],
									"text" : "prepend hidden"
								}

							}
, 							{
								"box" : 								{
									"id" : "obj-930",
									"maxclass" : "newobj",
									"numinlets" : 2,
									"numoutlets" : 1,
									"outlettype" : [ "int" ],
									"patching_rect" : [ 15.0, 90.0, 33.0, 22.0 ],
									"presentation" : 1,
									"presentation_rect" : [ 5070.0, 1410.0, 33.0, 22.0 ],
									"text" : "== 1"
								}

							}
, 							{
								"box" : 								{
									"comment" : "",
									"id" : "obj-984",
									"index" : 1,
									"maxclass" : "outlet",
									"numinlets" : 1,
									"numoutlets" : 0,
									"patching_rect" : [ 15.0, 150.0, 30.0, 30.0 ]
								}

							}
 ],
						"lines" : [ 							{
								"patchline" : 								{
									"destination" : [ "obj-931", 0 ],
									"source" : [ "obj-930", 0 ]
								}

							}
, 							{
								"patchline" : 								{
									"destination" : [ "obj-984", 0 ],
									"source" : [ "obj-931", 0 ]
								}

							}
, 							{
								"patchline" : 								{
									"destination" : [ "obj-930", 0 ],
									"midpoints" : [ 67.5, 77.0, 24.5, 77.0 ],
									"source" : [ "obj-983", 1 ]
								}

							}
 ]
					}
,
					"patching_rect" : [ 870.0, 45.0, 55.0, 22.0 ],
					"saved_object_attributes" : 					{
						"description" : "",
						"digest" : "",
						"globalpatchername" : "",
						"tags" : ""
					}
,
					"text" : "p hide_1"
				}

			}
, 			{
				"box" : 				{
					"bgcolor" : [ 0.227450980392157, 0.219607843137255, 0.211764705882353, 0.101960784313725 ],
					"fontface" : 1,
					"fontname" : "Arial",
					"fontsize" : 9.0,
					"format" : 6,
					"hidden" : 1,
					"id" : "obj-967",
					"maxclass" : "flonum",
					"maximum" : 20.0,
					"minimum" : 0.0,
					"numinlets" : 1,
					"numoutlets" : 2,
					"outlettype" : [ "", "bang" ],
					"parameter_enable" : 1,
					"patching_rect" : [ 45.0, 225.0, 48.0, 19.0 ],
					"presentation" : 1,
					"presentation_rect" : [ 0.0, 21.0, 45.0, 19.0 ],
					"saved_attribute_attributes" : 					{
						"valueof" : 						{
							"parameter_invisible" : 1,
							"parameter_longname" : "RTmin[60]",
							"parameter_mmax" : 20.0,
							"parameter_shortname" : "RTmin[10]",
							"parameter_type" : 3
						}

					}
,
					"textcolor" : [ 0.0, 0.0, 0.0, 1.0 ],
					"triangle" : 0,
					"triscale" : 0.9,
					"varname" : "RTmin[9]"
				}

			}
, 			{
				"box" : 				{
					"fontname" : "Arial",
					"fontsize" : 13.0,
					"id" : "obj-968",
					"linecount" : 2,
					"maxclass" : "newobj",
					"numinlets" : 1,
					"numoutlets" : 3,
					"outlettype" : [ "", "", "" ],
					"patching_rect" : [ 45.0, 255.0, 130.0, 38.0 ],
					"text" : "ossia.remote #1/lfo1/rate",
					"varname" : "rate/min[9]"
				}

			}
, 			{
				"box" : 				{
					"align" : 1,
					"allowdrag" : 0,
					"arrow" : 0,
					"fontname" : "Arial",
					"fontsize" : 9.0,
					"hidden" : 1,
					"id" : "obj-951",
					"items" : [ "sine", ",", "+", "ramp", ",", "–", "ramp", ",", "triangle", ",", "square", ",", "s/hold" ],
					"maxclass" : "umenu",
					"numinlets" : 1,
					"numoutlets" : 3,
					"outlettype" : [ "int", "", "" ],
					"parameter_enable" : 1,
					"patching_rect" : [ 45.0, 105.0, 56.0, 19.0 ],
					"presentation" : 1,
					"presentation_rect" : [ 0.0, 0.0, 45.0, 19.0 ],
					"saved_attribute_attributes" : 					{
						"valueof" : 						{
							"parameter_enum" : [ "sine", "+ ramp", "– ramp", "triangle", "square", "s/hold" ],
							"parameter_longname" : "RTmin[57]",
							"parameter_mmax" : 5,
							"parameter_shortname" : "RTmin[2]",
							"parameter_type" : 2
						}

					}
,
					"textjustification" : 1,
					"varname" : "RTmin[2]"
				}

			}
, 			{
				"box" : 				{
					"fontname" : "Arial",
					"fontsize" : 13.0,
					"id" : "obj-952",
					"linecount" : 2,
					"maxclass" : "newobj",
					"numinlets" : 1,
					"numoutlets" : 3,
					"outlettype" : [ "", "", "" ],
					"patching_rect" : [ 45.0, 135.0, 164.0, 38.0 ],
					"text" : "ossia.remote #1/lfo1/waveform",
					"varname" : "rate/min[2]"
				}

			}
, 			{
				"box" : 				{
					"id" : "obj-936",
					"maxclass" : "newobj",
					"numinlets" : 1,
					"numoutlets" : 3,
					"outlettype" : [ "", "", "" ],
					"patching_rect" : [ 1065.0, 225.0, 177.0, 22.0 ],
					"text" : "ossia.remote #1/fader"
				}

			}
, 			{
				"box" : 				{
					"contdata" : 1,
					"id" : "obj-922",
					"maxclass" : "multislider",
					"numinlets" : 1,
					"numoutlets" : 2,
					"outlettype" : [ "", "" ],
					"parameter_enable" : 1,
					"patching_rect" : [ 1065.0, 75.0, 20.0, 140.0 ],
					"presentation" : 1,
					"presentation_rect" : [ 0.0, 150.0, 54.0, 144.0 ],
					"saved_attribute_attributes" : 					{
						"valueof" : 						{
							"parameter_longname" : "multislider[16]",
							"parameter_mmax" : 1.0,
							"parameter_shortname" : "multislider",
							"parameter_type" : 0
						}

					}
,
					"setminmax" : [ 0.0, 1.0 ],
					"setstyle" : 1,
					"varname" : "multislider"
				}

			}
, 			{
				"box" : 				{
					"fontname" : "Arial",
					"fontsize" : 13.0,
					"id" : "obj-897",
					"linecount" : 2,
					"maxclass" : "newobj",
					"numinlets" : 1,
					"numoutlets" : 3,
					"outlettype" : [ "", "", "" ],
					"patching_rect" : [ 870.0, 540.0, 160.0, 38.0 ],
					"text" : "ossia.remote #1/range1/mode",
					"varname" : "rate/max[1]"
				}

			}
, 			{
				"box" : 				{
					"arrow" : 0,
					"bgfillcolor_angle" : 270.0,
					"bgfillcolor_autogradient" : 0.0,
					"bgfillcolor_color" : [ 0.227450980392157, 0.219607843137255, 0.211764705882353, 0.4 ],
					"bgfillcolor_color1" : [ 0.227450980392157, 0.219607843137255, 0.211764705882353, 0.101960784313725 ],
					"bgfillcolor_color2" : [ 0.227450980392157, 0.219607843137255, 0.211764705882353, 0.4 ],
					"bgfillcolor_proportion" : 0.5,
					"bgfillcolor_type" : "gradient",
					"fontface" : 1,
					"fontname" : "Arial",
					"fontsize" : 7.0,
					"id" : "obj-898",
					"items" : [ "bipolar", ",", "unipolar", ",", "additive" ],
					"maxclass" : "umenu",
					"numinlets" : 1,
					"numoutlets" : 3,
					"outlettype" : [ "int", "", "" ],
					"parameter_enable" : 1,
					"patching_rect" : [ 870.0, 510.0, 100.0, 16.0 ],
					"presentation" : 1,
					"presentation_rect" : [ 0.0, 130.0, 57.166665971279144, 16.0 ],
					"saved_attribute_attributes" : 					{
						"valueof" : 						{
							"parameter_enum" : [ "bipolar", "unipolar", "additive" ],
							"parameter_longname" : "umenu[10]",
							"parameter_mmax" : 2,
							"parameter_shortname" : "umenu",
							"parameter_type" : 2
						}

					}
,
					"textcolor" : [ 0.0, 0.0, 0.0, 1.0 ],
					"varname" : "umenu"
				}

			}
, 			{
				"box" : 				{
					"id" : "obj-847",
					"maxclass" : "newobj",
					"numinlets" : 0,
					"numoutlets" : 0,
					"patcher" : 					{
						"fileversion" : 1,
						"appversion" : 						{
							"major" : 8,
							"minor" : 5,
							"revision" : 2,
							"architecture" : "x64",
							"modernui" : 1
						}
,
						"classnamespace" : "box",
						"rect" : [ 1569.0, -101.0, 464.0, 253.0 ],
						"bglocked" : 0,
						"openinpresentation" : 0,
						"default_fontsize" : 12.0,
						"default_fontface" : 0,
						"default_fontname" : "Arial",
						"gridonopen" : 2,
						"gridsize" : [ 15.0, 15.0 ],
						"gridsnaponopen" : 2,
						"objectsnaponopen" : 0,
						"statusbarvisible" : 2,
						"toolbarvisible" : 1,
						"lefttoolbarpinned" : 0,
						"toptoolbarpinned" : 0,
						"righttoolbarpinned" : 0,
						"bottomtoolbarpinned" : 0,
						"toolbars_unpinned_last_save" : 0,
						"tallnewobj" : 0,
						"boxanimatetime" : 200,
						"enablehscroll" : 1,
						"enablevscroll" : 1,
						"devicewidth" : 0.0,
						"description" : "",
						"digest" : "",
						"tags" : "",
						"style" : "",
						"subpatcher_template" : "evan_template",
						"assistshowspatchername" : 0,
						"boxes" : [ 							{
								"box" : 								{
									"id" : "obj-8",
									"maxclass" : "newobj",
									"numinlets" : 1,
									"numoutlets" : 2,
									"outlettype" : [ "float", "float" ],
									"patching_rect" : [ 180.0, 75.0, 61.0, 22.0 ],
									"text" : "unpack f f"
								}

							}
, 							{
								"box" : 								{
									"id" : "obj-1",
									"maxclass" : "newobj",
									"numinlets" : 2,
									"numoutlets" : 1,
									"outlettype" : [ "int" ],
									"patching_rect" : [ 15.0, 75.0, 29.5, 22.0 ],
									"text" : "- 1"
								}

							}
, 							{
								"box" : 								{
									"id" : "obj-104",
									"linecount" : 3,
									"maxclass" : "newobj",
									"numinlets" : 1,
									"numoutlets" : 3,
									"outlettype" : [ "", "", "" ],
									"patching_rect" : [ 360.0, 195.0, 90.0, 49.0 ],
									"text" : "ossia.remote #1/random/max"
								}

							}
, 							{
								"box" : 								{
									"id" : "obj-99",
									"linecount" : 3,
									"maxclass" : "newobj",
									"numinlets" : 1,
									"numoutlets" : 3,
									"outlettype" : [ "", "", "" ],
									"patching_rect" : [ 135.0, 195.0, 90.0, 49.0 ],
									"text" : "ossia.remote #1/random/min"
								}

							}
, 							{
								"box" : 								{
									"id" : "obj-94",
									"linecount" : 3,
									"maxclass" : "newobj",
									"numinlets" : 1,
									"numoutlets" : 3,
									"outlettype" : [ "", "", "" ],
									"patching_rect" : [ 240.0, 195.0, 105.0, 49.0 ],
									"text" : "ossia.remote #1/lfo1/out/max"
								}

							}
, 							{
								"box" : 								{
									"id" : "obj-93",
									"maxclass" : "newobj",
									"numinlets" : 2,
									"numoutlets" : 2,
									"outlettype" : [ "", "" ],
									"patching_rect" : [ 240.0, 150.0, 42.0, 22.0 ],
									"text" : "gate 2"
								}

							}
, 							{
								"box" : 								{
									"id" : "obj-92",
									"linecount" : 3,
									"maxclass" : "newobj",
									"numinlets" : 1,
									"numoutlets" : 3,
									"outlettype" : [ "", "", "" ],
									"patching_rect" : [ 15.0, 195.0, 105.0, 49.0 ],
									"text" : "ossia.remote #1/lfo1/out/min"
								}

							}
, 							{
								"box" : 								{
									"id" : "obj-74",
									"maxclass" : "newobj",
									"numinlets" : 2,
									"numoutlets" : 2,
									"outlettype" : [ "", "" ],
									"patching_rect" : [ 15.0, 150.0, 150.0, 22.0 ],
									"text" : "gate 2"
								}

							}
, 							{
								"box" : 								{
									"id" : "obj-122",
									"linecount" : 2,
									"maxclass" : "newobj",
									"numinlets" : 1,
									"numoutlets" : 3,
									"outlettype" : [ "", "", "" ],
									"patching_rect" : [ 15.0, 15.0, 150.0, 35.0 ],
									"text" : "ossia.remote #1/mixer/source"
								}

							}
, 							{
								"box" : 								{
									"id" : "obj-123",
									"linecount" : 3,
									"maxclass" : "newobj",
									"numinlets" : 1,
									"numoutlets" : 3,
									"outlettype" : [ "", "", "" ],
									"patching_rect" : [ 180.0, 15.0, 105.0, 49.0 ],
									"text" : "ossia.remote #1/range1/minmax"
								}

							}
 ],
						"lines" : [ 							{
								"patchline" : 								{
									"destination" : [ "obj-74", 0 ],
									"order" : 1,
									"source" : [ "obj-1", 0 ]
								}

							}
, 							{
								"patchline" : 								{
									"destination" : [ "obj-93", 0 ],
									"midpoints" : [ 24.5, 134.5, 249.5, 134.5 ],
									"order" : 0,
									"source" : [ "obj-1", 0 ]
								}

							}
, 							{
								"patchline" : 								{
									"destination" : [ "obj-1", 0 ],
									"midpoints" : [ 90.0, 62.0, 24.5, 62.0 ],
									"source" : [ "obj-122", 1 ]
								}

							}
, 							{
								"patchline" : 								{
									"destination" : [ "obj-8", 0 ],
									"midpoints" : [ 232.5, 62.0, 189.5, 62.0 ],
									"source" : [ "obj-123", 1 ]
								}

							}
, 							{
								"patchline" : 								{
									"destination" : [ "obj-92", 0 ],
									"source" : [ "obj-74", 0 ]
								}

							}
, 							{
								"patchline" : 								{
									"destination" : [ "obj-99", 0 ],
									"midpoints" : [ 155.5, 183.0, 144.5, 183.0 ],
									"source" : [ "obj-74", 1 ]
								}

							}
, 							{
								"patchline" : 								{
									"destination" : [ "obj-74", 1 ],
									"midpoints" : [ 189.5, 123.0, 155.5, 123.0 ],
									"source" : [ "obj-8", 0 ]
								}

							}
, 							{
								"patchline" : 								{
									"destination" : [ "obj-93", 1 ],
									"midpoints" : [ 231.5, 123.0, 272.5, 123.0 ],
									"source" : [ "obj-8", 1 ]
								}

							}
, 							{
								"patchline" : 								{
									"destination" : [ "obj-104", 0 ],
									"midpoints" : [ 272.5, 183.0, 369.5, 183.0 ],
									"source" : [ "obj-93", 1 ]
								}

							}
, 							{
								"patchline" : 								{
									"destination" : [ "obj-94", 0 ],
									"source" : [ "obj-93", 0 ]
								}

							}
 ],
						"styles" : [ 							{
								"name" : "Jamoma_highlighted_orange",
								"default" : 								{
									"accentcolor" : [ 1.0, 0.5, 0.0, 1.0 ]
								}
,
								"parentstyle" : "",
								"multi" : 0
							}
 ]
					}
,
					"patching_rect" : [ 1065.0, 315.0, 120.0, 22.0 ],
					"saved_object_attributes" : 					{
						"description" : "",
						"digest" : "",
						"globalpatchername" : "",
						"tags" : ""
					}
,
					"text" : "p fader1_LFO1_rand"
				}

			}
, 			{
				"box" : 				{
					"id" : "obj-719",
					"maxclass" : "newobj",
					"numinlets" : 2,
					"numoutlets" : 1,
					"outlettype" : [ "int" ],
					"patching_rect" : [ 1290.0, 195.0, 29.5, 22.0 ],
					"text" : "+ 1"
				}

			}
, 			{
				"box" : 				{
					"id" : "obj-668",
					"maxclass" : "live.tab",
					"num_lines_patching" : 3,
					"num_lines_presentation" : 3,
					"numinlets" : 1,
					"numoutlets" : 3,
					"outlettype" : [ "", "", "float" ],
					"parameter_enable" : 1,
					"patching_rect" : [ 1290.0, 120.0, 45.0, 60.0 ],
					"presentation" : 1,
					"presentation_rect" : [ 0.0, 300.0, 57.5, 75.0 ],
					"saved_attribute_attributes" : 					{
						"valueof" : 						{
							"parameter_enum" : [ "Fader", "LFO", "Rand" ],
							"parameter_longname" : "live.tab[19]",
							"parameter_mmax" : 2,
							"parameter_shortname" : "live.tab",
							"parameter_type" : 2,
							"parameter_unitstyle" : 9
						}

					}
,
					"varname" : "live.tab[5]"
				}

			}
, 			{
				"box" : 				{
					"id" : "obj-571",
					"linecount" : 2,
					"maxclass" : "newobj",
					"numinlets" : 1,
					"numoutlets" : 3,
					"outlettype" : [ "", "", "" ],
					"patching_rect" : [ 870.0, 210.0, 161.0, 35.0 ],
					"text" : "ossia.remote #1/range1/minmax"
				}

			}
, 			{
				"box" : 				{
					"bgcolor" : [ 0.875, 0.875, 0.875, 1.0 ],
					"bordercolor" : [ 0.5, 0.5, 0.5, 1.0 ],
					"fgcolor" : [ 0.537255, 0.537255, 0.537255, 1.0 ],
					"floatoutput" : 1,
					"hidden" : 1,
					"id" : "obj-150",
					"listmode" : 1,
					"maxclass" : "rslider",
					"numinlets" : 2,
					"numoutlets" : 2,
					"outlettype" : [ "", "" ],
					"parameter_enable" : 1,
					"patching_rect" : [ 870.0, 90.0, 41.0, 114.0 ],
					"presentation" : 1,
					"presentation_rect" : [ 0.0, 150.0, 57.5, 144.0 ],
					"saved_attribute_attributes" : 					{
						"valueof" : 						{
							"parameter_invisible" : 1,
							"parameter_longname" : "rslider[16]",
							"parameter_shortname" : "rslider[1]",
							"parameter_type" : 3
						}

					}
,
					"size" : 1.0,
					"varname" : "rslider[1]"
				}

			}
, 			{
				"box" : 				{
					"id" : "obj-78",
					"linecount" : 3,
					"maxclass" : "newobj",
					"numinlets" : 1,
					"numoutlets" : 3,
					"outlettype" : [ "", "", "" ],
					"patching_rect" : [ 1290.0, 225.0, 104.66666841506958, 49.0 ],
					"text" : "ossia.remote #1/mixer/source"
				}

			}
, 			{
				"box" : 				{
					"contdata" : 1,
					"id" : "obj-1257",
					"maxclass" : "multislider",
					"numinlets" : 1,
					"numoutlets" : 2,
					"outlettype" : [ "", "" ],
					"parameter_enable" : 1,
					"patching_rect" : [ 1290.0, 375.0, 15.0, 135.0 ],
					"presentation" : 1,
					"presentation_rect" : [ 50.0, 150.0, 10.0, 144.0 ],
					"saved_attribute_attributes" : 					{
						"valueof" : 						{
							"parameter_longname" : "multislider[15]",
							"parameter_mmax" : 100.0,
							"parameter_shortname" : "multislider",
							"parameter_type" : 0
						}

					}
,
					"setminmax" : [ 0.0, 100.0 ],
					"setstyle" : 1,
					"slidercolor" : [ 0.070588235294118, 0.647058823529412, 0.2, 1.0 ],
					"varname" : "live.numbox[53]"
				}

			}
 ],
		"lines" : [ 			{
				"patchline" : 				{
					"destination" : [ "obj-21", 0 ],
					"midpoints" : [ 249.5, 849.0, 225.0, 849.0, 225.0, 789.0, 249.5, 789.0 ],
					"source" : [ "obj-1", 0 ]
				}

			}
, 			{
				"patchline" : 				{
					"destination" : [ "obj-1027", 0 ],
					"midpoints" : [ 264.5, 248.0, 264.5, 248.0 ],
					"source" : [ "obj-1025", 0 ]
				}

			}
, 			{
				"patchline" : 				{
					"destination" : [ "obj-1025", 0 ],
					"midpoints" : [ 264.5, 294.0, 240.0, 294.0, 240.0, 219.0, 264.5, 219.0 ],
					"source" : [ "obj-1027", 0 ]
				}

			}
, 			{
				"patchline" : 				{
					"destination" : [ "obj-1043", 0 ],
					"midpoints" : [ 264.5, 129.0, 264.5, 129.0 ],
					"source" : [ "obj-1042", 0 ]
				}

			}
, 			{
				"patchline" : 				{
					"destination" : [ "obj-1042", 0 ],
					"midpoints" : [ 264.5, 183.000000715255737, 240.0, 183.000000715255737, 240.0, 99.0, 264.5, 99.0 ],
					"source" : [ "obj-1043", 0 ]
				}

			}
, 			{
				"patchline" : 				{
					"destination" : [ "obj-76", 0 ],
					"midpoints" : [ 459.5, 186.0, 435.0, 186.0, 435.0, 84.0, 459.5, 84.0 ],
					"source" : [ "obj-1089", 0 ]
				}

			}
, 			{
				"patchline" : 				{
					"destination" : [ "obj-1136", 0 ],
					"midpoints" : [ 639.5, 128.0, 639.5, 128.0 ],
					"source" : [ "obj-1135", 0 ]
				}

			}
, 			{
				"patchline" : 				{
					"destination" : [ "obj-1135", 0 ],
					"midpoints" : [ 639.5, 174.0, 615.0, 174.0, 615.0, 99.0, 639.5, 99.0 ],
					"source" : [ "obj-1136", 0 ]
				}

			}
, 			{
				"patchline" : 				{
					"destination" : [ "obj-1152", 0 ],
					"midpoints" : [ 639.5, 233.0, 639.5, 233.0 ],
					"source" : [ "obj-1151", 0 ]
				}

			}
, 			{
				"patchline" : 				{
					"destination" : [ "obj-1151", 0 ],
					"midpoints" : [ 639.5, 279.0, 615.0, 279.0, 615.0, 204.0, 639.5, 204.0 ],
					"source" : [ "obj-1152", 0 ]
				}

			}
, 			{
				"patchline" : 				{
					"destination" : [ "obj-2", 0 ],
					"midpoints" : [ 264.5, 1086.0, 264.5, 1086.0 ],
					"source" : [ "obj-12", 0 ]
				}

			}
, 			{
				"patchline" : 				{
					"destination" : [ "obj-1204", 0 ],
					"source" : [ "obj-1202", 0 ]
				}

			}
, 			{
				"patchline" : 				{
					"destination" : [ "obj-668", 0 ],
					"source" : [ "obj-1204", 0 ]
				}

			}
, 			{
				"patchline" : 				{
					"destination" : [ "obj-1257", 0 ],
					"midpoints" : [ 1299.5, 370.5, 1299.0, 370.5 ],
					"source" : [ "obj-1258", 0 ]
				}

			}
, 			{
				"patchline" : 				{
					"destination" : [ "obj-1258", 0 ],
					"source" : [ "obj-1264", 0 ]
				}

			}
, 			{
				"patchline" : 				{
					"destination" : [ "obj-1346", 0 ],
					"midpoints" : [ 264.5, 368.0, 264.5, 368.0 ],
					"source" : [ "obj-1345", 0 ]
				}

			}
, 			{
				"patchline" : 				{
					"destination" : [ "obj-1345", 0 ],
					"midpoints" : [ 264.5, 414.0, 240.0, 414.0, 240.0, 339.0, 264.5, 339.0 ],
					"source" : [ "obj-1346", 0 ]
				}

			}
, 			{
				"patchline" : 				{
					"destination" : [ "obj-1364", 0 ],
					"midpoints" : [ 54.5, 353.0, 54.5, 353.0 ],
					"source" : [ "obj-1363", 0 ]
				}

			}
, 			{
				"patchline" : 				{
					"destination" : [ "obj-1363", 0 ],
					"midpoints" : [ 54.5, 399.0, 30.0, 399.0, 30.0, 324.0, 54.5, 324.0 ],
					"source" : [ "obj-1364", 0 ]
				}

			}
, 			{
				"patchline" : 				{
					"destination" : [ "obj-571", 0 ],
					"source" : [ "obj-150", 0 ]
				}

			}
, 			{
				"patchline" : 				{
					"destination" : [ "obj-152", 0 ],
					"midpoints" : [ 639.5, 338.0, 639.5, 338.0 ],
					"source" : [ "obj-151", 0 ]
				}

			}
, 			{
				"patchline" : 				{
					"destination" : [ "obj-151", 0 ],
					"midpoints" : [ 639.5, 384.0, 615.0, 384.0, 615.0, 309.0, 639.5, 309.0 ],
					"source" : [ "obj-152", 0 ]
				}

			}
, 			{
				"patchline" : 				{
					"destination" : [ "obj-158", 0 ],
					"midpoints" : [ 639.5, 443.0, 639.5, 443.0 ],
					"source" : [ "obj-157", 0 ]
				}

			}
, 			{
				"patchline" : 				{
					"destination" : [ "obj-157", 0 ],
					"midpoints" : [ 639.5, 489.0, 615.0, 489.0, 615.0, 414.0, 639.5, 414.0 ],
					"source" : [ "obj-158", 0 ]
				}

			}
, 			{
				"patchline" : 				{
					"destination" : [ "obj-6", 0 ],
					"midpoints" : [ 264.5, 1044.0, 240.0, 1044.0, 240.0, 984.0, 264.5, 984.0 ],
					"source" : [ "obj-18", 0 ]
				}

			}
, 			{
				"patchline" : 				{
					"destination" : [ "obj-12", 0 ],
					"midpoints" : [ 264.5, 1119.0, 240.0, 1119.0, 240.0, 1059.0, 264.5, 1059.0 ],
					"source" : [ "obj-2", 0 ]
				}

			}
, 			{
				"patchline" : 				{
					"destination" : [ "obj-1", 0 ],
					"midpoints" : [ 249.5, 816.0, 249.5, 816.0 ],
					"source" : [ "obj-21", 0 ]
				}

			}
, 			{
				"patchline" : 				{
					"destination" : [ "obj-37", 0 ],
					"source" : [ "obj-27", 0 ]
				}

			}
, 			{
				"patchline" : 				{
					"destination" : [ "obj-1135", 0 ],
					"midpoints" : [ 639.5, 69.0, 639.5, 69.0 ],
					"order" : 3,
					"source" : [ "obj-278", 0 ]
				}

			}
, 			{
				"patchline" : 				{
					"destination" : [ "obj-1151", 0 ],
					"midpoints" : [ 639.5, 90.0, 600.0, 90.0, 600.0, 204.0, 639.5, 204.0 ],
					"order" : 2,
					"source" : [ "obj-278", 0 ]
				}

			}
, 			{
				"patchline" : 				{
					"destination" : [ "obj-151", 0 ],
					"midpoints" : [ 639.5, 90.0, 600.0, 90.0, 600.0, 309.0, 639.5, 309.0 ],
					"order" : 1,
					"source" : [ "obj-278", 0 ]
				}

			}
, 			{
				"patchline" : 				{
					"destination" : [ "obj-157", 0 ],
					"midpoints" : [ 639.5, 90.0, 599.0, 90.0, 599.0, 405.0, 639.5, 405.0 ],
					"order" : 0,
					"source" : [ "obj-278", 0 ]
				}

			}
, 			{
				"patchline" : 				{
					"destination" : [ "obj-27", 0 ],
					"source" : [ "obj-33", 0 ]
				}

			}
, 			{
				"patchline" : 				{
					"destination" : [ "obj-38", 0 ],
					"order" : 0,
					"source" : [ "obj-37", 0 ]
				}

			}
, 			{
				"patchline" : 				{
					"destination" : [ "obj-46", 0 ],
					"midpoints" : [ 564.5, 882.0, 564.5, 882.0 ],
					"order" : 1,
					"source" : [ "obj-37", 0 ]
				}

			}
, 			{
				"patchline" : 				{
					"destination" : [ "obj-37", 0 ],
					"source" : [ "obj-38", 0 ]
				}

			}
, 			{
				"patchline" : 				{
					"destination" : [ "obj-48", 0 ],
					"source" : [ "obj-46", 0 ]
				}

			}
, 			{
				"patchline" : 				{
					"destination" : [ "obj-50", 0 ],
					"midpoints" : [ 564.5, 939.0, 540.0, 939.0, 540.0, 654.0, 564.5, 654.0 ],
					"source" : [ "obj-48", 0 ]
				}

			}
, 			{
				"patchline" : 				{
					"destination" : [ "obj-33", 0 ],
					"midpoints" : [ 575.0, 693.0, 564.5, 693.0 ],
					"order" : 1,
					"source" : [ "obj-50", 1 ]
				}

			}
, 			{
				"patchline" : 				{
					"destination" : [ "obj-62", 0 ],
					"midpoints" : [ 575.0, 699.0, 594.5, 699.0 ],
					"order" : 0,
					"source" : [ "obj-50", 1 ]
				}

			}
, 			{
				"patchline" : 				{
					"destination" : [ "obj-150", 0 ],
					"midpoints" : [ 879.5, 261.0, 855.0, 261.0, 855.0, 84.0, 879.5, 84.0 ],
					"source" : [ "obj-571", 0 ]
				}

			}
, 			{
				"patchline" : 				{
					"destination" : [ "obj-18", 0 ],
					"midpoints" : [ 264.5, 1011.0, 264.5, 1011.0 ],
					"source" : [ "obj-6", 0 ]
				}

			}
, 			{
				"patchline" : 				{
					"destination" : [ "obj-50", 0 ],
					"midpoints" : [ 594.5, 729.0, 540.0, 729.0, 540.0, 654.0, 564.5, 654.0 ],
					"source" : [ "obj-62", 0 ]
				}

			}
, 			{
				"patchline" : 				{
					"destination" : [ "obj-719", 0 ],
					"midpoints" : [ 1299.5, 183.0, 1299.5, 183.0 ],
					"source" : [ "obj-668", 0 ]
				}

			}
, 			{
				"patchline" : 				{
					"destination" : [ "obj-68", 0 ],
					"midpoints" : [ 249.5, 939.0, 225.0, 939.0, 225.0, 879.0, 249.5, 879.0 ],
					"source" : [ "obj-67", 0 ]
				}

			}
, 			{
				"patchline" : 				{
					"destination" : [ "obj-1025", 0 ],
					"midpoints" : [ 24.5, 210.0, 264.5, 210.0 ],
					"order" : 2,
					"source" : [ "obj-678", 0 ]
				}

			}
, 			{
				"patchline" : 				{
					"destination" : [ "obj-1042", 0 ],
					"midpoints" : [ 24.5, 90.0, 264.5, 90.0 ],
					"order" : 3,
					"source" : [ "obj-678", 0 ]
				}

			}
, 			{
				"patchline" : 				{
					"destination" : [ "obj-1345", 0 ],
					"midpoints" : [ 24.5, 315.0, 264.5, 315.0 ],
					"order" : 1,
					"source" : [ "obj-678", 0 ]
				}

			}
, 			{
				"patchline" : 				{
					"destination" : [ "obj-1363", 0 ],
					"midpoints" : [ 24.5, 315.0, 54.5, 315.0 ],
					"order" : 4,
					"source" : [ "obj-678", 0 ]
				}

			}
, 			{
				"patchline" : 				{
					"destination" : [ "obj-76", 0 ],
					"midpoints" : [ 24.5, 75.0, 459.5, 75.0 ],
					"order" : 0,
					"source" : [ "obj-678", 0 ]
				}

			}
, 			{
				"patchline" : 				{
					"destination" : [ "obj-951", 0 ],
					"midpoints" : [ 24.5, 90.0, 54.5, 90.0 ],
					"order" : 6,
					"source" : [ "obj-678", 0 ]
				}

			}
, 			{
				"patchline" : 				{
					"destination" : [ "obj-967", 0 ],
					"midpoints" : [ 24.5, 210.0, 54.5, 210.0 ],
					"order" : 5,
					"source" : [ "obj-678", 0 ]
				}

			}
, 			{
				"patchline" : 				{
					"destination" : [ "obj-67", 0 ],
					"midpoints" : [ 249.5, 903.0, 249.5, 903.0 ],
					"source" : [ "obj-68", 0 ]
				}

			}
, 			{
				"patchline" : 				{
					"destination" : [ "obj-78", 0 ],
					"midpoints" : [ 1299.5, 219.0, 1299.5, 219.0 ],
					"source" : [ "obj-719", 0 ]
				}

			}
, 			{
				"patchline" : 				{
					"destination" : [ "obj-1089", 0 ],
					"source" : [ "obj-76", 0 ]
				}

			}
, 			{
				"patchline" : 				{
					"destination" : [ "obj-848", 0 ],
					"source" : [ "obj-773", 0 ]
				}

			}
, 			{
				"patchline" : 				{
					"destination" : [ "obj-1202", 0 ],
					"midpoints" : [ 1342.33333420753479, 276.0, 1275.0, 276.0, 1275.0, 39.0, 1299.5, 39.0 ],
					"source" : [ "obj-78", 1 ]
				}

			}
, 			{
				"patchline" : 				{
					"destination" : [ "obj-929", 0 ],
					"source" : [ "obj-848", 0 ]
				}

			}
, 			{
				"patchline" : 				{
					"destination" : [ "obj-898", 0 ],
					"midpoints" : [ 879.5, 579.0, 855.0, 579.0, 855.0, 501.0, 879.5, 501.0 ],
					"source" : [ "obj-897", 0 ]
				}

			}
, 			{
				"patchline" : 				{
					"destination" : [ "obj-897", 0 ],
					"midpoints" : [ 879.5, 528.0, 879.5, 528.0 ],
					"source" : [ "obj-898", 0 ]
				}

			}
, 			{
				"patchline" : 				{
					"destination" : [ "obj-936", 0 ],
					"source" : [ "obj-922", 0 ]
				}

			}
, 			{
				"patchline" : 				{
					"destination" : [ "obj-848", 0 ],
					"midpoints" : [ 879.5, 486.0, 855.0, 486.0, 855.0, 324.0, 879.5, 324.0 ],
					"source" : [ "obj-929", 0 ]
				}

			}
, 			{
				"patchline" : 				{
					"destination" : [ "obj-922", 0 ],
					"midpoints" : [ 1074.5, 249.0, 1050.0, 249.0, 1050.0, 69.0, 1074.5, 69.0 ],
					"source" : [ "obj-936", 0 ]
				}

			}
, 			{
				"patchline" : 				{
					"destination" : [ "obj-952", 0 ],
					"midpoints" : [ 54.5, 129.0, 54.5, 129.0 ],
					"source" : [ "obj-951", 0 ]
				}

			}
, 			{
				"patchline" : 				{
					"destination" : [ "obj-951", 0 ],
					"midpoints" : [ 54.5, 183.000000715255737, 30.0, 183.000000715255737, 30.0, 99.0, 54.5, 99.0 ],
					"source" : [ "obj-952", 0 ]
				}

			}
, 			{
				"patchline" : 				{
					"destination" : [ "obj-968", 0 ],
					"midpoints" : [ 54.5, 248.0, 54.5, 248.0 ],
					"source" : [ "obj-967", 0 ]
				}

			}
, 			{
				"patchline" : 				{
					"destination" : [ "obj-967", 0 ],
					"midpoints" : [ 54.5, 294.0, 30.0, 294.0, 30.0, 219.0, 54.5, 219.0 ],
					"source" : [ "obj-968", 0 ]
				}

			}
, 			{
				"patchline" : 				{
					"destination" : [ "obj-150", 0 ],
					"source" : [ "obj-985", 0 ]
				}

			}
, 			{
				"patchline" : 				{
					"destination" : [ "obj-922", 0 ],
					"source" : [ "obj-994", 0 ]
				}

			}
 ]
	}

}
