{
	"patcher" : 	{
		"fileversion" : 1,
		"appversion" : 		{
			"major" : 8,
			"minor" : 5,
			"revision" : 4,
			"architecture" : "x64",
			"modernui" : 1
		}
,
		"classnamespace" : "box",
		"rect" : [ 105.0, 237.0, 1107.0, 882.0 ],
		"bglocked" : 0,
		"openinpresentation" : 1,
		"default_fontsize" : 12.0,
		"default_fontface" : 0,
		"default_fontname" : "Arial",
		"gridonopen" : 2,
		"gridsize" : [ 15.0, 15.0 ],
		"gridsnaponopen" : 2,
		"objectsnaponopen" : 0,
		"statusbarvisible" : 2,
		"toolbarvisible" : 1,
		"lefttoolbarpinned" : 0,
		"toptoolbarpinned" : 0,
		"righttoolbarpinned" : 0,
		"bottomtoolbarpinned" : 0,
		"toolbars_unpinned_last_save" : 0,
		"tallnewobj" : 0,
		"boxanimatetime" : 200,
		"enablehscroll" : 1,
		"enablevscroll" : 1,
		"devicewidth" : 0.0,
		"description" : "",
		"digest" : "",
		"tags" : "",
		"style" : "",
		"subpatcher_template" : "evan_template",
		"assistshowspatchername" : 0,
		"boxes" : [ 			{
				"box" : 				{
					"bgcolor" : [ 0.2, 0.2, 0.2, 0.0 ],
					"blinkcolor" : [ 1.0, 0.0, 0.933333333333333, 1.0 ],
					"id" : "obj-59",
					"maxclass" : "button",
					"numinlets" : 1,
					"numoutlets" : 1,
					"outlettype" : [ "bang" ],
					"outlinecolor" : [ 0.666666666666667, 0.149019607843137, 0.149019607843137, 1.0 ],
					"parameter_enable" : 0,
					"patching_rect" : [ 195.0, 465.0, 24.0, 24.0 ],
					"presentation" : 1,
					"presentation_rect" : [ 31.0, 36.0, 12.0, 12.0 ]
				}

			}
, 			{
				"box" : 				{
					"bgcolor" : [ 0.43921568627451, 0.556862745098039, 0.380392156862745, 1.0 ],
					"bgcolor2" : [ 0.2, 0.2, 0.2, 1.0 ],
					"bgfillcolor_angle" : 270.0,
					"bgfillcolor_autogradient" : 0.0,
					"bgfillcolor_color" : [ 0.43921568627451, 0.556862745098039, 0.380392156862745, 1.0 ],
					"bgfillcolor_color1" : [ 0.43921568627451, 0.556862745098039, 0.380392156862745, 1.0 ],
					"bgfillcolor_color2" : [ 0.2, 0.2, 0.2, 1.0 ],
					"bgfillcolor_proportion" : 0.5,
					"bgfillcolor_type" : "gradient",
					"fontsize" : 9.0,
					"gradient" : 1,
					"id" : "obj-49",
					"maxclass" : "message",
					"numinlets" : 2,
					"numoutlets" : 1,
					"outlettype" : [ "" ],
					"patching_rect" : [ 120.0, 480.0, 45.0, 19.0 ]
				}

			}
, 			{
				"box" : 				{
					"fontname" : "Arial",
					"fontsize" : 12.0,
					"id" : "obj-33",
					"maxclass" : "newobj",
					"numinlets" : 1,
					"numoutlets" : 1,
					"outlettype" : [ "" ],
					"patching_rect" : [ 346.0, 529.0, 132.0, 22.0 ],
					"text" : "translate hz notevalues"
				}

			}
, 			{
				"box" : 				{
					"fontname" : "Arial",
					"fontsize" : 12.0,
					"id" : "obj-32",
					"maxclass" : "newobj",
					"numinlets" : 1,
					"numoutlets" : 1,
					"outlettype" : [ "" ],
					"patching_rect" : [ 343.0, 432.0, 134.0, 22.0 ],
					"text" : "translate notevalues hz"
				}

			}
, 			{
				"box" : 				{
					"id" : "obj-31",
					"maxclass" : "newobj",
					"numinlets" : 1,
					"numoutlets" : 1,
					"outlettype" : [ "" ],
					"patching_rect" : [ 26.0, 559.0, 72.0, 22.0 ],
					"text" : "prepend set"
				}

			}
, 			{
				"box" : 				{
					"fontname" : "Arial",
					"fontsize" : 12.0,
					"id" : "obj-30",
					"maxclass" : "newobj",
					"numinlets" : 1,
					"numoutlets" : 1,
					"outlettype" : [ "" ],
					"patching_rect" : [ 26.0, 534.0, 132.0, 22.0 ],
					"text" : "translate hz notevalues"
				}

			}
, 			{
				"box" : 				{
					"fontname" : "Arial",
					"fontsize" : 12.0,
					"id" : "obj-29",
					"maxclass" : "newobj",
					"numinlets" : 1,
					"numoutlets" : 1,
					"outlettype" : [ "" ],
					"patching_rect" : [ 26.0, 437.0, 134.0, 22.0 ],
					"text" : "translate notevalues hz"
				}

			}
, 			{
				"box" : 				{
					"fontname" : "Arial",
					"fontsize" : 13.0,
					"id" : "obj-25",
					"maxclass" : "newobj",
					"numinlets" : 1,
					"numoutlets" : 3,
					"outlettype" : [ "", "", "" ],
					"patching_rect" : [ 389.0, 403.0, 266.0, 23.0 ],
					"text" : "ossia.remote #1/servo*/lfo2/rateNoteValue",
					"varname" : "rate/min[2]"
				}

			}
, 			{
				"box" : 				{
					"align" : 1,
					"allowdrag" : 0,
					"arrow" : 0,
					"bgfillcolor_angle" : 270.0,
					"bgfillcolor_autogradient" : 0.0,
					"bgfillcolor_color" : [ 0.815686274509804, 0.815686274509804, 0.815686274509804, 0.37 ],
					"bgfillcolor_color1" : [ 0.815686274509804, 0.815686274509804, 0.815686274509804, 0.37 ],
					"bgfillcolor_color2" : [ 0.2, 0.2, 0.2, 1.0 ],
					"bgfillcolor_proportion" : 0.5,
					"bgfillcolor_type" : "gradient",
					"fontname" : "Ableton Sans Medium",
					"fontsize" : 8.0,
					"hint" : "notevalue select",
					"id" : "obj-26",
					"items" : [ "1n", ",", "1nd", ",", "1nt", ",", "2n", ",", "2nd", ",", "2nt", ",", "4n", ",", "4nd", ",", "4nt", ",", "8n", ",", "8nd", ",", "8nt", ",", "16n", ",", "16nd", ",", "16nt" ],
					"maxclass" : "umenu",
					"numinlets" : 1,
					"numoutlets" : 3,
					"outlettype" : [ "int", "", "" ],
					"parameter_enable" : 0,
					"patching_rect" : [ 332.0, 374.0, 40.0, 18.0 ],
					"presentation" : 1,
					"presentation_rect" : [ 41.583333253860474, 153.25, 23.25, 18.0 ],
					"textcolor" : [ 0.0, 0.0, 0.0, 1.0 ],
					"textjustification" : 1,
					"varname" : "#1_notevalue_rate[2]"
				}

			}
, 			{
				"box" : 				{
					"bgcolor" : [ 0.227450980392157, 0.219607843137255, 0.211764705882353, 0.101960784313725 ],
					"fontface" : 1,
					"fontname" : "Ableton Sans Medium ",
					"fontsize" : 9.0,
					"format" : 6,
					"id" : "obj-19",
					"maxclass" : "flonum",
					"numinlets" : 1,
					"numoutlets" : 2,
					"outlettype" : [ "", "bang" ],
					"parameter_enable" : 0,
					"patching_rect" : [ 325.0, 571.0, 52.0, 17.0 ],
					"presentation" : 1,
					"presentation_rect" : [ 29.75, 176.25, 27.0, 17.0 ],
					"textcolor" : [ 0.0, 0.0, 0.0, 1.0 ],
					"triangle" : 0,
					"triscale" : 0.9
				}

			}
, 			{
				"box" : 				{
					"fontname" : "Verdana",
					"fontsize" : 12.0,
					"id" : "obj-23",
					"linecount" : 2,
					"maxclass" : "newobj",
					"numinlets" : 1,
					"numoutlets" : 3,
					"outlettype" : [ "", "", "" ],
					"patching_rect" : [ 325.0, 596.0, 175.0, 38.0 ],
					"text" : "ossia.remote #1/servo*/lfo2/rateScale",
					"varname" : "rate/max[3]"
				}

			}
, 			{
				"box" : 				{
					"activebgoncolor" : [ 1.0, 0.345098039215686, 0.298039215686275, 1.0 ],
					"automation" : "Hz",
					"automationon" : "Lock",
					"fontface" : 1,
					"fontsize" : 8.0,
					"id" : "obj-11",
					"maxclass" : "live.text",
					"numinlets" : 1,
					"numoutlets" : 2,
					"outlettype" : [ "", "" ],
					"parameter_enable" : 1,
					"patching_rect" : [ 331.0, 266.0, 36.0, 15.0 ],
					"presentation" : 1,
					"presentation_rect" : [ 30.0, 117.0, 27.0, 15.75 ],
					"saved_attribute_attributes" : 					{
						"activebgoncolor" : 						{
							"expression" : "themecolor.live_active_automation"
						}
,
						"valueof" : 						{
							"parameter_enum" : [ "Hz", "Lock" ],
							"parameter_longname" : "live.text[23]",
							"parameter_mmax" : 1,
							"parameter_shortname" : "live.text",
							"parameter_type" : 2
						}

					}
,
					"text" : "Hz",
					"texton" : "Lock",
					"varname" : "live.text[1]"
				}

			}
, 			{
				"box" : 				{
					"fontname" : "Verdana",
					"fontsize" : 12.0,
					"id" : "obj-13",
					"linecount" : 2,
					"maxclass" : "newobj",
					"numinlets" : 1,
					"numoutlets" : 3,
					"outlettype" : [ "", "", "" ],
					"patching_rect" : [ 331.0, 290.0, 200.0, 38.0 ],
					"text" : "ossia.remote #1/servo*/lfo2/phaserMode",
					"varname" : "rate/max[1]"
				}

			}
, 			{
				"box" : 				{
					"bgcolor" : [ 0.227450980392157, 0.219607843137255, 0.211764705882353, 0.101960784313725 ],
					"fontface" : 1,
					"fontname" : "Ableton Sans Medium ",
					"fontsize" : 9.0,
					"format" : 6,
					"id" : "obj-64",
					"maxclass" : "flonum",
					"numinlets" : 1,
					"numoutlets" : 2,
					"outlettype" : [ "", "bang" ],
					"parameter_enable" : 0,
					"patching_rect" : [ 12.0, 605.0, 52.0, 17.0 ],
					"presentation" : 1,
					"presentation_rect" : [ 15.833332598209381, 61.333333253860474, 27.0, 17.0 ],
					"textcolor" : [ 0.0, 0.0, 0.0, 1.0 ],
					"triangle" : 0,
					"triscale" : 0.9
				}

			}
, 			{
				"box" : 				{
					"fontname" : "Arial Narrow",
					"fontsize" : 9.0,
					"id" : "obj-65",
					"maxclass" : "comment",
					"numinlets" : 1,
					"numoutlets" : 0,
					"patching_rect" : [ 65.0, 600.0, 39.0, 17.0 ],
					"presentation" : 1,
					"presentation_rect" : [ 0.833332598209381, 61.333333253860474, 19.0, 17.0 ],
					"text" : "scl",
					"varname" : "var2[1]"
				}

			}
, 			{
				"box" : 				{
					"fontname" : "Verdana",
					"fontsize" : 12.0,
					"id" : "obj-63",
					"maxclass" : "newobj",
					"numinlets" : 1,
					"numoutlets" : 3,
					"outlettype" : [ "", "", "" ],
					"patching_rect" : [ 12.0, 635.0, 256.0, 23.0 ],
					"text" : "ossia.remote #1/servo*/lfo1/rateScale",
					"varname" : "rate/max[4]"
				}

			}
, 			{
				"box" : 				{
					"fontname" : "Arial Narrow",
					"fontsize" : 9.0,
					"id" : "obj-3",
					"maxclass" : "comment",
					"numinlets" : 1,
					"numoutlets" : 0,
					"patching_rect" : [ 42.0, 665.0, 29.0, 17.0 ],
					"presentation" : 1,
					"presentation_rect" : [ 45.75, 85.5, 17.5, 17.0 ],
					"text" : "fld",
					"varname" : "var4[1]"
				}

			}
, 			{
				"box" : 				{
					"activebgoncolor" : [ 1.0, 0.345098039215686, 0.298039215686275, 1.0 ],
					"automation" : "Hz",
					"automationon" : "Lock",
					"fontface" : 1,
					"fontsize" : 8.0,
					"id" : "obj-68",
					"maxclass" : "live.text",
					"numinlets" : 1,
					"numoutlets" : 2,
					"outlettype" : [ "", "" ],
					"parameter_enable" : 1,
					"patching_rect" : [ 14.0, 263.0, 36.0, 15.0 ],
					"presentation" : 1,
					"presentation_rect" : [ 42.33333146572113, 15.999999612569809, 25.999999970197678, 17.0 ],
					"saved_attribute_attributes" : 					{
						"activebgoncolor" : 						{
							"expression" : "themecolor.live_active_automation"
						}
,
						"valueof" : 						{
							"parameter_enum" : [ "Hz", "Lock" ],
							"parameter_longname" : "live.text[24]",
							"parameter_mmax" : 1,
							"parameter_shortname" : "live.text",
							"parameter_type" : 2
						}

					}
,
					"text" : "Hz",
					"texton" : "Lock",
					"varname" : "live.text"
				}

			}
, 			{
				"box" : 				{
					"fontname" : "Verdana",
					"fontsize" : 12.0,
					"id" : "obj-67",
					"linecount" : 3,
					"maxclass" : "newobj",
					"numinlets" : 1,
					"numoutlets" : 3,
					"outlettype" : [ "", "", "" ],
					"patching_rect" : [ 14.0, 293.0, 182.0, 52.0 ],
					"text" : "ossia.remote #1/servo*/lfo1/phaserMode",
					"varname" : "rate/max[12]"
				}

			}
, 			{
				"box" : 				{
					"fontname" : "Arial",
					"fontsize" : 13.0,
					"id" : "obj-62",
					"linecount" : 2,
					"maxclass" : "newobj",
					"numinlets" : 1,
					"numoutlets" : 3,
					"outlettype" : [ "", "", "" ],
					"patching_rect" : [ 58.0, 397.0, 197.0, 38.0 ],
					"text" : "ossia.remote #1/servo*/lfo1/rateNoteValue",
					"varname" : "rate/min[1]"
				}

			}
, 			{
				"box" : 				{
					"bgcolor" : [ 0.227450980392157, 0.219607843137255, 0.211764705882353, 0.101960784313725 ],
					"fontface" : 1,
					"fontname" : "Ableton Sans Medium ",
					"fontsize" : 9.0,
					"format" : 6,
					"id" : "obj-21",
					"maxclass" : "flonum",
					"numinlets" : 1,
					"numoutlets" : 2,
					"outlettype" : [ "", "bang" ],
					"parameter_enable" : 0,
					"patching_rect" : [ 12.0, 785.0, 52.0, 17.0 ],
					"presentation" : 1,
					"presentation_rect" : [ 15.833332598209381, 78.333333253860474, 26.999999940395355, 17.0 ],
					"textcolor" : [ 0.0, 0.0, 0.0, 1.0 ],
					"triangle" : 0,
					"triscale" : 0.9,
					"varname" : "var1"
				}

			}
, 			{
				"box" : 				{
					"fontname" : "Arial Narrow",
					"fontsize" : 9.0,
					"id" : "obj-22",
					"maxclass" : "comment",
					"numinlets" : 1,
					"numoutlets" : 0,
					"patching_rect" : [ 72.0, 785.0, 38.0, 17.0 ],
					"presentation" : 1,
					"presentation_rect" : [ -2.166667401790619, 78.333333253860474, 22.0, 17.0 ],
					"text" : "duty",
					"varname" : "var2"
				}

			}
, 			{
				"box" : 				{
					"fontname" : "Verdana",
					"fontsize" : 12.0,
					"id" : "obj-1",
					"maxclass" : "newobj",
					"numinlets" : 1,
					"numoutlets" : 3,
					"outlettype" : [ "", "", "" ],
					"patching_rect" : [ 12.0, 815.0, 258.0, 23.0 ],
					"text" : "ossia.remote #1/servo*/lfo1/dutyCycle",
					"varname" : "rate/max[2]"
				}

			}
, 			{
				"box" : 				{
					"fontname" : "Arial Narrow",
					"fontsize" : 9.0,
					"id" : "obj-17",
					"maxclass" : "comment",
					"numinlets" : 1,
					"numoutlets" : 0,
					"patching_rect" : [ 57.0, 724.0, 29.0, 17.0 ],
					"presentation" : 1,
					"presentation_rect" : [ -0.833334028720856, 98.0, 20.0, 17.0 ],
					"text" : "shp",
					"varname" : "var4"
				}

			}
, 			{
				"box" : 				{
					"fontname" : "Arial",
					"fontsize" : 13.0,
					"id" : "obj-2",
					"maxclass" : "newobj",
					"numinlets" : 1,
					"numoutlets" : 3,
					"outlettype" : [ "", "", "" ],
					"patching_rect" : [ 12.0, 755.0, 219.0, 23.0 ],
					"text" : "ossia.remote #1/servo*/lfo1/shape",
					"varname" : "rate/min[8]"
				}

			}
, 			{
				"box" : 				{
					"bgcolor" : [ 0.2, 0.2, 0.2, 0.62 ],
					"fontname" : "Ableton Sans Medium ",
					"fontsize" : 9.0,
					"id" : "obj-12",
					"maxclass" : "number",
					"maximum" : 100,
					"minimum" : 0,
					"numinlets" : 1,
					"numoutlets" : 2,
					"outlettype" : [ "", "bang" ],
					"parameter_enable" : 0,
					"patching_rect" : [ 11.0, 724.0, 32.0, 17.0 ],
					"presentation" : 1,
					"presentation_rect" : [ 14.0, 98.0, 22.5, 17.0 ],
					"triangle" : 0,
					"varname" : "var3"
				}

			}
, 			{
				"box" : 				{
					"fontname" : "Arial",
					"fontsize" : 13.0,
					"id" : "obj-18",
					"maxclass" : "newobj",
					"numinlets" : 1,
					"numoutlets" : 3,
					"outlettype" : [ "", "", "" ],
					"patching_rect" : [ 12.0, 696.0, 204.0, 23.0 ],
					"text" : "ossia.remote #1/servo*/lfo1/fold",
					"varname" : "rate/min[7]"
				}

			}
, 			{
				"box" : 				{
					"bgcolor" : [ 0.2, 0.2, 0.2, 0.62 ],
					"fontname" : "Ableton Sans Medium ",
					"fontsize" : 9.0,
					"id" : "obj-4",
					"maxclass" : "number",
					"maximum" : 100,
					"minimum" : 0,
					"numinlets" : 1,
					"numoutlets" : 2,
					"outlettype" : [ "", "bang" ],
					"parameter_enable" : 0,
					"patching_rect" : [ 12.0, 665.0, 32.0, 17.0 ],
					"presentation" : 1,
					"presentation_rect" : [ 37.5, 98.0, 22.5, 17.0 ],
					"triangle" : 0
				}

			}
, 			{
				"box" : 				{
					"align" : 1,
					"allowdrag" : 0,
					"arrow" : 0,
					"bgfillcolor_angle" : 270.0,
					"bgfillcolor_autogradient" : 0.0,
					"bgfillcolor_color" : [ 0.815686274509804, 0.815686274509804, 0.815686274509804, 0.37 ],
					"bgfillcolor_color1" : [ 0.815686274509804, 0.815686274509804, 0.815686274509804, 0.37 ],
					"bgfillcolor_color2" : [ 0.2, 0.2, 0.2, 1.0 ],
					"bgfillcolor_proportion" : 0.5,
					"bgfillcolor_type" : "gradient",
					"fontname" : "Ableton Sans Medium",
					"fontsize" : 8.0,
					"hint" : "notevalue select",
					"id" : "obj-10",
					"items" : [ "1n", ",", "1nd", ",", "1nt", ",", "2n", ",", "2nd", ",", "2nt", ",", "4n", ",", "4nd", ",", "4nt", ",", "8n", ",", "8nd", ",", "8nt", ",", "16n", ",", "16nd", ",", "16nt" ],
					"maxclass" : "umenu",
					"numinlets" : 1,
					"numoutlets" : 3,
					"outlettype" : [ "int", "", "" ],
					"parameter_enable" : 0,
					"patching_rect" : [ 15.0, 377.0, 40.0, 18.0 ],
					"presentation" : 1,
					"presentation_rect" : [ 43.333333283662796, 32.666666746139526, 23.5, 18.0 ],
					"textcolor" : [ 0.0, 0.0, 0.0, 1.0 ],
					"textjustification" : 1,
					"varname" : "#1_notevalue_rate[1]"
				}

			}
, 			{
				"box" : 				{
					"bgcolor" : [ 0.227450980392157, 0.219607843137255, 0.211764705882353, 0.250980392156863 ],
					"fontsize" : 9.0,
					"id" : "obj-50",
					"maxclass" : "number",
					"maximum" : 10000,
					"minimum" : 1,
					"numinlets" : 1,
					"numoutlets" : 2,
					"outlettype" : [ "", "bang" ],
					"parameter_enable" : 1,
					"patching_rect" : [ 627.0, 170.0, 48.0, 19.0 ],
					"presentation" : 1,
					"presentation_rect" : [ 11.0, 231.0, 45.0, 19.0 ],
					"saved_attribute_attributes" : 					{
						"valueof" : 						{
							"parameter_invisible" : 1,
							"parameter_longname" : "number[481]",
							"parameter_mmax" : 10000.0,
							"parameter_mmin" : 1.0,
							"parameter_shortname" : "number[96]",
							"parameter_type" : 3
						}

					}
,
					"textcolor" : [ 0.0, 0.0, 0.0, 1.0 ],
					"triangle" : 0,
					"varname" : "RTmin[95]"
				}

			}
, 			{
				"box" : 				{
					"fontname" : "Arial",
					"fontsize" : 13.0,
					"id" : "obj-51",
					"linecount" : 2,
					"maxclass" : "newobj",
					"numinlets" : 1,
					"numoutlets" : 3,
					"outlettype" : [ "", "", "" ],
					"patching_rect" : [ 627.0, 200.0, 213.0, 38.0 ],
					"text" : "ossia.remote #1/servo*/random/rate/max",
					"varname" : "rate/max[9]"
				}

			}
, 			{
				"box" : 				{
					"bgcolor" : [ 0.227450980392157, 0.219607843137255, 0.211764705882353, 0.101960784313725 ],
					"fontsize" : 9.0,
					"id" : "obj-52",
					"maxclass" : "number",
					"maximum" : 10000,
					"minimum" : 1,
					"numinlets" : 1,
					"numoutlets" : 2,
					"outlettype" : [ "", "bang" ],
					"parameter_enable" : 1,
					"patching_rect" : [ 627.0, 95.0, 66.0, 19.0 ],
					"presentation" : 1,
					"presentation_rect" : [ 11.0, 212.0, 45.0, 19.0 ],
					"saved_attribute_attributes" : 					{
						"valueof" : 						{
							"parameter_invisible" : 1,
							"parameter_longname" : "number[482]",
							"parameter_mmax" : 10000.0,
							"parameter_mmin" : 1.0,
							"parameter_shortname" : "number[96]",
							"parameter_type" : 3
						}

					}
,
					"textcolor" : [ 0.0, 0.0, 0.0, 1.0 ],
					"triangle" : 0,
					"varname" : "RTmin[96]"
				}

			}
, 			{
				"box" : 				{
					"fontname" : "Arial",
					"fontsize" : 13.0,
					"id" : "obj-53",
					"linecount" : 2,
					"maxclass" : "newobj",
					"numinlets" : 1,
					"numoutlets" : 3,
					"outlettype" : [ "", "", "" ],
					"patching_rect" : [ 627.0, 125.0, 210.0, 38.0 ],
					"text" : "ossia.remote #1/servo*/random/rate/min",
					"varname" : "rate/min[86]"
				}

			}
, 			{
				"box" : 				{
					"floatoutput" : 1,
					"id" : "obj-54",
					"maxclass" : "dial",
					"numinlets" : 1,
					"numoutlets" : 1,
					"outlettype" : [ "float" ],
					"parameter_enable" : 1,
					"patching_rect" : [ 882.0, 170.0, 23.599999904632568, 23.599999904632568 ],
					"presentation" : 1,
					"presentation_rect" : [ 16.666666835546494, 271.666666716337204, 28.333333253860474, 28.333333253860474 ],
					"saved_attribute_attributes" : 					{
						"valueof" : 						{
							"parameter_longname" : "dial[62]",
							"parameter_mmax" : 1.0,
							"parameter_shortname" : "dial",
							"parameter_type" : 0
						}

					}
,
					"size" : 1.0,
					"varname" : "RTmin[97]"
				}

			}
, 			{
				"box" : 				{
					"fontname" : "Arial",
					"fontsize" : 13.0,
					"id" : "obj-55",
					"linecount" : 2,
					"maxclass" : "newobj",
					"numinlets" : 1,
					"numoutlets" : 3,
					"outlettype" : [ "", "", "" ],
					"patching_rect" : [ 882.0, 200.0, 187.0, 38.0 ],
					"text" : "ossia.remote #1/servo*/random/step",
					"varname" : "rate/min[87]"
				}

			}
, 			{
				"box" : 				{
					"bgcolor" : [ 0.227450980392157, 0.219607843137255, 0.211764705882353, 0.101960784313725 ],
					"fontsize" : 9.0,
					"id" : "obj-56",
					"maxclass" : "number",
					"maximum" : 10000,
					"minimum" : 0,
					"numinlets" : 1,
					"numoutlets" : 2,
					"outlettype" : [ "", "bang" ],
					"parameter_enable" : 1,
					"patching_rect" : [ 627.0, 245.0, 58.0, 19.0 ],
					"presentation" : 1,
					"presentation_rect" : [ 11.0, 252.0, 45.0, 19.0 ],
					"saved_attribute_attributes" : 					{
						"valueof" : 						{
							"parameter_invisible" : 1,
							"parameter_longname" : "number[483]",
							"parameter_mmax" : 10000.0,
							"parameter_shortname" : "number[96]",
							"parameter_type" : 3
						}

					}
,
					"textcolor" : [ 0.0, 0.0, 0.0, 1.0 ],
					"triangle" : 0,
					"varname" : "RTmin[98]"
				}

			}
, 			{
				"box" : 				{
					"fontname" : "Arial",
					"fontsize" : 13.0,
					"id" : "obj-57",
					"linecount" : 2,
					"maxclass" : "newobj",
					"numinlets" : 1,
					"numoutlets" : 3,
					"outlettype" : [ "", "", "" ],
					"patching_rect" : [ 627.0, 275.0, 224.0, 38.0 ],
					"text" : "ossia.remote #1/servo*/random/interpolate",
					"varname" : "rate/min[88]"
				}

			}
, 			{
				"box" : 				{
					"fontname" : "Arial",
					"fontsize" : 13.0,
					"id" : "obj-8",
					"linecount" : 2,
					"maxclass" : "newobj",
					"numinlets" : 1,
					"numoutlets" : 3,
					"outlettype" : [ "", "", "" ],
					"patching_rect" : [ 882.0, 275.0, 195.0, 38.0 ],
					"text" : "ossia.remote #1/servo*/range{1..2}/mode",
					"varname" : "rate/max[7]"
				}

			}
, 			{
				"box" : 				{
					"arrow" : 0,
					"bgfillcolor_angle" : 270.0,
					"bgfillcolor_autogradient" : 0.0,
					"bgfillcolor_color" : [ 0.227450980392157, 0.219607843137255, 0.211764705882353, 0.4 ],
					"bgfillcolor_color1" : [ 0.227450980392157, 0.219607843137255, 0.211764705882353, 0.101960784313725 ],
					"bgfillcolor_color2" : [ 0.227450980392157, 0.219607843137255, 0.211764705882353, 0.4 ],
					"bgfillcolor_proportion" : 0.5,
					"bgfillcolor_type" : "gradient",
					"fontface" : 1,
					"fontname" : "Arial",
					"fontsize" : 7.0,
					"id" : "obj-9",
					"items" : [ "bipolar", ",", "unipolar", ",", "additive" ],
					"maxclass" : "umenu",
					"numinlets" : 1,
					"numoutlets" : 3,
					"outlettype" : [ "int", "", "" ],
					"parameter_enable" : 1,
					"patching_rect" : [ 882.0, 245.0, 100.0, 16.0 ],
					"presentation" : 1,
					"presentation_rect" : [ 5.75, 195.5, 51.166665971279144, 16.0 ],
					"saved_attribute_attributes" : 					{
						"valueof" : 						{
							"parameter_enum" : [ "bipolar", "unipolar", "additive" ],
							"parameter_longname" : "umenu[56]",
							"parameter_mmax" : 2,
							"parameter_shortname" : "umenu",
							"parameter_type" : 2
						}

					}
,
					"textcolor" : [ 0.0, 0.0, 0.0, 1.0 ],
					"varname" : "umenu[4]"
				}

			}
, 			{
				"box" : 				{
					"id" : "obj-5",
					"maxclass" : "newobj",
					"numinlets" : 2,
					"numoutlets" : 1,
					"outlettype" : [ "int" ],
					"patching_rect" : [ 887.0, 508.0, 29.5, 22.0 ],
					"text" : "+ 1"
				}

			}
, 			{
				"box" : 				{
					"activebgoncolor" : [ 1.0, 0.392156862745098, 0.0, 1.0 ],
					"id" : "obj-6",
					"maxclass" : "live.tab",
					"num_lines_patching" : 3,
					"num_lines_presentation" : 3,
					"numinlets" : 1,
					"numoutlets" : 3,
					"outlettype" : [ "", "", "float" ],
					"parameter_enable" : 1,
					"patching_rect" : [ 887.0, 433.0, 45.0, 60.0 ],
					"presentation" : 1,
					"presentation_rect" : [ 5.0, 300.666666686534882, 50.5, 60.666666626930237 ],
					"saved_attribute_attributes" : 					{
						"activebgoncolor" : 						{
							"expression" : "themecolor.live_key_assignment"
						}
,
						"valueof" : 						{
							"parameter_enum" : [ "Fader", "LFO", "Rand" ],
							"parameter_longname" : "live.tab[55]",
							"parameter_mmax" : 2,
							"parameter_shortname" : "live.tab",
							"parameter_type" : 2,
							"parameter_unitstyle" : 9
						}

					}
,
					"spacing_x" : 3.0,
					"spacing_y" : 3.0,
					"varname" : "live.tab[30]"
				}

			}
, 			{
				"box" : 				{
					"id" : "obj-7",
					"linecount" : 2,
					"maxclass" : "newobj",
					"numinlets" : 1,
					"numoutlets" : 3,
					"outlettype" : [ "", "", "" ],
					"patching_rect" : [ 887.0, 538.0, 180.0, 35.0 ],
					"text" : "ossia.remote #1/servo*/mixer/source"
				}

			}
, 			{
				"box" : 				{
					"id" : "obj-43",
					"linecount" : 2,
					"maxclass" : "newobj",
					"numinlets" : 1,
					"numoutlets" : 3,
					"outlettype" : [ "", "", "" ],
					"patching_rect" : [ 887.0, 388.0, 150.0, 35.0 ],
					"text" : "ossia.remote #1/servo*/mixer/mix",
					"varname" : "live.tab[4]"
				}

			}
, 			{
				"box" : 				{
					"id" : "obj-44",
					"maxclass" : "live.tab",
					"num_lines_patching" : 3,
					"num_lines_presentation" : 3,
					"numinlets" : 1,
					"numoutlets" : 3,
					"outlettype" : [ "", "", "float" ],
					"parameter_enable" : 1,
					"patching_rect" : [ 887.0, 328.0, 45.0, 45.0 ],
					"presentation" : 1,
					"presentation_rect" : [ -0.75, 131.0, 13.25, 41.5 ],
					"saved_attribute_attributes" : 					{
						"valueof" : 						{
							"parameter_enum" : [ "'", "*", "+" ],
							"parameter_longname" : "live.tab[56]",
							"parameter_mmax" : 2,
							"parameter_shortname" : "live.tab[2]",
							"parameter_type" : 2,
							"parameter_unitstyle" : 9
						}

					}
,
					"varname" : "live.tab[29]"
				}

			}
, 			{
				"box" : 				{
					"bgcolor" : [ 0.545098039215686, 0.388235294117647, 0.611764705882353, 0.24 ],
					"fontface" : 1,
					"fontname" : "Ableton Sans Medium",
					"fontsize" : 8.5,
					"format" : 6,
					"id" : "obj-41",
					"maxclass" : "flonum",
					"maximum" : 1.0,
					"minimum" : 0.0,
					"numinlets" : 1,
					"numoutlets" : 2,
					"outlettype" : [ "", "bang" ],
					"parameter_enable" : 1,
					"patching_rect" : [ 327.0, 94.0, 54.0, 19.0 ],
					"presentation" : 1,
					"presentation_rect" : [ 1.25, 175.5, 26.25, 19.0 ],
					"saved_attribute_attributes" : 					{
						"valueof" : 						{
							"parameter_invisible" : 1,
							"parameter_longname" : "RTmin[419]",
							"parameter_mmax" : 1.0,
							"parameter_shortname" : "RTmin[10]",
							"parameter_type" : 3
						}

					}
,
					"textcolor" : [ 0.0, 0.0, 0.0, 1.0 ],
					"triangle" : 0,
					"triscale" : 0.9,
					"varname" : "RTmin[94]"
				}

			}
, 			{
				"box" : 				{
					"fontname" : "Arial",
					"fontsize" : 13.0,
					"id" : "obj-42",
					"linecount" : 2,
					"maxclass" : "newobj",
					"numinlets" : 1,
					"numoutlets" : 3,
					"outlettype" : [ "", "", "" ],
					"patching_rect" : [ 327.0, 124.0, 180.0, 38.0 ],
					"text" : "ossia.remote #1/servo*/lfo2/phase",
					"varname" : "rate/min[85]"
				}

			}
, 			{
				"box" : 				{
					"bgcolor" : [ 0.545098039215686, 0.388235294117647, 0.611764705882353, 0.23921568627451 ],
					"fontface" : 1,
					"fontname" : "Arial",
					"fontsize" : 10.0,
					"format" : 6,
					"id" : "obj-39",
					"maxclass" : "flonum",
					"maximum" : 1.0,
					"minimum" : 0.0,
					"numinlets" : 1,
					"numoutlets" : 2,
					"outlettype" : [ "", "bang" ],
					"parameter_enable" : 1,
					"patching_rect" : [ 16.0, 96.0, 71.0, 20.0 ],
					"presentation" : 1,
					"presentation_rect" : [ 43.0, 51.0, 23.999999970197678, 20.0 ],
					"saved_attribute_attributes" : 					{
						"valueof" : 						{
							"parameter_invisible" : 1,
							"parameter_longname" : "RTmin[420]",
							"parameter_mmax" : 1.0,
							"parameter_shortname" : "RTmin[10]",
							"parameter_type" : 3
						}

					}
,
					"textcolor" : [ 0.0, 0.0, 0.0, 1.0 ],
					"triangle" : 0,
					"triscale" : 0.9,
					"varname" : "RTmin[93]"
				}

			}
, 			{
				"box" : 				{
					"fontname" : "Arial",
					"fontsize" : 13.0,
					"id" : "obj-40",
					"linecount" : 2,
					"maxclass" : "newobj",
					"numinlets" : 1,
					"numoutlets" : 3,
					"outlettype" : [ "", "", "" ],
					"patching_rect" : [ 16.0, 126.0, 170.0, 38.0 ],
					"text" : "ossia.remote #1/servo*/lfo1/phase",
					"varname" : "rate/min[84]"
				}

			}
, 			{
				"box" : 				{
					"align" : 1,
					"allowdrag" : 0,
					"arrow" : 0,
					"fontname" : "Ableton Sans Medium",
					"fontsize" : 8.0,
					"id" : "obj-37",
					"items" : [ "sine", ",", "+", "ramp", ",", "–", "ramp", ",", "triangle", ",", "square", ",", "s/hold" ],
					"maxclass" : "umenu",
					"numinlets" : 1,
					"numoutlets" : 3,
					"outlettype" : [ "int", "", "" ],
					"parameter_enable" : 1,
					"patching_rect" : [ 328.0, 172.0, 56.0, 18.0 ],
					"presentation" : 1,
					"presentation_rect" : [ 11.5, 132.5, 41.75, 18.0 ],
					"saved_attribute_attributes" : 					{
						"valueof" : 						{
							"parameter_enum" : [ "sine", "+ ramp", "– ramp", "triangle", "square", "s/hold" ],
							"parameter_longname" : "RTmin[421]",
							"parameter_mmax" : 5,
							"parameter_shortname" : "RTmin[2]",
							"parameter_type" : 2
						}

					}
,
					"textjustification" : 1,
					"truncate" : 2,
					"varname" : "RTmin[92]"
				}

			}
, 			{
				"box" : 				{
					"fontname" : "Arial",
					"fontsize" : 13.0,
					"id" : "obj-38",
					"linecount" : 2,
					"maxclass" : "newobj",
					"numinlets" : 1,
					"numoutlets" : 3,
					"outlettype" : [ "", "", "" ],
					"patching_rect" : [ 328.0, 202.0, 201.0, 38.0 ],
					"text" : "ossia.remote #1/servo*/lfo2/waveform",
					"varname" : "rate/min[83]"
				}

			}
, 			{
				"box" : 				{
					"align" : 1,
					"allowdrag" : 0,
					"arrow" : 0,
					"fontname" : "Arial",
					"fontsize" : 10.0,
					"id" : "obj-35",
					"items" : [ "sine", ",", "+", "ramp", ",", "–", "ramp", ",", "triangle", ",", "square", ",", "s/hold" ],
					"maxclass" : "umenu",
					"numinlets" : 1,
					"numoutlets" : 3,
					"outlettype" : [ "int", "", "" ],
					"parameter_enable" : 1,
					"patching_rect" : [ 17.0, 174.0, 56.0, 20.0 ],
					"presentation" : 1,
					"presentation_rect" : [ 1.0, 17.0, 41.0, 20.0 ],
					"saved_attribute_attributes" : 					{
						"valueof" : 						{
							"parameter_enum" : [ "sine", "+ ramp", "– ramp", "triangle", "square", "s/hold" ],
							"parameter_longname" : "RTmin[422]",
							"parameter_mmax" : 5,
							"parameter_shortname" : "RTmin[2]",
							"parameter_type" : 2
						}

					}
,
					"textjustification" : 1,
					"varname" : "RTmin[91]"
				}

			}
, 			{
				"box" : 				{
					"id" : "obj-36",
					"linecount" : 2,
					"maxclass" : "newobj",
					"numinlets" : 1,
					"numoutlets" : 3,
					"outlettype" : [ "", "", "" ],
					"patching_rect" : [ 17.0, 204.0, 180.0, 35.0 ],
					"text" : "ossia.remote #1/servo*/lfo1/waveform",
					"varname" : "rate/min[82]"
				}

			}
, 			{
				"box" : 				{
					"fontsize" : 10.0,
					"id" : "obj-1326",
					"maxclass" : "live.text",
					"mode" : 0,
					"numinlets" : 1,
					"numoutlets" : 2,
					"outlettype" : [ "", "" ],
					"parameter_enable" : 1,
					"patching_rect" : [ 327.0, 19.0, 44.0, 15.0 ],
					"presentation" : 1,
					"presentation_rect" : [ 0.333332389593124, 117.416666597127914, 28.999999940395355, 15.0 ],
					"saved_attribute_attributes" : 					{
						"valueof" : 						{
							"parameter_enum" : [ "val1", "val2" ],
							"parameter_longname" : "live.text[450]",
							"parameter_mmax" : 1,
							"parameter_shortname" : "live.text[401]",
							"parameter_type" : 2
						}

					}
,
					"text" : "sync",
					"varname" : "button[3]"
				}

			}
, 			{
				"box" : 				{
					"id" : "obj-1328",
					"linecount" : 2,
					"maxclass" : "newobj",
					"numinlets" : 1,
					"numoutlets" : 3,
					"outlettype" : [ "", "", "" ],
					"patching_rect" : [ 327.0, 49.0, 150.0, 35.0 ],
					"text" : "ossia.remote #1/servo*/lfo2/sync"
				}

			}
, 			{
				"box" : 				{
					"bgcolor" : [ 0.227450980392157, 0.219607843137255, 0.211764705882353, 0.101960784313725 ],
					"fontface" : 1,
					"fontname" : "Ableton Sans Bold",
					"fontsize" : 10.0,
					"format" : 6,
					"id" : "obj-1322",
					"maxclass" : "flonum",
					"maximum" : 20.0,
					"minimum" : 0.0,
					"numinlets" : 1,
					"numoutlets" : 2,
					"outlettype" : [ "", "bang" ],
					"parameter_enable" : 1,
					"patching_rect" : [ 346.0, 465.0, 56.0, 20.0 ],
					"presentation" : 1,
					"presentation_rect" : [ 10.75, 152.5, 35.0, 20.0 ],
					"saved_attribute_attributes" : 					{
						"valueof" : 						{
							"parameter_invisible" : 1,
							"parameter_longname" : "RTmin[431]",
							"parameter_mmax" : 20.0,
							"parameter_shortname" : "RTmin[10]",
							"parameter_type" : 3
						}

					}
,
					"textcolor" : [ 0.0, 0.0, 0.0, 1.0 ],
					"triangle" : 0,
					"triscale" : 0.9,
					"varname" : "number[117]"
				}

			}
, 			{
				"box" : 				{
					"id" : "obj-1323",
					"maxclass" : "newobj",
					"numinlets" : 1,
					"numoutlets" : 3,
					"outlettype" : [ "", "", "" ],
					"patching_rect" : [ 376.0, 499.0, 193.0, 22.0 ],
					"text" : "ossia.remote #1/servo*/lfo2/rate"
				}

			}
, 			{
				"box" : 				{
					"bgcolor" : [ 0.227450980392157, 0.219607843137255, 0.211764705882353, 0.101960784313725 ],
					"fontface" : 1,
					"fontname" : "Ableton Sans Bold",
					"fontsize" : 11.0,
					"format" : 6,
					"id" : "obj-1319",
					"maxclass" : "flonum",
					"maximum" : 20.0,
					"minimum" : 0.0,
					"numinlets" : 1,
					"numoutlets" : 2,
					"outlettype" : [ "", "bang" ],
					"parameter_enable" : 1,
					"patching_rect" : [ 26.0, 469.0, 61.0, 22.0 ],
					"presentation" : 1,
					"presentation_rect" : [ 3.0, 38.0, 43.0, 22.0 ],
					"saved_attribute_attributes" : 					{
						"valueof" : 						{
							"parameter_invisible" : 1,
							"parameter_longname" : "RTmin[432]",
							"parameter_mmax" : 20.0,
							"parameter_shortname" : "RTmin[10]",
							"parameter_type" : 3
						}

					}
,
					"textcolor" : [ 0.0, 0.0, 0.0, 1.0 ],
					"triangle" : 0,
					"triscale" : 0.9,
					"varname" : "number[116]"
				}

			}
, 			{
				"box" : 				{
					"fontsize" : 10.0,
					"id" : "obj-1312",
					"maxclass" : "live.text",
					"mode" : 0,
					"numinlets" : 1,
					"numoutlets" : 2,
					"outlettype" : [ "", "" ],
					"parameter_enable" : 1,
					"patching_rect" : [ 16.0, 21.0, 44.0, 15.0 ],
					"presentation" : 1,
					"presentation_rect" : [ 1.333332866430283, 0.0, 29.666666448116302, 15.0 ],
					"saved_attribute_attributes" : 					{
						"valueof" : 						{
							"parameter_enum" : [ "val1", "val2" ],
							"parameter_longname" : "live.text[440]",
							"parameter_mmax" : 1,
							"parameter_shortname" : "live.text[401]",
							"parameter_type" : 2
						}

					}
,
					"text" : "sync",
					"varname" : "button[2]"
				}

			}
, 			{
				"box" : 				{
					"id" : "obj-1309",
					"linecount" : 2,
					"maxclass" : "newobj",
					"numinlets" : 1,
					"numoutlets" : 3,
					"outlettype" : [ "", "", "" ],
					"patching_rect" : [ 16.0, 51.0, 150.0, 35.0 ],
					"text" : "ossia.remote #1/servo*/lfo1/sync"
				}

			}
, 			{
				"box" : 				{
					"id" : "obj-1305",
					"maxclass" : "newobj",
					"numinlets" : 1,
					"numoutlets" : 3,
					"outlettype" : [ "", "", "" ],
					"patching_rect" : [ 88.0, 504.0, 200.0, 22.0 ],
					"text" : "ossia.remote #1/servo*/lfo1/rate"
				}

			}
, 			{
				"box" : 				{
					"fontname" : "Arial Narrow",
					"fontsize" : 9.0,
					"id" : "obj-20",
					"maxclass" : "comment",
					"numinlets" : 1,
					"numoutlets" : 0,
					"patching_rect" : [ 385.0, 571.0, 39.0, 17.0 ],
					"presentation" : 1,
					"presentation_rect" : [ 44.75, 182.25, 19.0, 17.0 ],
					"text" : "scl",
					"varname" : "var2[2]"
				}

			}
 ],
		"lines" : [ 			{
				"patchline" : 				{
					"destination" : [ "obj-29", 0 ],
					"order" : 1,
					"source" : [ "obj-10", 1 ]
				}

			}
, 			{
				"patchline" : 				{
					"destination" : [ "obj-62", 0 ],
					"order" : 0,
					"source" : [ "obj-10", 1 ]
				}

			}
, 			{
				"patchline" : 				{
					"destination" : [ "obj-13", 0 ],
					"source" : [ "obj-11", 0 ]
				}

			}
, 			{
				"patchline" : 				{
					"destination" : [ "obj-2", 0 ],
					"source" : [ "obj-12", 0 ]
				}

			}
, 			{
				"patchline" : 				{
					"destination" : [ "obj-49", 1 ],
					"source" : [ "obj-1305", 0 ]
				}

			}
, 			{
				"patchline" : 				{
					"destination" : [ "obj-1309", 0 ],
					"source" : [ "obj-1312", 0 ]
				}

			}
, 			{
				"patchline" : 				{
					"destination" : [ "obj-1305", 0 ],
					"order" : 0,
					"source" : [ "obj-1319", 0 ]
				}

			}
, 			{
				"patchline" : 				{
					"destination" : [ "obj-30", 0 ],
					"order" : 1,
					"source" : [ "obj-1319", 0 ]
				}

			}
, 			{
				"patchline" : 				{
					"destination" : [ "obj-1323", 0 ],
					"order" : 0,
					"source" : [ "obj-1322", 0 ]
				}

			}
, 			{
				"patchline" : 				{
					"destination" : [ "obj-33", 0 ],
					"order" : 1,
					"source" : [ "obj-1322", 0 ]
				}

			}
, 			{
				"patchline" : 				{
					"destination" : [ "obj-1328", 0 ],
					"source" : [ "obj-1326", 0 ]
				}

			}
, 			{
				"patchline" : 				{
					"destination" : [ "obj-23", 0 ],
					"source" : [ "obj-19", 0 ]
				}

			}
, 			{
				"patchline" : 				{
					"destination" : [ "obj-1", 0 ],
					"source" : [ "obj-21", 0 ]
				}

			}
, 			{
				"patchline" : 				{
					"destination" : [ "obj-25", 0 ],
					"order" : 0,
					"source" : [ "obj-26", 1 ]
				}

			}
, 			{
				"patchline" : 				{
					"destination" : [ "obj-32", 0 ],
					"order" : 1,
					"source" : [ "obj-26", 1 ]
				}

			}
, 			{
				"patchline" : 				{
					"destination" : [ "obj-1319", 0 ],
					"source" : [ "obj-29", 0 ]
				}

			}
, 			{
				"patchline" : 				{
					"destination" : [ "obj-31", 0 ],
					"source" : [ "obj-30", 0 ]
				}

			}
, 			{
				"patchline" : 				{
					"destination" : [ "obj-10", 0 ],
					"midpoints" : [ 35.5, 588.0, 7.5, 588.0, 7.5, 369.0, 24.5, 369.0 ],
					"source" : [ "obj-31", 0 ]
				}

			}
, 			{
				"patchline" : 				{
					"destination" : [ "obj-1322", 0 ],
					"source" : [ "obj-32", 0 ]
				}

			}
, 			{
				"patchline" : 				{
					"destination" : [ "obj-26", 0 ],
					"midpoints" : [ 355.5, 552.0, 324.0, 552.0, 324.0, 369.0, 341.5, 369.0 ],
					"source" : [ "obj-33", 0 ]
				}

			}
, 			{
				"patchline" : 				{
					"destination" : [ "obj-36", 0 ],
					"midpoints" : [ 26.5, 198.0, 26.5, 198.0 ],
					"source" : [ "obj-35", 0 ]
				}

			}
, 			{
				"patchline" : 				{
					"destination" : [ "obj-38", 0 ],
					"midpoints" : [ 337.5, 196.0, 337.5, 196.0 ],
					"source" : [ "obj-37", 0 ]
				}

			}
, 			{
				"patchline" : 				{
					"destination" : [ "obj-40", 0 ],
					"midpoints" : [ 25.5, 119.0, 25.5, 119.0 ],
					"source" : [ "obj-39", 0 ]
				}

			}
, 			{
				"patchline" : 				{
					"destination" : [ "obj-18", 0 ],
					"source" : [ "obj-4", 0 ]
				}

			}
, 			{
				"patchline" : 				{
					"destination" : [ "obj-42", 0 ],
					"midpoints" : [ 336.5, 117.0, 336.5, 117.0 ],
					"source" : [ "obj-41", 0 ]
				}

			}
, 			{
				"patchline" : 				{
					"destination" : [ "obj-43", 0 ],
					"source" : [ "obj-44", 0 ]
				}

			}
, 			{
				"patchline" : 				{
					"destination" : [ "obj-1319", 0 ],
					"source" : [ "obj-49", 0 ]
				}

			}
, 			{
				"patchline" : 				{
					"destination" : [ "obj-7", 0 ],
					"midpoints" : [ 896.5, 532.0, 896.5, 532.0 ],
					"source" : [ "obj-5", 0 ]
				}

			}
, 			{
				"patchline" : 				{
					"destination" : [ "obj-51", 0 ],
					"midpoints" : [ 636.5, 193.0, 636.5, 193.0 ],
					"source" : [ "obj-50", 0 ]
				}

			}
, 			{
				"patchline" : 				{
					"destination" : [ "obj-53", 0 ],
					"midpoints" : [ 636.5, 118.0, 636.5, 118.0 ],
					"source" : [ "obj-52", 0 ]
				}

			}
, 			{
				"patchline" : 				{
					"destination" : [ "obj-55", 0 ],
					"midpoints" : [ 891.5, 193.0, 891.5, 193.0 ],
					"source" : [ "obj-54", 0 ]
				}

			}
, 			{
				"patchline" : 				{
					"destination" : [ "obj-57", 0 ],
					"midpoints" : [ 636.5, 268.0, 636.5, 268.0 ],
					"source" : [ "obj-56", 0 ]
				}

			}
, 			{
				"patchline" : 				{
					"destination" : [ "obj-49", 0 ],
					"source" : [ "obj-59", 0 ]
				}

			}
, 			{
				"patchline" : 				{
					"destination" : [ "obj-5", 0 ],
					"midpoints" : [ 896.5, 496.0, 896.5, 496.0 ],
					"source" : [ "obj-6", 0 ]
				}

			}
, 			{
				"patchline" : 				{
					"destination" : [ "obj-63", 0 ],
					"source" : [ "obj-64", 0 ]
				}

			}
, 			{
				"patchline" : 				{
					"destination" : [ "obj-67", 0 ],
					"source" : [ "obj-68", 0 ]
				}

			}
, 			{
				"patchline" : 				{
					"destination" : [ "obj-8", 0 ],
					"midpoints" : [ 891.5, 263.0, 891.5, 263.0 ],
					"source" : [ "obj-9", 0 ]
				}

			}
 ]
	}

}
