{
	"patcher" : 	{
		"fileversion" : 1,
		"appversion" : 		{
			"major" : 6,
			"minor" : 0,
			"revision" : 4
		}
,
		"rect" : [ 161.0, 50.0, 335.0, 90.0 ],
		"bgcolor" : [ 0.741176, 0.741176, 0.803922, 1.0 ],
		"bglocked" : 1,
		"openinpresentation" : 1,
		"default_fontsize" : 9.0,
		"default_fontface" : 0,
		"default_fontname" : "Arial",
		"gridonopen" : 0,
		"gridsize" : [ 15.0, 15.0 ],
		"gridsnaponopen" : 0,
		"statusbarvisible" : 2,
		"toolbarvisible" : 0,
		"boxanimatetime" : 200,
		"imprint" : 1,
		"enablehscroll" : 1,
		"enablevscroll" : 1,
		"devicewidth" : 0.0,
		"description" : "",
		"digest" : "",
		"tags" : "",
		"title" : "Meter Out",
		"boxes" : [ 			{
				"box" : 				{
					"background" : 0,
					"bgcolor" : [ 1.0, 1.0, 1.0, 1.0 ],
					"bordercolor" : [ 0.5, 0.5, 0.5, 1.0 ],
					"checkedcolor" : [ 0.0, 0.0, 0.0, 1.0 ],
					"hidden" : 1,
					"id" : "obj-2",
					"ignoreclick" : 0,
					"maxclass" : "toggle",
					"numinlets" : 1,
					"numoutlets" : 1,
					"outlettype" : [ "int" ],
					"parameter_enable" : 0,
					"patching_rect" : [ 54.0, 32.0, 18.0, 18.0 ],
					"presentation" : 1,
					"presentation_rect" : [ 138.0, 36.0, 18.0, 18.0 ],
					"prototypename" : "Arial9"
				}

			}
, 			{
				"box" : 				{
					"background" : 0,
					"bgcolor" : [ 1.0, 1.0, 1.0, 0.0 ],
					"bubble" : 0,
					"bubblepoint" : 0.5,
					"bubbleside" : 1,
					"bubbletextmargin" : 5,
					"fontface" : 0,
					"fontname" : "Arial Bold Italic",
					"fontsize" : 12.754706,
					"frgb" : [ 1.0, 1.0, 1.0, 1.0 ],
					"hidden" : 1,
					"id" : "obj-11",
					"ignoreclick" : 1,
					"maxclass" : "comment",
					"numinlets" : 1,
					"numoutlets" : 0,
					"patching_rect" : [ 43.0, 7.0, 56.0, 21.0 ],
					"presentation" : 1,
					"presentation_rect" : [ 157.0, 35.0, 58.0, 21.0 ],
					"text" : "NoFloat",
					"textcolor" : [ 1.0, 1.0, 1.0, 1.0 ],
					"underline" : 0
				}

			}
, 			{
				"box" : 				{
					"background" : 0,
					"bgcolor" : [ 1.0, 1.0, 1.0, 1.0 ],
					"bordercolor" : [ 0.5, 0.5, 0.5, 1.0 ],
					"checkedcolor" : [ 0.0, 0.0, 0.0, 1.0 ],
					"hidden" : 1,
					"id" : "obj-117",
					"ignoreclick" : 0,
					"maxclass" : "toggle",
					"numinlets" : 1,
					"numoutlets" : 1,
					"outlettype" : [ "int" ],
					"parameter_enable" : 0,
					"patching_rect" : [ 17.0, 32.0, 18.0, 18.0 ],
					"presentation" : 1,
					"presentation_rect" : [ 28.0, 36.0, 18.0, 18.0 ],
					"prototypename" : "Arial9"
				}

			}
, 			{
				"box" : 				{
					"background" : 0,
					"bgcolor" : [ 1.0, 1.0, 1.0, 0.0 ],
					"bubble" : 0,
					"bubblepoint" : 0.5,
					"bubbleside" : 1,
					"bubbletextmargin" : 5,
					"fontface" : 0,
					"fontname" : "Arial Bold Italic",
					"fontsize" : 12.754706,
					"frgb" : [ 1.0, 1.0, 1.0, 1.0 ],
					"hidden" : 1,
					"id" : "obj-115",
					"ignoreclick" : 1,
					"maxclass" : "comment",
					"numinlets" : 1,
					"numoutlets" : 0,
					"patching_rect" : [ 6.0, 7.0, 41.0, 21.0 ],
					"presentation" : 1,
					"presentation_rect" : [ 47.0, 35.0, 41.0, 21.0 ],
					"text" : "View",
					"textcolor" : [ 1.0, 1.0, 1.0, 1.0 ],
					"underline" : 0
				}

			}
, 			{
				"box" : 				{
					"background" : 0,
					"bgcolor" : [ 1.0, 1.0, 1.0, 0.0 ],
					"bubble" : 0,
					"bubblepoint" : 0.5,
					"bubbleside" : 1,
					"bubbletextmargin" : 5,
					"fontface" : 0,
					"fontname" : "Arial Bold",
					"fontsize" : 8.116632,
					"frgb" : [ 0.388235, 0.388235, 0.388235, 1.0 ],
					"hidden" : 0,
					"hint" : "",
					"id" : "obj-60",
					"ignoreclick" : 1,
					"maxclass" : "comment",
					"numinlets" : 1,
					"numoutlets" : 0,
					"patching_rect" : [ 420.0, 112.421066, 18.0, 16.0 ],
					"presentation" : 1,
					"presentation_rect" : [ 307.0, 8.0, 18.0, 16.0 ],
					"text" : "24",
					"textcolor" : [ 0.388235, 0.388235, 0.388235, 1.0 ],
					"underline" : 0
				}

			}
, 			{
				"box" : 				{
					"background" : 0,
					"bgcolor" : [ 1.0, 1.0, 1.0, 0.0 ],
					"bubble" : 0,
					"bubblepoint" : 0.5,
					"bubbleside" : 1,
					"bubbletextmargin" : 5,
					"fontface" : 0,
					"fontname" : "Arial Bold",
					"fontsize" : 8.116632,
					"frgb" : [ 0.388235, 0.388235, 0.388235, 1.0 ],
					"hidden" : 0,
					"hint" : "",
					"id" : "obj-61",
					"ignoreclick" : 1,
					"maxclass" : "comment",
					"numinlets" : 1,
					"numoutlets" : 0,
					"patching_rect" : [ 406.0, 112.421066, 18.0, 16.0 ],
					"presentation" : 1,
					"presentation_rect" : [ 295.0, 8.0, 18.0, 16.0 ],
					"text" : "23",
					"textcolor" : [ 0.388235, 0.388235, 0.388235, 1.0 ],
					"underline" : 0
				}

			}
, 			{
				"box" : 				{
					"background" : 0,
					"bgcolor" : [ 1.0, 1.0, 1.0, 0.0 ],
					"bubble" : 0,
					"bubblepoint" : 0.5,
					"bubbleside" : 1,
					"bubbletextmargin" : 5,
					"fontface" : 0,
					"fontname" : "Arial Bold",
					"fontsize" : 8.116632,
					"frgb" : [ 0.388235, 0.388235, 0.388235, 1.0 ],
					"hidden" : 0,
					"hint" : "",
					"id" : "obj-62",
					"ignoreclick" : 1,
					"maxclass" : "comment",
					"numinlets" : 1,
					"numoutlets" : 0,
					"patching_rect" : [ 392.0, 112.421066, 18.0, 16.0 ],
					"presentation" : 1,
					"presentation_rect" : [ 283.0, 8.0, 18.0, 16.0 ],
					"text" : "22",
					"textcolor" : [ 0.388235, 0.388235, 0.388235, 1.0 ],
					"underline" : 0
				}

			}
, 			{
				"box" : 				{
					"background" : 0,
					"bgcolor" : [ 1.0, 1.0, 1.0, 0.0 ],
					"bubble" : 0,
					"bubblepoint" : 0.5,
					"bubbleside" : 1,
					"bubbletextmargin" : 5,
					"fontface" : 0,
					"fontname" : "Arial Bold",
					"fontsize" : 8.116632,
					"frgb" : [ 0.388235, 0.388235, 0.388235, 1.0 ],
					"hidden" : 0,
					"hint" : "",
					"id" : "obj-63",
					"ignoreclick" : 1,
					"maxclass" : "comment",
					"numinlets" : 1,
					"numoutlets" : 0,
					"patching_rect" : [ 378.0, 112.421066, 18.0, 16.0 ],
					"presentation" : 1,
					"presentation_rect" : [ 271.0, 8.0, 18.0, 16.0 ],
					"text" : "21",
					"textcolor" : [ 0.388235, 0.388235, 0.388235, 1.0 ],
					"underline" : 0
				}

			}
, 			{
				"box" : 				{
					"background" : 0,
					"bgcolor" : [ 1.0, 1.0, 1.0, 0.0 ],
					"bubble" : 0,
					"bubblepoint" : 0.5,
					"bubbleside" : 1,
					"bubbletextmargin" : 5,
					"fontface" : 0,
					"fontname" : "Arial Bold",
					"fontsize" : 8.116632,
					"frgb" : [ 0.388235, 0.388235, 0.388235, 1.0 ],
					"hidden" : 0,
					"hint" : "",
					"id" : "obj-64",
					"ignoreclick" : 1,
					"maxclass" : "comment",
					"numinlets" : 1,
					"numoutlets" : 0,
					"patching_rect" : [ 364.0, 112.421066, 18.0, 16.0 ],
					"presentation" : 1,
					"presentation_rect" : [ 259.0, 8.0, 18.0, 16.0 ],
					"text" : "20",
					"textcolor" : [ 0.388235, 0.388235, 0.388235, 1.0 ],
					"underline" : 0
				}

			}
, 			{
				"box" : 				{
					"background" : 0,
					"bgcolor" : [ 1.0, 1.0, 1.0, 0.0 ],
					"bubble" : 0,
					"bubblepoint" : 0.5,
					"bubbleside" : 1,
					"bubbletextmargin" : 5,
					"fontface" : 0,
					"fontname" : "Arial Bold",
					"fontsize" : 8.116632,
					"frgb" : [ 0.388235, 0.388235, 0.388235, 1.0 ],
					"hidden" : 0,
					"hint" : "",
					"id" : "obj-65",
					"ignoreclick" : 1,
					"maxclass" : "comment",
					"numinlets" : 1,
					"numoutlets" : 0,
					"patching_rect" : [ 350.0, 112.421066, 18.0, 16.0 ],
					"presentation" : 1,
					"presentation_rect" : [ 247.0, 8.0, 18.0, 16.0 ],
					"text" : "19",
					"textcolor" : [ 0.388235, 0.388235, 0.388235, 1.0 ],
					"underline" : 0
				}

			}
, 			{
				"box" : 				{
					"background" : 0,
					"bgcolor" : [ 1.0, 1.0, 1.0, 0.0 ],
					"bubble" : 0,
					"bubblepoint" : 0.5,
					"bubbleside" : 1,
					"bubbletextmargin" : 5,
					"fontface" : 0,
					"fontname" : "Arial Bold",
					"fontsize" : 8.116632,
					"frgb" : [ 0.388235, 0.388235, 0.388235, 1.0 ],
					"hidden" : 0,
					"hint" : "",
					"id" : "obj-66",
					"ignoreclick" : 1,
					"maxclass" : "comment",
					"numinlets" : 1,
					"numoutlets" : 0,
					"patching_rect" : [ 336.0, 112.421066, 18.0, 16.0 ],
					"presentation" : 1,
					"presentation_rect" : [ 235.0, 8.0, 18.0, 16.0 ],
					"text" : "18",
					"textcolor" : [ 0.388235, 0.388235, 0.388235, 1.0 ],
					"underline" : 0
				}

			}
, 			{
				"box" : 				{
					"background" : 0,
					"bgcolor" : [ 1.0, 1.0, 1.0, 0.0 ],
					"bubble" : 0,
					"bubblepoint" : 0.5,
					"bubbleside" : 1,
					"bubbletextmargin" : 5,
					"fontface" : 0,
					"fontname" : "Arial Bold",
					"fontsize" : 8.116632,
					"frgb" : [ 0.388235, 0.388235, 0.388235, 1.0 ],
					"hidden" : 0,
					"hint" : "",
					"id" : "obj-67",
					"ignoreclick" : 1,
					"maxclass" : "comment",
					"numinlets" : 1,
					"numoutlets" : 0,
					"patching_rect" : [ 322.0, 112.421066, 18.0, 16.0 ],
					"presentation" : 1,
					"presentation_rect" : [ 223.0, 8.0, 18.0, 16.0 ],
					"text" : "17",
					"textcolor" : [ 0.388235, 0.388235, 0.388235, 1.0 ],
					"underline" : 0
				}

			}
, 			{
				"box" : 				{
					"background" : 0,
					"bgcolor" : [ 0.776471, 0.796078, 0.815686, 0.619608 ],
					"bordercolor" : [ 0.2, 0.2, 0.2, 0.0 ],
					"coldcolor" : [ 0.0, 0.6, 0.0, 1.0 ],
					"dbperled" : 3,
					"hidden" : 0,
					"hint" : "Input level",
					"hotcolor" : [ 1.0, 0.6, 0.0, 1.0 ],
					"id" : "obj-68",
					"ignoreclick" : 0,
					"interval" : 50,
					"maxclass" : "meter~",
					"nhotleds" : 3,
					"ntepidleds" : 3,
					"numinlets" : 1,
					"numleds" : 12,
					"numoutlets" : 1,
					"nwarmleds" : 3,
					"outlettype" : [ "float" ],
					"overloadcolor" : [ 1.0, 0.0, 0.0, 1.0 ],
					"patching_rect" : [ 423.0, 54.0, 12.0, 58.0 ],
					"presentation" : 1,
					"presentation_rect" : [ 310.0, 21.0, 12.0, 58.0 ],
					"tepidcolor" : [ 0.6, 0.73243, 0.0, 1.0 ],
					"warmcolor" : [ 0.8545, 0.8545, 0.0, 1.0 ]
				}

			}
, 			{
				"box" : 				{
					"background" : 0,
					"bgcolor" : [ 0.776471, 0.796078, 0.815686, 0.619608 ],
					"bordercolor" : [ 0.2, 0.2, 0.2, 0.0 ],
					"coldcolor" : [ 0.0, 0.6, 0.0, 1.0 ],
					"dbperled" : 3,
					"hidden" : 0,
					"hint" : "Input level",
					"hotcolor" : [ 1.0, 0.6, 0.0, 1.0 ],
					"id" : "obj-69",
					"ignoreclick" : 0,
					"interval" : 50,
					"maxclass" : "meter~",
					"nhotleds" : 3,
					"ntepidleds" : 3,
					"numinlets" : 1,
					"numleds" : 12,
					"numoutlets" : 1,
					"nwarmleds" : 3,
					"outlettype" : [ "float" ],
					"overloadcolor" : [ 1.0, 0.0, 0.0, 1.0 ],
					"patching_rect" : [ 409.0, 54.0, 12.0, 58.0 ],
					"presentation" : 1,
					"presentation_rect" : [ 298.0, 21.0, 12.0, 58.0 ],
					"tepidcolor" : [ 0.6, 0.73243, 0.0, 1.0 ],
					"warmcolor" : [ 0.8545, 0.8545, 0.0, 1.0 ]
				}

			}
, 			{
				"box" : 				{
					"background" : 0,
					"bgcolor" : [ 0.776471, 0.796078, 0.815686, 0.619608 ],
					"bordercolor" : [ 0.2, 0.2, 0.2, 0.0 ],
					"coldcolor" : [ 0.0, 0.6, 0.0, 1.0 ],
					"dbperled" : 3,
					"hidden" : 0,
					"hint" : "Input level",
					"hotcolor" : [ 1.0, 0.6, 0.0, 1.0 ],
					"id" : "obj-70",
					"ignoreclick" : 0,
					"interval" : 50,
					"maxclass" : "meter~",
					"nhotleds" : 3,
					"ntepidleds" : 3,
					"numinlets" : 1,
					"numleds" : 12,
					"numoutlets" : 1,
					"nwarmleds" : 3,
					"outlettype" : [ "float" ],
					"overloadcolor" : [ 1.0, 0.0, 0.0, 1.0 ],
					"patching_rect" : [ 395.0, 54.0, 12.0, 58.0 ],
					"presentation" : 1,
					"presentation_rect" : [ 286.0, 21.0, 12.0, 58.0 ],
					"tepidcolor" : [ 0.6, 0.73243, 0.0, 1.0 ],
					"warmcolor" : [ 0.8545, 0.8545, 0.0, 1.0 ]
				}

			}
, 			{
				"box" : 				{
					"background" : 0,
					"bgcolor" : [ 0.776471, 0.796078, 0.815686, 0.619608 ],
					"bordercolor" : [ 0.2, 0.2, 0.2, 0.0 ],
					"coldcolor" : [ 0.0, 0.6, 0.0, 1.0 ],
					"dbperled" : 3,
					"hidden" : 0,
					"hint" : "Input level",
					"hotcolor" : [ 1.0, 0.6, 0.0, 1.0 ],
					"id" : "obj-71",
					"ignoreclick" : 0,
					"interval" : 50,
					"maxclass" : "meter~",
					"nhotleds" : 3,
					"ntepidleds" : 3,
					"numinlets" : 1,
					"numleds" : 12,
					"numoutlets" : 1,
					"nwarmleds" : 3,
					"outlettype" : [ "float" ],
					"overloadcolor" : [ 1.0, 0.0, 0.0, 1.0 ],
					"patching_rect" : [ 381.0, 54.0, 12.0, 58.0 ],
					"presentation" : 1,
					"presentation_rect" : [ 274.0, 21.0, 12.0, 58.0 ],
					"tepidcolor" : [ 0.6, 0.73243, 0.0, 1.0 ],
					"warmcolor" : [ 0.8545, 0.8545, 0.0, 1.0 ]
				}

			}
, 			{
				"box" : 				{
					"background" : 0,
					"bgcolor" : [ 0.776471, 0.796078, 0.815686, 0.619608 ],
					"bordercolor" : [ 0.2, 0.2, 0.2, 0.0 ],
					"coldcolor" : [ 0.0, 0.6, 0.0, 1.0 ],
					"dbperled" : 3,
					"hidden" : 0,
					"hint" : "Input level",
					"hotcolor" : [ 1.0, 0.6, 0.0, 1.0 ],
					"id" : "obj-73",
					"ignoreclick" : 0,
					"interval" : 50,
					"maxclass" : "meter~",
					"nhotleds" : 3,
					"ntepidleds" : 3,
					"numinlets" : 1,
					"numleds" : 12,
					"numoutlets" : 1,
					"nwarmleds" : 3,
					"outlettype" : [ "float" ],
					"overloadcolor" : [ 1.0, 0.0, 0.0, 1.0 ],
					"patching_rect" : [ 367.0, 54.0, 12.0, 58.0 ],
					"presentation" : 1,
					"presentation_rect" : [ 262.0, 21.0, 12.0, 58.0 ],
					"tepidcolor" : [ 0.6, 0.73243, 0.0, 1.0 ],
					"warmcolor" : [ 0.8545, 0.8545, 0.0, 1.0 ]
				}

			}
, 			{
				"box" : 				{
					"background" : 0,
					"bgcolor" : [ 0.776471, 0.796078, 0.815686, 0.619608 ],
					"bordercolor" : [ 0.2, 0.2, 0.2, 0.0 ],
					"coldcolor" : [ 0.0, 0.6, 0.0, 1.0 ],
					"dbperled" : 3,
					"hidden" : 0,
					"hint" : "Input level",
					"hotcolor" : [ 1.0, 0.6, 0.0, 1.0 ],
					"id" : "obj-74",
					"ignoreclick" : 0,
					"interval" : 50,
					"maxclass" : "meter~",
					"nhotleds" : 3,
					"ntepidleds" : 3,
					"numinlets" : 1,
					"numleds" : 12,
					"numoutlets" : 1,
					"nwarmleds" : 3,
					"outlettype" : [ "float" ],
					"overloadcolor" : [ 1.0, 0.0, 0.0, 1.0 ],
					"patching_rect" : [ 353.0, 54.0, 12.0, 58.0 ],
					"presentation" : 1,
					"presentation_rect" : [ 250.0, 21.0, 12.0, 58.0 ],
					"tepidcolor" : [ 0.6, 0.73243, 0.0, 1.0 ],
					"warmcolor" : [ 0.8545, 0.8545, 0.0, 1.0 ]
				}

			}
, 			{
				"box" : 				{
					"background" : 0,
					"bgcolor" : [ 0.776471, 0.796078, 0.815686, 0.619608 ],
					"bordercolor" : [ 0.2, 0.2, 0.2, 0.0 ],
					"coldcolor" : [ 0.0, 0.6, 0.0, 1.0 ],
					"dbperled" : 3,
					"hidden" : 0,
					"hint" : "Input level",
					"hotcolor" : [ 1.0, 0.6, 0.0, 1.0 ],
					"id" : "obj-76",
					"ignoreclick" : 0,
					"interval" : 50,
					"maxclass" : "meter~",
					"nhotleds" : 3,
					"ntepidleds" : 3,
					"numinlets" : 1,
					"numleds" : 12,
					"numoutlets" : 1,
					"nwarmleds" : 3,
					"outlettype" : [ "float" ],
					"overloadcolor" : [ 1.0, 0.0, 0.0, 1.0 ],
					"patching_rect" : [ 339.0, 54.0, 12.0, 58.0 ],
					"presentation" : 1,
					"presentation_rect" : [ 238.0, 21.0, 12.0, 58.0 ],
					"tepidcolor" : [ 0.6, 0.73243, 0.0, 1.0 ],
					"warmcolor" : [ 0.8545, 0.8545, 0.0, 1.0 ]
				}

			}
, 			{
				"box" : 				{
					"background" : 0,
					"bgcolor" : [ 0.776471, 0.796078, 0.815686, 0.619608 ],
					"bordercolor" : [ 0.2, 0.2, 0.2, 0.0 ],
					"coldcolor" : [ 0.0, 0.6, 0.0, 1.0 ],
					"dbperled" : 3,
					"hidden" : 0,
					"hint" : "Input level",
					"hotcolor" : [ 1.0, 0.6, 0.0, 1.0 ],
					"id" : "obj-77",
					"ignoreclick" : 0,
					"interval" : 50,
					"maxclass" : "meter~",
					"nhotleds" : 3,
					"ntepidleds" : 3,
					"numinlets" : 1,
					"numleds" : 12,
					"numoutlets" : 1,
					"nwarmleds" : 3,
					"outlettype" : [ "float" ],
					"overloadcolor" : [ 1.0, 0.0, 0.0, 1.0 ],
					"patching_rect" : [ 325.0, 54.0, 12.0, 58.0 ],
					"presentation" : 1,
					"presentation_rect" : [ 226.0, 21.0, 12.0, 58.0 ],
					"tepidcolor" : [ 0.6, 0.73243, 0.0, 1.0 ],
					"warmcolor" : [ 0.8545, 0.8545, 0.0, 1.0 ]
				}

			}
, 			{
				"box" : 				{
					"background" : 0,
					"bgcolor" : [ 1.0, 1.0, 1.0, 0.0 ],
					"bubble" : 0,
					"bubblepoint" : 0.5,
					"bubbleside" : 1,
					"bubbletextmargin" : 5,
					"fontface" : 0,
					"fontname" : "Arial Bold",
					"fontsize" : 8.116632,
					"frgb" : [ 0.388235, 0.388235, 0.388235, 1.0 ],
					"hidden" : 0,
					"hint" : "",
					"id" : "obj-40",
					"ignoreclick" : 1,
					"maxclass" : "comment",
					"numinlets" : 1,
					"numoutlets" : 0,
					"patching_rect" : [ 308.0, 112.421066, 18.0, 16.0 ],
					"presentation" : 1,
					"presentation_rect" : [ 199.0, 8.0, 18.0, 16.0 ],
					"text" : "16",
					"textcolor" : [ 0.388235, 0.388235, 0.388235, 1.0 ],
					"underline" : 0
				}

			}
, 			{
				"box" : 				{
					"background" : 0,
					"bgcolor" : [ 1.0, 1.0, 1.0, 0.0 ],
					"bubble" : 0,
					"bubblepoint" : 0.5,
					"bubbleside" : 1,
					"bubbletextmargin" : 5,
					"fontface" : 0,
					"fontname" : "Arial Bold",
					"fontsize" : 8.116632,
					"frgb" : [ 0.388235, 0.388235, 0.388235, 1.0 ],
					"hidden" : 0,
					"hint" : "",
					"id" : "obj-41",
					"ignoreclick" : 1,
					"maxclass" : "comment",
					"numinlets" : 1,
					"numoutlets" : 0,
					"patching_rect" : [ 294.0, 112.421066, 18.0, 16.0 ],
					"presentation" : 1,
					"presentation_rect" : [ 187.0, 8.0, 18.0, 16.0 ],
					"text" : "15",
					"textcolor" : [ 0.388235, 0.388235, 0.388235, 1.0 ],
					"underline" : 0
				}

			}
, 			{
				"box" : 				{
					"background" : 0,
					"bgcolor" : [ 1.0, 1.0, 1.0, 0.0 ],
					"bubble" : 0,
					"bubblepoint" : 0.5,
					"bubbleside" : 1,
					"bubbletextmargin" : 5,
					"fontface" : 0,
					"fontname" : "Arial Bold",
					"fontsize" : 8.116632,
					"frgb" : [ 0.388235, 0.388235, 0.388235, 1.0 ],
					"hidden" : 0,
					"hint" : "",
					"id" : "obj-42",
					"ignoreclick" : 1,
					"maxclass" : "comment",
					"numinlets" : 1,
					"numoutlets" : 0,
					"patching_rect" : [ 280.0, 112.421066, 18.0, 16.0 ],
					"presentation" : 1,
					"presentation_rect" : [ 175.0, 8.0, 18.0, 16.0 ],
					"text" : "14",
					"textcolor" : [ 0.388235, 0.388235, 0.388235, 1.0 ],
					"underline" : 0
				}

			}
, 			{
				"box" : 				{
					"background" : 0,
					"bgcolor" : [ 1.0, 1.0, 1.0, 0.0 ],
					"bubble" : 0,
					"bubblepoint" : 0.5,
					"bubbleside" : 1,
					"bubbletextmargin" : 5,
					"fontface" : 0,
					"fontname" : "Arial Bold",
					"fontsize" : 8.116632,
					"frgb" : [ 0.388235, 0.388235, 0.388235, 1.0 ],
					"hidden" : 0,
					"hint" : "",
					"id" : "obj-43",
					"ignoreclick" : 1,
					"maxclass" : "comment",
					"numinlets" : 1,
					"numoutlets" : 0,
					"patching_rect" : [ 266.0, 112.421066, 18.0, 16.0 ],
					"presentation" : 1,
					"presentation_rect" : [ 163.0, 8.0, 18.0, 16.0 ],
					"text" : "13",
					"textcolor" : [ 0.388235, 0.388235, 0.388235, 1.0 ],
					"underline" : 0
				}

			}
, 			{
				"box" : 				{
					"background" : 0,
					"bgcolor" : [ 1.0, 1.0, 1.0, 0.0 ],
					"bubble" : 0,
					"bubblepoint" : 0.5,
					"bubbleside" : 1,
					"bubbletextmargin" : 5,
					"fontface" : 0,
					"fontname" : "Arial Bold",
					"fontsize" : 8.116632,
					"frgb" : [ 0.388235, 0.388235, 0.388235, 1.0 ],
					"hidden" : 0,
					"hint" : "",
					"id" : "obj-44",
					"ignoreclick" : 1,
					"maxclass" : "comment",
					"numinlets" : 1,
					"numoutlets" : 0,
					"patching_rect" : [ 252.0, 112.421066, 18.0, 16.0 ],
					"presentation" : 1,
					"presentation_rect" : [ 151.0, 8.0, 18.0, 16.0 ],
					"text" : "12",
					"textcolor" : [ 0.388235, 0.388235, 0.388235, 1.0 ],
					"underline" : 0
				}

			}
, 			{
				"box" : 				{
					"background" : 0,
					"bgcolor" : [ 1.0, 1.0, 1.0, 0.0 ],
					"bubble" : 0,
					"bubblepoint" : 0.5,
					"bubbleside" : 1,
					"bubbletextmargin" : 5,
					"fontface" : 0,
					"fontname" : "Arial Bold",
					"fontsize" : 8.116632,
					"frgb" : [ 0.388235, 0.388235, 0.388235, 1.0 ],
					"hidden" : 0,
					"hint" : "",
					"id" : "obj-45",
					"ignoreclick" : 1,
					"maxclass" : "comment",
					"numinlets" : 1,
					"numoutlets" : 0,
					"patching_rect" : [ 238.0, 112.421066, 18.0, 16.0 ],
					"presentation" : 1,
					"presentation_rect" : [ 139.0, 8.0, 18.0, 16.0 ],
					"text" : "11",
					"textcolor" : [ 0.388235, 0.388235, 0.388235, 1.0 ],
					"underline" : 0
				}

			}
, 			{
				"box" : 				{
					"background" : 0,
					"bgcolor" : [ 1.0, 1.0, 1.0, 0.0 ],
					"bubble" : 0,
					"bubblepoint" : 0.5,
					"bubbleside" : 1,
					"bubbletextmargin" : 5,
					"fontface" : 0,
					"fontname" : "Arial Bold",
					"fontsize" : 8.116632,
					"frgb" : [ 0.388235, 0.388235, 0.388235, 1.0 ],
					"hidden" : 0,
					"hint" : "",
					"id" : "obj-46",
					"ignoreclick" : 1,
					"maxclass" : "comment",
					"numinlets" : 1,
					"numoutlets" : 0,
					"patching_rect" : [ 224.0, 112.421066, 18.0, 16.0 ],
					"presentation" : 1,
					"presentation_rect" : [ 127.0, 8.0, 18.0, 16.0 ],
					"text" : "10",
					"textcolor" : [ 0.388235, 0.388235, 0.388235, 1.0 ],
					"underline" : 0
				}

			}
, 			{
				"box" : 				{
					"background" : 0,
					"bgcolor" : [ 1.0, 1.0, 1.0, 0.0 ],
					"bubble" : 0,
					"bubblepoint" : 0.5,
					"bubbleside" : 1,
					"bubbletextmargin" : 5,
					"fontface" : 0,
					"fontname" : "Arial Bold",
					"fontsize" : 8.116632,
					"frgb" : [ 0.388235, 0.388235, 0.388235, 1.0 ],
					"hidden" : 0,
					"hint" : "",
					"id" : "obj-48",
					"ignoreclick" : 1,
					"maxclass" : "comment",
					"numinlets" : 1,
					"numoutlets" : 0,
					"patching_rect" : [ 211.592194, 112.421066, 16.0, 16.0 ],
					"presentation" : 1,
					"presentation_rect" : [ 118.0, 8.0, 18.0, 16.0 ],
					"text" : "9",
					"textcolor" : [ 0.388235, 0.388235, 0.388235, 1.0 ],
					"underline" : 0
				}

			}
, 			{
				"box" : 				{
					"background" : 0,
					"bgcolor" : [ 0.776471, 0.796078, 0.815686, 0.619608 ],
					"bordercolor" : [ 0.2, 0.2, 0.2, 0.0 ],
					"coldcolor" : [ 0.0, 0.6, 0.0, 1.0 ],
					"dbperled" : 3,
					"hidden" : 0,
					"hint" : "Input level",
					"hotcolor" : [ 1.0, 0.6, 0.0, 1.0 ],
					"id" : "obj-49",
					"ignoreclick" : 0,
					"interval" : 50,
					"maxclass" : "meter~",
					"nhotleds" : 3,
					"ntepidleds" : 3,
					"numinlets" : 1,
					"numleds" : 12,
					"numoutlets" : 1,
					"nwarmleds" : 3,
					"outlettype" : [ "float" ],
					"overloadcolor" : [ 1.0, 0.0, 0.0, 1.0 ],
					"patching_rect" : [ 311.0, 54.0, 12.0, 58.0 ],
					"presentation" : 1,
					"presentation_rect" : [ 202.0, 21.0, 12.0, 58.0 ],
					"tepidcolor" : [ 0.6, 0.73243, 0.0, 1.0 ],
					"warmcolor" : [ 0.8545, 0.8545, 0.0, 1.0 ]
				}

			}
, 			{
				"box" : 				{
					"background" : 0,
					"bgcolor" : [ 0.776471, 0.796078, 0.815686, 0.619608 ],
					"bordercolor" : [ 0.2, 0.2, 0.2, 0.0 ],
					"coldcolor" : [ 0.0, 0.6, 0.0, 1.0 ],
					"dbperled" : 3,
					"hidden" : 0,
					"hint" : "Input level",
					"hotcolor" : [ 1.0, 0.6, 0.0, 1.0 ],
					"id" : "obj-50",
					"ignoreclick" : 0,
					"interval" : 50,
					"maxclass" : "meter~",
					"nhotleds" : 3,
					"ntepidleds" : 3,
					"numinlets" : 1,
					"numleds" : 12,
					"numoutlets" : 1,
					"nwarmleds" : 3,
					"outlettype" : [ "float" ],
					"overloadcolor" : [ 1.0, 0.0, 0.0, 1.0 ],
					"patching_rect" : [ 297.0, 54.0, 12.0, 58.0 ],
					"presentation" : 1,
					"presentation_rect" : [ 190.0, 21.0, 12.0, 58.0 ],
					"tepidcolor" : [ 0.6, 0.73243, 0.0, 1.0 ],
					"warmcolor" : [ 0.8545, 0.8545, 0.0, 1.0 ]
				}

			}
, 			{
				"box" : 				{
					"background" : 0,
					"bgcolor" : [ 0.776471, 0.796078, 0.815686, 0.619608 ],
					"bordercolor" : [ 0.2, 0.2, 0.2, 0.0 ],
					"coldcolor" : [ 0.0, 0.6, 0.0, 1.0 ],
					"dbperled" : 3,
					"hidden" : 0,
					"hint" : "Input level",
					"hotcolor" : [ 1.0, 0.6, 0.0, 1.0 ],
					"id" : "obj-51",
					"ignoreclick" : 0,
					"interval" : 50,
					"maxclass" : "meter~",
					"nhotleds" : 3,
					"ntepidleds" : 3,
					"numinlets" : 1,
					"numleds" : 12,
					"numoutlets" : 1,
					"nwarmleds" : 3,
					"outlettype" : [ "float" ],
					"overloadcolor" : [ 1.0, 0.0, 0.0, 1.0 ],
					"patching_rect" : [ 283.0, 54.0, 12.0, 58.0 ],
					"presentation" : 1,
					"presentation_rect" : [ 178.0, 21.0, 12.0, 58.0 ],
					"tepidcolor" : [ 0.6, 0.73243, 0.0, 1.0 ],
					"warmcolor" : [ 0.8545, 0.8545, 0.0, 1.0 ]
				}

			}
, 			{
				"box" : 				{
					"background" : 0,
					"bgcolor" : [ 0.776471, 0.796078, 0.815686, 0.619608 ],
					"bordercolor" : [ 0.2, 0.2, 0.2, 0.0 ],
					"coldcolor" : [ 0.0, 0.6, 0.0, 1.0 ],
					"dbperled" : 3,
					"hidden" : 0,
					"hint" : "Input level",
					"hotcolor" : [ 1.0, 0.6, 0.0, 1.0 ],
					"id" : "obj-52",
					"ignoreclick" : 0,
					"interval" : 50,
					"maxclass" : "meter~",
					"nhotleds" : 3,
					"ntepidleds" : 3,
					"numinlets" : 1,
					"numleds" : 12,
					"numoutlets" : 1,
					"nwarmleds" : 3,
					"outlettype" : [ "float" ],
					"overloadcolor" : [ 1.0, 0.0, 0.0, 1.0 ],
					"patching_rect" : [ 269.0, 54.0, 12.0, 58.0 ],
					"presentation" : 1,
					"presentation_rect" : [ 166.0, 21.0, 12.0, 58.0 ],
					"tepidcolor" : [ 0.6, 0.73243, 0.0, 1.0 ],
					"warmcolor" : [ 0.8545, 0.8545, 0.0, 1.0 ]
				}

			}
, 			{
				"box" : 				{
					"background" : 0,
					"bgcolor" : [ 0.776471, 0.796078, 0.815686, 0.619608 ],
					"bordercolor" : [ 0.2, 0.2, 0.2, 0.0 ],
					"coldcolor" : [ 0.0, 0.6, 0.0, 1.0 ],
					"dbperled" : 3,
					"hidden" : 0,
					"hint" : "Input level",
					"hotcolor" : [ 1.0, 0.6, 0.0, 1.0 ],
					"id" : "obj-53",
					"ignoreclick" : 0,
					"interval" : 50,
					"maxclass" : "meter~",
					"nhotleds" : 3,
					"ntepidleds" : 3,
					"numinlets" : 1,
					"numleds" : 12,
					"numoutlets" : 1,
					"nwarmleds" : 3,
					"outlettype" : [ "float" ],
					"overloadcolor" : [ 1.0, 0.0, 0.0, 1.0 ],
					"patching_rect" : [ 255.0, 54.0, 12.0, 58.0 ],
					"presentation" : 1,
					"presentation_rect" : [ 154.0, 21.0, 12.0, 58.0 ],
					"tepidcolor" : [ 0.6, 0.73243, 0.0, 1.0 ],
					"warmcolor" : [ 0.8545, 0.8545, 0.0, 1.0 ]
				}

			}
, 			{
				"box" : 				{
					"background" : 0,
					"bgcolor" : [ 0.776471, 0.796078, 0.815686, 0.619608 ],
					"bordercolor" : [ 0.2, 0.2, 0.2, 0.0 ],
					"coldcolor" : [ 0.0, 0.6, 0.0, 1.0 ],
					"dbperled" : 3,
					"hidden" : 0,
					"hint" : "Input level",
					"hotcolor" : [ 1.0, 0.6, 0.0, 1.0 ],
					"id" : "obj-54",
					"ignoreclick" : 0,
					"interval" : 50,
					"maxclass" : "meter~",
					"nhotleds" : 3,
					"ntepidleds" : 3,
					"numinlets" : 1,
					"numleds" : 12,
					"numoutlets" : 1,
					"nwarmleds" : 3,
					"outlettype" : [ "float" ],
					"overloadcolor" : [ 1.0, 0.0, 0.0, 1.0 ],
					"patching_rect" : [ 241.0, 54.0, 12.0, 58.0 ],
					"presentation" : 1,
					"presentation_rect" : [ 142.0, 21.0, 12.0, 58.0 ],
					"tepidcolor" : [ 0.6, 0.73243, 0.0, 1.0 ],
					"warmcolor" : [ 0.8545, 0.8545, 0.0, 1.0 ]
				}

			}
, 			{
				"box" : 				{
					"background" : 0,
					"bgcolor" : [ 0.776471, 0.796078, 0.815686, 0.619608 ],
					"bordercolor" : [ 0.2, 0.2, 0.2, 0.0 ],
					"coldcolor" : [ 0.0, 0.6, 0.0, 1.0 ],
					"dbperled" : 3,
					"hidden" : 0,
					"hint" : "Input level",
					"hotcolor" : [ 1.0, 0.6, 0.0, 1.0 ],
					"id" : "obj-55",
					"ignoreclick" : 0,
					"interval" : 50,
					"maxclass" : "meter~",
					"nhotleds" : 3,
					"ntepidleds" : 3,
					"numinlets" : 1,
					"numleds" : 12,
					"numoutlets" : 1,
					"nwarmleds" : 3,
					"outlettype" : [ "float" ],
					"overloadcolor" : [ 1.0, 0.0, 0.0, 1.0 ],
					"patching_rect" : [ 227.0, 54.0, 12.0, 58.0 ],
					"presentation" : 1,
					"presentation_rect" : [ 130.0, 21.0, 12.0, 58.0 ],
					"tepidcolor" : [ 0.6, 0.73243, 0.0, 1.0 ],
					"warmcolor" : [ 0.8545, 0.8545, 0.0, 1.0 ]
				}

			}
, 			{
				"box" : 				{
					"background" : 0,
					"bgcolor" : [ 0.776471, 0.796078, 0.815686, 0.619608 ],
					"bordercolor" : [ 0.2, 0.2, 0.2, 0.0 ],
					"coldcolor" : [ 0.0, 0.6, 0.0, 1.0 ],
					"dbperled" : 3,
					"hidden" : 0,
					"hint" : "Input level",
					"hotcolor" : [ 1.0, 0.6, 0.0, 1.0 ],
					"id" : "obj-56",
					"ignoreclick" : 0,
					"interval" : 50,
					"maxclass" : "meter~",
					"nhotleds" : 3,
					"ntepidleds" : 3,
					"numinlets" : 1,
					"numleds" : 12,
					"numoutlets" : 1,
					"nwarmleds" : 3,
					"outlettype" : [ "float" ],
					"overloadcolor" : [ 1.0, 0.0, 0.0, 1.0 ],
					"patching_rect" : [ 213.0, 54.0, 12.0, 58.0 ],
					"presentation" : 1,
					"presentation_rect" : [ 118.0, 21.0, 12.0, 58.0 ],
					"tepidcolor" : [ 0.6, 0.73243, 0.0, 1.0 ],
					"warmcolor" : [ 0.8545, 0.8545, 0.0, 1.0 ]
				}

			}
, 			{
				"box" : 				{
					"background" : 0,
					"bgcolor" : [ 1.0, 1.0, 1.0, 0.0 ],
					"bubble" : 0,
					"bubblepoint" : 0.5,
					"bubbleside" : 1,
					"bubbletextmargin" : 5,
					"fontface" : 0,
					"fontname" : "Arial Bold",
					"fontsize" : 8.116632,
					"frgb" : [ 0.388235, 0.388235, 0.388235, 1.0 ],
					"hidden" : 0,
					"hint" : "",
					"id" : "obj-39",
					"ignoreclick" : 1,
					"maxclass" : "comment",
					"numinlets" : 1,
					"numoutlets" : 0,
					"patching_rect" : [ 199.381638, 112.421066, 16.0, 16.0 ],
					"presentation" : 1,
					"presentation_rect" : [ 94.0, 8.0, 18.0, 16.0 ],
					"text" : "8",
					"textcolor" : [ 0.388235, 0.388235, 0.388235, 1.0 ],
					"underline" : 0
				}

			}
, 			{
				"box" : 				{
					"background" : 0,
					"bgcolor" : [ 1.0, 1.0, 1.0, 0.0 ],
					"bubble" : 0,
					"bubblepoint" : 0.5,
					"bubbleside" : 1,
					"bubbletextmargin" : 5,
					"fontface" : 0,
					"fontname" : "Arial Bold",
					"fontsize" : 8.116632,
					"frgb" : [ 0.388235, 0.388235, 0.388235, 1.0 ],
					"hidden" : 0,
					"hint" : "",
					"id" : "obj-38",
					"ignoreclick" : 1,
					"maxclass" : "comment",
					"numinlets" : 1,
					"numoutlets" : 0,
					"patching_rect" : [ 186.0, 112.421066, 16.0, 16.0 ],
					"presentation" : 1,
					"presentation_rect" : [ 82.0, 8.0, 18.0, 16.0 ],
					"text" : "7",
					"textcolor" : [ 0.388235, 0.388235, 0.388235, 1.0 ],
					"underline" : 0
				}

			}
, 			{
				"box" : 				{
					"background" : 0,
					"bgcolor" : [ 1.0, 1.0, 1.0, 0.0 ],
					"bubble" : 0,
					"bubblepoint" : 0.5,
					"bubbleside" : 1,
					"bubbletextmargin" : 5,
					"fontface" : 0,
					"fontname" : "Arial Bold",
					"fontsize" : 8.116632,
					"frgb" : [ 0.388235, 0.388235, 0.388235, 1.0 ],
					"hidden" : 0,
					"hint" : "",
					"id" : "obj-37",
					"ignoreclick" : 1,
					"maxclass" : "comment",
					"numinlets" : 1,
					"numoutlets" : 0,
					"patching_rect" : [ 172.0, 112.421066, 16.0, 16.0 ],
					"presentation" : 1,
					"presentation_rect" : [ 70.0, 8.0, 18.0, 16.0 ],
					"text" : "6",
					"textcolor" : [ 0.388235, 0.388235, 0.388235, 1.0 ],
					"underline" : 0
				}

			}
, 			{
				"box" : 				{
					"background" : 0,
					"bgcolor" : [ 1.0, 1.0, 1.0, 0.0 ],
					"bubble" : 0,
					"bubblepoint" : 0.5,
					"bubbleside" : 1,
					"bubbletextmargin" : 5,
					"fontface" : 0,
					"fontname" : "Arial Bold",
					"fontsize" : 8.116632,
					"frgb" : [ 0.388235, 0.388235, 0.388235, 1.0 ],
					"hidden" : 0,
					"hint" : "",
					"id" : "obj-36",
					"ignoreclick" : 1,
					"maxclass" : "comment",
					"numinlets" : 1,
					"numoutlets" : 0,
					"patching_rect" : [ 158.0, 112.421066, 16.0, 16.0 ],
					"presentation" : 1,
					"presentation_rect" : [ 58.0, 8.0, 18.0, 16.0 ],
					"text" : "5",
					"textcolor" : [ 0.388235, 0.388235, 0.388235, 1.0 ],
					"underline" : 0
				}

			}
, 			{
				"box" : 				{
					"background" : 0,
					"bgcolor" : [ 1.0, 1.0, 1.0, 0.0 ],
					"bubble" : 0,
					"bubblepoint" : 0.5,
					"bubbleside" : 1,
					"bubbletextmargin" : 5,
					"fontface" : 0,
					"fontname" : "Arial Bold",
					"fontsize" : 8.116632,
					"frgb" : [ 0.388235, 0.388235, 0.388235, 1.0 ],
					"hidden" : 0,
					"hint" : "",
					"id" : "obj-35",
					"ignoreclick" : 1,
					"maxclass" : "comment",
					"numinlets" : 1,
					"numoutlets" : 0,
					"patching_rect" : [ 144.0, 112.421066, 16.0, 16.0 ],
					"presentation" : 1,
					"presentation_rect" : [ 46.0, 8.0, 18.0, 16.0 ],
					"text" : "4",
					"textcolor" : [ 0.388235, 0.388235, 0.388235, 1.0 ],
					"underline" : 0
				}

			}
, 			{
				"box" : 				{
					"background" : 0,
					"bgcolor" : [ 1.0, 1.0, 1.0, 0.0 ],
					"bubble" : 0,
					"bubblepoint" : 0.5,
					"bubbleside" : 1,
					"bubbletextmargin" : 5,
					"fontface" : 0,
					"fontname" : "Arial Bold",
					"fontsize" : 8.116632,
					"frgb" : [ 0.388235, 0.388235, 0.388235, 1.0 ],
					"hidden" : 0,
					"hint" : "",
					"id" : "obj-34",
					"ignoreclick" : 1,
					"maxclass" : "comment",
					"numinlets" : 1,
					"numoutlets" : 0,
					"patching_rect" : [ 130.0, 112.421066, 16.0, 16.0 ],
					"presentation" : 1,
					"presentation_rect" : [ 34.0, 8.0, 18.0, 16.0 ],
					"text" : "3",
					"textcolor" : [ 0.388235, 0.388235, 0.388235, 1.0 ],
					"underline" : 0
				}

			}
, 			{
				"box" : 				{
					"background" : 0,
					"bgcolor" : [ 1.0, 1.0, 1.0, 0.0 ],
					"bubble" : 0,
					"bubblepoint" : 0.5,
					"bubbleside" : 1,
					"bubbletextmargin" : 5,
					"fontface" : 0,
					"fontname" : "Arial Bold",
					"fontsize" : 8.116632,
					"frgb" : [ 0.388235, 0.388235, 0.388235, 1.0 ],
					"hidden" : 0,
					"hint" : "",
					"id" : "obj-33",
					"ignoreclick" : 1,
					"maxclass" : "comment",
					"numinlets" : 1,
					"numoutlets" : 0,
					"patching_rect" : [ 116.0, 112.421066, 16.0, 16.0 ],
					"presentation" : 1,
					"presentation_rect" : [ 22.0, 8.0, 18.0, 16.0 ],
					"text" : "2",
					"textcolor" : [ 0.388235, 0.388235, 0.388235, 1.0 ],
					"underline" : 0
				}

			}
, 			{
				"box" : 				{
					"background" : 0,
					"bgcolor" : [ 1.0, 1.0, 1.0, 0.0 ],
					"bubble" : 0,
					"bubblepoint" : 0.5,
					"bubbleside" : 1,
					"bubbletextmargin" : 5,
					"fontface" : 0,
					"fontname" : "Arial Bold",
					"fontsize" : 8.116632,
					"frgb" : [ 0.388235, 0.388235, 0.388235, 1.0 ],
					"hidden" : 0,
					"hint" : "",
					"id" : "obj-31",
					"ignoreclick" : 1,
					"maxclass" : "comment",
					"numinlets" : 1,
					"numoutlets" : 0,
					"patching_rect" : [ 102.0, 112.421066, 15.0, 16.0 ],
					"presentation" : 1,
					"presentation_rect" : [ 10.0, 8.0, 18.0, 16.0 ],
					"text" : "1",
					"textcolor" : [ 0.388235, 0.388235, 0.388235, 1.0 ],
					"underline" : 0
				}

			}
, 			{
				"box" : 				{
					"background" : 0,
					"bgcolor" : [ 1.0, 1.0, 1.0, 1.0 ],
					"color" : [ 0.7, 0.7, 0.7, 1.0 ],
					"fontface" : 0,
					"fontname" : "Arial",
					"fontsize" : 10.435669,
					"hidden" : 0,
					"id" : "obj-47",
					"ignoreclick" : 0,
					"maxclass" : "newobj",
					"numinlets" : 1,
					"numoutlets" : 0,
					"patching_rect" : [ 17.0, 100.0, 50.0, 18.0 ],
					"presentation" : 0,
					"presentation_rect" : [ 0.0, 0.0, 0.0, 0.0 ],
					"text" : "onecopy",
					"textcolor" : [ 0.0, 0.0, 0.0, 1.0 ]
				}

			}
, 			{
				"box" : 				{
					"background" : 0,
					"bgcolor" : [ 1.0, 1.0, 1.0, 1.0 ],
					"color" : [ 0.7, 0.7, 0.7, 1.0 ],
					"fontface" : 0,
					"fontname" : "Arial",
					"fontsize" : 10.435669,
					"hidden" : 0,
					"id" : "obj-142",
					"ignoreclick" : 0,
					"maxclass" : "newobj",
					"numinlets" : 1,
					"numoutlets" : 2,
					"outlettype" : [ "", "" ],
					"patching_rect" : [ 17.0, 78.0, 62.0, 18.0 ],
					"presentation" : 0,
					"presentation_rect" : [ 0.0, 0.0, 0.0, 0.0 ],
					"save" : [ "#N", "thispatcher", ";", "#Q", "window", "flags", "nogrow", "close", "nozoom", "float", "menu", "minimize", ";", "#Q", "window", "constrain", 50, 50, 32768, 32768, ";", "#Q", "window", "size", 161, 50, 496, 140, ";", "#Q", "window", "title", ";", "#Q", "window", "exec", ";", "#Q", "savewindow", 1, ";", "#Q", "end", ";" ],
					"text" : "thispatcher",
					"textcolor" : [ 0.0, 0.0, 0.0, 1.0 ]
				}

			}
, 			{
				"box" : 				{
					"background" : 0,
					"bgcolor" : [ 1.0, 1.0, 1.0, 1.0 ],
					"color" : [ 0.7, 0.7, 0.7, 1.0 ],
					"fontface" : 0,
					"fontname" : "Arial",
					"fontsize" : 11.595187,
					"hidden" : 0,
					"id" : "obj-140",
					"ignoreclick" : 0,
					"maxclass" : "newobj",
					"numinlets" : 2,
					"numoutlets" : 1,
					"outlettype" : [ "" ],
					"patcher" : 					{
						"fileversion" : 1,
						"appversion" : 						{
							"major" : 6,
							"minor" : 0,
							"revision" : 4
						}
,
						"rect" : [ 165.0, 240.0, 657.0, 488.0 ],
						"bglocked" : 0,
						"openinpresentation" : 0,
						"default_fontsize" : 9.0,
						"default_fontface" : 0,
						"default_fontname" : "Arial",
						"gridonopen" : 0,
						"gridsize" : [ 15.0, 15.0 ],
						"gridsnaponopen" : 0,
						"statusbarvisible" : 2,
						"toolbarvisible" : 1,
						"boxanimatetime" : 200,
						"imprint" : 0,
						"enablehscroll" : 1,
						"enablevscroll" : 1,
						"devicewidth" : 0.0,
						"description" : "",
						"digest" : "",
						"tags" : "",
						"boxes" : [ 							{
								"box" : 								{
									"fontname" : "Arial",
									"fontsize" : 10.435669,
									"id" : "obj-13",
									"maxclass" : "newobj",
									"numinlets" : 1,
									"numoutlets" : 1,
									"outlettype" : [ "" ],
									"patching_rect" : [ 466.0, 378.0, 19.0, 18.0 ],
									"text" : "t l"
								}

							}
, 							{
								"box" : 								{
									"comment" : "",
									"id" : "obj-5",
									"maxclass" : "inlet",
									"numinlets" : 0,
									"numoutlets" : 1,
									"outlettype" : [ "int" ],
									"patching_rect" : [ 466.0, 257.0, 18.0, 18.0 ],
									"prototypename" : "Arial9"
								}

							}
, 							{
								"box" : 								{
									"id" : "obj-6",
									"maxclass" : "toggle",
									"numinlets" : 1,
									"numoutlets" : 1,
									"outlettype" : [ "int" ],
									"parameter_enable" : 0,
									"patching_rect" : [ 466.0, 279.0, 18.0, 18.0 ],
									"prototypename" : "Arial9"
								}

							}
, 							{
								"box" : 								{
									"fontname" : "Arial",
									"fontsize" : 10.435669,
									"id" : "obj-8",
									"maxclass" : "newobj",
									"numinlets" : 3,
									"numoutlets" : 3,
									"outlettype" : [ "bang", "bang", "" ],
									"patching_rect" : [ 466.0, 301.0, 46.0, 18.0 ],
									"text" : "sel 1 0"
								}

							}
, 							{
								"box" : 								{
									"fontname" : "Arial",
									"fontsize" : 10.435669,
									"id" : "obj-1",
									"maxclass" : "message",
									"numinlets" : 2,
									"numoutlets" : 1,
									"outlettype" : [ "" ],
									"patching_rect" : [ 362.0, 428.0, 76.0, 16.0 ],
									"text" : "savewindow 1"
								}

							}
, 							{
								"box" : 								{
									"fontname" : "Arial",
									"fontsize" : 10.435669,
									"id" : "obj-63",
									"maxclass" : "newobj",
									"numinlets" : 2,
									"numoutlets" : 1,
									"outlettype" : [ "" ],
									"patching_rect" : [ 43.0, 301.0, 32.5, 18.0 ],
									"text" : "qlim"
								}

							}
, 							{
								"box" : 								{
									"fontname" : "Arial",
									"fontsize" : 10.435669,
									"id" : "obj-62",
									"maxclass" : "newobj",
									"numinlets" : 2,
									"numoutlets" : 1,
									"outlettype" : [ "" ],
									"patching_rect" : [ 283.0, 301.0, 32.5, 18.0 ],
									"text" : "qlim"
								}

							}
, 							{
								"box" : 								{
									"fontname" : "Arial",
									"fontsize" : 10.435669,
									"id" : "obj-37",
									"maxclass" : "newobj",
									"numinlets" : 1,
									"numoutlets" : 1,
									"outlettype" : [ "" ],
									"patching_rect" : [ 43.0, 378.0, 19.0, 18.0 ],
									"text" : "t l"
								}

							}
, 							{
								"box" : 								{
									"fontname" : "Arial",
									"fontsize" : 10.435669,
									"id" : "obj-38",
									"maxclass" : "message",
									"numinlets" : 2,
									"numoutlets" : 1,
									"outlettype" : [ "" ],
									"patching_rect" : [ 466.0, 323.0, 170.0, 16.0 ],
									"text" : "window flags nofloat, window exec"
								}

							}
, 							{
								"box" : 								{
									"fontname" : "Arial",
									"fontsize" : 10.435669,
									"id" : "obj-39",
									"maxclass" : "message",
									"numinlets" : 2,
									"numoutlets" : 1,
									"outlettype" : [ "" ],
									"patching_rect" : [ 43.0, 323.0, 70.0, 16.0 ],
									"text" : "window exec"
								}

							}
, 							{
								"box" : 								{
									"fontname" : "Arial",
									"fontsize" : 10.435669,
									"id" : "obj-40",
									"maxclass" : "newobj",
									"numinlets" : 1,
									"numoutlets" : 3,
									"outlettype" : [ "bang", "", "bang" ],
									"patching_rect" : [ 43.0, 279.0, 46.0, 18.0 ],
									"text" : "t b l b"
								}

							}
, 							{
								"box" : 								{
									"fontname" : "Arial",
									"fontsize" : 10.435669,
									"id" : "obj-42",
									"linecount" : 2,
									"maxclass" : "message",
									"numinlets" : 2,
									"numoutlets" : 1,
									"outlettype" : [ "" ],
									"patching_rect" : [ 70.0, 343.0, 100.0, 28.0 ],
									"text" : "window flags grow, window flags zoom"
								}

							}
, 							{
								"box" : 								{
									"fontname" : "Arial",
									"fontsize" : 10.435669,
									"id" : "obj-43",
									"maxclass" : "newobj",
									"numinlets" : 1,
									"numoutlets" : 1,
									"outlettype" : [ "" ],
									"patching_rect" : [ 43.0, 257.0, 108.0, 18.0 ],
									"text" : "prepend window size"
								}

							}
, 							{
								"box" : 								{
									"fontname" : "Arial",
									"fontsize" : 10.435669,
									"id" : "obj-45",
									"maxclass" : "comment",
									"numinlets" : 1,
									"numoutlets" : 0,
									"patching_rect" : [ 208.0, 186.0, 37.0, 18.0 ],
									"text" : "Ymax"
								}

							}
, 							{
								"box" : 								{
									"fontname" : "Arial",
									"fontsize" : 10.435669,
									"id" : "obj-46",
									"maxclass" : "comment",
									"numinlets" : 1,
									"numoutlets" : 0,
									"patching_rect" : [ 157.0, 186.0, 37.0, 18.0 ],
									"text" : "Xmax"
								}

							}
, 							{
								"box" : 								{
									"fontname" : "Arial",
									"fontsize" : 10.435669,
									"id" : "obj-47",
									"maxclass" : "comment",
									"numinlets" : 1,
									"numoutlets" : 0,
									"patching_rect" : [ 105.0, 186.0, 34.0, 18.0 ],
									"text" : "Ymin"
								}

							}
, 							{
								"box" : 								{
									"fontname" : "Arial",
									"fontsize" : 10.435669,
									"id" : "obj-48",
									"maxclass" : "comment",
									"numinlets" : 1,
									"numoutlets" : 0,
									"patching_rect" : [ 54.0, 186.0, 34.0, 18.0 ],
									"text" : "Xmin"
								}

							}
, 							{
								"box" : 								{
									"fontname" : "Arial",
									"fontsize" : 10.435669,
									"id" : "obj-49",
									"maxclass" : "comment",
									"numinlets" : 1,
									"numoutlets" : 0,
									"patching_rect" : [ 171.0, 147.0, 31.0, 18.0 ],
									"text" : "pref."
								}

							}
, 							{
								"box" : 								{
									"fontname" : "Arial",
									"fontsize" : 10.435669,
									"id" : "obj-51",
									"maxclass" : "newobj",
									"numinlets" : 1,
									"numoutlets" : 4,
									"outlettype" : [ "int", "int", "int", "int" ],
									"patching_rect" : [ 43.0, 167.0, 173.0, 18.0 ],
									"text" : "unpack 0 0 0 0"
								}

							}
, 							{
								"box" : 								{
									"fontname" : "Arial",
									"fontsize" : 10.435669,
									"id" : "obj-52",
									"maxclass" : "message",
									"numinlets" : 2,
									"numoutlets" : 1,
									"outlettype" : [ "" ],
									"patching_rect" : [ 43.0, 147.0, 133.0, 16.0 ],
									"text" : "470 50 950 200"
								}

							}
, 							{
								"box" : 								{
									"fontname" : "Arial",
									"fontsize" : 10.435669,
									"id" : "obj-53",
									"maxclass" : "number",
									"numinlets" : 1,
									"numoutlets" : 2,
									"outlettype" : [ "int", "bang" ],
									"parameter_enable" : 0,
									"patching_rect" : [ 197.0, 205.0, 50.0, 18.0 ]
								}

							}
, 							{
								"box" : 								{
									"fontname" : "Arial",
									"fontsize" : 10.435669,
									"id" : "obj-54",
									"maxclass" : "number",
									"numinlets" : 1,
									"numoutlets" : 2,
									"outlettype" : [ "int", "bang" ],
									"parameter_enable" : 0,
									"patching_rect" : [ 146.0, 205.0, 50.0, 18.0 ]
								}

							}
, 							{
								"box" : 								{
									"fontname" : "Arial",
									"fontsize" : 10.435669,
									"id" : "obj-55",
									"maxclass" : "newobj",
									"numinlets" : 4,
									"numoutlets" : 1,
									"outlettype" : [ "" ],
									"patching_rect" : [ 43.0, 227.0, 173.0, 18.0 ],
									"text" : "pak 0 0 0 0"
								}

							}
, 							{
								"box" : 								{
									"fontname" : "Arial",
									"fontsize" : 10.435669,
									"id" : "obj-56",
									"maxclass" : "number",
									"numinlets" : 1,
									"numoutlets" : 2,
									"outlettype" : [ "int", "bang" ],
									"parameter_enable" : 0,
									"patching_rect" : [ 94.0, 205.0, 51.0, 18.0 ]
								}

							}
, 							{
								"box" : 								{
									"fontname" : "Arial",
									"fontsize" : 10.435669,
									"id" : "obj-57",
									"maxclass" : "number",
									"numinlets" : 1,
									"numoutlets" : 2,
									"outlettype" : [ "int", "bang" ],
									"parameter_enable" : 0,
									"patching_rect" : [ 43.0, 205.0, 50.0, 18.0 ]
								}

							}
, 							{
								"box" : 								{
									"fontname" : "Arial",
									"fontsize" : 10.435669,
									"id" : "obj-35",
									"maxclass" : "newobj",
									"numinlets" : 1,
									"numoutlets" : 1,
									"outlettype" : [ "" ],
									"patching_rect" : [ 283.0, 378.0, 19.0, 18.0 ],
									"text" : "t l"
								}

							}
, 							{
								"box" : 								{
									"fontname" : "Arial",
									"fontsize" : 10.435669,
									"id" : "obj-32",
									"maxclass" : "message",
									"numinlets" : 2,
									"numoutlets" : 1,
									"outlettype" : [ "" ],
									"patching_rect" : [ 480.0, 343.0, 158.0, 16.0 ],
									"text" : "window flags float, window exec"
								}

							}
, 							{
								"box" : 								{
									"fontname" : "Arial",
									"fontsize" : 10.435669,
									"id" : "obj-31",
									"maxclass" : "message",
									"numinlets" : 2,
									"numoutlets" : 1,
									"outlettype" : [ "" ],
									"patching_rect" : [ 283.0, 323.0, 70.0, 16.0 ],
									"text" : "window exec"
								}

							}
, 							{
								"box" : 								{
									"fontname" : "Arial",
									"fontsize" : 10.435669,
									"id" : "obj-30",
									"maxclass" : "newobj",
									"numinlets" : 1,
									"numoutlets" : 3,
									"outlettype" : [ "bang", "", "bang" ],
									"patching_rect" : [ 283.0, 279.0, 46.0, 18.0 ],
									"text" : "t b l b"
								}

							}
, 							{
								"box" : 								{
									"fontname" : "Arial",
									"fontsize" : 10.435669,
									"id" : "obj-29",
									"linecount" : 2,
									"maxclass" : "message",
									"numinlets" : 2,
									"numoutlets" : 1,
									"outlettype" : [ "" ],
									"patching_rect" : [ 310.0, 343.0, 113.0, 28.0 ],
									"text" : "window flags nogrow, window flags nozoom"
								}

							}
, 							{
								"box" : 								{
									"fontname" : "Arial",
									"fontsize" : 10.435669,
									"id" : "obj-28",
									"maxclass" : "newobj",
									"numinlets" : 1,
									"numoutlets" : 1,
									"outlettype" : [ "" ],
									"patching_rect" : [ 283.0, 257.0, 108.0, 18.0 ],
									"text" : "prepend window size"
								}

							}
, 							{
								"box" : 								{
									"fontname" : "Arial",
									"fontsize" : 10.435669,
									"id" : "obj-27",
									"maxclass" : "comment",
									"numinlets" : 1,
									"numoutlets" : 0,
									"patching_rect" : [ 448.0, 186.0, 37.0, 18.0 ],
									"text" : "Ymax"
								}

							}
, 							{
								"box" : 								{
									"fontname" : "Arial",
									"fontsize" : 10.435669,
									"id" : "obj-26",
									"maxclass" : "comment",
									"numinlets" : 1,
									"numoutlets" : 0,
									"patching_rect" : [ 397.0, 186.0, 37.0, 18.0 ],
									"text" : "Xmax"
								}

							}
, 							{
								"box" : 								{
									"fontname" : "Arial",
									"fontsize" : 10.435669,
									"id" : "obj-23",
									"maxclass" : "comment",
									"numinlets" : 1,
									"numoutlets" : 0,
									"patching_rect" : [ 345.0, 186.0, 34.0, 18.0 ],
									"text" : "Ymin"
								}

							}
, 							{
								"box" : 								{
									"fontname" : "Arial",
									"fontsize" : 10.435669,
									"id" : "obj-22",
									"maxclass" : "comment",
									"numinlets" : 1,
									"numoutlets" : 0,
									"patching_rect" : [ 294.0, 186.0, 34.0, 18.0 ],
									"text" : "Xmin"
								}

							}
, 							{
								"box" : 								{
									"fontname" : "Arial",
									"fontsize" : 10.435669,
									"id" : "obj-20",
									"maxclass" : "comment",
									"numinlets" : 1,
									"numoutlets" : 0,
									"patching_rect" : [ 411.0, 147.0, 31.0, 18.0 ],
									"text" : "pref."
								}

							}
, 							{
								"box" : 								{
									"fontname" : "Arial",
									"fontsize" : 10.435669,
									"id" : "obj-18",
									"maxclass" : "newobj",
									"numinlets" : 1,
									"numoutlets" : 4,
									"outlettype" : [ "int", "int", "int", "int" ],
									"patching_rect" : [ 283.0, 167.0, 173.0, 18.0 ],
									"text" : "unpack 0 0 0 0"
								}

							}
, 							{
								"box" : 								{
									"fontname" : "Arial",
									"fontsize" : 10.435669,
									"id" : "obj-16",
									"maxclass" : "message",
									"numinlets" : 2,
									"numoutlets" : 1,
									"outlettype" : [ "" ],
									"patching_rect" : [ 283.0, 147.0, 127.0, 16.0 ],
									"text" : "161 50 496 140"
								}

							}
, 							{
								"box" : 								{
									"fontname" : "Arial",
									"fontsize" : 10.435669,
									"id" : "obj-12",
									"maxclass" : "number",
									"numinlets" : 1,
									"numoutlets" : 2,
									"outlettype" : [ "int", "bang" ],
									"parameter_enable" : 0,
									"patching_rect" : [ 437.0, 205.0, 50.0, 18.0 ]
								}

							}
, 							{
								"box" : 								{
									"fontname" : "Arial",
									"fontsize" : 10.435669,
									"id" : "obj-15",
									"maxclass" : "number",
									"numinlets" : 1,
									"numoutlets" : 2,
									"outlettype" : [ "int", "bang" ],
									"parameter_enable" : 0,
									"patching_rect" : [ 386.0, 205.0, 50.0, 18.0 ]
								}

							}
, 							{
								"box" : 								{
									"fontname" : "Arial",
									"fontsize" : 10.435669,
									"id" : "obj-7",
									"maxclass" : "newobj",
									"numinlets" : 4,
									"numoutlets" : 1,
									"outlettype" : [ "" ],
									"patching_rect" : [ 283.0, 227.0, 173.0, 18.0 ],
									"text" : "pak 0 0 0 0"
								}

							}
, 							{
								"box" : 								{
									"fontname" : "Arial",
									"fontsize" : 10.435669,
									"id" : "obj-4",
									"maxclass" : "number",
									"numinlets" : 1,
									"numoutlets" : 2,
									"outlettype" : [ "int", "bang" ],
									"parameter_enable" : 0,
									"patching_rect" : [ 334.0, 205.0, 51.0, 18.0 ]
								}

							}
, 							{
								"box" : 								{
									"fontname" : "Arial",
									"fontsize" : 10.435669,
									"id" : "obj-3",
									"maxclass" : "number",
									"numinlets" : 1,
									"numoutlets" : 2,
									"outlettype" : [ "int", "bang" ],
									"parameter_enable" : 0,
									"patching_rect" : [ 283.0, 205.0, 50.0, 18.0 ]
								}

							}
, 							{
								"box" : 								{
									"fontname" : "Arial",
									"fontsize" : 10.435669,
									"id" : "obj-11",
									"maxclass" : "comment",
									"numinlets" : 1,
									"numoutlets" : 0,
									"patching_rect" : [ 284.0, 69.0, 31.0, 18.0 ],
									"text" : "view"
								}

							}
, 							{
								"box" : 								{
									"fontname" : "Arial",
									"fontsize" : 10.435669,
									"id" : "obj-10",
									"maxclass" : "message",
									"numinlets" : 2,
									"numoutlets" : 1,
									"outlettype" : [ "" ],
									"patching_rect" : [ 250.0, 90.0, 82.0, 16.0 ],
									"text" : "presentation $1"
								}

							}
, 							{
								"box" : 								{
									"fontname" : "Arial",
									"fontsize" : 10.435669,
									"id" : "obj-9",
									"maxclass" : "newobj",
									"numinlets" : 2,
									"numoutlets" : 1,
									"outlettype" : [ "int" ],
									"patching_rect" : [ 250.0, 69.0, 32.5, 18.0 ],
									"text" : "== 0"
								}

							}
, 							{
								"box" : 								{
									"comment" : "",
									"id" : "obj-44",
									"maxclass" : "inlet",
									"numinlets" : 0,
									"numoutlets" : 1,
									"outlettype" : [ "int" ],
									"patching_rect" : [ 153.0, 17.0, 18.0, 18.0 ],
									"prototypename" : "Arial9"
								}

							}
, 							{
								"box" : 								{
									"id" : "obj-41",
									"maxclass" : "toggle",
									"numinlets" : 1,
									"numoutlets" : 1,
									"outlettype" : [ "int" ],
									"parameter_enable" : 0,
									"patching_rect" : [ 153.0, 52.0, 18.0, 18.0 ],
									"prototypename" : "Arial9"
								}

							}
, 							{
								"box" : 								{
									"fontname" : "Arial",
									"fontsize" : 10.435669,
									"id" : "obj-25",
									"maxclass" : "newobj",
									"numinlets" : 3,
									"numoutlets" : 3,
									"outlettype" : [ "bang", "bang", "" ],
									"patching_rect" : [ 153.0, 74.0, 46.0, 18.0 ],
									"text" : "sel 1 0"
								}

							}
, 							{
								"box" : 								{
									"comment" : "",
									"id" : "obj-21",
									"maxclass" : "outlet",
									"numinlets" : 1,
									"numoutlets" : 0,
									"patching_rect" : [ 250.0, 443.0, 18.0, 18.0 ],
									"prototypename" : "Arial9"
								}

							}
 ],
						"lines" : [ 							{
								"patchline" : 								{
									"destination" : [ "obj-21", 0 ],
									"disabled" : 0,
									"hidden" : 0,
									"source" : [ "obj-1", 0 ]
								}

							}
, 							{
								"patchline" : 								{
									"destination" : [ "obj-21", 0 ],
									"disabled" : 0,
									"hidden" : 0,
									"source" : [ "obj-10", 0 ]
								}

							}
, 							{
								"patchline" : 								{
									"destination" : [ "obj-7", 3 ],
									"disabled" : 0,
									"hidden" : 0,
									"source" : [ "obj-12", 0 ]
								}

							}
, 							{
								"patchline" : 								{
									"destination" : [ "obj-21", 0 ],
									"disabled" : 0,
									"hidden" : 0,
									"source" : [ "obj-13", 0 ]
								}

							}
, 							{
								"patchline" : 								{
									"destination" : [ "obj-7", 2 ],
									"disabled" : 0,
									"hidden" : 0,
									"source" : [ "obj-15", 0 ]
								}

							}
, 							{
								"patchline" : 								{
									"destination" : [ "obj-18", 0 ],
									"disabled" : 0,
									"hidden" : 0,
									"source" : [ "obj-16", 0 ]
								}

							}
, 							{
								"patchline" : 								{
									"destination" : [ "obj-12", 0 ],
									"disabled" : 0,
									"hidden" : 0,
									"source" : [ "obj-18", 3 ]
								}

							}
, 							{
								"patchline" : 								{
									"destination" : [ "obj-15", 0 ],
									"disabled" : 0,
									"hidden" : 0,
									"source" : [ "obj-18", 2 ]
								}

							}
, 							{
								"patchline" : 								{
									"destination" : [ "obj-3", 0 ],
									"disabled" : 0,
									"hidden" : 0,
									"source" : [ "obj-18", 0 ]
								}

							}
, 							{
								"patchline" : 								{
									"destination" : [ "obj-4", 0 ],
									"disabled" : 0,
									"hidden" : 0,
									"source" : [ "obj-18", 1 ]
								}

							}
, 							{
								"patchline" : 								{
									"destination" : [ "obj-16", 0 ],
									"disabled" : 0,
									"hidden" : 0,
									"source" : [ "obj-25", 1 ]
								}

							}
, 							{
								"patchline" : 								{
									"destination" : [ "obj-52", 0 ],
									"disabled" : 0,
									"hidden" : 0,
									"source" : [ "obj-25", 0 ]
								}

							}
, 							{
								"patchline" : 								{
									"destination" : [ "obj-30", 0 ],
									"disabled" : 0,
									"hidden" : 0,
									"source" : [ "obj-28", 0 ]
								}

							}
, 							{
								"patchline" : 								{
									"destination" : [ "obj-35", 0 ],
									"disabled" : 0,
									"hidden" : 0,
									"source" : [ "obj-29", 0 ]
								}

							}
, 							{
								"patchline" : 								{
									"destination" : [ "obj-7", 0 ],
									"disabled" : 0,
									"hidden" : 0,
									"source" : [ "obj-3", 0 ]
								}

							}
, 							{
								"patchline" : 								{
									"destination" : [ "obj-29", 0 ],
									"disabled" : 0,
									"hidden" : 0,
									"source" : [ "obj-30", 2 ]
								}

							}
, 							{
								"patchline" : 								{
									"destination" : [ "obj-35", 0 ],
									"disabled" : 0,
									"hidden" : 0,
									"source" : [ "obj-30", 1 ]
								}

							}
, 							{
								"patchline" : 								{
									"destination" : [ "obj-62", 0 ],
									"disabled" : 0,
									"hidden" : 0,
									"source" : [ "obj-30", 0 ]
								}

							}
, 							{
								"patchline" : 								{
									"destination" : [ "obj-35", 0 ],
									"disabled" : 0,
									"hidden" : 0,
									"source" : [ "obj-31", 0 ]
								}

							}
, 							{
								"patchline" : 								{
									"destination" : [ "obj-13", 0 ],
									"disabled" : 0,
									"hidden" : 0,
									"source" : [ "obj-32", 0 ]
								}

							}
, 							{
								"patchline" : 								{
									"destination" : [ "obj-21", 0 ],
									"disabled" : 0,
									"hidden" : 0,
									"source" : [ "obj-35", 0 ]
								}

							}
, 							{
								"patchline" : 								{
									"destination" : [ "obj-21", 0 ],
									"disabled" : 0,
									"hidden" : 0,
									"source" : [ "obj-37", 0 ]
								}

							}
, 							{
								"patchline" : 								{
									"destination" : [ "obj-13", 0 ],
									"disabled" : 0,
									"hidden" : 0,
									"source" : [ "obj-38", 0 ]
								}

							}
, 							{
								"patchline" : 								{
									"destination" : [ "obj-37", 0 ],
									"disabled" : 0,
									"hidden" : 0,
									"source" : [ "obj-39", 0 ]
								}

							}
, 							{
								"patchline" : 								{
									"destination" : [ "obj-7", 1 ],
									"disabled" : 0,
									"hidden" : 0,
									"source" : [ "obj-4", 0 ]
								}

							}
, 							{
								"patchline" : 								{
									"destination" : [ "obj-37", 0 ],
									"disabled" : 0,
									"hidden" : 0,
									"source" : [ "obj-40", 1 ]
								}

							}
, 							{
								"patchline" : 								{
									"destination" : [ "obj-42", 0 ],
									"disabled" : 0,
									"hidden" : 0,
									"source" : [ "obj-40", 2 ]
								}

							}
, 							{
								"patchline" : 								{
									"destination" : [ "obj-63", 0 ],
									"disabled" : 0,
									"hidden" : 0,
									"source" : [ "obj-40", 0 ]
								}

							}
, 							{
								"patchline" : 								{
									"destination" : [ "obj-25", 0 ],
									"disabled" : 0,
									"hidden" : 0,
									"source" : [ "obj-41", 0 ]
								}

							}
, 							{
								"patchline" : 								{
									"destination" : [ "obj-9", 0 ],
									"disabled" : 0,
									"hidden" : 0,
									"source" : [ "obj-41", 0 ]
								}

							}
, 							{
								"patchline" : 								{
									"destination" : [ "obj-37", 0 ],
									"disabled" : 0,
									"hidden" : 0,
									"source" : [ "obj-42", 0 ]
								}

							}
, 							{
								"patchline" : 								{
									"destination" : [ "obj-40", 0 ],
									"disabled" : 0,
									"hidden" : 0,
									"source" : [ "obj-43", 0 ]
								}

							}
, 							{
								"patchline" : 								{
									"destination" : [ "obj-41", 0 ],
									"disabled" : 0,
									"hidden" : 0,
									"source" : [ "obj-44", 0 ]
								}

							}
, 							{
								"patchline" : 								{
									"destination" : [ "obj-6", 0 ],
									"disabled" : 0,
									"hidden" : 0,
									"source" : [ "obj-5", 0 ]
								}

							}
, 							{
								"patchline" : 								{
									"destination" : [ "obj-53", 0 ],
									"disabled" : 0,
									"hidden" : 0,
									"source" : [ "obj-51", 3 ]
								}

							}
, 							{
								"patchline" : 								{
									"destination" : [ "obj-54", 0 ],
									"disabled" : 0,
									"hidden" : 0,
									"source" : [ "obj-51", 2 ]
								}

							}
, 							{
								"patchline" : 								{
									"destination" : [ "obj-56", 0 ],
									"disabled" : 0,
									"hidden" : 0,
									"source" : [ "obj-51", 1 ]
								}

							}
, 							{
								"patchline" : 								{
									"destination" : [ "obj-57", 0 ],
									"disabled" : 0,
									"hidden" : 0,
									"source" : [ "obj-51", 0 ]
								}

							}
, 							{
								"patchline" : 								{
									"destination" : [ "obj-51", 0 ],
									"disabled" : 0,
									"hidden" : 0,
									"source" : [ "obj-52", 0 ]
								}

							}
, 							{
								"patchline" : 								{
									"destination" : [ "obj-55", 3 ],
									"disabled" : 0,
									"hidden" : 0,
									"source" : [ "obj-53", 0 ]
								}

							}
, 							{
								"patchline" : 								{
									"destination" : [ "obj-55", 2 ],
									"disabled" : 0,
									"hidden" : 0,
									"source" : [ "obj-54", 0 ]
								}

							}
, 							{
								"patchline" : 								{
									"destination" : [ "obj-43", 0 ],
									"disabled" : 0,
									"hidden" : 0,
									"source" : [ "obj-55", 0 ]
								}

							}
, 							{
								"patchline" : 								{
									"destination" : [ "obj-52", 1 ],
									"disabled" : 0,
									"hidden" : 0,
									"midpoints" : [ 52.5, 251.0, 34.0, 251.0, 34.0, 139.0, 166.5, 139.0 ],
									"source" : [ "obj-55", 0 ]
								}

							}
, 							{
								"patchline" : 								{
									"destination" : [ "obj-55", 1 ],
									"disabled" : 0,
									"hidden" : 0,
									"source" : [ "obj-56", 0 ]
								}

							}
, 							{
								"patchline" : 								{
									"destination" : [ "obj-55", 0 ],
									"disabled" : 0,
									"hidden" : 0,
									"source" : [ "obj-57", 0 ]
								}

							}
, 							{
								"patchline" : 								{
									"destination" : [ "obj-8", 0 ],
									"disabled" : 0,
									"hidden" : 0,
									"source" : [ "obj-6", 0 ]
								}

							}
, 							{
								"patchline" : 								{
									"destination" : [ "obj-31", 0 ],
									"disabled" : 0,
									"hidden" : 0,
									"source" : [ "obj-62", 0 ]
								}

							}
, 							{
								"patchline" : 								{
									"destination" : [ "obj-39", 0 ],
									"disabled" : 0,
									"hidden" : 0,
									"source" : [ "obj-63", 0 ]
								}

							}
, 							{
								"patchline" : 								{
									"destination" : [ "obj-16", 1 ],
									"disabled" : 0,
									"hidden" : 0,
									"midpoints" : [ 292.5, 251.0, 274.0, 251.0, 274.0, 139.0, 400.5, 139.0 ],
									"source" : [ "obj-7", 0 ]
								}

							}
, 							{
								"patchline" : 								{
									"destination" : [ "obj-28", 0 ],
									"disabled" : 0,
									"hidden" : 0,
									"source" : [ "obj-7", 0 ]
								}

							}
, 							{
								"patchline" : 								{
									"destination" : [ "obj-32", 0 ],
									"disabled" : 0,
									"hidden" : 0,
									"source" : [ "obj-8", 1 ]
								}

							}
, 							{
								"patchline" : 								{
									"destination" : [ "obj-38", 0 ],
									"disabled" : 0,
									"hidden" : 0,
									"source" : [ "obj-8", 0 ]
								}

							}
, 							{
								"patchline" : 								{
									"destination" : [ "obj-10", 0 ],
									"disabled" : 0,
									"hidden" : 0,
									"source" : [ "obj-9", 0 ]
								}

							}
 ],
						"dependency_cache" : [  ]
					}
,
					"patching_rect" : [ 17.0, 54.0, 56.0, 20.0 ],
					"presentation" : 0,
					"presentation_rect" : [ 0.0, 0.0, 0.0, 0.0 ],
					"saved_object_attributes" : 					{
						"digest" : "",
						"default_fontname" : "Arial",
						"fontname" : "Arial",
						"tags" : "",
						"default_fontsize" : 9.0,
						"description" : "",
						"globalpatchername" : "",
						"fontface" : 0,
						"fontsize" : 9.0,
						"default_fontface" : 0
					}
,
					"text" : "p View",
					"textcolor" : [ 0.0, 0.0, 0.0, 1.0 ]
				}

			}
, 			{
				"box" : 				{
					"background" : 0,
					"bgcolor" : [ 0.776471, 0.796078, 0.815686, 0.619608 ],
					"bordercolor" : [ 0.2, 0.2, 0.2, 0.0 ],
					"coldcolor" : [ 0.0, 0.6, 0.0, 1.0 ],
					"dbperled" : 3,
					"hidden" : 0,
					"hint" : "Input level",
					"hotcolor" : [ 1.0, 0.6, 0.0, 1.0 ],
					"id" : "obj-10",
					"ignoreclick" : 0,
					"interval" : 50,
					"maxclass" : "meter~",
					"nhotleds" : 3,
					"ntepidleds" : 3,
					"numinlets" : 1,
					"numleds" : 12,
					"numoutlets" : 1,
					"nwarmleds" : 3,
					"outlettype" : [ "float" ],
					"overloadcolor" : [ 1.0, 0.0, 0.0, 1.0 ],
					"patching_rect" : [ 199.0, 54.0, 12.0, 58.0 ],
					"presentation" : 1,
					"presentation_rect" : [ 94.0, 21.0, 12.0, 58.0 ],
					"tepidcolor" : [ 0.6, 0.73243, 0.0, 1.0 ],
					"warmcolor" : [ 0.8545, 0.8545, 0.0, 1.0 ]
				}

			}
, 			{
				"box" : 				{
					"background" : 0,
					"bgcolor" : [ 0.776471, 0.796078, 0.815686, 0.619608 ],
					"bordercolor" : [ 0.2, 0.2, 0.2, 0.0 ],
					"coldcolor" : [ 0.0, 0.6, 0.0, 1.0 ],
					"dbperled" : 3,
					"hidden" : 0,
					"hint" : "Input level",
					"hotcolor" : [ 1.0, 0.6, 0.0, 1.0 ],
					"id" : "obj-9",
					"ignoreclick" : 0,
					"interval" : 50,
					"maxclass" : "meter~",
					"nhotleds" : 3,
					"ntepidleds" : 3,
					"numinlets" : 1,
					"numleds" : 12,
					"numoutlets" : 1,
					"nwarmleds" : 3,
					"outlettype" : [ "float" ],
					"overloadcolor" : [ 1.0, 0.0, 0.0, 1.0 ],
					"patching_rect" : [ 185.0, 54.0, 12.0, 58.0 ],
					"presentation" : 1,
					"presentation_rect" : [ 82.0, 21.0, 12.0, 58.0 ],
					"tepidcolor" : [ 0.6, 0.73243, 0.0, 1.0 ],
					"warmcolor" : [ 0.8545, 0.8545, 0.0, 1.0 ]
				}

			}
, 			{
				"box" : 				{
					"background" : 0,
					"bgcolor" : [ 0.776471, 0.796078, 0.815686, 0.619608 ],
					"bordercolor" : [ 0.2, 0.2, 0.2, 0.0 ],
					"coldcolor" : [ 0.0, 0.6, 0.0, 1.0 ],
					"dbperled" : 3,
					"hidden" : 0,
					"hint" : "Input level",
					"hotcolor" : [ 1.0, 0.6, 0.0, 1.0 ],
					"id" : "obj-8",
					"ignoreclick" : 0,
					"interval" : 50,
					"maxclass" : "meter~",
					"nhotleds" : 3,
					"ntepidleds" : 3,
					"numinlets" : 1,
					"numleds" : 12,
					"numoutlets" : 1,
					"nwarmleds" : 3,
					"outlettype" : [ "float" ],
					"overloadcolor" : [ 1.0, 0.0, 0.0, 1.0 ],
					"patching_rect" : [ 171.0, 54.0, 12.0, 58.0 ],
					"presentation" : 1,
					"presentation_rect" : [ 70.0, 21.0, 12.0, 58.0 ],
					"tepidcolor" : [ 0.6, 0.73243, 0.0, 1.0 ],
					"warmcolor" : [ 0.8545, 0.8545, 0.0, 1.0 ]
				}

			}
, 			{
				"box" : 				{
					"background" : 0,
					"bgcolor" : [ 0.776471, 0.796078, 0.815686, 0.619608 ],
					"bordercolor" : [ 0.2, 0.2, 0.2, 0.0 ],
					"coldcolor" : [ 0.0, 0.6, 0.0, 1.0 ],
					"dbperled" : 3,
					"hidden" : 0,
					"hint" : "Input level",
					"hotcolor" : [ 1.0, 0.6, 0.0, 1.0 ],
					"id" : "obj-7",
					"ignoreclick" : 0,
					"interval" : 50,
					"maxclass" : "meter~",
					"nhotleds" : 3,
					"ntepidleds" : 3,
					"numinlets" : 1,
					"numleds" : 12,
					"numoutlets" : 1,
					"nwarmleds" : 3,
					"outlettype" : [ "float" ],
					"overloadcolor" : [ 1.0, 0.0, 0.0, 1.0 ],
					"patching_rect" : [ 157.0, 54.0, 12.0, 58.0 ],
					"presentation" : 1,
					"presentation_rect" : [ 58.0, 21.0, 12.0, 58.0 ],
					"tepidcolor" : [ 0.6, 0.73243, 0.0, 1.0 ],
					"warmcolor" : [ 0.8545, 0.8545, 0.0, 1.0 ]
				}

			}
, 			{
				"box" : 				{
					"background" : 0,
					"bgcolor" : [ 0.776471, 0.796078, 0.815686, 0.619608 ],
					"bordercolor" : [ 0.2, 0.2, 0.2, 0.0 ],
					"coldcolor" : [ 0.0, 0.6, 0.0, 1.0 ],
					"dbperled" : 3,
					"hidden" : 0,
					"hint" : "Input level",
					"hotcolor" : [ 1.0, 0.6, 0.0, 1.0 ],
					"id" : "obj-6",
					"ignoreclick" : 0,
					"interval" : 50,
					"maxclass" : "meter~",
					"nhotleds" : 3,
					"ntepidleds" : 3,
					"numinlets" : 1,
					"numleds" : 12,
					"numoutlets" : 1,
					"nwarmleds" : 3,
					"outlettype" : [ "float" ],
					"overloadcolor" : [ 1.0, 0.0, 0.0, 1.0 ],
					"patching_rect" : [ 143.0, 54.0, 12.0, 58.0 ],
					"presentation" : 1,
					"presentation_rect" : [ 46.0, 21.0, 12.0, 58.0 ],
					"tepidcolor" : [ 0.6, 0.73243, 0.0, 1.0 ],
					"warmcolor" : [ 0.8545, 0.8545, 0.0, 1.0 ]
				}

			}
, 			{
				"box" : 				{
					"background" : 0,
					"bgcolor" : [ 0.776471, 0.796078, 0.815686, 0.619608 ],
					"bordercolor" : [ 0.2, 0.2, 0.2, 0.0 ],
					"coldcolor" : [ 0.0, 0.6, 0.0, 1.0 ],
					"dbperled" : 3,
					"hidden" : 0,
					"hint" : "Input level",
					"hotcolor" : [ 1.0, 0.6, 0.0, 1.0 ],
					"id" : "obj-5",
					"ignoreclick" : 0,
					"interval" : 50,
					"maxclass" : "meter~",
					"nhotleds" : 3,
					"ntepidleds" : 3,
					"numinlets" : 1,
					"numleds" : 12,
					"numoutlets" : 1,
					"nwarmleds" : 3,
					"outlettype" : [ "float" ],
					"overloadcolor" : [ 1.0, 0.0, 0.0, 1.0 ],
					"patching_rect" : [ 129.0, 54.0, 12.0, 58.0 ],
					"presentation" : 1,
					"presentation_rect" : [ 34.0, 21.0, 12.0, 58.0 ],
					"tepidcolor" : [ 0.6, 0.73243, 0.0, 1.0 ],
					"warmcolor" : [ 0.8545, 0.8545, 0.0, 1.0 ]
				}

			}
, 			{
				"box" : 				{
					"background" : 0,
					"bgcolor" : [ 0.776471, 0.796078, 0.815686, 0.619608 ],
					"bordercolor" : [ 0.2, 0.2, 0.2, 0.0 ],
					"coldcolor" : [ 0.0, 0.6, 0.0, 1.0 ],
					"dbperled" : 3,
					"hidden" : 0,
					"hint" : "Input level",
					"hotcolor" : [ 1.0, 0.6, 0.0, 1.0 ],
					"id" : "obj-4",
					"ignoreclick" : 0,
					"interval" : 50,
					"maxclass" : "meter~",
					"nhotleds" : 3,
					"ntepidleds" : 3,
					"numinlets" : 1,
					"numleds" : 12,
					"numoutlets" : 1,
					"nwarmleds" : 3,
					"outlettype" : [ "float" ],
					"overloadcolor" : [ 1.0, 0.0, 0.0, 1.0 ],
					"patching_rect" : [ 115.0, 54.0, 12.0, 58.0 ],
					"presentation" : 1,
					"presentation_rect" : [ 22.0, 21.0, 12.0, 58.0 ],
					"tepidcolor" : [ 0.6, 0.73243, 0.0, 1.0 ],
					"warmcolor" : [ 0.8545, 0.8545, 0.0, 1.0 ]
				}

			}
, 			{
				"box" : 				{
					"background" : 0,
					"bgcolor" : [ 0.776471, 0.796078, 0.815686, 0.619608 ],
					"bordercolor" : [ 0.2, 0.2, 0.2, 0.0 ],
					"coldcolor" : [ 0.0, 0.6, 0.0, 1.0 ],
					"dbperled" : 3,
					"hidden" : 0,
					"hint" : "Input level",
					"hotcolor" : [ 1.0, 0.6, 0.0, 1.0 ],
					"id" : "obj-3",
					"ignoreclick" : 0,
					"interval" : 50,
					"maxclass" : "meter~",
					"nhotleds" : 3,
					"ntepidleds" : 3,
					"numinlets" : 1,
					"numleds" : 12,
					"numoutlets" : 1,
					"nwarmleds" : 3,
					"outlettype" : [ "float" ],
					"overloadcolor" : [ 1.0, 0.0, 0.0, 1.0 ],
					"patching_rect" : [ 101.0, 54.0, 12.0, 58.0 ],
					"presentation" : 1,
					"presentation_rect" : [ 10.0, 21.0, 12.0, 58.0 ],
					"tepidcolor" : [ 0.6, 0.73243, 0.0, 1.0 ],
					"warmcolor" : [ 0.8545, 0.8545, 0.0, 1.0 ]
				}

			}
, 			{
				"box" : 				{
					"background" : 0,
					"bgcolor" : [ 1.0, 1.0, 1.0, 1.0 ],
					"color" : [ 0.7, 0.7, 0.7, 1.0 ],
					"fontface" : 0,
					"fontname" : "Arial",
					"fontsize" : 10.435669,
					"hidden" : 0,
					"id" : "obj-1",
					"ignoreclick" : 0,
					"linecount" : 2,
					"maxclass" : "newobj",
					"numinlets" : 1,
					"numoutlets" : 24,
					"outlettype" : [ "signal", "signal", "signal", "signal", "signal", "signal", "signal", "signal", "signal", "signal", "signal", "signal", "signal", "signal", "signal", "signal", "signal", "signal", "signal", "signal", "signal", "signal", "signal", "signal" ],
					"patching_rect" : [ 98.0, 14.0, 341.0, 30.0 ],
					"presentation" : 0,
					"presentation_rect" : [ 0.0, 0.0, 0.0, 0.0 ],
					"text" : "adoutput~ 1 2 3 4 5 6 7 8 9 10 11 12 13 14 15 16 17 18 19 20 21 22 23 24",
					"textcolor" : [ 0.0, 0.0, 0.0, 1.0 ]
				}

			}
, 			{
				"box" : 				{
					"angle" : 0.0,
					"arrow_orientation" : 0,
					"background" : 1,
					"bgcolor" : [ 0.776471, 0.796078, 0.815686, 0.619608 ],
					"border" : 0,
					"bordercolor" : [ 1.0, 1.0, 1.0, 1.0 ],
					"drag_window" : 0,
					"grad1" : [ 1.0, 1.0, 1.0, 1.0 ],
					"grad2" : [ 0.741176, 0.741176, 0.803922, 1.0 ],
					"hidden" : 0,
					"hint" : "",
					"horizontal_direction" : 0,
					"id" : "obj-72",
					"ignoreclick" : 1,
					"maxclass" : "panel",
					"mode" : 0,
					"numinlets" : 1,
					"numoutlets" : 0,
					"patching_rect" : [ 450.0, 50.0, 20.0, 21.0 ],
					"presentation" : 1,
					"presentation_rect" : [ 9.0, 8.0, 100.0, 73.0 ],
					"prototypename" : "Arial9",
					"rounded" : 10,
					"shadow" : -1,
					"shape" : 0,
					"vertical_direction" : 0
				}

			}
, 			{
				"box" : 				{
					"angle" : 0.0,
					"arrow_orientation" : 0,
					"background" : 1,
					"bgcolor" : [ 0.776471, 0.796078, 0.815686, 0.619608 ],
					"border" : 0,
					"bordercolor" : [ 1.0, 1.0, 1.0, 1.0 ],
					"drag_window" : 0,
					"grad1" : [ 1.0, 1.0, 1.0, 1.0 ],
					"grad2" : [ 0.741176, 0.741176, 0.803922, 1.0 ],
					"hidden" : 0,
					"hint" : "",
					"horizontal_direction" : 0,
					"id" : "obj-57",
					"ignoreclick" : 1,
					"maxclass" : "panel",
					"mode" : 0,
					"numinlets" : 1,
					"numoutlets" : 0,
					"patching_rect" : [ 450.0, 72.0, 20.0, 21.0 ],
					"presentation" : 1,
					"presentation_rect" : [ 117.0, 8.0, 100.0, 73.0 ],
					"prototypename" : "Arial9",
					"rounded" : 10,
					"shadow" : -1,
					"shape" : 0,
					"vertical_direction" : 0
				}

			}
, 			{
				"box" : 				{
					"angle" : 0.0,
					"arrow_orientation" : 0,
					"background" : 1,
					"bgcolor" : [ 0.776471, 0.796078, 0.815686, 0.619608 ],
					"border" : 0,
					"bordercolor" : [ 1.0, 1.0, 1.0, 1.0 ],
					"drag_window" : 0,
					"grad1" : [ 1.0, 1.0, 1.0, 1.0 ],
					"grad2" : [ 0.741176, 0.741176, 0.803922, 1.0 ],
					"hidden" : 0,
					"hint" : "",
					"horizontal_direction" : 0,
					"id" : "obj-78",
					"ignoreclick" : 1,
					"maxclass" : "panel",
					"mode" : 0,
					"numinlets" : 1,
					"numoutlets" : 0,
					"patching_rect" : [ 450.0, 94.0, 20.0, 21.0 ],
					"presentation" : 1,
					"presentation_rect" : [ 225.0, 8.0, 100.0, 73.0 ],
					"prototypename" : "Arial9",
					"rounded" : 10,
					"shadow" : -1,
					"shape" : 0,
					"vertical_direction" : 0
				}

			}
, 			{
				"box" : 				{
					"angle" : 0.0,
					"arrow_orientation" : 0,
					"background" : 1,
					"bgcolor" : [ 0.887552, 0.887722, 0.887523, 1.0 ],
					"border" : 0,
					"bordercolor" : [ 0.360784, 0.360784, 0.360784, 1.0 ],
					"drag_window" : 0,
					"grad1" : [ 0.847059, 0.847059, 0.847059, 1.0 ],
					"grad2" : [ 0.741176, 0.741176, 0.803922, 1.0 ],
					"hidden" : 0,
					"hint" : "Dacs (outputs) monitor",
					"horizontal_direction" : 0,
					"id" : "obj-75",
					"ignoreclick" : 1,
					"maxclass" : "panel",
					"mode" : 0,
					"numinlets" : 1,
					"numoutlets" : 0,
					"patching_rect" : [ 449.0, 27.0, 20.0, 21.0 ],
					"presentation" : 1,
					"presentation_rect" : [ 0.0, 0.0, 335.0, 90.0 ],
					"prototypename" : "Arial9",
					"rounded" : 0,
					"shadow" : 1,
					"shape" : 0,
					"vertical_direction" : 0
				}

			}
 ],
		"lines" : [ 			{
				"patchline" : 				{
					"color" : [ 0.0, 0.0, 0.0, 1.0 ],
					"destination" : [ "obj-10", 0 ],
					"disabled" : 0,
					"hidden" : 0,
					"source" : [ "obj-1", 7 ]
				}

			}
, 			{
				"patchline" : 				{
					"color" : [ 0.0, 0.0, 0.0, 1.0 ],
					"destination" : [ "obj-3", 0 ],
					"disabled" : 0,
					"hidden" : 0,
					"source" : [ "obj-1", 0 ]
				}

			}
, 			{
				"patchline" : 				{
					"color" : [ 0.0, 0.0, 0.0, 1.0 ],
					"destination" : [ "obj-4", 0 ],
					"disabled" : 0,
					"hidden" : 0,
					"source" : [ "obj-1", 1 ]
				}

			}
, 			{
				"patchline" : 				{
					"color" : [ 0.0, 0.0, 0.0, 1.0 ],
					"destination" : [ "obj-49", 0 ],
					"disabled" : 0,
					"hidden" : 0,
					"source" : [ "obj-1", 15 ]
				}

			}
, 			{
				"patchline" : 				{
					"color" : [ 0.0, 0.0, 0.0, 1.0 ],
					"destination" : [ "obj-5", 0 ],
					"disabled" : 0,
					"hidden" : 0,
					"source" : [ "obj-1", 2 ]
				}

			}
, 			{
				"patchline" : 				{
					"color" : [ 0.0, 0.0, 0.0, 1.0 ],
					"destination" : [ "obj-50", 0 ],
					"disabled" : 0,
					"hidden" : 0,
					"source" : [ "obj-1", 14 ]
				}

			}
, 			{
				"patchline" : 				{
					"color" : [ 0.0, 0.0, 0.0, 1.0 ],
					"destination" : [ "obj-51", 0 ],
					"disabled" : 0,
					"hidden" : 0,
					"source" : [ "obj-1", 13 ]
				}

			}
, 			{
				"patchline" : 				{
					"color" : [ 0.0, 0.0, 0.0, 1.0 ],
					"destination" : [ "obj-52", 0 ],
					"disabled" : 0,
					"hidden" : 0,
					"source" : [ "obj-1", 12 ]
				}

			}
, 			{
				"patchline" : 				{
					"color" : [ 0.0, 0.0, 0.0, 1.0 ],
					"destination" : [ "obj-53", 0 ],
					"disabled" : 0,
					"hidden" : 0,
					"source" : [ "obj-1", 11 ]
				}

			}
, 			{
				"patchline" : 				{
					"color" : [ 0.0, 0.0, 0.0, 1.0 ],
					"destination" : [ "obj-54", 0 ],
					"disabled" : 0,
					"hidden" : 0,
					"source" : [ "obj-1", 10 ]
				}

			}
, 			{
				"patchline" : 				{
					"color" : [ 0.0, 0.0, 0.0, 1.0 ],
					"destination" : [ "obj-55", 0 ],
					"disabled" : 0,
					"hidden" : 0,
					"source" : [ "obj-1", 9 ]
				}

			}
, 			{
				"patchline" : 				{
					"color" : [ 0.0, 0.0, 0.0, 1.0 ],
					"destination" : [ "obj-56", 0 ],
					"disabled" : 0,
					"hidden" : 0,
					"source" : [ "obj-1", 8 ]
				}

			}
, 			{
				"patchline" : 				{
					"color" : [ 0.0, 0.0, 0.0, 1.0 ],
					"destination" : [ "obj-6", 0 ],
					"disabled" : 0,
					"hidden" : 0,
					"source" : [ "obj-1", 3 ]
				}

			}
, 			{
				"patchline" : 				{
					"color" : [ 0.0, 0.0, 0.0, 1.0 ],
					"destination" : [ "obj-68", 0 ],
					"disabled" : 0,
					"hidden" : 0,
					"source" : [ "obj-1", 23 ]
				}

			}
, 			{
				"patchline" : 				{
					"color" : [ 0.0, 0.0, 0.0, 1.0 ],
					"destination" : [ "obj-69", 0 ],
					"disabled" : 0,
					"hidden" : 0,
					"source" : [ "obj-1", 22 ]
				}

			}
, 			{
				"patchline" : 				{
					"color" : [ 0.0, 0.0, 0.0, 1.0 ],
					"destination" : [ "obj-7", 0 ],
					"disabled" : 0,
					"hidden" : 0,
					"source" : [ "obj-1", 4 ]
				}

			}
, 			{
				"patchline" : 				{
					"color" : [ 0.0, 0.0, 0.0, 1.0 ],
					"destination" : [ "obj-70", 0 ],
					"disabled" : 0,
					"hidden" : 0,
					"source" : [ "obj-1", 21 ]
				}

			}
, 			{
				"patchline" : 				{
					"color" : [ 0.0, 0.0, 0.0, 1.0 ],
					"destination" : [ "obj-71", 0 ],
					"disabled" : 0,
					"hidden" : 0,
					"source" : [ "obj-1", 20 ]
				}

			}
, 			{
				"patchline" : 				{
					"color" : [ 0.0, 0.0, 0.0, 1.0 ],
					"destination" : [ "obj-73", 0 ],
					"disabled" : 0,
					"hidden" : 0,
					"source" : [ "obj-1", 19 ]
				}

			}
, 			{
				"patchline" : 				{
					"color" : [ 0.0, 0.0, 0.0, 1.0 ],
					"destination" : [ "obj-74", 0 ],
					"disabled" : 0,
					"hidden" : 0,
					"source" : [ "obj-1", 18 ]
				}

			}
, 			{
				"patchline" : 				{
					"color" : [ 0.0, 0.0, 0.0, 1.0 ],
					"destination" : [ "obj-76", 0 ],
					"disabled" : 0,
					"hidden" : 0,
					"source" : [ "obj-1", 17 ]
				}

			}
, 			{
				"patchline" : 				{
					"color" : [ 0.0, 0.0, 0.0, 1.0 ],
					"destination" : [ "obj-77", 0 ],
					"disabled" : 0,
					"hidden" : 0,
					"source" : [ "obj-1", 16 ]
				}

			}
, 			{
				"patchline" : 				{
					"color" : [ 0.0, 0.0, 0.0, 1.0 ],
					"destination" : [ "obj-8", 0 ],
					"disabled" : 0,
					"hidden" : 0,
					"source" : [ "obj-1", 5 ]
				}

			}
, 			{
				"patchline" : 				{
					"color" : [ 0.0, 0.0, 0.0, 1.0 ],
					"destination" : [ "obj-9", 0 ],
					"disabled" : 0,
					"hidden" : 0,
					"source" : [ "obj-1", 6 ]
				}

			}
, 			{
				"patchline" : 				{
					"color" : [ 0.0, 0.0, 0.0, 1.0 ],
					"destination" : [ "obj-140", 0 ],
					"disabled" : 0,
					"hidden" : 1,
					"source" : [ "obj-117", 0 ]
				}

			}
, 			{
				"patchline" : 				{
					"color" : [ 0.0, 0.0, 0.0, 1.0 ],
					"destination" : [ "obj-142", 0 ],
					"disabled" : 0,
					"hidden" : 0,
					"source" : [ "obj-140", 0 ]
				}

			}
, 			{
				"patchline" : 				{
					"color" : [ 0.0, 0.0, 0.0, 1.0 ],
					"destination" : [ "obj-140", 1 ],
					"disabled" : 0,
					"hidden" : 0,
					"source" : [ "obj-2", 0 ]
				}

			}
 ],
		"dependency_cache" : [  ]
	}

}
