{
	"patcher" : 	{
		"fileversion" : 1,
		"appversion" : 		{
			"major" : 7,
			"minor" : 3,
			"revision" : 4,
			"architecture" : "x86",
			"modernui" : 1
		}
,
		"rect" : [ 0.0, 51.0, 275.0, 147.0 ],
		"bglocked" : 0,
		"openinpresentation" : 0,
		"default_fontsize" : 12.0,
		"default_fontface" : 0,
		"default_fontname" : "Arial Bold",
		"gridonopen" : 1,
		"gridsize" : [ 15.0, 15.0 ],
		"gridsnaponopen" : 1,
		"objectsnaponopen" : 1,
		"statusbarvisible" : 2,
		"toolbarvisible" : 1,
		"lefttoolbarpinned" : 0,
		"toptoolbarpinned" : 0,
		"righttoolbarpinned" : 0,
		"bottomtoolbarpinned" : 0,
		"toolbars_unpinned_last_save" : 15,
		"tallnewobj" : 0,
		"boxanimatetime" : 200,
		"enablehscroll" : 1,
		"enablevscroll" : 1,
		"devicewidth" : 0.0,
		"description" : "",
		"digest" : "",
		"tags" : "",
		"style" : "",
		"subpatcher_template" : "",
		"boxes" : [ 			{
				"box" : 				{
					"id" : "obj-8",
					"maxclass" : "newobj",
					"numinlets" : 0,
					"numoutlets" : 0,
					"patcher" : 					{
						"fileversion" : 1,
						"appversion" : 						{
							"major" : 7,
							"minor" : 3,
							"revision" : 4,
							"architecture" : "x86",
							"modernui" : 1
						}
,
						"rect" : [ 0.0, 0.0, 640.0, 480.0 ],
						"bglocked" : 0,
						"openinpresentation" : 0,
						"default_fontsize" : 12.0,
						"default_fontface" : 0,
						"default_fontname" : "Arial",
						"gridonopen" : 1,
						"gridsize" : [ 15.0, 15.0 ],
						"gridsnaponopen" : 1,
						"objectsnaponopen" : 1,
						"statusbarvisible" : 2,
						"toolbarvisible" : 1,
						"lefttoolbarpinned" : 0,
						"toptoolbarpinned" : 0,
						"righttoolbarpinned" : 0,
						"bottomtoolbarpinned" : 0,
						"toolbars_unpinned_last_save" : 0,
						"tallnewobj" : 0,
						"boxanimatetime" : 200,
						"enablehscroll" : 1,
						"enablevscroll" : 1,
						"devicewidth" : 0.0,
						"description" : "",
						"digest" : "",
						"tags" : "",
						"style" : "",
						"subpatcher_template" : "",
						"boxes" : [ 							{
								"box" : 								{
									"id" : "obj-7",
									"maxclass" : "newobj",
									"numinlets" : 1,
									"numoutlets" : 1,
									"outlettype" : [ "" ],
									"patching_rect" : [ 768.0, 198.0, 108.0, 22.0 ],
									"style" : "",
									"text" : "j.send /main/tilt/y"
								}

							}
, 							{
								"box" : 								{
									"id" : "obj-6",
									"maxclass" : "newobj",
									"numinlets" : 1,
									"numoutlets" : 1,
									"outlettype" : [ "" ],
									"patching_rect" : [ 613.0, 198.0, 108.0, 22.0 ],
									"style" : "",
									"text" : "j.send /main/tilt/x"
								}

							}
, 							{
								"box" : 								{
									"id" : "obj-3",
									"maxclass" : "newobj",
									"numinlets" : 1,
									"numoutlets" : 1,
									"outlettype" : [ "" ],
									"patching_rect" : [ 450.0, 198.0, 121.0, 22.0 ],
									"style" : "",
									"text" : "j.send /main/light/R"
								}

							}
, 							{
								"box" : 								{
									"id" : "obj-1",
									"maxclass" : "newobj",
									"numinlets" : 1,
									"numoutlets" : 1,
									"outlettype" : [ "" ],
									"patching_rect" : [ 292.0, 198.0, 119.0, 22.0 ],
									"style" : "",
									"text" : "j.send /main/light/L"
								}

							}
, 							{
								"box" : 								{
									"id" : "obj-2",
									"maxclass" : "newobj",
									"numinlets" : 1,
									"numoutlets" : 1,
									"outlettype" : [ "" ],
									"patching_rect" : [ 114.285706, 198.0, 117.0, 22.0 ],
									"style" : "",
									"text" : "j.send /main/motor"
								}

							}
, 							{
								"box" : 								{
									"args" : [ "tiltY" ],
									"bgmode" : 0,
									"border" : 0,
									"clickthrough" : 0,
									"enablehscroll" : 0,
									"enablevscroll" : 0,
									"id" : "obj-52",
									"lockeddragscroll" : 0,
									"maxclass" : "bpatcher",
									"name" : "nav.rand.module.maxpat",
									"numinlets" : 1,
									"numoutlets" : 2,
									"offset" : [ 0.0, 0.0 ],
									"outlettype" : [ "", "" ],
									"patching_rect" : [ 768.0, 126.15332, 150.0, 70.0 ],
									"presentation_rect" : [ 0.0, 0.0, 150.0, 70.0 ],
									"viewvisibility" : 1
								}

							}
, 							{
								"box" : 								{
									"id" : "obj-41",
									"maxclass" : "newobj",
									"numinlets" : 1,
									"numoutlets" : 0,
									"patching_rect" : [ 50.0, 202.0, 55.0, 35.0 ],
									"style" : "",
									"text" : "send val"
								}

							}
, 							{
								"box" : 								{
									"id" : "obj-8",
									"maxclass" : "comment",
									"numinlets" : 1,
									"numoutlets" : 0,
									"patching_rect" : [ 114.285706, 100.0, 27.0, 20.0 ],
									"style" : "",
									"text" : "0.2"
								}

							}
, 							{
								"box" : 								{
									"args" : [ "light2" ],
									"bgmode" : 0,
									"border" : 0,
									"clickthrough" : 0,
									"enablehscroll" : 0,
									"enablevscroll" : 0,
									"id" : "obj-10",
									"lockeddragscroll" : 0,
									"maxclass" : "bpatcher",
									"name" : "nav.rand.module.maxpat",
									"numinlets" : 1,
									"numoutlets" : 2,
									"offset" : [ 0.0, 0.0 ],
									"outlettype" : [ "", "" ],
									"patching_rect" : [ 450.0, 126.15332, 150.0, 70.0 ],
									"presentation_rect" : [ 0.0, 0.0, 150.0, 70.0 ],
									"viewvisibility" : 1
								}

							}
, 							{
								"box" : 								{
									"args" : [ "light1" ],
									"bgmode" : 0,
									"border" : 0,
									"clickthrough" : 0,
									"enablehscroll" : 0,
									"enablevscroll" : 0,
									"id" : "obj-11",
									"lockeddragscroll" : 0,
									"maxclass" : "bpatcher",
									"name" : "nav.rand.module.maxpat",
									"numinlets" : 1,
									"numoutlets" : 2,
									"offset" : [ 0.0, 0.0 ],
									"outlettype" : [ "", "" ],
									"patching_rect" : [ 292.0, 126.15332, 150.0, 70.0 ],
									"presentation_rect" : [ 0.0, 0.0, 150.0, 70.0 ],
									"viewvisibility" : 1
								}

							}
, 							{
								"box" : 								{
									"args" : [ "tilt" ],
									"bgmode" : 0,
									"border" : 0,
									"clickthrough" : 0,
									"enablehscroll" : 0,
									"enablevscroll" : 0,
									"id" : "obj-5",
									"lockeddragscroll" : 0,
									"maxclass" : "bpatcher",
									"name" : "nav.rand.module.maxpat",
									"numinlets" : 1,
									"numoutlets" : 2,
									"offset" : [ 0.0, 0.0 ],
									"outlettype" : [ "", "" ],
									"patching_rect" : [ 613.0, 126.15332, 150.0, 70.0 ],
									"presentation_rect" : [ 0.0, 0.0, 150.0, 70.0 ],
									"viewvisibility" : 1
								}

							}
, 							{
								"box" : 								{
									"args" : [ "speed" ],
									"bgmode" : 0,
									"border" : 0,
									"clickthrough" : 0,
									"enablehscroll" : 0,
									"enablevscroll" : 0,
									"id" : "obj-4",
									"lockeddragscroll" : 0,
									"maxclass" : "bpatcher",
									"name" : "nav.rand.module.maxpat",
									"numinlets" : 1,
									"numoutlets" : 2,
									"offset" : [ 0.0, 0.0 ],
									"outlettype" : [ "", "" ],
									"patching_rect" : [ 114.285706, 126.15332, 150.0, 70.0 ],
									"presentation_rect" : [ 0.0, 0.0, 150.0, 70.0 ],
									"viewvisibility" : 1
								}

							}
 ],
						"lines" : [ 							{
								"patchline" : 								{
									"destination" : [ "obj-3", 0 ],
									"source" : [ "obj-10", 0 ]
								}

							}
, 							{
								"patchline" : 								{
									"destination" : [ "obj-1", 0 ],
									"source" : [ "obj-11", 0 ]
								}

							}
, 							{
								"patchline" : 								{
									"destination" : [ "obj-2", 0 ],
									"order" : 0,
									"source" : [ "obj-4", 0 ]
								}

							}
, 							{
								"patchline" : 								{
									"destination" : [ "obj-41", 0 ],
									"order" : 1,
									"source" : [ "obj-4", 0 ]
								}

							}
, 							{
								"patchline" : 								{
									"destination" : [ "obj-6", 0 ],
									"source" : [ "obj-5", 0 ]
								}

							}
, 							{
								"patchline" : 								{
									"destination" : [ "obj-7", 0 ],
									"source" : [ "obj-52", 0 ]
								}

							}
 ]
					}
,
					"patching_rect" : [ 11.5, 21.0, 62.0, 22.0 ],
					"saved_object_attributes" : 					{
						"description" : "",
						"digest" : "",
						"globalpatchername" : "",
						"style" : "",
						"tags" : ""
					}
,
					"style" : "",
					"text" : "p randon"
				}

			}
, 			{
				"box" : 				{
					"annotation" : "none",
					"id" : "obj-60",
					"maxclass" : "newobj",
					"numinlets" : 5,
					"numoutlets" : 3,
					"outlettype" : [ "", "", "" ],
					"patcher" : 					{
						"fileversion" : 1,
						"appversion" : 						{
							"major" : 7,
							"minor" : 3,
							"revision" : 4,
							"architecture" : "x86",
							"modernui" : 1
						}
,
						"rect" : [ 364.0, 79.0, 529.0, 538.0 ],
						"bglocked" : 0,
						"openinpresentation" : 1,
						"default_fontsize" : 12.0,
						"default_fontface" : 0,
						"default_fontname" : "Arial",
						"gridonopen" : 1,
						"gridsize" : [ 15.0, 15.0 ],
						"gridsnaponopen" : 1,
						"objectsnaponopen" : 1,
						"statusbarvisible" : 2,
						"toolbarvisible" : 1,
						"lefttoolbarpinned" : 0,
						"toptoolbarpinned" : 0,
						"righttoolbarpinned" : 0,
						"bottomtoolbarpinned" : 0,
						"toolbars_unpinned_last_save" : 0,
						"tallnewobj" : 0,
						"boxanimatetime" : 200,
						"enablehscroll" : 1,
						"enablevscroll" : 1,
						"devicewidth" : 0.0,
						"description" : "",
						"digest" : "",
						"tags" : "",
						"style" : "",
						"subpatcher_template" : "",
						"boxes" : [ 							{
								"box" : 								{
									"fontname" : "Arial Bold",
									"fontsize" : 9.0,
									"id" : "obj-75",
									"maxclass" : "newobj",
									"numinlets" : 1,
									"numoutlets" : 3,
									"outlettype" : [ "", "", "" ],
									"patching_rect" : [ 558.714294, 457.688446, 40.0, 19.0 ],
									"presentation_rect" : [ 551.666687, 484.355103, 0.0, 0.0 ],
									"style" : "",
									"text" : "unjoin"
								}

							}
, 							{
								"box" : 								{
									"id" : "obj-74",
									"maxclass" : "newobj",
									"numinlets" : 1,
									"numoutlets" : 4,
									"outlettype" : [ "", "", "", "" ],
									"patching_rect" : [ 729.333374, 246.988449, 79.0, 22.0 ],
									"presentation" : 1,
									"presentation_linecount" : 2,
									"presentation_rect" : [ 289.380951, 320.65509, 54.666656, 35.0 ],
									"style" : "",
									"text" : "j.remote tilt/y"
								}

							}
, 							{
								"box" : 								{
									"id" : "obj-73",
									"maxclass" : "newobj",
									"numinlets" : 1,
									"numoutlets" : 4,
									"outlettype" : [ "", "", "", "" ],
									"patching_rect" : [ 717.333374, 183.011581, 79.0, 22.0 ],
									"presentation" : 1,
									"presentation_linecount" : 2,
									"presentation_rect" : [ 227.047607, 320.65509, 53.666664, 35.0 ],
									"style" : "",
									"text" : "j.remote tilt/x"
								}

							}
, 							{
								"box" : 								{
									"format" : 6,
									"id" : "obj-67",
									"maxclass" : "flonum",
									"numinlets" : 1,
									"numoutlets" : 2,
									"outlettype" : [ "", "bang" ],
									"parameter_enable" : 0,
									"patching_rect" : [ 113.0, 555.0, 50.0, 22.0 ],
									"presentation_rect" : [ 107.380951, 555.583313, 0.0, 0.0 ],
									"style" : ""
								}

							}
, 							{
								"box" : 								{
									"format" : 6,
									"id" : "obj-64",
									"maxclass" : "flonum",
									"numinlets" : 1,
									"numoutlets" : 2,
									"outlettype" : [ "", "bang" ],
									"parameter_enable" : 0,
									"patching_rect" : [ 380.714294, 580.25, 50.0, 22.0 ],
									"style" : ""
								}

							}
, 							{
								"box" : 								{
									"fontname" : "Arial Bold",
									"fontsize" : 9.0,
									"id" : "obj-21",
									"maxclass" : "newobj",
									"numinlets" : 1,
									"numoutlets" : 3,
									"outlettype" : [ "", "", "" ],
									"patching_rect" : [ 397.0, 479.021759, 40.0, 19.0 ],
									"style" : "",
									"text" : "unjoin"
								}

							}
, 							{
								"box" : 								{
									"id" : "obj-20",
									"maxclass" : "newobj",
									"numinlets" : 1,
									"numoutlets" : 4,
									"outlettype" : [ "", "", "", "" ],
									"patching_rect" : [ 296.0, 171.155075, 91.0, 22.0 ],
									"presentation" : 1,
									"presentation_linecount" : 2,
									"presentation_rect" : [ 142.0, 320.65509, 52.333332, 35.0 ],
									"style" : "",
									"text" : "j.remote light/R"
								}

							}
, 							{
								"box" : 								{
									"id" : "obj-19",
									"maxclass" : "newobj",
									"numinlets" : 1,
									"numoutlets" : 4,
									"outlettype" : [ "", "", "", "" ],
									"patching_rect" : [ 296.0, 90.821747, 89.0, 22.0 ],
									"presentation" : 1,
									"presentation_linecount" : 2,
									"presentation_rect" : [ 66.333321, 320.65509, 50.333332, 35.0 ],
									"style" : "",
									"text" : "j.remote light/L"
								}

							}
, 							{
								"box" : 								{
									"comment" : "",
									"id" : "obj-18",
									"index" : 4,
									"maxclass" : "inlet",
									"numinlets" : 0,
									"numoutlets" : 1,
									"outlettype" : [ "" ],
									"patching_rect" : [ 542.714294, 37.0, 30.0, 30.0 ],
									"style" : ""
								}

							}
, 							{
								"box" : 								{
									"comment" : "",
									"id" : "obj-16",
									"index" : 3,
									"maxclass" : "inlet",
									"numinlets" : 0,
									"numoutlets" : 1,
									"outlettype" : [ "" ],
									"patching_rect" : [ 432.714294, 37.0, 30.0, 30.0 ],
									"style" : ""
								}

							}
, 							{
								"box" : 								{
									"fontsize" : 9.0,
									"id" : "obj-15",
									"maxclass" : "newobj",
									"numinlets" : 2,
									"numoutlets" : 1,
									"outlettype" : [ "" ],
									"patching_rect" : [ 380.714294, 612.071777, 84.0, 19.0 ],
									"style" : "",
									"text" : "join 2 @triggers -1"
								}

							}
, 							{
								"box" : 								{
									"fontname" : "Arial",
									"fontsize" : 10.0,
									"id" : "obj-14",
									"maxclass" : "newobj",
									"numinlets" : 1,
									"numoutlets" : 2,
									"outlettype" : [ "", "" ],
									"patching_rect" : [ 558.714294, 558.0, 151.0, 20.0 ],
									"style" : "",
									"text" : "j.parameter tilt/y @type decimal"
								}

							}
, 							{
								"box" : 								{
									"fontname" : "Arial",
									"fontsize" : 10.0,
									"id" : "obj-13",
									"maxclass" : "newobj",
									"numinlets" : 1,
									"numoutlets" : 2,
									"outlettype" : [ "", "" ],
									"patching_rect" : [ 176.0, 555.0, 161.0, 20.0 ],
									"style" : "",
									"text" : "j.parameter light/R @type decimal"
								}

							}
, 							{
								"box" : 								{
									"fontname" : "Arial Bold",
									"fontsize" : 9.0,
									"id" : "obj-11",
									"maxclass" : "newobj",
									"numinlets" : 2,
									"numoutlets" : 1,
									"outlettype" : [ "" ],
									"patching_rect" : [ 113.0, 583.821777, 90.0, 19.0 ],
									"style" : "",
									"text" : "join 2 @triggers -1"
								}

							}
, 							{
								"box" : 								{
									"id" : "obj-63",
									"linecount" : 2,
									"maxclass" : "newobj",
									"numinlets" : 1,
									"numoutlets" : 4,
									"outlettype" : [ "", "", "", "" ],
									"patching_rect" : [ 45.0, 257.821777, 57.0, 35.0 ],
									"presentation" : 1,
									"presentation_linecount" : 2,
									"presentation_rect" : [ 0.666663, 320.65509, 57.0, 35.0 ],
									"style" : "",
									"text" : "j.remote motor"
								}

							}
, 							{
								"box" : 								{
									"format" : 6,
									"id" : "obj-50",
									"maxclass" : "flonum",
									"numinlets" : 1,
									"numoutlets" : 2,
									"outlettype" : [ "", "bang" ],
									"parameter_enable" : 0,
									"patching_rect" : [ 614.714294, 90.821747, 50.0, 22.0 ],
									"presentation" : 1,
									"presentation_rect" : [ 289.380951, 2.011583, 50.0, 22.0 ],
									"style" : ""
								}

							}
, 							{
								"box" : 								{
									"annotation" : "none",
									"format" : 6,
									"id" : "obj-17",
									"maxclass" : "flonum",
									"numinlets" : 1,
									"numoutlets" : 2,
									"outlettype" : [ "", "bang" ],
									"parameter_enable" : 0,
									"patching_rect" : [ 453.678528, 90.821747, 50.0, 22.0 ],
									"presentation" : 1,
									"presentation_rect" : [ 143.166672, 2.011583, 50.0, 22.0 ],
									"style" : ""
								}

							}
, 							{
								"box" : 								{
									"format" : 6,
									"id" : "obj-7",
									"maxclass" : "flonum",
									"numinlets" : 1,
									"numoutlets" : 2,
									"outlettype" : [ "", "bang" ],
									"parameter_enable" : 0,
									"patching_rect" : [ 397.0, 90.821747, 50.0, 22.0 ],
									"presentation" : 1,
									"presentation_rect" : [ 66.333321, 2.011583, 50.0, 22.0 ],
									"style" : ""
								}

							}
, 							{
								"box" : 								{
									"format" : 6,
									"id" : "obj-6",
									"maxclass" : "flonum",
									"numinlets" : 1,
									"numoutlets" : 2,
									"outlettype" : [ "", "bang" ],
									"parameter_enable" : 0,
									"patching_rect" : [ 45.0, 222.821747, 50.0, 22.0 ],
									"presentation" : 1,
									"presentation_rect" : [ 0.666663, 2.011583, 50.0, 22.0 ],
									"style" : ""
								}

							}
, 							{
								"box" : 								{
									"format" : 6,
									"id" : "obj-27",
									"maxclass" : "flonum",
									"numinlets" : 1,
									"numoutlets" : 2,
									"outlettype" : [ "", "bang" ],
									"parameter_enable" : 0,
									"patching_rect" : [ 557.714294, 90.821747, 50.0, 22.0 ],
									"presentation" : 1,
									"presentation_rect" : [ 227.047607, 2.011583, 50.0, 22.0 ],
									"style" : ""
								}

							}
, 							{
								"box" : 								{
									"id" : "obj-46",
									"linecount" : 2,
									"maxclass" : "comment",
									"numinlets" : 1,
									"numoutlets" : 0,
									"patching_rect" : [ 676.714294, 291.0, 19.0, 33.0 ],
									"presentation" : 1,
									"presentation_rect" : [ 334.047607, 163.333328, 25.0, 20.0 ],
									"style" : "",
									"text" : "---"
								}

							}
, 							{
								"box" : 								{
									"fontname" : "Arial Bold",
									"fontsize" : 9.0,
									"id" : "obj-44",
									"maxclass" : "newobj",
									"numinlets" : 2,
									"numoutlets" : 1,
									"outlettype" : [ "" ],
									"patching_rect" : [ 397.0, 122.821747, 89.0, 19.0 ],
									"style" : "",
									"text" : "join 2 @triggers -1"
								}

							}
, 							{
								"box" : 								{
									"fontsize" : 9.0,
									"id" : "obj-40",
									"maxclass" : "newobj",
									"numinlets" : 2,
									"numoutlets" : 1,
									"outlettype" : [ "" ],
									"patching_rect" : [ 557.714294, 122.821747, 82.0, 19.0 ],
									"style" : "",
									"text" : "join @triggers -1"
								}

							}
, 							{
								"box" : 								{
									"bgcolor" : [ 0.095481, 0.100396, 0.100293, 1.0 ],
									"candicane2" : [ 0.011765, 0.396078, 0.752941, 1.0 ],
									"candicane3" : [ 0.011765, 0.396078, 0.752941, 1.0 ],
									"candicane4" : [ 0.862745, 0.741176, 0.137255, 1.0 ],
									"candicane5" : [ 0.764706, 0.592157, 0.101961, 1.0 ],
									"candicane6" : [ 0.317647, 0.654902, 0.976471, 1.0 ],
									"candicane7" : [ 0.317647, 0.654902, 0.976471, 1.0 ],
									"candycane" : 5,
									"contdata" : 1,
									"ghostbar" : 23,
									"id" : "obj-39",
									"maxclass" : "multislider",
									"numinlets" : 1,
									"numoutlets" : 2,
									"outlettype" : [ "", "" ],
									"parameter_enable" : 0,
									"patching_rect" : [ 397.0, 154.678253, 150.0, 290.643494 ],
									"presentation" : 1,
									"presentation_rect" : [ 66.333321, 26.011583, 150.0, 290.643494 ],
									"setminmax" : [ 0.0, 1.0 ],
									"size" : 2,
									"slidercolor" : [ 0.011765, 0.396078, 0.752941, 1.0 ],
									"spacing" : 5,
									"style" : "chiba",
									"thickness" : 5
								}

							}
, 							{
								"box" : 								{
									"bgcolor" : [ 0.095481, 0.100396, 0.100293, 1.0 ],
									"candicane2" : [ 0.764706, 0.592157, 0.101961, 1.0 ],
									"candicane3" : [ 0.011765, 0.396078, 0.752941, 1.0 ],
									"candicane4" : [ 0.862745, 0.741176, 0.137255, 1.0 ],
									"candicane5" : [ 0.764706, 0.592157, 0.101961, 1.0 ],
									"candicane6" : [ 0.317647, 0.654902, 0.976471, 1.0 ],
									"candicane7" : [ 0.317647, 0.654902, 0.976471, 1.0 ],
									"candycane" : 5,
									"contdata" : 1,
									"id" : "obj-38",
									"maxclass" : "multislider",
									"numinlets" : 1,
									"numoutlets" : 2,
									"outlettype" : [ "", "" ],
									"parameter_enable" : 0,
									"patching_rect" : [ 557.714294, 159.678253, 117.0, 290.643494 ],
									"presentation" : 1,
									"presentation_rect" : [ 227.047607, 26.011583, 117.0, 290.643494 ],
									"setminmax" : [ 0.0, 1.0 ],
									"size" : 2,
									"slidercolor" : [ 0.862745, 0.741176, 0.137255, 1.0 ],
									"spacing" : 4,
									"style" : "chiba",
									"thickness" : 6
								}

							}
, 							{
								"box" : 								{
									"annotation" : "none",
									"bgcolor" : [ 0.095481, 0.100396, 0.100293, 1.0 ],
									"candicane2" : [ 0.011765, 0.396078, 0.752941, 1.0 ],
									"candicane3" : [ 0.011765, 0.396078, 0.752941, 1.0 ],
									"candicane4" : [ 0.862745, 0.741176, 0.137255, 1.0 ],
									"candicane5" : [ 0.764706, 0.592157, 0.101961, 1.0 ],
									"candicane6" : [ 0.317647, 0.654902, 0.976471, 1.0 ],
									"candicane7" : [ 0.317647, 0.654902, 0.976471, 1.0 ],
									"candycane" : 5,
									"contdata" : 1,
									"ghostbar" : 61,
									"id" : "obj-30",
									"maxclass" : "multislider",
									"numinlets" : 1,
									"numoutlets" : 2,
									"outlettype" : [ "", "" ],
									"parameter_enable" : 0,
									"patching_rect" : [ 122.0, 154.678253, 57.0, 290.643494 ],
									"presentation" : 1,
									"presentation_rect" : [ 0.666663, 26.011583, 57.0, 290.643494 ],
									"setminmax" : [ 0.0, 1.0 ],
									"slidercolor" : [ 0.784314, 0.145098, 0.023529, 1.0 ],
									"spacing" : 5,
									"style" : "chiba",
									"thickness" : 5
								}

							}
, 							{
								"box" : 								{
									"fontsize" : 10.0,
									"id" : "obj-8",
									"linecount" : 2,
									"maxclass" : "newobj",
									"numinlets" : 1,
									"numoutlets" : 2,
									"outlettype" : [ "", "" ],
									"patching_rect" : [ 16.0, 571.0, 90.0, 31.0 ],
									"style" : "",
									"text" : "j.parameter motor @type decimal"
								}

							}
, 							{
								"box" : 								{
									"fontname" : "Arial",
									"fontsize" : 10.0,
									"id" : "obj-5",
									"linecount" : 2,
									"maxclass" : "newobj",
									"numinlets" : 1,
									"numoutlets" : 2,
									"outlettype" : [ "", "" ],
									"patching_rect" : [ 113.0, 519.0, 125.0, 31.0 ],
									"style" : "",
									"text" : "j.parameter light/L @type decimal"
								}

							}
, 							{
								"box" : 								{
									"fontname" : "Arial",
									"fontsize" : 10.0,
									"id" : "obj-3",
									"maxclass" : "newobj",
									"numinlets" : 1,
									"numoutlets" : 2,
									"outlettype" : [ "", "" ],
									"patching_rect" : [ 380.714294, 555.0, 151.0, 20.0 ],
									"style" : "",
									"text" : "j.parameter tilt/x @type decimal"
								}

							}
, 							{
								"box" : 								{
									"id" : "obj-2",
									"maxclass" : "newobj",
									"numinlets" : 1,
									"numoutlets" : 2,
									"outlettype" : [ "", "" ],
									"patching_rect" : [ 643.714294, 622.0, 49.0, 22.0 ],
									"style" : "",
									"text" : "j.model"
								}

							}
, 							{
								"box" : 								{
									"comment" : "",
									"id" : "obj-48",
									"index" : 1,
									"maxclass" : "inlet",
									"numinlets" : 0,
									"numoutlets" : 1,
									"outlettype" : [ "" ],
									"patching_rect" : [ 45.0, 154.678253, 30.0, 30.0 ],
									"style" : ""
								}

							}
, 							{
								"box" : 								{
									"comment" : "",
									"id" : "obj-49",
									"index" : 2,
									"maxclass" : "inlet",
									"numinlets" : 0,
									"numoutlets" : 1,
									"outlettype" : [ "" ],
									"patching_rect" : [ 355.0, 46.0, 30.0, 30.0 ],
									"style" : ""
								}

							}
, 							{
								"box" : 								{
									"comment" : "",
									"id" : "obj-53",
									"index" : 5,
									"maxclass" : "inlet",
									"numinlets" : 0,
									"numoutlets" : 1,
									"outlettype" : [ "" ],
									"patching_rect" : [ 604.714294, 37.0, 30.0, 30.0 ],
									"style" : ""
								}

							}
, 							{
								"box" : 								{
									"comment" : "",
									"id" : "obj-55",
									"index" : 1,
									"maxclass" : "outlet",
									"numinlets" : 1,
									"numoutlets" : 0,
									"patching_rect" : [ 16.0, 612.0, 30.0, 30.0 ],
									"style" : ""
								}

							}
, 							{
								"box" : 								{
									"comment" : "",
									"id" : "obj-56",
									"index" : 2,
									"maxclass" : "outlet",
									"numinlets" : 1,
									"numoutlets" : 0,
									"patching_rect" : [ 113.0, 615.0, 30.0, 30.0 ],
									"style" : ""
								}

							}
, 							{
								"box" : 								{
									"comment" : "",
									"id" : "obj-58",
									"index" : 3,
									"maxclass" : "outlet",
									"numinlets" : 1,
									"numoutlets" : 0,
									"patching_rect" : [ 380.714294, 643.25, 30.0, 30.0 ],
									"style" : ""
								}

							}
 ],
						"lines" : [ 							{
								"patchline" : 								{
									"destination" : [ "obj-56", 0 ],
									"source" : [ "obj-11", 0 ]
								}

							}
, 							{
								"patchline" : 								{
									"destination" : [ "obj-11", 1 ],
									"source" : [ "obj-13", 0 ]
								}

							}
, 							{
								"patchline" : 								{
									"destination" : [ "obj-15", 1 ],
									"source" : [ "obj-14", 0 ]
								}

							}
, 							{
								"patchline" : 								{
									"destination" : [ "obj-58", 0 ],
									"source" : [ "obj-15", 0 ]
								}

							}
, 							{
								"patchline" : 								{
									"destination" : [ "obj-17", 0 ],
									"source" : [ "obj-16", 0 ]
								}

							}
, 							{
								"patchline" : 								{
									"destination" : [ "obj-44", 1 ],
									"source" : [ "obj-17", 0 ]
								}

							}
, 							{
								"patchline" : 								{
									"destination" : [ "obj-27", 0 ],
									"source" : [ "obj-18", 0 ]
								}

							}
, 							{
								"patchline" : 								{
									"destination" : [ "obj-7", 0 ],
									"source" : [ "obj-19", 0 ]
								}

							}
, 							{
								"patchline" : 								{
									"destination" : [ "obj-17", 0 ],
									"source" : [ "obj-20", 0 ]
								}

							}
, 							{
								"patchline" : 								{
									"destination" : [ "obj-19", 0 ],
									"source" : [ "obj-21", 0 ]
								}

							}
, 							{
								"patchline" : 								{
									"destination" : [ "obj-20", 0 ],
									"source" : [ "obj-21", 1 ]
								}

							}
, 							{
								"patchline" : 								{
									"destination" : [ "obj-40", 0 ],
									"source" : [ "obj-27", 0 ]
								}

							}
, 							{
								"patchline" : 								{
									"destination" : [ "obj-64", 0 ],
									"source" : [ "obj-3", 0 ]
								}

							}
, 							{
								"patchline" : 								{
									"destination" : [ "obj-63", 0 ],
									"source" : [ "obj-30", 0 ]
								}

							}
, 							{
								"patchline" : 								{
									"destination" : [ "obj-75", 0 ],
									"source" : [ "obj-38", 0 ]
								}

							}
, 							{
								"patchline" : 								{
									"destination" : [ "obj-21", 0 ],
									"source" : [ "obj-39", 0 ]
								}

							}
, 							{
								"patchline" : 								{
									"destination" : [ "obj-38", 0 ],
									"source" : [ "obj-40", 0 ]
								}

							}
, 							{
								"patchline" : 								{
									"destination" : [ "obj-39", 0 ],
									"source" : [ "obj-44", 0 ]
								}

							}
, 							{
								"patchline" : 								{
									"destination" : [ "obj-6", 0 ],
									"source" : [ "obj-48", 0 ]
								}

							}
, 							{
								"patchline" : 								{
									"destination" : [ "obj-7", 0 ],
									"source" : [ "obj-49", 0 ]
								}

							}
, 							{
								"patchline" : 								{
									"destination" : [ "obj-67", 0 ],
									"source" : [ "obj-5", 0 ]
								}

							}
, 							{
								"patchline" : 								{
									"destination" : [ "obj-40", 1 ],
									"source" : [ "obj-50", 0 ]
								}

							}
, 							{
								"patchline" : 								{
									"destination" : [ "obj-50", 0 ],
									"source" : [ "obj-53", 0 ]
								}

							}
, 							{
								"patchline" : 								{
									"destination" : [ "obj-63", 0 ],
									"source" : [ "obj-6", 0 ]
								}

							}
, 							{
								"patchline" : 								{
									"destination" : [ "obj-30", 0 ],
									"source" : [ "obj-63", 0 ]
								}

							}
, 							{
								"patchline" : 								{
									"destination" : [ "obj-15", 0 ],
									"source" : [ "obj-64", 0 ]
								}

							}
, 							{
								"patchline" : 								{
									"destination" : [ "obj-11", 0 ],
									"source" : [ "obj-67", 0 ]
								}

							}
, 							{
								"patchline" : 								{
									"destination" : [ "obj-44", 0 ],
									"source" : [ "obj-7", 0 ]
								}

							}
, 							{
								"patchline" : 								{
									"destination" : [ "obj-50", 0 ],
									"source" : [ "obj-73", 0 ]
								}

							}
, 							{
								"patchline" : 								{
									"destination" : [ "obj-27", 0 ],
									"source" : [ "obj-74", 0 ]
								}

							}
, 							{
								"patchline" : 								{
									"destination" : [ "obj-73", 0 ],
									"source" : [ "obj-75", 1 ]
								}

							}
, 							{
								"patchline" : 								{
									"destination" : [ "obj-74", 0 ],
									"source" : [ "obj-75", 0 ]
								}

							}
, 							{
								"patchline" : 								{
									"destination" : [ "obj-55", 0 ],
									"source" : [ "obj-8", 0 ]
								}

							}
 ]
					}
,
					"patching_rect" : [ 6.785706, 57.32666, 247.714294, 22.0 ],
					"saved_object_attributes" : 					{
						"description" : "",
						"digest" : "",
						"globalpatchername" : "",
						"style" : "",
						"tags" : ""
					}
,
					"style" : "",
					"text" : "p main"
				}

			}
, 			{
				"box" : 				{
					"id" : "obj-37",
					"maxclass" : "newobj",
					"numinlets" : 3,
					"numoutlets" : 0,
					"patcher" : 					{
						"fileversion" : 1,
						"appversion" : 						{
							"major" : 7,
							"minor" : 3,
							"revision" : 4,
							"architecture" : "x86",
							"modernui" : 1
						}
,
						"rect" : [ 1041.0, 420.0, 717.0, 480.0 ],
						"bglocked" : 0,
						"openinpresentation" : 0,
						"default_fontsize" : 12.0,
						"default_fontface" : 0,
						"default_fontname" : "Arial",
						"gridonopen" : 1,
						"gridsize" : [ 15.0, 15.0 ],
						"gridsnaponopen" : 1,
						"objectsnaponopen" : 1,
						"statusbarvisible" : 2,
						"toolbarvisible" : 1,
						"lefttoolbarpinned" : 0,
						"toptoolbarpinned" : 0,
						"righttoolbarpinned" : 0,
						"bottomtoolbarpinned" : 0,
						"toolbars_unpinned_last_save" : 0,
						"tallnewobj" : 0,
						"boxanimatetime" : 200,
						"enablehscroll" : 1,
						"enablevscroll" : 1,
						"devicewidth" : 0.0,
						"description" : "",
						"digest" : "",
						"tags" : "",
						"style" : "",
						"subpatcher_template" : "",
						"boxes" : [ 							{
								"box" : 								{
									"id" : "obj-5",
									"maxclass" : "newobj",
									"numinlets" : 1,
									"numoutlets" : 3,
									"outlettype" : [ "", "", "" ],
									"patching_rect" : [ 527.714294, 63.0, 76.619019, 22.0 ],
									"style" : "",
									"text" : "unjoin"
								}

							}
, 							{
								"box" : 								{
									"id" : "obj-4",
									"maxclass" : "newobj",
									"numinlets" : 1,
									"numoutlets" : 3,
									"outlettype" : [ "", "", "" ],
									"patching_rect" : [ 274.380981, 86.0, 76.619019, 22.0 ],
									"style" : "",
									"text" : "unjoin"
								}

							}
, 							{
								"box" : 								{
									"id" : "obj-42",
									"maxclass" : "button",
									"numinlets" : 1,
									"numoutlets" : 1,
									"outlettype" : [ "bang" ],
									"patching_rect" : [ 630.5, 69.32666, 24.0, 24.0 ],
									"style" : ""
								}

							}
, 							{
								"box" : 								{
									"id" : "obj-25",
									"maxclass" : "comment",
									"numinlets" : 1,
									"numoutlets" : 0,
									"patching_rect" : [ 439.214294, 368.32666, 19.0, 20.0 ],
									"style" : "",
									"text" : "I"
								}

							}
, 							{
								"box" : 								{
									"id" : "obj-24",
									"maxclass" : "comment",
									"numinlets" : 1,
									"numoutlets" : 0,
									"patching_rect" : [ 371.047607, 368.32666, 25.0, 20.0 ],
									"style" : "",
									"text" : "<>"
								}

							}
, 							{
								"box" : 								{
									"id" : "obj-23",
									"maxclass" : "comment",
									"numinlets" : 1,
									"numoutlets" : 0,
									"patching_rect" : [ 306.0, 368.32666, 19.0, 20.0 ],
									"style" : "",
									"text" : "R"
								}

							}
, 							{
								"box" : 								{
									"id" : "obj-22",
									"maxclass" : "comment",
									"numinlets" : 1,
									"numoutlets" : 0,
									"patching_rect" : [ 237.214294, 368.32666, 19.0, 20.0 ],
									"style" : "",
									"text" : "L"
								}

							}
, 							{
								"box" : 								{
									"id" : "obj-63",
									"maxclass" : "newobj",
									"numinlets" : 1,
									"numoutlets" : 1,
									"outlettype" : [ "" ],
									"patcher" : 									{
										"fileversion" : 1,
										"appversion" : 										{
											"major" : 7,
											"minor" : 3,
											"revision" : 4,
											"architecture" : "x86",
											"modernui" : 1
										}
,
										"rect" : [ 221.0, 527.0, 232.0, 247.0 ],
										"bglocked" : 0,
										"openinpresentation" : 0,
										"default_fontsize" : 12.0,
										"default_fontface" : 0,
										"default_fontname" : "Arial",
										"gridonopen" : 1,
										"gridsize" : [ 15.0, 15.0 ],
										"gridsnaponopen" : 1,
										"objectsnaponopen" : 1,
										"statusbarvisible" : 2,
										"toolbarvisible" : 1,
										"lefttoolbarpinned" : 0,
										"toptoolbarpinned" : 0,
										"righttoolbarpinned" : 0,
										"bottomtoolbarpinned" : 0,
										"toolbars_unpinned_last_save" : 0,
										"tallnewobj" : 0,
										"boxanimatetime" : 200,
										"enablehscroll" : 1,
										"enablevscroll" : 1,
										"devicewidth" : 0.0,
										"description" : "",
										"digest" : "",
										"tags" : "",
										"style" : "",
										"subpatcher_template" : "",
										"boxes" : [ 											{
												"box" : 												{
													"id" : "obj-2",
													"maxclass" : "newobj",
													"numinlets" : 1,
													"numoutlets" : 1,
													"outlettype" : [ "" ],
													"patching_rect" : [ 142.0, 73.0, 56.0, 22.0 ],
													"style" : "",
													"text" : "deferlow"
												}

											}
, 											{
												"box" : 												{
													"id" : "obj-1",
													"maxclass" : "newobj",
													"numinlets" : 1,
													"numoutlets" : 1,
													"outlettype" : [ "bang" ],
													"patching_rect" : [ 142.0, 27.0, 60.0, 22.0 ],
													"style" : "",
													"text" : "loadbang"
												}

											}
, 											{
												"box" : 												{
													"id" : "obj-46",
													"maxclass" : "newobj",
													"numinlets" : 2,
													"numoutlets" : 1,
													"outlettype" : [ "" ],
													"patching_rect" : [ 150.5, 126.0, 63.0, 22.0 ],
													"style" : "",
													"text" : "pipe 5000"
												}

											}
, 											{
												"box" : 												{
													"id" : "obj-45",
													"maxclass" : "newobj",
													"numinlets" : 2,
													"numoutlets" : 1,
													"outlettype" : [ "" ],
													"patching_rect" : [ 77.5, 126.0, 63.0, 22.0 ],
													"style" : "",
													"text" : "pipe 2500"
												}

											}
, 											{
												"box" : 												{
													"id" : "obj-44",
													"maxclass" : "newobj",
													"numinlets" : 1,
													"numoutlets" : 3,
													"outlettype" : [ "float", "float", "float" ],
													"patching_rect" : [ 50.0, 100.0, 74.0, 22.0 ],
													"style" : "",
													"text" : "t 1. 0.31 0.5"
												}

											}
, 											{
												"box" : 												{
													"comment" : "",
													"id" : "obj-61",
													"index" : 1,
													"maxclass" : "inlet",
													"numinlets" : 0,
													"numoutlets" : 1,
													"outlettype" : [ "bang" ],
													"patching_rect" : [ 50.0, 40.0, 30.0, 30.0 ],
													"style" : ""
												}

											}
, 											{
												"box" : 												{
													"comment" : "",
													"id" : "obj-62",
													"index" : 1,
													"maxclass" : "outlet",
													"numinlets" : 1,
													"numoutlets" : 0,
													"patching_rect" : [ 86.666626, 208.0, 30.0, 30.0 ],
													"style" : ""
												}

											}
 ],
										"lines" : [ 											{
												"patchline" : 												{
													"destination" : [ "obj-2", 0 ],
													"source" : [ "obj-1", 0 ]
												}

											}
, 											{
												"patchline" : 												{
													"destination" : [ "obj-44", 0 ],
													"source" : [ "obj-2", 0 ]
												}

											}
, 											{
												"patchline" : 												{
													"destination" : [ "obj-45", 0 ],
													"source" : [ "obj-44", 1 ]
												}

											}
, 											{
												"patchline" : 												{
													"destination" : [ "obj-46", 0 ],
													"source" : [ "obj-44", 2 ]
												}

											}
, 											{
												"patchline" : 												{
													"destination" : [ "obj-62", 0 ],
													"source" : [ "obj-44", 0 ]
												}

											}
, 											{
												"patchline" : 												{
													"destination" : [ "obj-62", 0 ],
													"source" : [ "obj-45", 0 ]
												}

											}
, 											{
												"patchline" : 												{
													"destination" : [ "obj-62", 0 ],
													"source" : [ "obj-46", 0 ]
												}

											}
, 											{
												"patchline" : 												{
													"destination" : [ "obj-44", 0 ],
													"source" : [ "obj-61", 0 ]
												}

											}
 ]
									}
,
									"patching_rect" : [ 573.714294, 125.0, 66.0, 22.0 ],
									"saved_object_attributes" : 									{
										"description" : "",
										"digest" : "",
										"globalpatchername" : "",
										"style" : "",
										"tags" : ""
									}
,
									"style" : "",
									"text" : "p calibrate"
								}

							}
, 							{
								"box" : 								{
									"id" : "obj-60",
									"maxclass" : "newobj",
									"numinlets" : 1,
									"numoutlets" : 1,
									"outlettype" : [ "" ],
									"patcher" : 									{
										"fileversion" : 1,
										"appversion" : 										{
											"major" : 7,
											"minor" : 3,
											"revision" : 4,
											"architecture" : "x86",
											"modernui" : 1
										}
,
										"rect" : [ 137.0, 232.0, 242.0, 315.0 ],
										"bglocked" : 0,
										"openinpresentation" : 0,
										"default_fontsize" : 12.0,
										"default_fontface" : 0,
										"default_fontname" : "Arial",
										"gridonopen" : 1,
										"gridsize" : [ 15.0, 15.0 ],
										"gridsnaponopen" : 1,
										"objectsnaponopen" : 1,
										"statusbarvisible" : 2,
										"toolbarvisible" : 1,
										"lefttoolbarpinned" : 0,
										"toptoolbarpinned" : 0,
										"righttoolbarpinned" : 0,
										"bottomtoolbarpinned" : 0,
										"toolbars_unpinned_last_save" : 0,
										"tallnewobj" : 0,
										"boxanimatetime" : 200,
										"enablehscroll" : 1,
										"enablevscroll" : 1,
										"devicewidth" : 0.0,
										"description" : "",
										"digest" : "",
										"tags" : "",
										"style" : "",
										"subpatcher_template" : "",
										"boxes" : [ 											{
												"box" : 												{
													"id" : "obj-57",
													"maxclass" : "newobj",
													"numinlets" : 3,
													"numoutlets" : 1,
													"outlettype" : [ "" ],
													"patching_rect" : [ 50.0, 148.0, 82.0, 22.0 ],
													"style" : "",
													"text" : "clip 0.315 0.7"
												}

											}
, 											{
												"box" : 												{
													"id" : "obj-54",
													"maxclass" : "newobj",
													"numinlets" : 6,
													"numoutlets" : 1,
													"outlettype" : [ "" ],
													"patching_rect" : [ 50.0, 100.0, 119.0, 22.0 ],
													"style" : "",
													"text" : "scale 0. 1. 0.308 0.7"
												}

											}
, 											{
												"box" : 												{
													"id" : "obj-53",
													"maxclass" : "newobj",
													"numinlets" : 2,
													"numoutlets" : 1,
													"outlettype" : [ "float" ],
													"patching_rect" : [ 50.0, 124.0, 48.0, 22.0 ],
													"style" : "",
													"text" : "- 0.006"
												}

											}
, 											{
												"box" : 												{
													"comment" : "",
													"id" : "obj-58",
													"index" : 1,
													"maxclass" : "inlet",
													"numinlets" : 0,
													"numoutlets" : 1,
													"outlettype" : [ "" ],
													"patching_rect" : [ 50.0, 40.0, 30.0, 30.0 ],
													"style" : ""
												}

											}
, 											{
												"box" : 												{
													"comment" : "",
													"id" : "obj-59",
													"index" : 1,
													"maxclass" : "outlet",
													"numinlets" : 1,
													"numoutlets" : 0,
													"patching_rect" : [ 50.0, 230.0, 30.0, 30.0 ],
													"style" : ""
												}

											}
 ],
										"lines" : [ 											{
												"patchline" : 												{
													"destination" : [ "obj-57", 0 ],
													"source" : [ "obj-53", 0 ]
												}

											}
, 											{
												"patchline" : 												{
													"destination" : [ "obj-53", 0 ],
													"source" : [ "obj-54", 0 ]
												}

											}
, 											{
												"patchline" : 												{
													"destination" : [ "obj-59", 0 ],
													"source" : [ "obj-57", 0 ]
												}

											}
, 											{
												"patchline" : 												{
													"destination" : [ "obj-54", 0 ],
													"source" : [ "obj-58", 0 ]
												}

											}
 ]
									}
,
									"patching_rect" : [ 527.714294, 100.0, 51.0, 22.0 ],
									"saved_object_attributes" : 									{
										"description" : "",
										"digest" : "",
										"globalpatchername" : "",
										"style" : "",
										"tags" : ""
									}
,
									"style" : "",
									"text" : "p adapt"
								}

							}
, 							{
								"box" : 								{
									"id" : "obj-51",
									"maxclass" : "newobj",
									"numinlets" : 2,
									"numoutlets" : 1,
									"outlettype" : [ "float" ],
									"patching_rect" : [ 653.714294, 125.0, 42.0, 22.0 ],
									"style" : "",
									"text" : "* 255."
								}

							}
, 							{
								"box" : 								{
									"id" : "obj-1",
									"maxclass" : "comment",
									"numinlets" : 1,
									"numoutlets" : 0,
									"patching_rect" : [ 485.0, 274.5, 44.0, 20.0 ],
									"style" : "",
									"text" : "--"
								}

							}
, 							{
								"box" : 								{
									"id" : "obj-20",
									"maxclass" : "newobj",
									"numinlets" : 2,
									"numoutlets" : 1,
									"outlettype" : [ "float" ],
									"patching_rect" : [ 527.714294, 125.0, 42.0, 22.0 ],
									"style" : "",
									"text" : "* 255."
								}

							}
, 							{
								"box" : 								{
									"id" : "obj-19",
									"maxclass" : "newobj",
									"numinlets" : 2,
									"numoutlets" : 1,
									"outlettype" : [ "float" ],
									"patching_rect" : [ 401.047607, 125.0, 42.0, 22.0 ],
									"style" : "",
									"text" : "* 255."
								}

							}
, 							{
								"box" : 								{
									"id" : "obj-18",
									"maxclass" : "newobj",
									"numinlets" : 2,
									"numoutlets" : 1,
									"outlettype" : [ "float" ],
									"patching_rect" : [ 274.380981, 125.0, 42.0, 22.0 ],
									"style" : "",
									"text" : "* 255."
								}

							}
, 							{
								"box" : 								{
									"id" : "obj-13",
									"maxclass" : "newobj",
									"numinlets" : 5,
									"numoutlets" : 1,
									"outlettype" : [ "" ],
									"patching_rect" : [ 147.714294, 162.0, 525.666687, 22.0 ],
									"style" : "",
									"text" : "pak 0. 0. 0. 0. 0."
								}

							}
, 							{
								"box" : 								{
									"id" : "obj-12",
									"maxclass" : "newobj",
									"numinlets" : 2,
									"numoutlets" : 1,
									"outlettype" : [ "float" ],
									"patching_rect" : [ 147.714294, 125.0, 42.0, 22.0 ],
									"style" : "",
									"text" : "* 255."
								}

							}
, 							{
								"box" : 								{
									"id" : "obj-2",
									"maxclass" : "comment",
									"numinlets" : 1,
									"numoutlets" : 0,
									"patching_rect" : [ 159.214294, 368.32666, 44.0, 20.0 ],
									"style" : "",
									"text" : "motor"
								}

							}
, 							{
								"box" : 								{
									"id" : "obj-3",
									"maxclass" : "toggle",
									"numinlets" : 1,
									"numoutlets" : 1,
									"outlettype" : [ "int" ],
									"parameter_enable" : 0,
									"patching_rect" : [ 51.0, 336.0, 24.0, 24.0 ],
									"style" : ""
								}

							}
, 							{
								"box" : 								{
									"candicane2" : [ 0.011765, 0.396078, 0.752941, 1.0 ],
									"candicane3" : [ 0.011765, 0.396078, 0.752941, 1.0 ],
									"candicane4" : [ 0.862745, 0.741176, 0.137255, 1.0 ],
									"candicane5" : [ 0.764706, 0.592157, 0.101961, 1.0 ],
									"candicane6" : [ 0.317647, 0.654902, 0.976471, 1.0 ],
									"candicane7" : [ 0.317647, 0.654902, 0.976471, 1.0 ],
									"candycane" : 5,
									"contdata" : 1,
									"id" : "obj-118",
									"maxclass" : "multislider",
									"numinlets" : 1,
									"numoutlets" : 2,
									"outlettype" : [ "", "" ],
									"parameter_enable" : 0,
									"patching_rect" : [ 148.0, 204.678284, 335.0, 159.643494 ],
									"presentation" : 1,
									"presentation_rect" : [ 6.406616, 367.338898, 386.795776, 103.988853 ],
									"setminmax" : [ 0.0, 255.0 ],
									"setstyle" : 1,
									"settype" : 0,
									"size" : 5,
									"slidercolor" : [ 0.784314, 0.145098, 0.023529, 1.0 ],
									"spacing" : 2,
									"style" : "chiba"
								}

							}
, 							{
								"box" : 								{
									"fontname" : "Arial",
									"fontsize" : 12.0,
									"id" : "obj-15",
									"linecount" : 3,
									"maxclass" : "newobj",
									"numinlets" : 2,
									"numoutlets" : 1,
									"outlettype" : [ "bang" ],
									"patching_rect" : [ 51.0, 368.32666, 92.0, 49.0 ],
									"style" : "",
									"text" : "qmetro @interval 60hz @active 1"
								}

							}
, 							{
								"box" : 								{
									"fontname" : "Arial",
									"fontsize" : 12.0,
									"id" : "obj-14",
									"maxclass" : "newobj",
									"numinlets" : 2,
									"numoutlets" : 2,
									"outlettype" : [ "", "" ],
									"patching_rect" : [ 50.0, 427.0, 117.0, 22.0 ],
									"style" : "",
									"text" : "zl reg"
								}

							}
, 							{
								"box" : 								{
									"fontname" : "Arial",
									"fontsize" : 12.0,
									"id" : "obj-9",
									"maxclass" : "newobj",
									"numinlets" : 1,
									"numoutlets" : 0,
									"patching_rect" : [ 50.0, 451.0, 433.0, 22.0 ],
									"style" : "",
									"text" : "imp.artnet.controller @unicast 0 @alt_broadcast_ip 1 @mode 4 @framerate 44"
								}

							}
, 							{
								"box" : 								{
									"comment" : "",
									"id" : "obj-31",
									"index" : 1,
									"maxclass" : "inlet",
									"numinlets" : 0,
									"numoutlets" : 1,
									"outlettype" : [ "" ],
									"patching_rect" : [ 147.714294, 40.0, 30.0, 30.0 ],
									"style" : ""
								}

							}
, 							{
								"box" : 								{
									"comment" : "",
									"id" : "obj-32",
									"index" : 2,
									"maxclass" : "inlet",
									"numinlets" : 0,
									"numoutlets" : 1,
									"outlettype" : [ "" ],
									"patching_rect" : [ 274.380981, 40.0, 30.0, 30.0 ],
									"style" : ""
								}

							}
, 							{
								"box" : 								{
									"comment" : "",
									"id" : "obj-33",
									"index" : 3,
									"maxclass" : "inlet",
									"numinlets" : 0,
									"numoutlets" : 1,
									"outlettype" : [ "" ],
									"patching_rect" : [ 527.714294, 17.0, 30.0, 30.0 ],
									"style" : ""
								}

							}
 ],
						"lines" : [ 							{
								"patchline" : 								{
									"destination" : [ "obj-14", 1 ],
									"source" : [ "obj-118", 0 ]
								}

							}
, 							{
								"patchline" : 								{
									"destination" : [ "obj-13", 0 ],
									"source" : [ "obj-12", 0 ]
								}

							}
, 							{
								"patchline" : 								{
									"destination" : [ "obj-118", 0 ],
									"source" : [ "obj-13", 0 ]
								}

							}
, 							{
								"patchline" : 								{
									"destination" : [ "obj-9", 0 ],
									"source" : [ "obj-14", 0 ]
								}

							}
, 							{
								"patchline" : 								{
									"destination" : [ "obj-14", 0 ],
									"source" : [ "obj-15", 0 ]
								}

							}
, 							{
								"patchline" : 								{
									"destination" : [ "obj-13", 1 ],
									"source" : [ "obj-18", 0 ]
								}

							}
, 							{
								"patchline" : 								{
									"destination" : [ "obj-13", 2 ],
									"source" : [ "obj-19", 0 ]
								}

							}
, 							{
								"patchline" : 								{
									"destination" : [ "obj-13", 3 ],
									"source" : [ "obj-20", 0 ]
								}

							}
, 							{
								"patchline" : 								{
									"destination" : [ "obj-15", 0 ],
									"source" : [ "obj-3", 0 ]
								}

							}
, 							{
								"patchline" : 								{
									"destination" : [ "obj-12", 0 ],
									"source" : [ "obj-31", 0 ]
								}

							}
, 							{
								"patchline" : 								{
									"destination" : [ "obj-4", 0 ],
									"source" : [ "obj-32", 0 ]
								}

							}
, 							{
								"patchline" : 								{
									"destination" : [ "obj-5", 0 ],
									"source" : [ "obj-33", 0 ]
								}

							}
, 							{
								"patchline" : 								{
									"destination" : [ "obj-18", 0 ],
									"source" : [ "obj-4", 0 ]
								}

							}
, 							{
								"patchline" : 								{
									"destination" : [ "obj-19", 0 ],
									"source" : [ "obj-4", 1 ]
								}

							}
, 							{
								"patchline" : 								{
									"destination" : [ "obj-63", 0 ],
									"source" : [ "obj-42", 0 ]
								}

							}
, 							{
								"patchline" : 								{
									"destination" : [ "obj-51", 0 ],
									"source" : [ "obj-5", 1 ]
								}

							}
, 							{
								"patchline" : 								{
									"destination" : [ "obj-60", 0 ],
									"source" : [ "obj-5", 0 ]
								}

							}
, 							{
								"patchline" : 								{
									"destination" : [ "obj-13", 4 ],
									"source" : [ "obj-51", 0 ]
								}

							}
, 							{
								"patchline" : 								{
									"destination" : [ "obj-20", 0 ],
									"source" : [ "obj-60", 0 ]
								}

							}
, 							{
								"patchline" : 								{
									"destination" : [ "obj-20", 0 ],
									"source" : [ "obj-63", 0 ]
								}

							}
 ]
					}
,
					"patching_rect" : [ 6.785706, 101.0, 247.714294, 22.0 ],
					"saved_object_attributes" : 					{
						"description" : "",
						"digest" : "",
						"globalpatchername" : "",
						"style" : "",
						"tags" : ""
					}
,
					"style" : "",
					"text" : "p DMX-OUT"
				}

			}
, 			{
				"box" : 				{
					"id" : "obj-21",
					"maxclass" : "newobj",
					"numinlets" : 0,
					"numoutlets" : 0,
					"patcher" : 					{
						"fileversion" : 1,
						"appversion" : 						{
							"major" : 7,
							"minor" : 3,
							"revision" : 4,
							"architecture" : "x86",
							"modernui" : 1
						}
,
						"rect" : [ 59.0, 104.0, 1078.0, 391.0 ],
						"bglocked" : 0,
						"openinpresentation" : 0,
						"default_fontsize" : 12.0,
						"default_fontface" : 0,
						"default_fontname" : "Arial",
						"gridonopen" : 1,
						"gridsize" : [ 15.0, 15.0 ],
						"gridsnaponopen" : 1,
						"objectsnaponopen" : 1,
						"statusbarvisible" : 2,
						"toolbarvisible" : 1,
						"lefttoolbarpinned" : 0,
						"toptoolbarpinned" : 0,
						"righttoolbarpinned" : 0,
						"bottomtoolbarpinned" : 0,
						"toolbars_unpinned_last_save" : 0,
						"tallnewobj" : 0,
						"boxanimatetime" : 200,
						"enablehscroll" : 1,
						"enablevscroll" : 1,
						"devicewidth" : 0.0,
						"description" : "",
						"digest" : "",
						"tags" : "",
						"style" : "",
						"subpatcher_template" : "",
						"boxes" : [ 							{
								"box" : 								{
									"id" : "obj-74",
									"maxclass" : "message",
									"numinlets" : 2,
									"numoutlets" : 1,
									"outlettype" : [ "" ],
									"patching_rect" : [ 665.5, 42.0, 50.0, 22.0 ],
									"style" : "",
									"text" : "0."
								}

							}
, 							{
								"box" : 								{
									"fontname" : "Arial",
									"fontsize" : 13.0,
									"id" : "obj-72",
									"maxclass" : "message",
									"numinlets" : 2,
									"numoutlets" : 1,
									"outlettype" : [ "" ],
									"patching_rect" : [ 559.0, 20.5, 42.0, 23.0 ],
									"style" : "",
									"text" : "clear"
								}

							}
, 							{
								"box" : 								{
									"fontname" : "Arial",
									"fontsize" : 12.0,
									"id" : "obj-69",
									"maxclass" : "message",
									"numinlets" : 2,
									"numoutlets" : 1,
									"outlettype" : [ "" ],
									"patching_rect" : [ 397.0, 180.0, 39.0, 22.0 ],
									"style" : "",
									"text" : "circle"
								}

							}
, 							{
								"box" : 								{
									"fontname" : "Arial",
									"fontsize" : 12.0,
									"id" : "obj-68",
									"maxclass" : "message",
									"numinlets" : 2,
									"numoutlets" : 1,
									"outlettype" : [ "" ],
									"patching_rect" : [ 498.0, 190.0, 46.0, 22.0 ],
									"style" : "",
									"text" : "insane"
								}

							}
, 							{
								"box" : 								{
									"fontname" : "Arial",
									"fontsize" : 12.0,
									"id" : "obj-67",
									"maxclass" : "message",
									"numinlets" : 2,
									"numoutlets" : 1,
									"outlettype" : [ "" ],
									"patching_rect" : [ 472.0, 180.0, 47.0, 22.0 ],
									"style" : "",
									"text" : "Schizo"
								}

							}
, 							{
								"box" : 								{
									"fontname" : "Arial",
									"fontsize" : 12.0,
									"id" : "obj-66",
									"maxclass" : "message",
									"numinlets" : 2,
									"numoutlets" : 1,
									"outlettype" : [ "" ],
									"patching_rect" : [ 353.0, 138.5, 49.0, 22.0 ],
									"style" : "",
									"text" : "Classic"
								}

							}
, 							{
								"box" : 								{
									"fontname" : "Arial",
									"fontsize" : 12.0,
									"id" : "obj-65",
									"maxclass" : "message",
									"numinlets" : 2,
									"numoutlets" : 1,
									"outlettype" : [ "" ],
									"patching_rect" : [ 332.0, 105.0, 70.0, 22.0 ],
									"style" : "",
									"text" : "motorHead"
								}

							}
, 							{
								"box" : 								{
									"fontname" : "Arial",
									"fontsize" : 12.0,
									"id" : "obj-48",
									"maxclass" : "message",
									"numinlets" : 2,
									"numoutlets" : 1,
									"outlettype" : [ "" ],
									"patching_rect" : [ 967.0, 152.5, 78.0, 22.0 ],
									"style" : "",
									"text" : "perfectCircle"
								}

							}
, 							{
								"box" : 								{
									"fontname" : "Arial",
									"fontsize" : 12.0,
									"id" : "obj-47",
									"maxclass" : "message",
									"numinlets" : 2,
									"numoutlets" : 1,
									"outlettype" : [ "" ],
									"patching_rect" : [ 885.333313, 226.0, 85.0, 22.0 ],
									"style" : "",
									"text" : "driftingSquare"
								}

							}
, 							{
								"box" : 								{
									"fontname" : "Arial",
									"fontsize" : 12.0,
									"id" : "obj-37",
									"maxclass" : "message",
									"numinlets" : 2,
									"numoutlets" : 1,
									"outlettype" : [ "" ],
									"patching_rect" : [ 953.0, 105.0, 92.0, 22.0 ],
									"style" : "",
									"text" : "fastShiftingStar"
								}

							}
, 							{
								"box" : 								{
									"id" : "obj-43",
									"maxclass" : "message",
									"numinlets" : 2,
									"numoutlets" : 1,
									"outlettype" : [ "" ],
									"patching_rect" : [ 706.5, 144.0, 46.0, 22.0 ],
									"style" : "",
									"text" : "insane"
								}

							}
, 							{
								"box" : 								{
									"id" : "obj-40",
									"maxclass" : "newobj",
									"numinlets" : 2,
									"numoutlets" : 2,
									"outlettype" : [ "int", "bang" ],
									"patching_rect" : [ 527.5, 65.0, 38.0, 22.0 ],
									"style" : "",
									"text" : "urn 3"
								}

							}
, 							{
								"box" : 								{
									"fontname" : "Arial",
									"fontsize" : 12.0,
									"id" : "obj-39",
									"maxclass" : "message",
									"numinlets" : 2,
									"numoutlets" : 1,
									"outlettype" : [ "" ],
									"patching_rect" : [ 555.5, 152.5, 85.0, 22.0 ],
									"style" : "",
									"text" : "fullRangeINDI"
								}

							}
, 							{
								"box" : 								{
									"id" : "obj-38",
									"maxclass" : "button",
									"numinlets" : 1,
									"numoutlets" : 1,
									"outlettype" : [ "bang" ],
									"patching_rect" : [ 527.5, 34.5, 24.0, 24.0 ],
									"style" : ""
								}

							}
, 							{
								"box" : 								{
									"id" : "obj-36",
									"maxclass" : "newobj",
									"numinlets" : 1,
									"numoutlets" : 1,
									"outlettype" : [ "bang" ],
									"patching_rect" : [ 616.5, 41.0, 24.0, 22.0 ],
									"style" : "",
									"text" : "t b"
								}

							}
, 							{
								"box" : 								{
									"id" : "obj-26",
									"maxclass" : "newobj",
									"numinlets" : 13,
									"numoutlets" : 13,
									"outlettype" : [ "bang", "bang", "bang", "bang", "bang", "bang", "bang", "bang", "bang", "bang", "bang", "bang", "" ],
									"patching_rect" : [ 527.5, 93.0, 174.0, 22.0 ],
									"style" : "",
									"text" : "select 0 1 2 3 4 5 6 7 8 9 10 11"
								}

							}
, 							{
								"box" : 								{
									"id" : "obj-24",
									"maxclass" : "newobj",
									"numinlets" : 1,
									"numoutlets" : 2,
									"outlettype" : [ "", "" ],
									"patching_rect" : [ 616.5, 13.0, 125.0, 22.0 ],
									"style" : "",
									"text" : "nav.rand.module time"
								}

							}
, 							{
								"box" : 								{
									"fontname" : "Arial",
									"fontsize" : 12.0,
									"id" : "obj-35",
									"maxclass" : "message",
									"numinlets" : 2,
									"numoutlets" : 1,
									"outlettype" : [ "" ],
									"patching_rect" : [ 757.0, 144.0, 66.0, 22.0 ],
									"style" : "",
									"text" : "theClassic"
								}

							}
, 							{
								"box" : 								{
									"fontname" : "Arial",
									"fontsize" : 12.0,
									"id" : "obj-34",
									"maxclass" : "message",
									"numinlets" : 2,
									"numoutlets" : 1,
									"outlettype" : [ "" ],
									"patching_rect" : [ 706.5, 180.0, 78.0, 22.0 ],
									"style" : "",
									"text" : "perfectCircle"
								}

							}
, 							{
								"box" : 								{
									"fontname" : "Arial",
									"fontsize" : 12.0,
									"id" : "obj-33",
									"maxclass" : "message",
									"numinlets" : 2,
									"numoutlets" : 1,
									"outlettype" : [ "" ],
									"patching_rect" : [ 917.0, 180.0, 75.0, 22.0 ],
									"style" : "",
									"text" : "cornerGlitch"
								}

							}
, 							{
								"box" : 								{
									"fontname" : "Arial",
									"fontsize" : 12.0,
									"id" : "obj-32",
									"maxclass" : "message",
									"numinlets" : 2,
									"numoutlets" : 1,
									"outlettype" : [ "" ],
									"patching_rect" : [ 577.0, 226.0, 52.0, 22.0 ],
									"style" : "",
									"text" : "dimStar"
								}

							}
, 							{
								"box" : 								{
									"fontname" : "Arial",
									"fontsize" : 12.0,
									"id" : "obj-31",
									"maxclass" : "message",
									"numinlets" : 2,
									"numoutlets" : 1,
									"outlettype" : [ "" ],
									"patching_rect" : [ 674.5, 156.0, 29.5, 22.0 ],
									"style" : "",
									"text" : "line"
								}

							}
, 							{
								"box" : 								{
									"fontname" : "Arial",
									"fontsize" : 12.0,
									"id" : "obj-30",
									"maxclass" : "message",
									"numinlets" : 2,
									"numoutlets" : 1,
									"outlettype" : [ "" ],
									"patching_rect" : [ 868.666687, 132.0, 64.0, 22.0 ],
									"style" : "",
									"text" : "LR-schiz0"
								}

							}
, 							{
								"box" : 								{
									"fontname" : "Arial",
									"fontsize" : 12.0,
									"id" : "obj-29",
									"maxclass" : "message",
									"numinlets" : 2,
									"numoutlets" : 1,
									"outlettype" : [ "" ],
									"patching_rect" : [ 599.0, 181.0, 63.0, 22.0 ],
									"style" : "",
									"text" : "brightStar"
								}

							}
, 							{
								"box" : 								{
									"fontname" : "Arial",
									"fontsize" : 12.0,
									"id" : "obj-28",
									"maxclass" : "message",
									"numinlets" : 2,
									"numoutlets" : 1,
									"outlettype" : [ "" ],
									"patching_rect" : [ 795.333313, 190.0, 62.0, 22.0 ],
									"style" : "",
									"text" : "dimWorm"
								}

							}
, 							{
								"box" : 								{
									"fontface" : 0,
									"fontname" : "Arial",
									"fontsize" : 12.0,
									"id" : "obj-25",
									"maxclass" : "newobj",
									"numinlets" : 1,
									"numoutlets" : 1,
									"outlettype" : [ "" ],
									"patching_rect" : [ 332.0, 334.5, 184.0, 22.0 ],
									"style" : "",
									"text" : "j.send /cue_manager_help/recall"
								}

							}
, 							{
								"box" : 								{
									"id" : "obj-21",
									"maxclass" : "newobj",
									"numinlets" : 0,
									"numoutlets" : 0,
									"patcher" : 									{
										"fileversion" : 1,
										"appversion" : 										{
											"major" : 7,
											"minor" : 3,
											"revision" : 4,
											"architecture" : "x86",
											"modernui" : 1
										}
,
										"rect" : [ 59.0, 104.0, 640.0, 480.0 ],
										"bglocked" : 0,
										"openinpresentation" : 0,
										"default_fontsize" : 12.0,
										"default_fontface" : 0,
										"default_fontname" : "Arial",
										"gridonopen" : 1,
										"gridsize" : [ 15.0, 15.0 ],
										"gridsnaponopen" : 1,
										"objectsnaponopen" : 1,
										"statusbarvisible" : 2,
										"toolbarvisible" : 1,
										"lefttoolbarpinned" : 0,
										"toptoolbarpinned" : 0,
										"righttoolbarpinned" : 0,
										"bottomtoolbarpinned" : 0,
										"toolbars_unpinned_last_save" : 0,
										"tallnewobj" : 0,
										"boxanimatetime" : 200,
										"enablehscroll" : 1,
										"enablevscroll" : 1,
										"devicewidth" : 0.0,
										"description" : "",
										"digest" : "",
										"tags" : "",
										"style" : "",
										"subpatcher_template" : "",
										"boxes" : [ 											{
												"box" : 												{
													"fontname" : "Arial",
													"fontsize" : 12.0,
													"id" : "obj-16",
													"maxclass" : "message",
													"numinlets" : 2,
													"numoutlets" : 1,
													"outlettype" : [ "" ],
													"patching_rect" : [ 100.0, 265.0, 90.0, 22.0 ],
													"style" : "",
													"text" : "\"black & white\""
												}

											}
, 											{
												"box" : 												{
													"fontface" : 0,
													"fontname" : "Arial",
													"fontsize" : 12.0,
													"id" : "obj-13",
													"maxclass" : "newobj",
													"numinlets" : 1,
													"numoutlets" : 1,
													"outlettype" : [ "" ],
													"patching_rect" : [ 100.0, 289.0, 184.0, 22.0 ],
													"style" : "",
													"text" : "j.send /cue_manager_help/recall"
												}

											}
, 											{
												"box" : 												{
													"fontface" : 0,
													"fontname" : "Arial",
													"fontsize" : 12.0,
													"id" : "obj-12",
													"maxclass" : "newobj",
													"numinlets" : 1,
													"numoutlets" : 3,
													"outlettype" : [ "", "", "" ],
													"patching_rect" : [ 100.0, 238.0, 223.0, 22.0 ],
													"style" : "",
													"text" : "j.receive /cue_manager_help/read/done"
												}

											}
, 											{
												"box" : 												{
													"fontface" : 0,
													"fontname" : "Arial",
													"fontsize" : 12.0,
													"id" : "obj-11",
													"maxclass" : "newobj",
													"numinlets" : 1,
													"numoutlets" : 1,
													"outlettype" : [ "" ],
													"patching_rect" : [ 100.0, 209.714294, 197.0, 22.0 ],
													"style" : "",
													"text" : "j.send /cue_manager_help/file/path"
												}

											}
, 											{
												"box" : 												{
													"fontname" : "Arial",
													"fontsize" : 12.0,
													"id" : "obj-6",
													"linecount" : 2,
													"maxclass" : "newobj",
													"numinlets" : 2,
													"numoutlets" : 2,
													"outlettype" : [ "", "" ],
													"patching_rect" : [ 100.0, 172.914276, 104.0, 35.0 ],
													"style" : "",
													"text" : "combine PATH example.cues.txt"
												}

											}
, 											{
												"box" : 												{
													"fontface" : 0,
													"fontname" : "Arial",
													"fontsize" : 12.0,
													"id" : "obj-10",
													"maxclass" : "newobj",
													"numinlets" : 0,
													"numoutlets" : 1,
													"outlettype" : [ "" ],
													"patching_rect" : [ 50.0, 87.0, 199.0, 22.0 ],
													"style" : "",
													"text" : "j.initialized /cue_manager_help 400"
												}

											}
, 											{
												"box" : 												{
													"fontname" : "Arial",
													"fontsize" : 12.0,
													"id" : "obj-8",
													"maxclass" : "message",
													"numinlets" : 2,
													"numoutlets" : 1,
													"outlettype" : [ "" ],
													"patching_rect" : [ 50.0, 124.914307, 34.0, 22.0 ],
													"style" : "",
													"text" : "path"
												}

											}
, 											{
												"box" : 												{
													"fontname" : "Arial",
													"fontsize" : 12.0,
													"id" : "obj-2",
													"maxclass" : "newobj",
													"numinlets" : 1,
													"numoutlets" : 2,
													"outlettype" : [ "", "" ],
													"patching_rect" : [ 50.0, 148.0, 69.0, 22.0 ],
													"save" : [ "#N", "thispatcher", ";", "#Q", "end", ";" ],
													"style" : "",
													"text" : "thispatcher"
												}

											}
 ],
										"lines" : [ 											{
												"patchline" : 												{
													"destination" : [ "obj-16", 0 ],
													"source" : [ "obj-12", 0 ]
												}

											}
, 											{
												"patchline" : 												{
													"destination" : [ "obj-13", 0 ],
													"source" : [ "obj-16", 0 ]
												}

											}
, 											{
												"patchline" : 												{
													"destination" : [ "obj-6", 0 ],
													"source" : [ "obj-2", 1 ]
												}

											}
, 											{
												"patchline" : 												{
													"destination" : [ "obj-11", 0 ],
													"source" : [ "obj-6", 0 ]
												}

											}
, 											{
												"patchline" : 												{
													"destination" : [ "obj-2", 0 ],
													"source" : [ "obj-8", 0 ]
												}

											}
 ]
									}
,
									"patching_rect" : [ 240.285767, 2.0, 36.0, 22.0 ],
									"saved_object_attributes" : 									{
										"description" : "",
										"digest" : "",
										"globalpatchername" : "",
										"style" : "",
										"tags" : ""
									}
,
									"style" : "",
									"text" : "p init"
								}

							}
, 							{
								"box" : 								{
									"annotation" : "none",
									"id" : "obj-22",
									"maxclass" : "newobj",
									"numinlets" : 1,
									"numoutlets" : 1,
									"outlettype" : [ "" ],
									"patching_rect" : [ 4.285767, 2.0, 234.0, 22.0 ],
									"style" : "",
									"text" : "cue_manager.model cue_manager_help"
								}

							}
, 							{
								"box" : 								{
									"annotation" : "none",
									"args" : [ "cue_manager_help" ],
									"bgcolor" : [ 0.937255, 0.937255, 0.937255, 0.0 ],
									"bgmode" : 0,
									"border" : 1,
									"clickthrough" : 0,
									"enablehscroll" : 0,
									"enablevscroll" : 0,
									"id" : "obj-23",
									"lockeddragscroll" : 0,
									"maxclass" : "bpatcher",
									"name" : "cue_manager.view.maxpat",
									"numinlets" : 0,
									"numoutlets" : 0,
									"offset" : [ 0.0, 0.0 ],
									"patching_rect" : [ 4.285767, 26.0, 300.0, 175.0 ],
									"presentation_rect" : [ 0.0, 0.0, 300.0, 175.0 ],
									"viewvisibility" : 1
								}

							}
 ],
						"lines" : [ 							{
								"patchline" : 								{
									"destination" : [ "obj-36", 0 ],
									"order" : 1,
									"source" : [ "obj-24", 0 ]
								}

							}
, 							{
								"patchline" : 								{
									"destination" : [ "obj-74", 1 ],
									"order" : 0,
									"source" : [ "obj-24", 0 ]
								}

							}
, 							{
								"patchline" : 								{
									"destination" : [ "obj-65", 0 ],
									"source" : [ "obj-26", 0 ]
								}

							}
, 							{
								"patchline" : 								{
									"destination" : [ "obj-66", 0 ],
									"source" : [ "obj-26", 1 ]
								}

							}
, 							{
								"patchline" : 								{
									"destination" : [ "obj-69", 0 ],
									"source" : [ "obj-26", 2 ]
								}

							}
, 							{
								"patchline" : 								{
									"destination" : [ "obj-25", 0 ],
									"source" : [ "obj-28", 0 ]
								}

							}
, 							{
								"patchline" : 								{
									"destination" : [ "obj-25", 0 ],
									"source" : [ "obj-29", 0 ]
								}

							}
, 							{
								"patchline" : 								{
									"destination" : [ "obj-25", 0 ],
									"source" : [ "obj-30", 0 ]
								}

							}
, 							{
								"patchline" : 								{
									"destination" : [ "obj-25", 0 ],
									"source" : [ "obj-31", 0 ]
								}

							}
, 							{
								"patchline" : 								{
									"destination" : [ "obj-25", 0 ],
									"source" : [ "obj-32", 0 ]
								}

							}
, 							{
								"patchline" : 								{
									"destination" : [ "obj-25", 0 ],
									"source" : [ "obj-33", 0 ]
								}

							}
, 							{
								"patchline" : 								{
									"destination" : [ "obj-25", 0 ],
									"source" : [ "obj-34", 0 ]
								}

							}
, 							{
								"patchline" : 								{
									"destination" : [ "obj-25", 0 ],
									"source" : [ "obj-35", 0 ]
								}

							}
, 							{
								"patchline" : 								{
									"destination" : [ "obj-38", 0 ],
									"source" : [ "obj-36", 0 ]
								}

							}
, 							{
								"patchline" : 								{
									"destination" : [ "obj-25", 0 ],
									"source" : [ "obj-37", 0 ]
								}

							}
, 							{
								"patchline" : 								{
									"destination" : [ "obj-40", 0 ],
									"source" : [ "obj-38", 0 ]
								}

							}
, 							{
								"patchline" : 								{
									"destination" : [ "obj-25", 0 ],
									"source" : [ "obj-39", 0 ]
								}

							}
, 							{
								"patchline" : 								{
									"destination" : [ "obj-26", 0 ],
									"source" : [ "obj-40", 0 ]
								}

							}
, 							{
								"patchline" : 								{
									"destination" : [ "obj-72", 0 ],
									"source" : [ "obj-40", 1 ]
								}

							}
, 							{
								"patchline" : 								{
									"destination" : [ "obj-25", 0 ],
									"source" : [ "obj-43", 0 ]
								}

							}
, 							{
								"patchline" : 								{
									"destination" : [ "obj-25", 0 ],
									"source" : [ "obj-47", 0 ]
								}

							}
, 							{
								"patchline" : 								{
									"destination" : [ "obj-25", 0 ],
									"source" : [ "obj-48", 0 ]
								}

							}
, 							{
								"patchline" : 								{
									"destination" : [ "obj-25", 0 ],
									"source" : [ "obj-65", 0 ]
								}

							}
, 							{
								"patchline" : 								{
									"destination" : [ "obj-25", 0 ],
									"source" : [ "obj-66", 0 ]
								}

							}
, 							{
								"patchline" : 								{
									"destination" : [ "obj-25", 0 ],
									"source" : [ "obj-67", 0 ]
								}

							}
, 							{
								"patchline" : 								{
									"destination" : [ "obj-25", 0 ],
									"source" : [ "obj-69", 0 ]
								}

							}
, 							{
								"patchline" : 								{
									"destination" : [ "obj-38", 0 ],
									"order" : 1,
									"source" : [ "obj-72", 0 ]
								}

							}
, 							{
								"patchline" : 								{
									"destination" : [ "obj-40", 0 ],
									"order" : 0,
									"source" : [ "obj-72", 0 ]
								}

							}
 ]
					}
,
					"patching_rect" : [ 79.785706, 21.0, 63.0, 22.0 ],
					"saved_object_attributes" : 					{
						"description" : "",
						"digest" : "",
						"globalpatchername" : "",
						"style" : "",
						"tags" : ""
					}
,
					"style" : "",
					"text" : "p STATEs"
				}

			}
 ],
		"lines" : [ 			{
				"patchline" : 				{
					"destination" : [ "obj-37", 2 ],
					"source" : [ "obj-60", 2 ]
				}

			}
, 			{
				"patchline" : 				{
					"destination" : [ "obj-37", 1 ],
					"source" : [ "obj-60", 1 ]
				}

			}
, 			{
				"patchline" : 				{
					"destination" : [ "obj-37", 0 ],
					"source" : [ "obj-60", 0 ]
				}

			}
 ],
		"dependency_cache" : [ 			{
				"name" : "cue_manager.view.maxpat",
				"bootpath" : "~/Documents/Max 7/Packages/Jamoma/patchers/models/data/cue_manager",
				"patcherrelativepath" : "../../../../../Documents/Max 7/Packages/Jamoma/patchers/models/data/cue_manager",
				"type" : "JSON",
				"implicit" : 1
			}
, 			{
				"name" : "thru.maxpat",
				"bootpath" : "C74:/patchers/m4l/Pluggo for Live resources/patches",
				"type" : "JSON",
				"implicit" : 1
			}
, 			{
				"name" : "j.datetime.maxpat",
				"bootpath" : "~/Documents/Max 7/Packages/Jamoma/patchers/components/data/datetime",
				"patcherrelativepath" : "../../../../../Documents/Max 7/Packages/Jamoma/patchers/components/data/datetime",
				"type" : "JSON",
				"implicit" : 1
			}
, 			{
				"name" : "j.namespace_selector.maxpat",
				"bootpath" : "~/Documents/Max 7/Packages/Jamoma/patchers/components/namespace/namespace_selector",
				"patcherrelativepath" : "../../../../../Documents/Max 7/Packages/Jamoma/patchers/components/namespace/namespace_selector",
				"type" : "JSON",
				"implicit" : 1
			}
, 			{
				"name" : "cue_manager.model.maxpat",
				"bootpath" : "~/Documents/Max 7/Packages/Jamoma/patchers/models/data/cue_manager",
				"patcherrelativepath" : "../../../../../Documents/Max 7/Packages/Jamoma/patchers/models/data/cue_manager",
				"type" : "JSON",
				"implicit" : 1
			}
, 			{
				"name" : "j.initialized.maxpat",
				"bootpath" : "~/Documents/Max 7/Packages/Jamoma/patchers/components/data/initialized",
				"patcherrelativepath" : "../../../../../Documents/Max 7/Packages/Jamoma/patchers/components/data/initialized",
				"type" : "JSON",
				"implicit" : 1
			}
, 			{
				"name" : "nav.rand.module.maxpat",
				"bootpath" : "~/code/Nav/Jamoma-v1/j.nav.rand",
				"patcherrelativepath" : "../../../Jamoma-v1/j.nav.rand",
				"type" : "JSON",
				"implicit" : 1
			}
, 			{
				"name" : "nav.rand.model.maxpat",
				"bootpath" : "~/code/Nav/Jamoma-v1/j.nav.rand",
				"patcherrelativepath" : "../../../Jamoma-v1/j.nav.rand",
				"type" : "JSON",
				"implicit" : 1
			}
, 			{
				"name" : "j.absdiff.maxpat",
				"bootpath" : "~/Documents/Max 7/Packages/Jamoma/patchers/components/data/absdiff",
				"patcherrelativepath" : "../../../../../Documents/Max 7/Packages/Jamoma/patchers/components/data/absdiff",
				"type" : "JSON",
				"implicit" : 1
			}
, 			{
				"name" : "nav.rand.view.maxpat",
				"bootpath" : "~/code/Nav/Jamoma-v1/j.nav.rand",
				"patcherrelativepath" : "../../../Jamoma-v1/j.nav.rand",
				"type" : "JSON",
				"implicit" : 1
			}
, 			{
				"name" : "j.receive.mxo",
				"type" : "iLaX"
			}
, 			{
				"name" : "j.ui.mxo",
				"type" : "iLaX"
			}
, 			{
				"name" : "j.view.mxo",
				"type" : "iLaX"
			}
, 			{
				"name" : "j.send.mxo",
				"type" : "iLaX"
			}
, 			{
				"name" : "j.remote.mxo",
				"type" : "iLaX"
			}
, 			{
				"name" : "j.namespace.mxo",
				"type" : "iLaX"
			}
, 			{
				"name" : "j.cue.mxo",
				"type" : "iLaX"
			}
, 			{
				"name" : "j.init.mxo",
				"type" : "iLaX"
			}
, 			{
				"name" : "j.model.mxo",
				"type" : "iLaX"
			}
, 			{
				"name" : "j.message.mxo",
				"type" : "iLaX"
			}
, 			{
				"name" : "j.return.mxo",
				"type" : "iLaX"
			}
, 			{
				"name" : "j.parameter.mxo",
				"type" : "iLaX"
			}
, 			{
				"name" : "j.out.mxo",
				"type" : "iLaX"
			}
 ],
		"autosave" : 0
	}

}
