{
	"patcher" : 	{
		"fileversion" : 1,
		"appversion" : 		{
			"major" : 6,
			"minor" : 1,
			"revision" : 9,
			"architecture" : "x86"
		}
,
		"rect" : [ 144.0, 44.0, 1587.0, 732.0 ],
		"bglocked" : 0,
		"openinpresentation" : 1,
		"default_fontsize" : 12.0,
		"default_fontface" : 0,
		"default_fontname" : "Arial",
		"gridonopen" : 0,
		"gridsize" : [ 15.0, 15.0 ],
		"gridsnaponopen" : 0,
		"statusbarvisible" : 2,
		"toolbarvisible" : 0,
		"boxanimatetime" : 200,
		"imprint" : 0,
		"enablehscroll" : 1,
		"enablevscroll" : 1,
		"devicewidth" : 0.0,
		"description" : "",
		"digest" : "",
		"tags" : "",
		"boxes" : [ 			{
				"box" : 				{
					"floatoutput" : 1,
					"id" : "obj-6",
					"maxclass" : "slider",
					"numinlets" : 1,
					"numoutlets" : 1,
					"outlettype" : [ "" ],
					"parameter_enable" : 0,
					"patching_rect" : [ 1445.0, 704.0, 189.0, 31.0 ],
					"presentation" : 1,
					"presentation_rect" : [ 1267.0, 434.0, 308.0, 31.0 ],
					"size" : 1.0
				}

			}
, 			{
				"box" : 				{
					"attr" : "xfade",
					"fontname" : "Arial",
					"fontsize" : 13.0,
					"id" : "obj-9",
					"maxclass" : "attrui",
					"numinlets" : 1,
					"numoutlets" : 1,
					"outlettype" : [ "" ],
					"patching_rect" : [ 1445.0, 742.0, 109.0, 21.0 ],
					"presentation" : 1,
					"presentation_rect" : [ 1466.0, 413.0, 109.0, 21.0 ],
					"text_width" : 62.0
				}

			}
, 			{
				"box" : 				{
					"args" : [ "slide%5" ],
					"id" : "obj-60",
					"maxclass" : "bpatcher",
					"name" : "jmod.nav.slide%.maxpat",
					"numinlets" : 2,
					"numoutlets" : 2,
					"outlettype" : [ "", "" ],
					"patching_rect" : [ 1500.0, 200.0, 150.0, 105.0 ],
					"presentation" : 1,
					"presentation_rect" : [ 1267.0, 176.0, 150.0, 105.0 ],
					"varname" : "jmod.nav.slide%[5]"
				}

			}
, 			{
				"box" : 				{
					"args" : [ "delayMix2" ],
					"id" : "obj-20",
					"maxclass" : "bpatcher",
					"name" : "jmod.nav.delay%.maxpat",
					"numinlets" : 2,
					"numoutlets" : 2,
					"outlettype" : [ "", "" ],
					"patching_rect" : [ 668.0, 519.938782, 150.0, 105.0 ],
					"presentation" : 1,
					"presentation_rect" : [ 639.0, 434.0, 150.0, 105.0 ]
				}

			}
, 			{
				"box" : 				{
					"args" : [ "delayMix1" ],
					"id" : "obj-18",
					"maxclass" : "bpatcher",
					"name" : "jmod.nav.delay%.maxpat",
					"numinlets" : 2,
					"numoutlets" : 2,
					"outlettype" : [ "", "" ],
					"patching_rect" : [ 488.0, 519.938782, 150.0, 105.0 ],
					"presentation" : 1,
					"presentation_rect" : [ 402.0, 434.0, 150.0, 105.0 ]
				}

			}
, 			{
				"box" : 				{
					"args" : [ "/brcosa-sketch" ],
					"id" : "obj-8",
					"lockeddragscroll" : 1,
					"maxclass" : "bpatcher",
					"name" : "jmod.brcosa%.maxpat",
					"numinlets" : 2,
					"numoutlets" : 2,
					"outlettype" : [ "", "" ],
					"patching_rect" : [ 1350.0, 442.5, 300.0, 70.0 ],
					"presentation" : 1,
					"presentation_rect" : [ 1267.0, 262.0, 300.0, 70.0 ],
					"varname" : "/brcosa%[1]"
				}

			}
, 			{
				"box" : 				{
					"bgmode" : 1,
					"id" : "obj-37",
					"maxclass" : "bpatcher",
					"name" : "vz.2toner.maxpat",
					"numinlets" : 7,
					"numoutlets" : 1,
					"outlettype" : [ "jit_matrix" ],
					"patching_rect" : [ 1370.0, 550.0, 260.0, 154.0 ],
					"presentation" : 1,
					"presentation_rect" : [ 1267.0, 308.0, 260.0, 154.0 ],
					"prototypename" : "pixl",
					"varname" : "vz.2toner[1]"
				}

			}
, 			{
				"box" : 				{
					"args" : [ "slide%4" ],
					"id" : "obj-58",
					"maxclass" : "bpatcher",
					"name" : "jmod.nav.slide%.maxpat",
					"numinlets" : 2,
					"numoutlets" : 2,
					"outlettype" : [ "", "" ],
					"patching_rect" : [ 1144.0, 681.0, 150.0, 105.0 ],
					"presentation" : 1,
					"presentation_rect" : [ 953.0, 424.5, 150.0, 105.0 ],
					"varname" : "jmod.nav.slide%[3]"
				}

			}
, 			{
				"box" : 				{
					"bgmode" : 1,
					"id" : "obj-33",
					"maxclass" : "bpatcher",
					"name" : "vz.2toner.maxpat",
					"numinlets" : 7,
					"numoutlets" : 1,
					"outlettype" : [ "jit_matrix" ],
					"patching_rect" : [ 1050.0, 520.0, 260.0, 154.0 ],
					"presentation" : 1,
					"presentation_rect" : [ 953.0, 310.0, 260.0, 154.0 ],
					"prototypename" : "pixl",
					"varname" : "vz.2toner"
				}

			}
, 			{
				"box" : 				{
					"bgmode" : 1,
					"id" : "obj-10",
					"maxclass" : "bpatcher",
					"name" : "vz.feedr.maxpat",
					"numinlets" : 4,
					"numoutlets" : 1,
					"outlettype" : [ "jit_matrix" ],
					"patching_rect" : [ 1050.0, 374.0, 250.0, 154.0 ],
					"presentation" : 1,
					"presentation_rect" : [ 953.0, 183.0, 250.0, 154.0 ],
					"prototypename" : "pixl",
					"varname" : "vz.feedr"
				}

			}
, 			{
				"box" : 				{
					"args" : [ "delay4" ],
					"id" : "obj-14",
					"maxclass" : "bpatcher",
					"name" : "jmod.nav.delay%.maxpat",
					"numinlets" : 2,
					"numoutlets" : 2,
					"outlettype" : [ "", "" ],
					"patching_rect" : [ 1150.0, 94.0, 150.0, 105.0 ],
					"presentation" : 1,
					"presentation_rect" : [ 953.0, 5.0, 150.0, 105.0 ]
				}

			}
, 			{
				"box" : 				{
					"args" : [ "delay3" ],
					"id" : "obj-5",
					"maxclass" : "bpatcher",
					"name" : "jmod.nav.delay%.maxpat",
					"numinlets" : 2,
					"numoutlets" : 2,
					"outlettype" : [ "", "" ],
					"patching_rect" : [ 730.0, 32.0, 150.0, 105.0 ],
					"presentation" : 1,
					"presentation_rect" : [ 625.0, 5.0, 150.0, 105.0 ]
				}

			}
, 			{
				"box" : 				{
					"args" : [ "delay2" ],
					"id" : "obj-2",
					"maxclass" : "bpatcher",
					"name" : "jmod.nav.delay%.maxpat",
					"numinlets" : 2,
					"numoutlets" : 2,
					"outlettype" : [ "", "" ],
					"patching_rect" : [ 473.0, 40.0, 150.0, 105.0 ],
					"presentation" : 1,
					"presentation_rect" : [ 313.0, 5.0, 150.0, 105.0 ]
				}

			}
, 			{
				"box" : 				{
					"args" : [ "delay1" ],
					"id" : "obj-1",
					"maxclass" : "bpatcher",
					"name" : "jmod.nav.delay%.maxpat",
					"numinlets" : 2,
					"numoutlets" : 2,
					"outlettype" : [ "", "" ],
					"patching_rect" : [ 155.0, 32.0, 150.0, 105.0 ],
					"presentation" : 1,
					"presentation_rect" : [ 5.0, 40.0, 150.0, 105.0 ]
				}

			}
, 			{
				"box" : 				{
					"args" : [ "slide%6" ],
					"id" : "obj-59",
					"maxclass" : "bpatcher",
					"name" : "jmod.nav.slide%.maxpat",
					"numinlets" : 2,
					"numoutlets" : 2,
					"outlettype" : [ "", "" ],
					"patching_rect" : [ 818.0, 519.938782, 150.0, 105.0 ],
					"presentation" : 1,
					"presentation_rect" : [ 789.0, 434.0, 150.0, 105.0 ],
					"varname" : "jmod.nav.slide%[4]"
				}

			}
, 			{
				"box" : 				{
					"args" : [ "slide%3" ],
					"id" : "obj-55",
					"maxclass" : "bpatcher",
					"name" : "jmod.nav.slide%.maxpat",
					"numinlets" : 2,
					"numoutlets" : 2,
					"outlettype" : [ "", "" ],
					"patching_rect" : [ 730.0, 137.0, 150.0, 105.0 ],
					"presentation" : 1,
					"presentation_rect" : [ 775.0, 5.0, 150.0, 105.0 ],
					"varname" : "jmod.nav.slide%[2]"
				}

			}
, 			{
				"box" : 				{
					"args" : [ "slide%2" ],
					"id" : "obj-54",
					"maxclass" : "bpatcher",
					"name" : "jmod.nav.slide%.maxpat",
					"numinlets" : 2,
					"numoutlets" : 2,
					"outlettype" : [ "", "" ],
					"patching_rect" : [ 473.0, 148.0, 150.0, 105.0 ],
					"presentation" : 1,
					"presentation_rect" : [ 463.0, 5.0, 150.0, 105.0 ],
					"varname" : "jmod.nav.slide%[1]"
				}

			}
, 			{
				"box" : 				{
					"args" : [ "slide%1" ],
					"id" : "obj-49",
					"lockeddragscroll" : 1,
					"maxclass" : "bpatcher",
					"name" : "jmod.nav.slide%.maxpat",
					"numinlets" : 2,
					"numoutlets" : 2,
					"outlettype" : [ "", "" ],
					"patching_rect" : [ 155.0, 259.0, 150.0, 105.0 ],
					"presentation" : 1,
					"presentation_rect" : [ 155.0, 40.0, 150.0, 105.0 ],
					"varname" : "jmod.nav.slide%"
				}

			}
, 			{
				"box" : 				{
					"fontname" : "Verdana",
					"fontsize" : 10.0,
					"id" : "obj-47",
					"maxclass" : "newobj",
					"numinlets" : 1,
					"numoutlets" : 1,
					"outlettype" : [ "jit_matrix" ],
					"patcher" : 					{
						"fileversion" : 1,
						"appversion" : 						{
							"major" : 6,
							"minor" : 1,
							"revision" : 9,
							"architecture" : "x86"
						}
,
						"rect" : [ 155.0, 44.0, 790.0, 477.0 ],
						"bglocked" : 0,
						"openinpresentation" : 0,
						"default_fontsize" : 12.0,
						"default_fontface" : 0,
						"default_fontname" : "Arial",
						"gridonopen" : 0,
						"gridsize" : [ 15.0, 15.0 ],
						"gridsnaponopen" : 0,
						"statusbarvisible" : 2,
						"toolbarvisible" : 1,
						"boxanimatetime" : 200,
						"imprint" : 0,
						"enablehscroll" : 1,
						"enablevscroll" : 1,
						"devicewidth" : 0.0,
						"description" : "",
						"digest" : "",
						"tags" : "",
						"boxes" : [ 							{
								"box" : 								{
									"id" : "obj-19",
									"maxclass" : "jit.pwindow",
									"numinlets" : 1,
									"numoutlets" : 2,
									"outlettype" : [ "", "" ],
									"patching_rect" : [ 313.0, 307.0, 320.0, 240.0 ]
								}

							}
, 							{
								"box" : 								{
									"fontname" : "Arial",
									"fontsize" : 12.0,
									"frgb" : 0.0,
									"id" : "obj-9",
									"linecount" : 2,
									"maxclass" : "comment",
									"numinlets" : 1,
									"numoutlets" : 0,
									"patching_rect" : [ 509.0, 243.0, 154.0, 33.0 ],
									"text" : "mode 3 needs an external mapping matrix, "
								}

							}
, 							{
								"box" : 								{
									"fontname" : "Arial",
									"fontsize" : 12.0,
									"id" : "obj-12",
									"maxclass" : "message",
									"numinlets" : 2,
									"numoutlets" : 1,
									"outlettype" : [ "" ],
									"patching_rect" : [ 131.0, 249.0, 113.0, 18.0 ],
									"text" : "dim 640 480"
								}

							}
, 							{
								"box" : 								{
									"fontname" : "Arial",
									"fontsize" : 12.0,
									"id" : "obj-10",
									"maxclass" : "newobj",
									"numinlets" : 1,
									"numoutlets" : 1,
									"outlettype" : [ "" ],
									"patching_rect" : [ 193.0, 157.0, 77.0, 20.0 ],
									"text" : "prepend dim"
								}

							}
, 							{
								"box" : 								{
									"fontname" : "Arial",
									"fontsize" : 12.0,
									"id" : "obj-6",
									"maxclass" : "newobj",
									"numinlets" : 2,
									"numoutlets" : 2,
									"outlettype" : [ "", "" ],
									"patching_rect" : [ 194.0, 122.0, 62.0, 20.0 ],
									"text" : "zl change"
								}

							}
, 							{
								"box" : 								{
									"fontname" : "Arial",
									"fontsize" : 12.0,
									"id" : "obj-4",
									"maxclass" : "newobj",
									"numinlets" : 2,
									"numoutlets" : 2,
									"outlettype" : [ "", "" ],
									"patching_rect" : [ 192.0, 103.0, 61.0, 20.0 ],
									"text" : "route dim"
								}

							}
, 							{
								"box" : 								{
									"fontname" : "Arial",
									"fontsize" : 12.0,
									"id" : "obj-3",
									"maxclass" : "newobj",
									"numinlets" : 1,
									"numoutlets" : 1,
									"outlettype" : [ "" ],
									"patching_rect" : [ 192.0, 80.0, 75.0, 20.0 ],
									"text" : "jit.matrixinfo"
								}

							}
, 							{
								"box" : 								{
									"fontname" : "Arial",
									"fontsize" : 12.0,
									"id" : "obj-7",
									"maxclass" : "number",
									"numinlets" : 1,
									"numoutlets" : 2,
									"outlettype" : [ "int", "bang" ],
									"parameter_enable" : 0,
									"patching_rect" : [ 622.0, 130.0, 50.0, 20.0 ]
								}

							}
, 							{
								"box" : 								{
									"fontname" : "Arial",
									"fontsize" : 12.0,
									"id" : "obj-5",
									"maxclass" : "newobj",
									"numinlets" : 2,
									"numoutlets" : 1,
									"outlettype" : [ "float" ],
									"patching_rect" : [ 619.0, 159.0, 41.0, 20.0 ],
									"text" : "/ 255."
								}

							}
, 							{
								"box" : 								{
									"comment" : "",
									"id" : "obj-2",
									"maxclass" : "inlet",
									"numinlets" : 0,
									"numoutlets" : 1,
									"outlettype" : [ "" ],
									"patching_rect" : [ 434.0, 32.0, 25.0, 25.0 ]
								}

							}
, 							{
								"box" : 								{
									"comment" : "",
									"id" : "obj-1",
									"maxclass" : "outlet",
									"numinlets" : 1,
									"numoutlets" : 0,
									"patching_rect" : [ 275.0, 339.0, 25.0, 25.0 ]
								}

							}
, 							{
								"box" : 								{
									"fontname" : "Arial",
									"fontsize" : 9.0,
									"id" : "obj-21",
									"maxclass" : "newobj",
									"numinlets" : 1,
									"numoutlets" : 2,
									"outlettype" : [ "jit_matrix", "" ],
									"patching_rect" : [ 437.0, 108.0, 65.0, 17.0 ],
									"text" : "jit.rgb2luma"
								}

							}
, 							{
								"box" : 								{
									"fontname" : "Arial",
									"fontsize" : 9.0,
									"id" : "obj-35",
									"maxclass" : "newobj",
									"numinlets" : 2,
									"numoutlets" : 1,
									"outlettype" : [ "float" ],
									"patching_rect" : [ 479.0, 181.0, 39.0, 17.0 ],
									"text" : "/ 255."
								}

							}
, 							{
								"box" : 								{
									"fontname" : "Arial",
									"fontsize" : 9.0,
									"id" : "obj-36",
									"maxclass" : "newobj",
									"numinlets" : 2,
									"numoutlets" : 1,
									"outlettype" : [ "float" ],
									"patching_rect" : [ 437.0, 181.0, 39.0, 17.0 ],
									"text" : "/ 255."
								}

							}
, 							{
								"box" : 								{
									"fontname" : "Arial",
									"fontsize" : 9.0,
									"id" : "obj-37",
									"maxclass" : "newobj",
									"numinlets" : 1,
									"numoutlets" : 1,
									"outlettype" : [ "bang" ],
									"patching_rect" : [ 395.0, 183.0, 20.0, 17.0 ],
									"text" : "t b"
								}

							}
, 							{
								"box" : 								{
									"fontname" : "Arial",
									"fontsize" : 9.0,
									"id" : "obj-38",
									"maxclass" : "newobj",
									"numinlets" : 5,
									"numoutlets" : 1,
									"outlettype" : [ "" ],
									"patching_rect" : [ 395.0, 204.0, 180.0, 17.0 ],
									"text" : "pack map 0. 0. 0. 0.2"
								}

							}
, 							{
								"box" : 								{
									"fontname" : "Arial",
									"fontsize" : 9.0,
									"id" : "obj-39",
									"maxclass" : "newobj",
									"numinlets" : 1,
									"numoutlets" : 2,
									"outlettype" : [ "jit_matrix", "" ],
									"patching_rect" : [ 276.0, 235.0, 41.0, 17.0 ],
									"text" : "jit.map"
								}

							}
, 							{
								"box" : 								{
									"fontname" : "Arial",
									"fontsize" : 9.0,
									"id" : "obj-40",
									"maxclass" : "newobj",
									"numinlets" : 1,
									"numoutlets" : 2,
									"outlettype" : [ "jit_matrix", "" ],
									"patching_rect" : [ 276.0, 258.0, 219.0, 17.0 ],
									"text" : "jit.matrix 1 char 320 240 @interp 1 @adapt 0"
								}

							}
, 							{
								"box" : 								{
									"fontname" : "Arial",
									"fontsize" : 9.0,
									"id" : "obj-41",
									"maxclass" : "newobj",
									"numinlets" : 1,
									"numoutlets" : 2,
									"outlettype" : [ "jit_matrix", "" ],
									"patching_rect" : [ 437.0, 134.0, 160.0, 17.0 ],
									"text" : "jit.matrix 1 char 20 20 @adapt 0"
								}

							}
, 							{
								"box" : 								{
									"fontname" : "Arial",
									"fontsize" : 9.0,
									"id" : "obj-42",
									"maxclass" : "newobj",
									"numinlets" : 1,
									"numoutlets" : 4,
									"outlettype" : [ "", "", "", "" ],
									"patching_rect" : [ 437.0, 159.0, 74.0, 17.0 ],
									"text" : "jit.3m"
								}

							}
 ],
						"lines" : [ 							{
								"patchline" : 								{
									"destination" : [ "obj-12", 1 ],
									"disabled" : 0,
									"hidden" : 0,
									"source" : [ "obj-10", 0 ]
								}

							}
, 							{
								"patchline" : 								{
									"destination" : [ "obj-40", 0 ],
									"disabled" : 0,
									"hidden" : 0,
									"source" : [ "obj-10", 0 ]
								}

							}
, 							{
								"patchline" : 								{
									"destination" : [ "obj-21", 0 ],
									"disabled" : 0,
									"hidden" : 0,
									"source" : [ "obj-2", 0 ]
								}

							}
, 							{
								"patchline" : 								{
									"destination" : [ "obj-3", 0 ],
									"disabled" : 0,
									"hidden" : 0,
									"source" : [ "obj-2", 0 ]
								}

							}
, 							{
								"patchline" : 								{
									"destination" : [ "obj-41", 0 ],
									"disabled" : 0,
									"hidden" : 0,
									"source" : [ "obj-21", 0 ]
								}

							}
, 							{
								"patchline" : 								{
									"destination" : [ "obj-4", 0 ],
									"disabled" : 0,
									"hidden" : 0,
									"source" : [ "obj-3", 0 ]
								}

							}
, 							{
								"patchline" : 								{
									"destination" : [ "obj-38", 2 ],
									"disabled" : 0,
									"hidden" : 0,
									"source" : [ "obj-35", 0 ]
								}

							}
, 							{
								"patchline" : 								{
									"destination" : [ "obj-38", 1 ],
									"disabled" : 0,
									"hidden" : 0,
									"source" : [ "obj-36", 0 ]
								}

							}
, 							{
								"patchline" : 								{
									"destination" : [ "obj-38", 0 ],
									"disabled" : 0,
									"hidden" : 0,
									"source" : [ "obj-37", 0 ]
								}

							}
, 							{
								"patchline" : 								{
									"destination" : [ "obj-39", 0 ],
									"disabled" : 0,
									"hidden" : 0,
									"midpoints" : [ 404.5, 225.0, 285.5, 225.0 ],
									"source" : [ "obj-38", 0 ]
								}

							}
, 							{
								"patchline" : 								{
									"destination" : [ "obj-40", 0 ],
									"disabled" : 0,
									"hidden" : 0,
									"source" : [ "obj-39", 0 ]
								}

							}
, 							{
								"patchline" : 								{
									"destination" : [ "obj-6", 0 ],
									"disabled" : 0,
									"hidden" : 0,
									"source" : [ "obj-4", 0 ]
								}

							}
, 							{
								"patchline" : 								{
									"destination" : [ "obj-1", 0 ],
									"disabled" : 0,
									"hidden" : 0,
									"source" : [ "obj-40", 0 ]
								}

							}
, 							{
								"patchline" : 								{
									"destination" : [ "obj-19", 0 ],
									"disabled" : 0,
									"hidden" : 0,
									"source" : [ "obj-40", 0 ]
								}

							}
, 							{
								"patchline" : 								{
									"destination" : [ "obj-39", 0 ],
									"disabled" : 0,
									"hidden" : 0,
									"midpoints" : [ 446.5, 154.0, 285.5, 154.0 ],
									"source" : [ "obj-41", 0 ]
								}

							}
, 							{
								"patchline" : 								{
									"destination" : [ "obj-42", 0 ],
									"disabled" : 0,
									"hidden" : 0,
									"source" : [ "obj-41", 0 ]
								}

							}
, 							{
								"patchline" : 								{
									"destination" : [ "obj-35", 0 ],
									"disabled" : 0,
									"hidden" : 0,
									"source" : [ "obj-42", 2 ]
								}

							}
, 							{
								"patchline" : 								{
									"destination" : [ "obj-36", 0 ],
									"disabled" : 0,
									"hidden" : 0,
									"source" : [ "obj-42", 0 ]
								}

							}
, 							{
								"patchline" : 								{
									"destination" : [ "obj-37", 0 ],
									"disabled" : 0,
									"hidden" : 0,
									"source" : [ "obj-42", 0 ]
								}

							}
, 							{
								"patchline" : 								{
									"destination" : [ "obj-38", 4 ],
									"disabled" : 0,
									"hidden" : 0,
									"source" : [ "obj-5", 0 ]
								}

							}
, 							{
								"patchline" : 								{
									"destination" : [ "obj-10", 0 ],
									"disabled" : 0,
									"hidden" : 0,
									"source" : [ "obj-6", 0 ]
								}

							}
, 							{
								"patchline" : 								{
									"destination" : [ "obj-5", 0 ],
									"disabled" : 0,
									"hidden" : 0,
									"source" : [ "obj-7", 0 ]
								}

							}
 ]
					}
,
					"patching_rect" : [ 145.5, 151.0, 90.0, 19.0 ],
					"saved_object_attributes" : 					{
						"default_fontface" : 0,
						"default_fontname" : "Arial",
						"default_fontsize" : 12.0,
						"description" : "",
						"digest" : "",
						"fontface" : 0,
						"fontname" : "Arial",
						"fontsize" : 12.0,
						"globalpatchername" : "",
						"tags" : ""
					}
,
					"text" : "p external_map"
				}

			}
, 			{
				"box" : 				{
					"args" : [ "/orsize2" ],
					"id" : "obj-46",
					"lockeddragscroll" : 1,
					"maxclass" : "bpatcher",
					"name" : "jmod.orsize%.maxpat",
					"numinlets" : 2,
					"numoutlets" : 2,
					"outlettype" : [ "", "" ],
					"patching_rect" : [ 668.0, 242.0, 300.0, 105.0 ],
					"presentation" : 1,
					"presentation_rect" : [ 625.0, 110.0, 300.0, 105.0 ],
					"varname" : "jmod.orsize%[4]"
				}

			}
, 			{
				"box" : 				{
					"args" : [ "/orsize1" ],
					"id" : "obj-45",
					"lockeddragscroll" : 1,
					"maxclass" : "bpatcher",
					"name" : "jmod.orsize%.maxpat",
					"numinlets" : 2,
					"numoutlets" : 2,
					"outlettype" : [ "", "" ],
					"patching_rect" : [ 323.0, 259.0, 300.0, 105.0 ],
					"presentation" : 1,
					"presentation_rect" : [ 313.0, 110.0, 300.0, 105.0 ],
					"varname" : "jmod.orsize%[3]"
				}

			}
, 			{
				"box" : 				{
					"attr" : "bbias",
					"fontname" : "Arial",
					"fontsize" : 13.0,
					"id" : "obj-35",
					"maxclass" : "attrui",
					"numinlets" : 1,
					"numoutlets" : 1,
					"outlettype" : [ "" ],
					"patching_rect" : [ 1144.0, 974.047485, 150.0, 21.0 ],
					"presentation" : 1,
					"presentation_rect" : [ 1093.0, 696.186951, 164.0, 21.0 ]
				}

			}
, 			{
				"box" : 				{
					"attr" : "bscale",
					"fontname" : "Arial",
					"fontsize" : 13.0,
					"id" : "obj-38",
					"maxclass" : "attrui",
					"numinlets" : 1,
					"numoutlets" : 1,
					"outlettype" : [ "" ],
					"patching_rect" : [ 1144.0, 952.625793, 150.0, 21.0 ],
					"presentation" : 1,
					"presentation_rect" : [ 1093.0, 672.373901, 164.0, 21.0 ]
				}

			}
, 			{
				"box" : 				{
					"attr" : "gbias",
					"fontname" : "Arial",
					"fontsize" : 13.0,
					"id" : "obj-40",
					"maxclass" : "attrui",
					"numinlets" : 1,
					"numoutlets" : 1,
					"outlettype" : [ "" ],
					"patching_rect" : [ 1144.0, 930.204041, 150.0, 21.0 ],
					"presentation" : 1,
					"presentation_rect" : [ 1093.0, 649.952271, 164.0, 21.0 ]
				}

			}
, 			{
				"box" : 				{
					"attr" : "gscale",
					"fontname" : "Arial",
					"fontsize" : 13.0,
					"id" : "obj-41",
					"maxclass" : "attrui",
					"numinlets" : 1,
					"numoutlets" : 1,
					"outlettype" : [ "" ],
					"patching_rect" : [ 1144.0, 908.782288, 150.0, 21.0 ],
					"presentation" : 1,
					"presentation_rect" : [ 1093.0, 628.530457, 164.0, 21.0 ]
				}

			}
, 			{
				"box" : 				{
					"attr" : "rbias",
					"fontname" : "Arial",
					"fontsize" : 13.0,
					"id" : "obj-42",
					"maxclass" : "attrui",
					"numinlets" : 1,
					"numoutlets" : 1,
					"outlettype" : [ "" ],
					"patching_rect" : [ 1144.0, 886.360535, 150.0, 21.0 ],
					"presentation" : 1,
					"presentation_rect" : [ 1093.0, 606.108704, 164.0, 21.0 ]
				}

			}
, 			{
				"box" : 				{
					"attr" : "rscale",
					"fontname" : "Arial",
					"fontsize" : 13.0,
					"id" : "obj-43",
					"maxclass" : "attrui",
					"numinlets" : 1,
					"numoutlets" : 1,
					"outlettype" : [ "" ],
					"patching_rect" : [ 1144.0, 864.938782, 150.0, 21.0 ],
					"presentation" : 1,
					"presentation_rect" : [ 1093.0, 582.686951, 164.0, 21.0 ]
				}

			}
, 			{
				"box" : 				{
					"fontname" : "Arial",
					"fontsize" : 13.0,
					"id" : "obj-48",
					"maxclass" : "newobj",
					"numinlets" : 1,
					"numoutlets" : 2,
					"outlettype" : [ "jit_matrix", "" ],
					"patching_rect" : [ 701.0, 853.0, 78.0, 21.0 ],
					"text" : "jit.scalebias"
				}

			}
, 			{
				"box" : 				{
					"args" : [ "LenkaCues" ],
					"id" : "obj-28",
					"maxclass" : "bpatcher",
					"name" : "jmod.cueManager.maxpat",
					"numinlets" : 1,
					"numoutlets" : 1,
					"outlettype" : [ "" ],
					"patching_rect" : [ 712.0, 407.0, 300.0, 70.0 ],
					"presentation" : 1,
					"presentation_rect" : [ 1267.0, 644.0, 300.0, 70.0 ]
				}

			}
, 			{
				"box" : 				{
					"args" : [ "/brcosa3" ],
					"id" : "obj-25",
					"lockeddragscroll" : 1,
					"maxclass" : "bpatcher",
					"name" : "jmod.brcosa%.maxpat",
					"numinlets" : 2,
					"numoutlets" : 2,
					"outlettype" : [ "", "" ],
					"patching_rect" : [ 668.0, 728.938782, 300.0, 70.0 ],
					"presentation" : 1,
					"presentation_rect" : [ 639.0, 644.0, 300.0, 70.0 ],
					"varname" : "/brcosa%[3]"
				}

			}
, 			{
				"box" : 				{
					"args" : [ "/brcosa2" ],
					"id" : "obj-17",
					"lockeddragscroll" : 1,
					"maxclass" : "bpatcher",
					"name" : "jmod.brcosa%.maxpat",
					"numinlets" : 2,
					"numoutlets" : 2,
					"outlettype" : [ "", "" ],
					"patching_rect" : [ 338.0, 728.0, 300.0, 70.0 ],
					"presentation" : 1,
					"presentation_rect" : [ 320.0, 644.0, 300.0, 70.0 ],
					"varname" : "/brcosa%[2]"
				}

			}
, 			{
				"box" : 				{
					"attr" : "xfade",
					"fontname" : "Arial",
					"fontsize" : 13.0,
					"id" : "obj-31",
					"maxclass" : "attrui",
					"numinlets" : 1,
					"numoutlets" : 1,
					"outlettype" : [ "" ],
					"patching_rect" : [ 1445.0, 366.0, 109.0, 21.0 ],
					"presentation" : 1,
					"presentation_rect" : [ 1466.0, 176.0, 109.0, 21.0 ],
					"text_width" : 62.0
				}

			}
, 			{
				"box" : 				{
					"fontname" : "Arial",
					"fontsize" : 13.0,
					"id" : "obj-13",
					"maxclass" : "newobj",
					"numinlets" : 2,
					"numoutlets" : 2,
					"outlettype" : [ "jit_matrix", "" ],
					"patching_rect" : [ 1445.0, 771.0, 205.0, 21.0 ],
					"text" : "jit.xfade"
				}

			}
, 			{
				"box" : 				{
					"args" : [ "/orsize-sketch" ],
					"id" : "obj-39",
					"lockeddragscroll" : 1,
					"maxclass" : "bpatcher",
					"name" : "jmod.orsize%.maxpat",
					"numinlets" : 2,
					"numoutlets" : 2,
					"outlettype" : [ "", "" ],
					"patching_rect" : [ 1350.0, 822.938782, 300.0, 105.0 ],
					"presentation" : 1,
					"presentation_rect" : [ 1267.0, 465.0, 300.0, 105.0 ],
					"varname" : "jmod.orsize%[2]"
				}

			}
, 			{
				"box" : 				{
					"fontname" : "Verdana",
					"fontsize" : 10.0,
					"id" : "obj-3",
					"maxclass" : "newobj",
					"numinlets" : 0,
					"numoutlets" : 1,
					"outlettype" : [ "" ],
					"patching_rect" : [ 1560.0, -7.5, 81.0, 19.0 ],
					"presentation" : 1,
					"presentation_rect" : [ 1390.0, 5.0, 81.0, 19.0 ],
					"text" : "r inputCooked"
				}

			}
, 			{
				"box" : 				{
					"floatoutput" : 1,
					"id" : "obj-7",
					"maxclass" : "slider",
					"numinlets" : 1,
					"numoutlets" : 1,
					"outlettype" : [ "" ],
					"parameter_enable" : 0,
					"patching_rect" : [ 1445.0, 328.0, 189.0, 31.0 ],
					"presentation" : 1,
					"presentation_rect" : [ 1267.0, 145.0, 308.0, 31.0 ],
					"size" : 1.0
				}

			}
, 			{
				"box" : 				{
					"fontname" : "Arial",
					"fontsize" : 13.0,
					"id" : "obj-32",
					"maxclass" : "newobj",
					"numinlets" : 2,
					"numoutlets" : 2,
					"outlettype" : [ "jit_matrix", "" ],
					"patching_rect" : [ 1445.0, 395.0, 205.0, 21.0 ],
					"text" : "jit.xfade"
				}

			}
, 			{
				"box" : 				{
					"args" : [ "/wake-sketch" ],
					"id" : "obj-34",
					"lockeddragscroll" : 1,
					"maxclass" : "bpatcher",
					"name" : "jmod.wake%.maxpat",
					"numinlets" : 2,
					"numoutlets" : 2,
					"outlettype" : [ "", "" ],
					"patching_rect" : [ 1350.0, 121.0, 300.0, 70.0 ],
					"presentation" : 1,
					"presentation_rect" : [ 1267.0, 75.0, 300.0, 70.0 ],
					"varname" : "/wake%"
				}

			}
, 			{
				"box" : 				{
					"args" : [ "/edge-sketch" ],
					"id" : "obj-36",
					"lockeddragscroll" : 1,
					"maxclass" : "bpatcher",
					"name" : "jmod.edge%.maxpat",
					"numinlets" : 2,
					"numoutlets" : 2,
					"outlettype" : [ "", "" ],
					"patching_rect" : [ 1350.0, 51.0, 300.0, 70.0 ],
					"presentation" : 1,
					"presentation_rect" : [ 1267.0, 5.0, 300.0, 70.0 ],
					"varname" : "jmod.edge%"
				}

			}
, 			{
				"box" : 				{
					"color" : [ 0.839216, 0.0, 0.039543, 1.0 ],
					"fontname" : "Verdana",
					"fontsize" : 18.0,
					"id" : "obj-4",
					"maxclass" : "newobj",
					"numinlets" : 0,
					"numoutlets" : 0,
					"patcher" : 					{
						"fileversion" : 1,
						"appversion" : 						{
							"major" : 6,
							"minor" : 1,
							"revision" : 9,
							"architecture" : "x86"
						}
,
						"rect" : [ 16.0, 47.0, 378.0, 278.0 ],
						"bglocked" : 0,
						"openinpresentation" : 0,
						"default_fontsize" : 12.0,
						"default_fontface" : 0,
						"default_fontname" : "Arial",
						"gridonopen" : 0,
						"gridsize" : [ 15.0, 15.0 ],
						"gridsnaponopen" : 0,
						"statusbarvisible" : 2,
						"toolbarvisible" : 1,
						"boxanimatetime" : 200,
						"imprint" : 0,
						"enablehscroll" : 1,
						"enablevscroll" : 1,
						"devicewidth" : 0.0,
						"description" : "",
						"digest" : "",
						"tags" : "",
						"boxes" : [ 							{
								"box" : 								{
									"fontname" : "Arial",
									"fontsize" : 12.0,
									"id" : "obj-1",
									"maxclass" : "newobj",
									"numinlets" : 0,
									"numoutlets" : 0,
									"patcher" : 									{
										"fileversion" : 1,
										"appversion" : 										{
											"major" : 6,
											"minor" : 1,
											"revision" : 9,
											"architecture" : "x86"
										}
,
										"rect" : [ 133.0, 452.0, 670.0, 517.0 ],
										"bglocked" : 0,
										"openinpresentation" : 0,
										"default_fontsize" : 12.0,
										"default_fontface" : 0,
										"default_fontname" : "Arial",
										"gridonopen" : 0,
										"gridsize" : [ 15.0, 15.0 ],
										"gridsnaponopen" : 0,
										"statusbarvisible" : 2,
										"toolbarvisible" : 1,
										"boxanimatetime" : 200,
										"imprint" : 0,
										"enablehscroll" : 1,
										"enablevscroll" : 1,
										"devicewidth" : 0.0,
										"description" : "",
										"digest" : "",
										"tags" : "",
										"boxes" : [ 											{
												"box" : 												{
													"id" : "obj-1",
													"maxclass" : "jit.pwindow",
													"numinlets" : 1,
													"numoutlets" : 2,
													"outlettype" : [ "", "" ],
													"patching_rect" : [ 9.0, 25.0, 640.0, 480.0 ],
													"presentation_rect" : [ 0.0, 0.0, 640.0, 480.0 ]
												}

											}
, 											{
												"box" : 												{
													"fontname" : "Verdana",
													"fontsize" : 10.0,
													"id" : "obj-49",
													"maxclass" : "newobj",
													"numinlets" : 0,
													"numoutlets" : 1,
													"outlettype" : [ "" ],
													"patching_rect" : [ 9.0, -3.0, 81.0, 19.0 ],
													"text" : "r inputCooked"
												}

											}
 ],
										"lines" : [ 											{
												"patchline" : 												{
													"destination" : [ "obj-1", 0 ],
													"disabled" : 0,
													"hidden" : 0,
													"source" : [ "obj-49", 0 ]
												}

											}
 ]
									}
,
									"patching_rect" : [ 206.0, 255.0, 62.0, 20.0 ],
									"saved_object_attributes" : 									{
										"default_fontface" : 0,
										"default_fontname" : "Arial",
										"default_fontsize" : 12.0,
										"description" : "",
										"digest" : "",
										"fontface" : 0,
										"fontname" : "Arial",
										"fontsize" : 12.0,
										"globalpatchername" : "",
										"tags" : ""
									}
,
									"text" : "p preview"
								}

							}
, 							{
								"box" : 								{
									"fontname" : "Verdana",
									"fontsize" : 10.0,
									"id" : "obj-49",
									"maxclass" : "newobj",
									"numinlets" : 1,
									"numoutlets" : 0,
									"patching_rect" : [ 285.0, 255.0, 82.0, 19.0 ],
									"text" : "s inputCooked"
								}

							}
, 							{
								"box" : 								{
									"fontname" : "Verdana",
									"fontsize" : 10.0,
									"id" : "obj-48",
									"maxclass" : "newobj",
									"numinlets" : 1,
									"numoutlets" : 0,
									"patching_rect" : [ 315.0, 80.0, 45.0, 19.0 ],
									"text" : "s input"
								}

							}
, 							{
								"box" : 								{
									"args" : [ "/brcosa-in" ],
									"id" : "obj-28",
									"lockeddragscroll" : 1,
									"maxclass" : "bpatcher",
									"name" : "jmod.brcosa%.maxpat",
									"numinlets" : 2,
									"numoutlets" : 2,
									"outlettype" : [ "", "" ],
									"patching_rect" : [ 4.0, 185.0, 300.0, 70.0 ],
									"presentation_rect" : [ 60.0, 60.0, 300.0, 70.0 ],
									"varname" : "/brcosa%"
								}

							}
, 							{
								"box" : 								{
									"args" : [ "/orsize-in" ],
									"id" : "obj-29",
									"lockeddragscroll" : 1,
									"maxclass" : "bpatcher",
									"name" : "jmod.orsize%.maxpat",
									"numinlets" : 2,
									"numoutlets" : 2,
									"outlettype" : [ "", "" ],
									"patching_rect" : [ 4.0, 80.0, 300.0, 105.0 ],
									"presentation_rect" : [ 30.0, 30.0, 300.0, 105.0 ],
									"varname" : "jmod.orsize%"
								}

							}
, 							{
								"box" : 								{
									"fontname" : "Verdana",
									"fontsize" : 10.0,
									"id" : "obj-14",
									"maxclass" : "jit.fpsgui",
									"numinlets" : 1,
									"numoutlets" : 2,
									"outlettype" : [ "", "" ],
									"patching_rect" : [ 315.0, 45.0, 60.0, 35.0 ]
								}

							}
, 							{
								"box" : 								{
									"id" : "obj-20",
									"lockeddragscroll" : 1,
									"maxclass" : "bpatcher",
									"name" : "jmod.input%.maxpat",
									"numinlets" : 2,
									"numoutlets" : 2,
									"outlettype" : [ "", "" ],
									"patching_rect" : [ 4.0, 4.0, 300.0, 70.0 ],
									"presentation_rect" : [ 0.0, 0.0, 300.0, 70.0 ]
								}

							}
 ],
						"lines" : [ 							{
								"patchline" : 								{
									"destination" : [ "obj-14", 0 ],
									"disabled" : 0,
									"hidden" : 0,
									"midpoints" : [ 294.5, 78.0, 309.0, 78.0, 309.0, 40.0, 324.5, 40.0 ],
									"source" : [ "obj-20", 1 ]
								}

							}
, 							{
								"patchline" : 								{
									"destination" : [ "obj-29", 1 ],
									"disabled" : 0,
									"hidden" : 0,
									"source" : [ "obj-20", 1 ]
								}

							}
, 							{
								"patchline" : 								{
									"destination" : [ "obj-48", 0 ],
									"disabled" : 0,
									"hidden" : 0,
									"source" : [ "obj-20", 1 ]
								}

							}
, 							{
								"patchline" : 								{
									"destination" : [ "obj-49", 0 ],
									"disabled" : 0,
									"hidden" : 0,
									"source" : [ "obj-28", 1 ]
								}

							}
, 							{
								"patchline" : 								{
									"destination" : [ "obj-28", 1 ],
									"disabled" : 0,
									"hidden" : 0,
									"source" : [ "obj-29", 1 ]
								}

							}
 ]
					}
,
					"patching_rect" : [ 16.0, 32.0, 86.0, 28.0 ],
					"presentation" : 1,
					"presentation_rect" : [ 102.0, 5.0, 86.0, 28.0 ],
					"saved_object_attributes" : 					{
						"default_fontface" : 0,
						"default_fontname" : "Arial",
						"default_fontsize" : 12.0,
						"description" : "",
						"digest" : "",
						"fontface" : 0,
						"fontname" : "Arial",
						"fontsize" : 12.0,
						"globalpatchername" : "",
						"tags" : ""
					}
,
					"text" : "p INPUT"
				}

			}
, 			{
				"box" : 				{
					"args" : [ "/orsize4" ],
					"id" : "obj-24",
					"lockeddragscroll" : 1,
					"maxclass" : "bpatcher",
					"name" : "jmod.orsize%.maxpat",
					"numinlets" : 2,
					"numoutlets" : 2,
					"outlettype" : [ "", "" ],
					"patching_rect" : [ 668.0, 624.938782, 300.0, 105.0 ],
					"presentation" : 1,
					"presentation_rect" : [ 639.0, 539.0, 300.0, 105.0 ],
					"varname" : "jmod.orsize%[1]"
				}

			}
, 			{
				"box" : 				{
					"bgmode" : 1,
					"id" : "obj-23",
					"maxclass" : "bpatcher",
					"name" : "vz.4mixr.maxpat",
					"numinlets" : 9,
					"numoutlets" : 1,
					"outlettype" : [ "jit_matrix" ],
					"patching_rect" : [ 250.0, 864.938782, 280.0, 154.0 ],
					"presentation" : 1,
					"presentation_rect" : [ 25.0, 565.186951, 280.0, 154.0 ],
					"prototypename" : "pixl",
					"varname" : "vz.4mixr[1]"
				}

			}
, 			{
				"box" : 				{
					"args" : [ "/orsize3" ],
					"id" : "obj-29",
					"lockeddragscroll" : 1,
					"maxclass" : "bpatcher",
					"name" : "jmod.orsize%.maxpat",
					"numinlets" : 2,
					"numoutlets" : 2,
					"outlettype" : [ "", "" ],
					"patching_rect" : [ 338.0, 623.0, 300.0, 105.0 ],
					"presentation" : 1,
					"presentation_rect" : [ 320.0, 539.0, 300.0, 105.0 ],
					"varname" : "jmod.orsize%"
				}

			}
, 			{
				"box" : 				{
					"args" : [ "slitscan1" ],
					"id" : "obj-12",
					"maxclass" : "bpatcher",
					"name" : "jmod.slitscan%.maxpat",
					"numinlets" : 3,
					"numoutlets" : 2,
					"outlettype" : [ "", "" ],
					"patching_rect" : [ 5.0, 181.0, 300.0, 70.0 ],
					"presentation" : 1,
					"presentation_rect" : [ 5.0, 145.0, 300.0, 70.0 ]
				}

			}
, 			{
				"box" : 				{
					"fontname" : "Verdana",
					"fontsize" : 10.0,
					"id" : "obj-16",
					"maxclass" : "newobj",
					"numinlets" : 0,
					"numoutlets" : 1,
					"outlettype" : [ "" ],
					"patching_rect" : [ 286.0, 2.0, 81.0, 19.0 ],
					"text" : "r inputCooked"
				}

			}
, 			{
				"box" : 				{
					"bgmode" : 1,
					"id" : "obj-19",
					"maxclass" : "bpatcher",
					"name" : "vz.viewr.maxpat",
					"numinlets" : 2,
					"numoutlets" : 0,
					"patching_rect" : [ 701.0, 881.0, 280.0, 140.0 ],
					"presentation" : 1,
					"presentation_rect" : [ 977.0, 579.186951, 280.0, 140.0 ],
					"prototypename" : "pixl"
				}

			}
, 			{
				"box" : 				{
					"bgmode" : 1,
					"id" : "obj-15",
					"maxclass" : "bpatcher",
					"name" : "vz.sketchr.maxpat",
					"numinlets" : 3,
					"numoutlets" : 1,
					"outlettype" : [ "" ],
					"patching_rect" : [ 1050.0, 212.0, 250.0, 154.0 ],
					"presentation" : 1,
					"presentation_rect" : [ 953.0, 85.0, 250.0, 154.0 ],
					"prototypename" : "pixl",
					"varname" : "vz.sketchr"
				}

			}
, 			{
				"box" : 				{
					"bgmode" : 1,
					"id" : "obj-21",
					"maxclass" : "bpatcher",
					"name" : "vz.4mixr.maxpat",
					"numinlets" : 9,
					"numoutlets" : 1,
					"outlettype" : [ "jit_matrix" ],
					"patching_rect" : [ 26.0, 509.0, 280.0, 154.0 ],
					"presentation" : 1,
					"presentation_rect" : [ 25.0, 293.343506, 280.0, 154.0 ],
					"prototypename" : "pixl",
					"varname" : "vz.4mixr"
				}

			}
 ],
		"lines" : [ 			{
				"patchline" : 				{
					"destination" : [ "obj-12", 2 ],
					"disabled" : 0,
					"hidden" : 0,
					"source" : [ "obj-1", 1 ]
				}

			}
, 			{
				"patchline" : 				{
					"destination" : [ "obj-2", 1 ],
					"disabled" : 0,
					"hidden" : 0,
					"source" : [ "obj-1", 1 ]
				}

			}
, 			{
				"patchline" : 				{
					"destination" : [ "obj-47", 0 ],
					"disabled" : 0,
					"hidden" : 0,
					"source" : [ "obj-1", 1 ]
				}

			}
, 			{
				"patchline" : 				{
					"destination" : [ "obj-33", 0 ],
					"disabled" : 0,
					"hidden" : 0,
					"source" : [ "obj-10", 0 ]
				}

			}
, 			{
				"patchline" : 				{
					"destination" : [ "obj-49", 1 ],
					"disabled" : 0,
					"hidden" : 0,
					"source" : [ "obj-12", 1 ]
				}

			}
, 			{
				"patchline" : 				{
					"destination" : [ "obj-39", 1 ],
					"disabled" : 0,
					"hidden" : 0,
					"source" : [ "obj-13", 0 ]
				}

			}
, 			{
				"patchline" : 				{
					"destination" : [ "obj-15", 0 ],
					"disabled" : 0,
					"hidden" : 0,
					"source" : [ "obj-14", 1 ]
				}

			}
, 			{
				"patchline" : 				{
					"destination" : [ "obj-10", 0 ],
					"disabled" : 0,
					"hidden" : 0,
					"source" : [ "obj-15", 0 ]
				}

			}
, 			{
				"patchline" : 				{
					"destination" : [ "obj-1", 1 ],
					"disabled" : 0,
					"hidden" : 0,
					"source" : [ "obj-16", 0 ]
				}

			}
, 			{
				"patchline" : 				{
					"destination" : [ "obj-23", 1 ],
					"disabled" : 0,
					"hidden" : 0,
					"source" : [ "obj-17", 1 ]
				}

			}
, 			{
				"patchline" : 				{
					"destination" : [ "obj-20", 1 ],
					"disabled" : 0,
					"hidden" : 0,
					"source" : [ "obj-18", 1 ]
				}

			}
, 			{
				"patchline" : 				{
					"destination" : [ "obj-29", 1 ],
					"disabled" : 0,
					"hidden" : 0,
					"source" : [ "obj-18", 1 ]
				}

			}
, 			{
				"patchline" : 				{
					"destination" : [ "obj-5", 1 ],
					"disabled" : 0,
					"hidden" : 0,
					"source" : [ "obj-2", 1 ]
				}

			}
, 			{
				"patchline" : 				{
					"destination" : [ "obj-54", 1 ],
					"disabled" : 0,
					"hidden" : 0,
					"source" : [ "obj-2", 1 ]
				}

			}
, 			{
				"patchline" : 				{
					"destination" : [ "obj-59", 1 ],
					"disabled" : 0,
					"hidden" : 0,
					"source" : [ "obj-20", 1 ]
				}

			}
, 			{
				"patchline" : 				{
					"destination" : [ "obj-18", 1 ],
					"disabled" : 0,
					"hidden" : 0,
					"source" : [ "obj-21", 0 ]
				}

			}
, 			{
				"patchline" : 				{
					"destination" : [ "obj-23", 0 ],
					"disabled" : 0,
					"hidden" : 0,
					"source" : [ "obj-21", 0 ]
				}

			}
, 			{
				"patchline" : 				{
					"destination" : [ "obj-48", 0 ],
					"disabled" : 0,
					"hidden" : 0,
					"source" : [ "obj-23", 0 ]
				}

			}
, 			{
				"patchline" : 				{
					"destination" : [ "obj-25", 1 ],
					"disabled" : 0,
					"hidden" : 0,
					"source" : [ "obj-24", 1 ]
				}

			}
, 			{
				"patchline" : 				{
					"destination" : [ "obj-23", 2 ],
					"disabled" : 0,
					"hidden" : 0,
					"source" : [ "obj-25", 1 ]
				}

			}
, 			{
				"patchline" : 				{
					"destination" : [ "obj-17", 1 ],
					"disabled" : 0,
					"hidden" : 0,
					"source" : [ "obj-29", 1 ]
				}

			}
, 			{
				"patchline" : 				{
					"destination" : [ "obj-32", 0 ],
					"disabled" : 0,
					"hidden" : 0,
					"source" : [ "obj-3", 0 ]
				}

			}
, 			{
				"patchline" : 				{
					"destination" : [ "obj-36", 1 ],
					"disabled" : 0,
					"hidden" : 0,
					"source" : [ "obj-3", 0 ]
				}

			}
, 			{
				"patchline" : 				{
					"destination" : [ "obj-32", 0 ],
					"disabled" : 0,
					"hidden" : 0,
					"midpoints" : [ 1454.5, 406.0, 1454.5, 406.0 ],
					"source" : [ "obj-31", 0 ]
				}

			}
, 			{
				"patchline" : 				{
					"destination" : [ "obj-8", 1 ],
					"disabled" : 0,
					"hidden" : 0,
					"source" : [ "obj-32", 0 ]
				}

			}
, 			{
				"patchline" : 				{
					"destination" : [ "obj-58", 1 ],
					"disabled" : 0,
					"hidden" : 0,
					"source" : [ "obj-33", 0 ]
				}

			}
, 			{
				"patchline" : 				{
					"destination" : [ "obj-60", 1 ],
					"disabled" : 0,
					"hidden" : 0,
					"source" : [ "obj-34", 1 ]
				}

			}
, 			{
				"patchline" : 				{
					"destination" : [ "obj-48", 0 ],
					"disabled" : 0,
					"hidden" : 1,
					"source" : [ "obj-35", 0 ]
				}

			}
, 			{
				"patchline" : 				{
					"destination" : [ "obj-34", 1 ],
					"disabled" : 0,
					"hidden" : 0,
					"source" : [ "obj-36", 1 ]
				}

			}
, 			{
				"patchline" : 				{
					"destination" : [ "obj-13", 0 ],
					"disabled" : 0,
					"hidden" : 0,
					"source" : [ "obj-37", 0 ]
				}

			}
, 			{
				"patchline" : 				{
					"destination" : [ "obj-48", 0 ],
					"disabled" : 0,
					"hidden" : 1,
					"source" : [ "obj-38", 0 ]
				}

			}
, 			{
				"patchline" : 				{
					"destination" : [ "obj-23", 3 ],
					"disabled" : 0,
					"hidden" : 0,
					"source" : [ "obj-39", 1 ]
				}

			}
, 			{
				"patchline" : 				{
					"destination" : [ "obj-48", 0 ],
					"disabled" : 0,
					"hidden" : 1,
					"source" : [ "obj-40", 0 ]
				}

			}
, 			{
				"patchline" : 				{
					"destination" : [ "obj-48", 0 ],
					"disabled" : 0,
					"hidden" : 1,
					"source" : [ "obj-41", 0 ]
				}

			}
, 			{
				"patchline" : 				{
					"destination" : [ "obj-48", 0 ],
					"disabled" : 0,
					"hidden" : 1,
					"source" : [ "obj-42", 0 ]
				}

			}
, 			{
				"patchline" : 				{
					"destination" : [ "obj-48", 0 ],
					"disabled" : 0,
					"hidden" : 1,
					"source" : [ "obj-43", 0 ]
				}

			}
, 			{
				"patchline" : 				{
					"destination" : [ "obj-21", 1 ],
					"disabled" : 0,
					"hidden" : 0,
					"source" : [ "obj-45", 1 ]
				}

			}
, 			{
				"patchline" : 				{
					"destination" : [ "obj-21", 2 ],
					"disabled" : 0,
					"hidden" : 0,
					"source" : [ "obj-46", 1 ]
				}

			}
, 			{
				"patchline" : 				{
					"destination" : [ "obj-12", 1 ],
					"disabled" : 0,
					"hidden" : 0,
					"source" : [ "obj-47", 0 ]
				}

			}
, 			{
				"patchline" : 				{
					"destination" : [ "obj-19", 0 ],
					"disabled" : 0,
					"hidden" : 0,
					"source" : [ "obj-48", 0 ]
				}

			}
, 			{
				"patchline" : 				{
					"destination" : [ "obj-21", 0 ],
					"disabled" : 0,
					"hidden" : 0,
					"source" : [ "obj-49", 1 ]
				}

			}
, 			{
				"patchline" : 				{
					"destination" : [ "obj-14", 1 ],
					"disabled" : 0,
					"hidden" : 0,
					"source" : [ "obj-5", 1 ]
				}

			}
, 			{
				"patchline" : 				{
					"destination" : [ "obj-55", 1 ],
					"disabled" : 0,
					"hidden" : 0,
					"source" : [ "obj-5", 1 ]
				}

			}
, 			{
				"patchline" : 				{
					"destination" : [ "obj-45", 1 ],
					"disabled" : 0,
					"hidden" : 0,
					"source" : [ "obj-54", 1 ]
				}

			}
, 			{
				"patchline" : 				{
					"destination" : [ "obj-46", 1 ],
					"disabled" : 0,
					"hidden" : 0,
					"source" : [ "obj-55", 1 ]
				}

			}
, 			{
				"patchline" : 				{
					"destination" : [ "obj-21", 3 ],
					"disabled" : 0,
					"hidden" : 0,
					"source" : [ "obj-58", 1 ]
				}

			}
, 			{
				"patchline" : 				{
					"destination" : [ "obj-24", 1 ],
					"disabled" : 0,
					"hidden" : 0,
					"source" : [ "obj-59", 1 ]
				}

			}
, 			{
				"patchline" : 				{
					"destination" : [ "obj-9", 0 ],
					"disabled" : 0,
					"hidden" : 0,
					"source" : [ "obj-6", 0 ]
				}

			}
, 			{
				"patchline" : 				{
					"destination" : [ "obj-32", 1 ],
					"disabled" : 0,
					"hidden" : 0,
					"source" : [ "obj-60", 1 ]
				}

			}
, 			{
				"patchline" : 				{
					"destination" : [ "obj-31", 0 ],
					"disabled" : 0,
					"hidden" : 0,
					"source" : [ "obj-7", 0 ]
				}

			}
, 			{
				"patchline" : 				{
					"destination" : [ "obj-13", 1 ],
					"disabled" : 0,
					"hidden" : 0,
					"source" : [ "obj-8", 1 ]
				}

			}
, 			{
				"patchline" : 				{
					"destination" : [ "obj-37", 0 ],
					"disabled" : 0,
					"hidden" : 0,
					"source" : [ "obj-8", 1 ]
				}

			}
, 			{
				"patchline" : 				{
					"destination" : [ "obj-13", 0 ],
					"disabled" : 0,
					"hidden" : 0,
					"midpoints" : [ 1454.5, 782.0, 1454.5, 782.0 ],
					"source" : [ "obj-9", 0 ]
				}

			}
 ],
		"parameters" : 		{
			"obj-60::obj-50" : [ "live.text[7]", "FILTER", 0 ],
			"obj-21::obj-66" : [ "slider[8]", "slider[2]", 0 ],
			"obj-10::obj-13" : [ "slider[11]", "slider[2]", 0 ],
			"obj-23::obj-1" : [ "umenu[2]", "umenu", 0 ],
			"obj-21::obj-1" : [ "umenu", "umenu", 0 ],
			"obj-58::obj-50" : [ "live.text[5]", "FILTER", 0 ],
			"obj-54::obj-50" : [ "live.text[3]", "FILTER", 0 ],
			"obj-10::obj-38" : [ "slider[13]", "slider[1]", 0 ],
			"obj-21::obj-41" : [ "slider[6]", "slider[1]", 0 ],
			"obj-23::obj-66" : [ "slider[25]", "slider[2]", 0 ],
			"obj-15::obj-58" : [ "umenu[1]", "umenu", 0 ],
			"obj-21::obj-77" : [ "slider[7]", "slider", 0 ],
			"obj-37::obj-28" : [ "swatch[2]", "swatch", 0 ],
			"obj-37::obj-27" : [ "swatch[3]", "swatch[1]", 0 ],
			"obj-33::obj-28" : [ "swatch", "swatch", 0 ],
			"obj-15::obj-45" : [ "slider[10]", "slider", 0 ],
			"obj-23::obj-77" : [ "slider[24]", "slider", 0 ],
			"obj-23::obj-55" : [ "slider[26]", "slider[3]", 0 ],
			"obj-10::obj-39" : [ "slider[12]", "slider", 0 ],
			"obj-55::obj-50" : [ "live.text[4]", "FILTER", 0 ],
			"obj-59::obj-50" : [ "live.text[6]", "FILTER", 0 ],
			"obj-33::obj-27" : [ "swatch[1]", "swatch[1]", 0 ],
			"obj-21::obj-55" : [ "slider[9]", "slider[3]", 0 ],
			"obj-23::obj-41" : [ "slider[23]", "slider[1]", 0 ],
			"obj-49::obj-50" : [ "live.text[2]", "FILTER", 0 ]
		}
,
		"dependency_cache" : [ 			{
				"name" : "vz.4mixr.maxpat",
				"bootpath" : "/Applications/Max 6.1/packages/vizzie/patchers",
				"patcherrelativepath" : "../../../../../Applications/Max 6.1/packages/vizzie/patchers",
				"type" : "JSON",
				"implicit" : 1
			}
, 			{
				"name" : "ctl-data-button.png",
				"bootpath" : "/Applications/Max 6.1/packages/vizzie/patchers",
				"patcherrelativepath" : "../../../../../Applications/Max 6.1/packages/vizzie/patchers",
				"type" : "PNG ",
				"implicit" : 1
			}
, 			{
				"name" : "mixdata-handler.maxpat",
				"bootpath" : "/Applications/Max 6.1/packages/vizzie/patchers",
				"patcherrelativepath" : "../../../../../Applications/Max 6.1/packages/vizzie/patchers",
				"type" : "JSON",
				"implicit" : 1
			}
, 			{
				"name" : "videothru-handler.maxpat",
				"bootpath" : "/Applications/Max 6.1/packages/vizzie/patchers",
				"patcherrelativepath" : "../../../../../Applications/Max 6.1/packages/vizzie/patchers",
				"type" : "JSON",
				"implicit" : 1
			}
, 			{
				"name" : "mixvid-handler-b.maxpat",
				"bootpath" : "/Applications/Max 6.1/packages/vizzie/patchers",
				"patcherrelativepath" : "../../../../../Applications/Max 6.1/packages/vizzie/patchers",
				"type" : "JSON",
				"implicit" : 1
			}
, 			{
				"name" : "4mixr-presets.json",
				"bootpath" : "/Applications/Max 6.1/packages/vizzie/patchers",
				"patcherrelativepath" : "../../../../../Applications/Max 6.1/packages/vizzie/patchers",
				"type" : "JSON",
				"implicit" : 1
			}
, 			{
				"name" : "data-handler.maxpat",
				"bootpath" : "/Applications/Max 6.1/packages/vizzie/patchers",
				"patcherrelativepath" : "../../../../../Applications/Max 6.1/packages/vizzie/patchers",
				"type" : "JSON",
				"implicit" : 1
			}
, 			{
				"name" : "vz.sketchr.maxpat",
				"bootpath" : "/Applications/Max 6.1/packages/vizzie/patchers",
				"patcherrelativepath" : "../../../../../Applications/Max 6.1/packages/vizzie/patchers",
				"type" : "JSON",
				"implicit" : 1
			}
, 			{
				"name" : "efx-data-button.png",
				"bootpath" : "/Applications/Max 6.1/packages/vizzie/patchers",
				"patcherrelativepath" : "../../../../../Applications/Max 6.1/packages/vizzie/patchers",
				"type" : "PNG ",
				"implicit" : 1
			}
, 			{
				"name" : "video-handler.maxpat",
				"bootpath" : "/Applications/Max 6.1/packages/vizzie/patchers",
				"patcherrelativepath" : "../../../../../Applications/Max 6.1/packages/vizzie/patchers",
				"type" : "JSON",
				"implicit" : 1
			}
, 			{
				"name" : "sketchr-presets.json",
				"bootpath" : "/Applications/Max 6.1/packages/vizzie/patchers",
				"patcherrelativepath" : "../../../../../Applications/Max 6.1/packages/vizzie/patchers",
				"type" : "JSON",
				"implicit" : 1
			}
, 			{
				"name" : "vz.viewr.maxpat",
				"bootpath" : "/Applications/Max 6.1/packages/vizzie/patchers",
				"patcherrelativepath" : "../../../../../Applications/Max 6.1/packages/vizzie/patchers",
				"type" : "JSON",
				"implicit" : 1
			}
, 			{
				"name" : "viewrnamer.js",
				"bootpath" : "/Applications/Max 6.1/packages/vizzie/patchers",
				"patcherrelativepath" : "../../../../../Applications/Max 6.1/packages/vizzie/patchers",
				"type" : "TEXT",
				"implicit" : 1
			}
, 			{
				"name" : "pvr-data-button.png",
				"bootpath" : "/Applications/Max 6.1/packages/vizzie/patchers",
				"patcherrelativepath" : "../../../../../Applications/Max 6.1/packages/vizzie/patchers",
				"type" : "PNG ",
				"implicit" : 1
			}
, 			{
				"name" : "jmod.slitscan%.maxpat",
				"bootpath" : "/Applications/Max 6.1/packages/Jamoma-0.5.7/patchers/modules/video/slitscan%",
				"patcherrelativepath" : "../../../../../Applications/Max 6.1/packages/Jamoma-0.5.7/patchers/modules/video/slitscan%",
				"type" : "JSON",
				"implicit" : 1
			}
, 			{
				"name" : "jalg.slitscan%.maxpat",
				"bootpath" : "/Applications/Max 6.1/packages/Jamoma-0.5.7/patchers/modules/video/slitscan%",
				"patcherrelativepath" : "../../../../../Applications/Max 6.1/packages/Jamoma-0.5.7/patchers/modules/video/slitscan%",
				"type" : "JSON",
				"implicit" : 1
			}
, 			{
				"name" : "jmod.orsize%.maxpat",
				"bootpath" : "/Applications/Max 6.1/packages/Jamoma-0.5.7/patchers/modules/video/orsize%",
				"patcherrelativepath" : "../../../../../Applications/Max 6.1/packages/Jamoma-0.5.7/patchers/modules/video/orsize%",
				"type" : "JSON",
				"implicit" : 1
			}
, 			{
				"name" : "jalg.orsize%.maxpat",
				"bootpath" : "/Applications/Max 6.1/packages/Jamoma-0.5.7/patchers/modules/video/orsize%",
				"patcherrelativepath" : "../../../../../Applications/Max 6.1/packages/Jamoma-0.5.7/patchers/modules/video/orsize%",
				"type" : "JSON",
				"implicit" : 1
			}
, 			{
				"name" : "jcom.pwindow.mouse.maxpat",
				"bootpath" : "/Applications/Max 6.1/packages/Jamoma-0.5.7/patchers/library/components/pwindow.mouse",
				"patcherrelativepath" : "../../../../../Applications/Max 6.1/packages/Jamoma-0.5.7/patchers/library/components/pwindow.mouse",
				"type" : "JSON",
				"implicit" : 1
			}
, 			{
				"name" : "jmod.input%.maxpat",
				"bootpath" : "/Applications/Max 6.1/packages/Jamoma-0.5.7/patchers/modules/video/input%",
				"patcherrelativepath" : "../../../../../Applications/Max 6.1/packages/Jamoma-0.5.7/patchers/modules/video/input%",
				"type" : "JSON",
				"implicit" : 1
			}
, 			{
				"name" : "jalg.input%.maxpat",
				"bootpath" : "/Applications/Max 6.1/packages/Jamoma-0.5.7/patchers/modules/video/input%",
				"patcherrelativepath" : "../../../../../Applications/Max 6.1/packages/Jamoma-0.5.7/patchers/modules/video/input%",
				"type" : "JSON",
				"implicit" : 1
			}
, 			{
				"name" : "jcom.thru.maxpat",
				"bootpath" : "/Applications/Max 6.1/packages/Jamoma-0.5.7/patchers/library/components/thru",
				"patcherrelativepath" : "../../../../../Applications/Max 6.1/packages/Jamoma-0.5.7/patchers/library/components/thru",
				"type" : "JSON",
				"implicit" : 1
			}
, 			{
				"name" : "jalg.input%.ui.maxpat",
				"bootpath" : "/Applications/Max 6.1/packages/Jamoma-0.5.7/patchers/modules/video/input%",
				"patcherrelativepath" : "../../../../../Applications/Max 6.1/packages/Jamoma-0.5.7/patchers/modules/video/input%",
				"type" : "JSON",
				"implicit" : 1
			}
, 			{
				"name" : "jmod.brcosa%.maxpat",
				"bootpath" : "/Applications/Max 6.1/packages/Jamoma-0.5.7/patchers/modules/video/brcosa%",
				"patcherrelativepath" : "../../../../../Applications/Max 6.1/packages/Jamoma-0.5.7/patchers/modules/video/brcosa%",
				"type" : "JSON",
				"implicit" : 1
			}
, 			{
				"name" : "jalg.brcosa%.maxpat",
				"bootpath" : "/Applications/Max 6.1/packages/Jamoma-0.5.7/patchers/modules/video/brcosa%",
				"patcherrelativepath" : "../../../../../Applications/Max 6.1/packages/Jamoma-0.5.7/patchers/modules/video/brcosa%",
				"type" : "JSON",
				"implicit" : 1
			}
, 			{
				"name" : "jmod.edge%.maxpat",
				"bootpath" : "/Applications/Max 6.1/packages/Jamoma-0.5.7/patchers/modules/video/edge%",
				"patcherrelativepath" : "../../../../../Applications/Max 6.1/packages/Jamoma-0.5.7/patchers/modules/video/edge%",
				"type" : "JSON",
				"implicit" : 1
			}
, 			{
				"name" : "jalg.edge%.maxpat",
				"bootpath" : "/Applications/Max 6.1/packages/Jamoma-0.5.7/patchers/modules/video/edge%",
				"patcherrelativepath" : "../../../../../Applications/Max 6.1/packages/Jamoma-0.5.7/patchers/modules/video/edge%",
				"type" : "JSON",
				"implicit" : 1
			}
, 			{
				"name" : "jmod.wake%.maxpat",
				"bootpath" : "/Applications/Max 6.1/packages/Jamoma-0.5.7/patchers/modules/video/wake%",
				"patcherrelativepath" : "../../../../../Applications/Max 6.1/packages/Jamoma-0.5.7/patchers/modules/video/wake%",
				"type" : "JSON",
				"implicit" : 1
			}
, 			{
				"name" : "jalg.wake%.maxpat",
				"bootpath" : "/Applications/Max 6.1/packages/Jamoma-0.5.7/patchers/modules/video/wake%",
				"patcherrelativepath" : "../../../../../Applications/Max 6.1/packages/Jamoma-0.5.7/patchers/modules/video/wake%",
				"type" : "JSON",
				"implicit" : 1
			}
, 			{
				"name" : "jmod.cueManager.maxpat",
				"bootpath" : "/Applications/Max 6.1/packages/Jamoma-0.5.7/patchers/modules/control/cueManager",
				"patcherrelativepath" : "../../../../../Applications/Max 6.1/packages/Jamoma-0.5.7/patchers/modules/control/cueManager",
				"type" : "JSON",
				"implicit" : 1
			}
, 			{
				"name" : "jcom.initialized.maxpat",
				"bootpath" : "/Applications/Max 6.1/packages/Jamoma-0.5.7/patchers/library/components/initialized",
				"patcherrelativepath" : "../../../../../Applications/Max 6.1/packages/Jamoma-0.5.7/patchers/library/components/initialized",
				"type" : "JSON",
				"implicit" : 1
			}
, 			{
				"name" : "jmod.nav.slide%.maxpat",
				"bootpath" : "/Users/NavNav/code/Git/Nav/Jamoma/jmod.nav.slide%",
				"patcherrelativepath" : "../../../code/Git/Nav/Jamoma/jmod.nav.slide%",
				"type" : "JSON",
				"implicit" : 1
			}
, 			{
				"name" : "jalg.nav.slide%.maxpat",
				"bootpath" : "/Users/NavNav/code/Git/Nav/Jamoma/jmod.nav.slide%",
				"patcherrelativepath" : "../../../code/Git/Nav/Jamoma/jmod.nav.slide%",
				"type" : "JSON",
				"implicit" : 1
			}
, 			{
				"name" : "jmod.nav.delay%.maxpat",
				"bootpath" : "/Users/NavNav/code/Git/Nav/Jamoma/jmod.nav.delay%",
				"patcherrelativepath" : "../../../code/Git/Nav/Jamoma/jmod.nav.delay%",
				"type" : "JSON",
				"implicit" : 1
			}
, 			{
				"name" : "jalg.nav.delay%.maxpat",
				"bootpath" : "/Users/NavNav/code/Git/Nav/Jamoma/jmod.nav.delay%",
				"patcherrelativepath" : "../../../code/Git/Nav/Jamoma/jmod.nav.delay%",
				"type" : "JSON",
				"implicit" : 1
			}
, 			{
				"name" : "thru.maxpat",
				"bootpath" : "/Applications/Max 6.1/patches/m4l-patches/Pluggo for Live resources/patches",
				"patcherrelativepath" : "../../../../../Applications/Max 6.1/patches/m4l-patches/Pluggo for Live resources/patches",
				"type" : "JSON",
				"implicit" : 1
			}
, 			{
				"name" : "vz.feedr.maxpat",
				"bootpath" : "/Applications/Max 6.1/packages/vizzie/patchers",
				"patcherrelativepath" : "../../../../../Applications/Max 6.1/packages/vizzie/patchers",
				"type" : "JSON",
				"implicit" : 1
			}
, 			{
				"name" : "feedr-presets.json",
				"bootpath" : "/Applications/Max 6.1/packages/vizzie/patchers",
				"patcherrelativepath" : "../../../../../Applications/Max 6.1/packages/vizzie/patchers",
				"type" : "JSON",
				"implicit" : 1
			}
, 			{
				"name" : "vz.2toner.maxpat",
				"bootpath" : "/Applications/Max 6.1/packages/vizzie/patchers",
				"patcherrelativepath" : "../../../../../Applications/Max 6.1/packages/vizzie/patchers",
				"type" : "JSON",
				"implicit" : 1
			}
, 			{
				"name" : "2toner-presets.json",
				"bootpath" : "/Applications/Max 6.1/packages/vizzie/patchers",
				"patcherrelativepath" : "../../../../../Applications/Max 6.1/packages/vizzie/patchers",
				"type" : "JSON",
				"implicit" : 1
			}
, 			{
				"name" : "jcom.ui.mxo",
				"type" : "iLaX"
			}
, 			{
				"name" : "jcom.hub.mxo",
				"type" : "iLaX"
			}
, 			{
				"name" : "xray.jit.timecube.mxo",
				"type" : "iLaX"
			}
, 			{
				"name" : "jcom.oscroute.mxo",
				"type" : "iLaX"
			}
, 			{
				"name" : "jcom.pass.mxo",
				"type" : "iLaX"
			}
, 			{
				"name" : "jcom.in.mxo",
				"type" : "iLaX"
			}
, 			{
				"name" : "jcom.out.mxo",
				"type" : "iLaX"
			}
, 			{
				"name" : "jcom.parameter.mxo",
				"type" : "iLaX"
			}
, 			{
				"name" : "jcom.dataspace.mxo",
				"type" : "iLaX"
			}
, 			{
				"name" : "jcom.textslider.mxo",
				"type" : "iLaX"
			}
, 			{
				"name" : "jcom.message.mxo",
				"type" : "iLaX"
			}
, 			{
				"name" : "jcom.loader.mxo",
				"type" : "iLaX"
			}
, 			{
				"name" : "jcom.loader.mxo",
				"type" : "iLaX"
			}
, 			{
				"name" : "jcom.cuemanager.mxo",
				"type" : "iLaX"
			}
, 			{
				"name" : "jcom.return.mxo",
				"type" : "iLaX"
			}
, 			{
				"name" : "jcom.route.mxo",
				"type" : "iLaX"
			}
, 			{
				"name" : "cv.jit.resize.mxo",
				"type" : "iLaX"
			}
 ]
	}

}
