{
	"patcher" : 	{
		"fileversion" : 1,
		"appversion" : 		{
			"major" : 6,
			"minor" : 1,
			"revision" : 9,
			"architecture" : "x86"
		}
,
		"rect" : [ 372.0, 207.0, 918.0, 214.0 ],
		"bglocked" : 0,
		"openinpresentation" : 1,
		"default_fontsize" : 12.0,
		"default_fontface" : 0,
		"default_fontname" : "Arial",
		"gridonopen" : 0,
		"gridsize" : [ 15.0, 15.0 ],
		"gridsnaponopen" : 0,
		"statusbarvisible" : 2,
		"toolbarvisible" : 0,
		"boxanimatetime" : 200,
		"imprint" : 0,
		"enablehscroll" : 0,
		"enablevscroll" : 0,
		"devicewidth" : 0.0,
		"description" : "",
		"digest" : "",
		"tags" : "",
		"boxes" : [ 			{
				"box" : 				{
					"bgcolor" : [ 0.670588, 0.670588, 0.85098, 1.0 ],
					"border" : 4,
					"bordercolor" : [ 0.0, 0.0, 0.0, 1.0 ],
					"borderoncolor" : [ 0.047059, 0.913725, 0.913725, 1.0 ],
					"fontname" : "Arial Bold",
					"fontsize" : 14.0,
					"hint" : "active ",
					"id" : "obj-36",
					"maxclass" : "textbutton",
					"mode" : 1,
					"numinlets" : 1,
					"numoutlets" : 3,
					"outlettype" : [ "", "", "int" ],
					"parameter_enable" : 0,
					"patching_rect" : [ 375.0, 303.0, 39.0, 32.0 ],
					"presentation" : 1,
					"presentation_rect" : [ 1.0, 19.5, 37.0, 30.0 ],
					"rounded" : 15.0,
					"text" : "Off",
					"texton" : "On",
					"varname" : "on[1]"
				}

			}
, 			{
				"box" : 				{
					"args" : [ "G3" ],
					"id" : "obj-11",
					"maxclass" : "bpatcher",
					"name" : "jmod.nav.rogs~.maxpat",
					"numinlets" : 1,
					"numoutlets" : 2,
					"outlettype" : [ "", "audio.connect" ],
					"patching_rect" : [ 24.0, 465.0, 300.0, 140.0 ],
					"presentation" : 1,
					"presentation_rect" : [ 614.0, 1.5, 300.0, 140.0 ]
				}

			}
, 			{
				"box" : 				{
					"args" : [ "G2" ],
					"id" : "obj-9",
					"maxclass" : "bpatcher",
					"name" : "jmod.nav.rogs~.maxpat",
					"numinlets" : 1,
					"numoutlets" : 2,
					"outlettype" : [ "", "audio.connect" ],
					"patching_rect" : [ 525.0, 139.0, 300.0, 140.0 ],
					"presentation" : 1,
					"presentation_rect" : [ 308.0, 1.5, 300.0, 140.0 ]
				}

			}
, 			{
				"box" : 				{
					"args" : [ "G1" ],
					"id" : "obj-7",
					"maxclass" : "bpatcher",
					"name" : "jmod.nav.rogs~.maxpat",
					"numinlets" : 1,
					"numoutlets" : 2,
					"outlettype" : [ "", "audio.connect" ],
					"patching_rect" : [ 24.0, 126.5, 300.0, 140.0 ],
					"presentation" : 1,
					"presentation_rect" : [ 1.0, 1.5, 300.0, 140.0 ]
				}

			}
, 			{
				"box" : 				{
					"fontname" : "Arial",
					"fontsize" : 12.0,
					"id" : "obj-2",
					"maxclass" : "newobj",
					"numinlets" : 2,
					"numoutlets" : 1,
					"outlettype" : [ "int" ],
					"patching_rect" : [ 375.0, 337.0, 32.5, 20.0 ],
					"text" : "!- 1"
				}

			}
, 			{
				"box" : 				{
					"fontname" : "Arial",
					"fontsize" : 12.0,
					"id" : "obj-37",
					"maxclass" : "message",
					"numinlets" : 2,
					"numoutlets" : 1,
					"outlettype" : [ "" ],
					"patching_rect" : [ 375.0, 357.0, 90.0, 18.0 ],
					"text" : "/audio/mute $1"
				}

			}
, 			{
				"box" : 				{
					"fontname" : "Arial",
					"fontsize" : 12.0,
					"id" : "obj-43",
					"maxclass" : "newobj",
					"numinlets" : 2,
					"numoutlets" : 0,
					"patcher" : 					{
						"fileversion" : 1,
						"appversion" : 						{
							"major" : 6,
							"minor" : 1,
							"revision" : 9,
							"architecture" : "x86"
						}
,
						"rect" : [ 25.0, 69.0, 640.0, 480.0 ],
						"bglocked" : 0,
						"openinpresentation" : 0,
						"default_fontsize" : 12.0,
						"default_fontface" : 0,
						"default_fontname" : "Arial",
						"gridonopen" : 0,
						"gridsize" : [ 15.0, 15.0 ],
						"gridsnaponopen" : 0,
						"statusbarvisible" : 2,
						"toolbarvisible" : 1,
						"boxanimatetime" : 200,
						"imprint" : 0,
						"enablehscroll" : 1,
						"enablevscroll" : 1,
						"devicewidth" : 0.0,
						"description" : "",
						"digest" : "",
						"tags" : "",
						"boxes" : [ 							{
								"box" : 								{
									"fontname" : "Arial",
									"fontsize" : 12.0,
									"id" : "obj-6",
									"maxclass" : "newobj",
									"numinlets" : 1,
									"numoutlets" : 0,
									"patching_rect" : [ 50.0, 147.0, 83.0, 20.0 ],
									"text" : "s 2rogsRVRB"
								}

							}
, 							{
								"box" : 								{
									"fontname" : "Verdana",
									"fontsize" : 10.0,
									"id" : "obj-15",
									"maxclass" : "message",
									"numinlets" : 2,
									"numoutlets" : 1,
									"outlettype" : [ "" ],
									"patching_rect" : [ 50.0, 100.0, 71.0, 17.0 ],
									"text" : "midiGain $1"
								}

							}
, 							{
								"box" : 								{
									"fontname" : "Arial",
									"fontsize" : 12.0,
									"id" : "obj-1",
									"maxclass" : "newobj",
									"numinlets" : 1,
									"numoutlets" : 2,
									"outlettype" : [ "audio.connect", "" ],
									"patching_rect" : [ 50.0, 120.0, 78.0, 20.0 ],
									"text" : "jcom.gain≈ 8"
								}

							}
, 							{
								"box" : 								{
									"comment" : "",
									"id" : "obj-7",
									"maxclass" : "inlet",
									"numinlets" : 0,
									"numoutlets" : 1,
									"outlettype" : [ "" ],
									"patching_rect" : [ 50.0, 40.0, 25.0, 25.0 ]
								}

							}
, 							{
								"box" : 								{
									"comment" : "",
									"id" : "obj-8",
									"maxclass" : "inlet",
									"numinlets" : 0,
									"numoutlets" : 1,
									"outlettype" : [ "audio.connect" ],
									"patching_rect" : [ 80.0, 40.0, 25.0, 25.0 ]
								}

							}
 ],
						"lines" : [ 							{
								"patchline" : 								{
									"destination" : [ "obj-6", 0 ],
									"disabled" : 0,
									"hidden" : 0,
									"source" : [ "obj-1", 0 ]
								}

							}
, 							{
								"patchline" : 								{
									"destination" : [ "obj-1", 0 ],
									"disabled" : 0,
									"hidden" : 0,
									"source" : [ "obj-15", 0 ]
								}

							}
, 							{
								"patchline" : 								{
									"destination" : [ "obj-15", 0 ],
									"disabled" : 0,
									"hidden" : 0,
									"source" : [ "obj-7", 0 ]
								}

							}
, 							{
								"patchline" : 								{
									"destination" : [ "obj-1", 0 ],
									"disabled" : 0,
									"hidden" : 0,
									"source" : [ "obj-8", 0 ]
								}

							}
 ]
					}
,
					"patching_rect" : [ 331.0, 254.0, 67.0, 20.0 ],
					"saved_object_attributes" : 					{
						"default_fontface" : 0,
						"default_fontname" : "Arial",
						"default_fontsize" : 12.0,
						"description" : "",
						"digest" : "",
						"fontface" : 0,
						"fontname" : "Arial",
						"fontsize" : 12.0,
						"globalpatchername" : "",
						"tags" : ""
					}
,
					"text" : "p rvrbGain"
				}

			}
, 			{
				"box" : 				{
					"id" : "obj-44",
					"maxclass" : "slider",
					"numinlets" : 1,
					"numoutlets" : 1,
					"outlettype" : [ "" ],
					"parameter_enable" : 0,
					"patching_rect" : [ 331.0, 236.0, 67.0, 12.0 ],
					"presentation" : 1,
					"presentation_rect" : [ 1.0, 197.5, 300.0, 14.0 ]
				}

			}
, 			{
				"box" : 				{
					"args" : [ "GRogsOut1" ],
					"id" : "obj-47",
					"lockeddragscroll" : 1,
					"maxclass" : "bpatcher",
					"name" : "jmod.sur.output~.maxpat",
					"numinlets" : 2,
					"numoutlets" : 1,
					"outlettype" : [ "" ],
					"patching_rect" : [ 24.0, 274.0, 300.0, 70.0 ],
					"presentation" : 1,
					"presentation_rect" : [ 1.0, 141.5, 300.0, 70.0 ]
				}

			}
, 			{
				"box" : 				{
					"fontname" : "Arial",
					"fontsize" : 12.0,
					"id" : "obj-4",
					"maxclass" : "newobj",
					"numinlets" : 2,
					"numoutlets" : 0,
					"patcher" : 					{
						"fileversion" : 1,
						"appversion" : 						{
							"major" : 6,
							"minor" : 1,
							"revision" : 9,
							"architecture" : "x86"
						}
,
						"rect" : [ 599.0, 252.0, 640.0, 480.0 ],
						"bglocked" : 0,
						"openinpresentation" : 0,
						"default_fontsize" : 12.0,
						"default_fontface" : 0,
						"default_fontname" : "Arial",
						"gridonopen" : 0,
						"gridsize" : [ 15.0, 15.0 ],
						"gridsnaponopen" : 0,
						"statusbarvisible" : 2,
						"toolbarvisible" : 1,
						"boxanimatetime" : 200,
						"imprint" : 0,
						"enablehscroll" : 1,
						"enablevscroll" : 1,
						"devicewidth" : 0.0,
						"description" : "",
						"digest" : "",
						"tags" : "",
						"boxes" : [ 							{
								"box" : 								{
									"fontname" : "Arial",
									"fontsize" : 12.0,
									"id" : "obj-6",
									"maxclass" : "newobj",
									"numinlets" : 1,
									"numoutlets" : 0,
									"patching_rect" : [ 50.0, 147.0, 83.0, 20.0 ],
									"text" : "s 2rogsRVRB"
								}

							}
, 							{
								"box" : 								{
									"fontname" : "Verdana",
									"fontsize" : 10.0,
									"id" : "obj-15",
									"maxclass" : "message",
									"numinlets" : 2,
									"numoutlets" : 1,
									"outlettype" : [ "" ],
									"patching_rect" : [ 50.0, 100.0, 71.0, 17.0 ],
									"text" : "midiGain $1"
								}

							}
, 							{
								"box" : 								{
									"fontname" : "Arial",
									"fontsize" : 12.0,
									"id" : "obj-1",
									"maxclass" : "newobj",
									"numinlets" : 1,
									"numoutlets" : 2,
									"outlettype" : [ "audio.connect", "" ],
									"patching_rect" : [ 50.0, 120.0, 78.0, 20.0 ],
									"text" : "jcom.gain≈ 8"
								}

							}
, 							{
								"box" : 								{
									"comment" : "",
									"id" : "obj-7",
									"maxclass" : "inlet",
									"numinlets" : 0,
									"numoutlets" : 1,
									"outlettype" : [ "" ],
									"patching_rect" : [ 50.0, 40.0, 25.0, 25.0 ]
								}

							}
, 							{
								"box" : 								{
									"comment" : "",
									"id" : "obj-8",
									"maxclass" : "inlet",
									"numinlets" : 0,
									"numoutlets" : 1,
									"outlettype" : [ "audio.connect" ],
									"patching_rect" : [ 80.0, 40.0, 25.0, 25.0 ]
								}

							}
 ],
						"lines" : [ 							{
								"patchline" : 								{
									"destination" : [ "obj-6", 0 ],
									"disabled" : 0,
									"hidden" : 0,
									"source" : [ "obj-1", 0 ]
								}

							}
, 							{
								"patchline" : 								{
									"destination" : [ "obj-1", 0 ],
									"disabled" : 0,
									"hidden" : 0,
									"source" : [ "obj-15", 0 ]
								}

							}
, 							{
								"patchline" : 								{
									"destination" : [ "obj-15", 0 ],
									"disabled" : 0,
									"hidden" : 0,
									"source" : [ "obj-7", 0 ]
								}

							}
, 							{
								"patchline" : 								{
									"destination" : [ "obj-1", 0 ],
									"disabled" : 0,
									"hidden" : 0,
									"source" : [ "obj-8", 0 ]
								}

							}
 ]
					}
,
					"patching_rect" : [ 832.0, 293.0, 67.0, 20.0 ],
					"saved_object_attributes" : 					{
						"default_fontface" : 0,
						"default_fontname" : "Arial",
						"default_fontsize" : 12.0,
						"description" : "",
						"digest" : "",
						"fontface" : 0,
						"fontname" : "Arial",
						"fontsize" : 12.0,
						"globalpatchername" : "",
						"tags" : ""
					}
,
					"text" : "p rvrbGain"
				}

			}
, 			{
				"box" : 				{
					"id" : "obj-28",
					"maxclass" : "slider",
					"numinlets" : 1,
					"numoutlets" : 1,
					"outlettype" : [ "" ],
					"parameter_enable" : 0,
					"patching_rect" : [ 832.0, 267.0, 67.0, 12.0 ],
					"presentation" : 1,
					"presentation_rect" : [ 308.0, 197.5, 300.0, 14.0 ]
				}

			}
, 			{
				"box" : 				{
					"args" : [ "GRogsOut2" ],
					"enablehscroll" : 1,
					"id" : "obj-40",
					"lockeddragscroll" : 1,
					"maxclass" : "bpatcher",
					"name" : "jmod.sur.output~.maxpat",
					"numinlets" : 2,
					"numoutlets" : 1,
					"outlettype" : [ "" ],
					"patching_rect" : [ 525.0, 293.0, 300.0, 70.0 ],
					"presentation" : 1,
					"presentation_rect" : [ 308.0, 141.5, 300.0, 70.0 ]
				}

			}
, 			{
				"box" : 				{
					"fontname" : "Arial",
					"fontsize" : 12.0,
					"id" : "obj-10",
					"maxclass" : "newobj",
					"numinlets" : 2,
					"numoutlets" : 0,
					"patcher" : 					{
						"fileversion" : 1,
						"appversion" : 						{
							"major" : 6,
							"minor" : 1,
							"revision" : 9,
							"architecture" : "x86"
						}
,
						"rect" : [ 25.0, 69.0, 640.0, 480.0 ],
						"bglocked" : 0,
						"openinpresentation" : 0,
						"default_fontsize" : 12.0,
						"default_fontface" : 0,
						"default_fontname" : "Arial",
						"gridonopen" : 0,
						"gridsize" : [ 15.0, 15.0 ],
						"gridsnaponopen" : 0,
						"statusbarvisible" : 2,
						"toolbarvisible" : 1,
						"boxanimatetime" : 200,
						"imprint" : 0,
						"enablehscroll" : 1,
						"enablevscroll" : 1,
						"devicewidth" : 0.0,
						"description" : "",
						"digest" : "",
						"tags" : "",
						"boxes" : [ 							{
								"box" : 								{
									"fontname" : "Arial",
									"fontsize" : 12.0,
									"id" : "obj-6",
									"maxclass" : "newobj",
									"numinlets" : 1,
									"numoutlets" : 0,
									"patching_rect" : [ 50.0, 147.0, 83.0, 20.0 ],
									"text" : "s 2rogsRVRB"
								}

							}
, 							{
								"box" : 								{
									"fontname" : "Verdana",
									"fontsize" : 10.0,
									"id" : "obj-15",
									"maxclass" : "message",
									"numinlets" : 2,
									"numoutlets" : 1,
									"outlettype" : [ "" ],
									"patching_rect" : [ 50.0, 100.0, 71.0, 17.0 ],
									"text" : "midiGain $1"
								}

							}
, 							{
								"box" : 								{
									"fontname" : "Arial",
									"fontsize" : 12.0,
									"id" : "obj-1",
									"maxclass" : "newobj",
									"numinlets" : 1,
									"numoutlets" : 2,
									"outlettype" : [ "audio.connect", "" ],
									"patching_rect" : [ 50.0, 120.0, 78.0, 20.0 ],
									"text" : "jcom.gain≈ 8"
								}

							}
, 							{
								"box" : 								{
									"comment" : "",
									"id" : "obj-7",
									"maxclass" : "inlet",
									"numinlets" : 0,
									"numoutlets" : 1,
									"outlettype" : [ "" ],
									"patching_rect" : [ 50.0, 40.0, 25.0, 25.0 ]
								}

							}
, 							{
								"box" : 								{
									"comment" : "",
									"id" : "obj-8",
									"maxclass" : "inlet",
									"numinlets" : 0,
									"numoutlets" : 1,
									"outlettype" : [ "audio.connect" ],
									"patching_rect" : [ 167.0, 40.0, 25.0, 25.0 ]
								}

							}
 ],
						"lines" : [ 							{
								"patchline" : 								{
									"destination" : [ "obj-6", 0 ],
									"disabled" : 0,
									"hidden" : 0,
									"source" : [ "obj-1", 0 ]
								}

							}
, 							{
								"patchline" : 								{
									"destination" : [ "obj-1", 0 ],
									"disabled" : 0,
									"hidden" : 0,
									"source" : [ "obj-15", 0 ]
								}

							}
, 							{
								"patchline" : 								{
									"destination" : [ "obj-15", 0 ],
									"disabled" : 0,
									"hidden" : 0,
									"source" : [ "obj-7", 0 ]
								}

							}
, 							{
								"patchline" : 								{
									"destination" : [ "obj-1", 0 ],
									"disabled" : 0,
									"hidden" : 0,
									"source" : [ "obj-8", 0 ]
								}

							}
 ]
					}
,
					"patching_rect" : [ 340.0, 618.0, 67.0, 20.0 ],
					"saved_object_attributes" : 					{
						"default_fontface" : 0,
						"default_fontname" : "Arial",
						"default_fontsize" : 12.0,
						"description" : "",
						"digest" : "",
						"fontface" : 0,
						"fontname" : "Arial",
						"fontsize" : 12.0,
						"globalpatchername" : "",
						"tags" : ""
					}
,
					"text" : "p rvrbGain"
				}

			}
, 			{
				"box" : 				{
					"id" : "obj-12",
					"maxclass" : "slider",
					"numinlets" : 1,
					"numoutlets" : 1,
					"outlettype" : [ "" ],
					"parameter_enable" : 0,
					"patching_rect" : [ 340.0, 600.0, 67.0, 12.0 ],
					"presentation" : 1,
					"presentation_rect" : [ 614.0, 197.5, 300.0, 14.0 ]
				}

			}
, 			{
				"box" : 				{
					"args" : [ "GRogsout3" ],
					"id" : "obj-23",
					"lockeddragscroll" : 1,
					"maxclass" : "bpatcher",
					"name" : "jmod.sur.output~.maxpat",
					"numinlets" : 2,
					"numoutlets" : 1,
					"outlettype" : [ "" ],
					"patching_rect" : [ 24.0, 624.0, 300.0, 70.0 ],
					"presentation" : 1,
					"presentation_rect" : [ 614.0, 141.5, 300.0, 70.0 ]
				}

			}
 ],
		"lines" : [ 			{
				"patchline" : 				{
					"destination" : [ "obj-10", 1 ],
					"disabled" : 0,
					"hidden" : 0,
					"source" : [ "obj-11", 1 ]
				}

			}
, 			{
				"patchline" : 				{
					"destination" : [ "obj-23", 1 ],
					"disabled" : 0,
					"hidden" : 0,
					"source" : [ "obj-11", 1 ]
				}

			}
, 			{
				"patchline" : 				{
					"destination" : [ "obj-10", 0 ],
					"disabled" : 0,
					"hidden" : 0,
					"source" : [ "obj-12", 0 ]
				}

			}
, 			{
				"patchline" : 				{
					"destination" : [ "obj-37", 0 ],
					"disabled" : 0,
					"hidden" : 0,
					"source" : [ "obj-2", 0 ]
				}

			}
, 			{
				"patchline" : 				{
					"destination" : [ "obj-4", 0 ],
					"disabled" : 0,
					"hidden" : 0,
					"source" : [ "obj-28", 0 ]
				}

			}
, 			{
				"patchline" : 				{
					"destination" : [ "obj-2", 0 ],
					"disabled" : 0,
					"hidden" : 0,
					"source" : [ "obj-36", 0 ]
				}

			}
, 			{
				"patchline" : 				{
					"destination" : [ "obj-23", 0 ],
					"disabled" : 0,
					"hidden" : 0,
					"source" : [ "obj-37", 0 ]
				}

			}
, 			{
				"patchline" : 				{
					"destination" : [ "obj-40", 0 ],
					"disabled" : 0,
					"hidden" : 0,
					"source" : [ "obj-37", 0 ]
				}

			}
, 			{
				"patchline" : 				{
					"destination" : [ "obj-47", 0 ],
					"disabled" : 0,
					"hidden" : 0,
					"source" : [ "obj-37", 0 ]
				}

			}
, 			{
				"patchline" : 				{
					"destination" : [ "obj-7", 0 ],
					"disabled" : 0,
					"hidden" : 0,
					"source" : [ "obj-37", 0 ]
				}

			}
, 			{
				"patchline" : 				{
					"destination" : [ "obj-43", 0 ],
					"disabled" : 0,
					"hidden" : 0,
					"source" : [ "obj-44", 0 ]
				}

			}
, 			{
				"patchline" : 				{
					"destination" : [ "obj-43", 1 ],
					"disabled" : 0,
					"hidden" : 0,
					"source" : [ "obj-7", 1 ]
				}

			}
, 			{
				"patchline" : 				{
					"destination" : [ "obj-47", 1 ],
					"disabled" : 0,
					"hidden" : 0,
					"source" : [ "obj-7", 1 ]
				}

			}
, 			{
				"patchline" : 				{
					"destination" : [ "obj-4", 1 ],
					"disabled" : 0,
					"hidden" : 0,
					"source" : [ "obj-9", 1 ]
				}

			}
, 			{
				"patchline" : 				{
					"destination" : [ "obj-40", 1 ],
					"disabled" : 0,
					"hidden" : 0,
					"source" : [ "obj-9", 1 ]
				}

			}
 ],
		"parameters" : 		{
			"obj-11::obj-108::obj-103" : [ "Direction[12]", "Direction", 0 ],
			"obj-9::obj-108::obj-67" : [ "SelectAll[5]", "SelectAll", 0 ],
			"obj-11::obj-108::obj-101" : [ "Scrub[3]", "Scrub", 0 ],
			"obj-7::obj-51" : [ "Soundfile[1]", "Soundfile", 0 ],
			"obj-7::obj-74" : [ "note[1]", "Note", 0 ],
			"obj-11::obj-68" : [ "DropFile[3]", "DropFile", 0 ],
			"obj-11::obj-43::obj-131::obj-54::obj-9::obj-61" : [ "TriggersMode[5]", "Mode", 0 ],
			"obj-11::obj-108::obj-87" : [ "Direction[11]", "Direction", 0 ],
			"obj-7::obj-108::obj-103" : [ "Direction[9]", "Direction", 0 ],
			"obj-9::obj-108::obj-101" : [ "Scrub[2]", "Scrub", 0 ],
			"obj-9::obj-108::obj-32" : [ "live.text[8]", "live.text[3]", 0 ],
			"obj-9::obj-108::obj-87" : [ "Direction[2]", "Direction", 0 ],
			"obj-7::obj-108::obj-87" : [ "Direction[10]", "Direction", 0 ],
			"obj-11::obj-74" : [ "note[3]", "Note", 0 ],
			"obj-11::obj-51" : [ "Soundfile[3]", "Soundfile", 0 ],
			"obj-11::obj-108::obj-32" : [ "live.text[1]", "live.text[3]", 0 ],
			"obj-11::obj-69" : [ "SelectFile[3]", "SelectFile", 0 ],
			"obj-9::obj-108::obj-103" : [ "Direction[1]", "Direction", 0 ],
			"obj-11::obj-89" : [ "lock[3]", "Lock", 0 ],
			"obj-7::obj-69" : [ "SelectFile[1]", "SelectFile", 0 ],
			"obj-7::obj-108::obj-67" : [ "SelectAll[4]", "SelectAll", 0 ],
			"obj-7::obj-108::obj-101" : [ "Scrub[1]", "Scrub", 0 ],
			"obj-7::obj-108::obj-32" : [ "live.text[7]", "live.text[3]", 0 ],
			"obj-7::obj-43::obj-131::obj-54::obj-9::obj-61" : [ "TriggersMode[3]", "Mode", 0 ],
			"obj-7::obj-89" : [ "lock[1]", "Lock", 0 ],
			"obj-11::obj-108::obj-67" : [ "SelectAll[6]", "SelectAll", 0 ],
			"obj-9::obj-51" : [ "Soundfile[2]", "Soundfile", 0 ],
			"obj-9::obj-89" : [ "lock[2]", "Lock", 0 ],
			"obj-7::obj-68" : [ "DropFile[1]", "DropFile", 0 ],
			"obj-9::obj-74" : [ "note[2]", "Note", 0 ],
			"obj-9::obj-69" : [ "SelectFile[2]", "SelectFile", 0 ],
			"obj-9::obj-43::obj-131::obj-54::obj-9::obj-61" : [ "TriggersMode[4]", "Mode", 0 ],
			"obj-9::obj-68" : [ "DropFile[2]", "DropFile", 0 ]
		}
,
		"dependency_cache" : [ 			{
				"name" : "jmod.sur.output~.maxpat",
				"bootpath" : "/Applications/Max 6.1/packages/Jamoma-0.5.7/patchers/modules/spatialization/sur.output~",
				"patcherrelativepath" : "../../../../Applications/Max 6.1/packages/Jamoma-0.5.7/patchers/modules/spatialization/sur.output~",
				"type" : "JSON",
				"implicit" : 1
			}
, 			{
				"name" : "jalg.sur.output~.maxpat",
				"bootpath" : "/Applications/Max 6.1/packages/Jamoma-0.5.7/patchers/modules/spatialization/sur.output~",
				"patcherrelativepath" : "../../../../Applications/Max 6.1/packages/Jamoma-0.5.7/patchers/modules/spatialization/sur.output~",
				"type" : "JSON",
				"implicit" : 1
			}
, 			{
				"name" : "jcom.thru.maxpat",
				"bootpath" : "/Applications/Max 6.1/packages/Jamoma-0.5.7/patchers/library/components/thru",
				"patcherrelativepath" : "../../../../Applications/Max 6.1/packages/Jamoma-0.5.7/patchers/library/components/thru",
				"type" : "JSON",
				"implicit" : 1
			}
, 			{
				"name" : "jcom.audioOnOff.maxpat",
				"bootpath" : "/Applications/Max 6.1/packages/Jamoma-0.5.7/patchers/library/components/audioOnOff",
				"patcherrelativepath" : "../../../../Applications/Max 6.1/packages/Jamoma-0.5.7/patchers/library/components/audioOnOff",
				"type" : "JSON",
				"implicit" : 1
			}
, 			{
				"name" : "jcom.js_systeminfo.js",
				"bootpath" : "/Applications/Max 6.1/packages/Jamoma-0.5.7/javascript",
				"patcherrelativepath" : "../../../../Applications/Max 6.1/packages/Jamoma-0.5.7/javascript",
				"type" : "TEXT",
				"implicit" : 1
			}
, 			{
				"name" : "jmod.nav.rogs~.maxpat",
				"bootpath" : "/Users/NavNav/code/Git/Nav/Jamoma/jmod.nav.rogs~",
				"patcherrelativepath" : "../../code/Git/Nav/Jamoma/jmod.nav.rogs~",
				"type" : "JSON",
				"implicit" : 1
			}
, 			{
				"name" : "jalg.nav.rogs~.maxpat",
				"bootpath" : "/Users/NavNav/code/Git/Nav/Jamoma/jmod.nav.rogs~",
				"patcherrelativepath" : "../../code/Git/Nav/Jamoma/jmod.nav.rogs~",
				"type" : "JSON",
				"implicit" : 1
			}
, 			{
				"name" : "jcom.absdiff.maxpat",
				"bootpath" : "/Applications/Max 6.1/packages/Jamoma-0.5.7/patchers/library/components/absdiff",
				"patcherrelativepath" : "../../../../Applications/Max 6.1/packages/Jamoma-0.5.7/patchers/library/components/absdiff",
				"type" : "JSON",
				"implicit" : 1
			}
, 			{
				"name" : "jcom.nav.oscroute.maxpat",
				"bootpath" : "/Users/NavNav/code/Git/Nav/Jamoma/jmod.nav.oscRoute",
				"patcherrelativepath" : "../../code/Git/Nav/Jamoma/jmod.nav.oscRoute",
				"type" : "JSON",
				"implicit" : 1
			}
, 			{
				"name" : "jcom.modulesDumper.maxpat",
				"bootpath" : "/Applications/Max 6.1/packages/Jamoma-0.5.7/patchers/library/components/modulesDumper",
				"patcherrelativepath" : "../../../../Applications/Max 6.1/packages/Jamoma-0.5.7/patchers/library/components/modulesDumper",
				"type" : "JSON",
				"implicit" : 1
			}
, 			{
				"name" : "jcom.getAllAttributes.maxpat",
				"bootpath" : "/Applications/Max 6.1/packages/Jamoma-0.5.7/patchers/library/components/getAllAttributes",
				"patcherrelativepath" : "../../../../Applications/Max 6.1/packages/Jamoma-0.5.7/patchers/library/components/getAllAttributes",
				"type" : "JSON",
				"implicit" : 1
			}
, 			{
				"name" : "jcom.getReturnNames.maxpat",
				"bootpath" : "/Applications/Max 6.1/packages/Jamoma-0.5.7/patchers/library/components/getReturnNames",
				"patcherrelativepath" : "../../../../Applications/Max 6.1/packages/Jamoma-0.5.7/patchers/library/components/getReturnNames",
				"type" : "JSON",
				"implicit" : 1
			}
, 			{
				"name" : "jcom.getParameterNames.maxpat",
				"bootpath" : "/Applications/Max 6.1/packages/Jamoma-0.5.7/patchers/library/components/getParameterNames",
				"patcherrelativepath" : "../../../../Applications/Max 6.1/packages/Jamoma-0.5.7/patchers/library/components/getParameterNames",
				"type" : "JSON",
				"implicit" : 1
			}
, 			{
				"name" : "jcom.getMessageNames.maxpat",
				"bootpath" : "/Applications/Max 6.1/packages/Jamoma-0.5.7/patchers/library/components/getMessageNames",
				"patcherrelativepath" : "../../../../Applications/Max 6.1/packages/Jamoma-0.5.7/patchers/library/components/getMessageNames",
				"type" : "JSON",
				"implicit" : 1
			}
, 			{
				"name" : "jcom.getOneAttribute.maxpat",
				"bootpath" : "/Applications/Max 6.1/packages/Jamoma-0.5.7/patchers/library/components/getOneAttribute",
				"patcherrelativepath" : "../../../../Applications/Max 6.1/packages/Jamoma-0.5.7/patchers/library/components/getOneAttribute",
				"type" : "JSON",
				"implicit" : 1
			}
, 			{
				"name" : "jcom.autoscale.maxpat",
				"bootpath" : "/Applications/Max 6.1/packages/Jamoma-0.5.7/patchers/library/components/autoscale",
				"patcherrelativepath" : "../../../../Applications/Max 6.1/packages/Jamoma-0.5.7/patchers/library/components/autoscale",
				"type" : "JSON",
				"implicit" : 1
			}
, 			{
				"name" : "jcom.ui.mxo",
				"type" : "iLaX"
			}
, 			{
				"name" : "jcom.hub.mxo",
				"type" : "iLaX"
			}
, 			{
				"name" : "jcom.parameter.mxo",
				"type" : "iLaX"
			}
, 			{
				"name" : "jcom.unpack≈.mxo",
				"type" : "iLaX"
			}
, 			{
				"name" : "jcom.oscroute.mxo",
				"type" : "iLaX"
			}
, 			{
				"name" : "jcom.pass.mxo",
				"type" : "iLaX"
			}
, 			{
				"name" : "jcom.route.mxo",
				"type" : "iLaX"
			}
, 			{
				"name" : "jcom.stats.mxo",
				"type" : "iLaX"
			}
, 			{
				"name" : "jcom.limiter≈.mxo",
				"type" : "iLaX"
			}
, 			{
				"name" : "jcom.gain≈.mxo",
				"type" : "iLaX"
			}
, 			{
				"name" : "jcom.in.mxo",
				"type" : "iLaX"
			}
, 			{
				"name" : "jcom.init.mxo",
				"type" : "iLaX"
			}
, 			{
				"name" : "jcom.message.mxo",
				"type" : "iLaX"
			}
, 			{
				"name" : "jcom.return.mxo",
				"type" : "iLaX"
			}
, 			{
				"name" : "jcom.textslider.mxo",
				"type" : "iLaX"
			}
, 			{
				"name" : "rogs~.mxo",
				"type" : "iLaX"
			}
, 			{
				"name" : "jcom.pack≈.mxo",
				"type" : "iLaX"
			}
, 			{
				"name" : "jcom.loader.mxo",
				"type" : "iLaX"
			}
, 			{
				"name" : "jcom.loader.mxo",
				"type" : "iLaX"
			}
, 			{
				"name" : "jcom.oscinstance.mxo",
				"type" : "iLaX"
			}
, 			{
				"name" : "jcom.map.mxo",
				"type" : "iLaX"
			}
, 			{
				"name" : "!.mxo",
				"type" : "iLaX"
			}
 ]
	}

}
