{
	"patcher" : 	{
		"fileversion" : 1,
		"appversion" : 		{
			"major" : 7,
			"minor" : 3,
			"revision" : 3,
			"architecture" : "x86",
			"modernui" : 1
		}
,
		"rect" : [ 819.0, 45.0, 209.0, 63.0 ],
		"bglocked" : 0,
		"openinpresentation" : 0,
		"default_fontsize" : 12.0,
		"default_fontface" : 0,
		"default_fontname" : "Arial",
		"gridonopen" : 1,
		"gridsize" : [ 15.0, 15.0 ],
		"gridsnaponopen" : 1,
		"objectsnaponopen" : 0,
		"statusbarvisible" : 2,
		"toolbarvisible" : 0,
		"lefttoolbarpinned" : 0,
		"toptoolbarpinned" : 0,
		"righttoolbarpinned" : 0,
		"bottomtoolbarpinned" : 0,
		"toolbars_unpinned_last_save" : 0,
		"tallnewobj" : 0,
		"boxanimatetime" : 200,
		"enablehscroll" : 0,
		"enablevscroll" : 0,
		"devicewidth" : 0.0,
		"description" : "",
		"digest" : "",
		"tags" : "",
		"style" : "",
		"subpatcher_template" : "",
		"boxes" : [ 			{
				"box" : 				{
					"id" : "obj-13",
					"maxclass" : "newobj",
					"numinlets" : 1,
					"numoutlets" : 1,
					"outlettype" : [ "" ],
					"patching_rect" : [ 4.0, 32.0, 207.0, 22.0 ],
					"style" : "",
					"text" : "cue_manager.module rogsLandCues"
				}

			}
, 			{
				"box" : 				{
					"annotation" : "none",
					"id" : "obj-11",
					"maxclass" : "newobj",
					"numinlets" : 0,
					"numoutlets" : 0,
					"patcher" : 					{
						"fileversion" : 1,
						"appversion" : 						{
							"major" : 7,
							"minor" : 3,
							"revision" : 3,
							"architecture" : "x86",
							"modernui" : 1
						}
,
						"rect" : [ 1035.0, 45.0, 606.0, 210.0 ],
						"bglocked" : 0,
						"openinpresentation" : 1,
						"default_fontsize" : 12.0,
						"default_fontface" : 0,
						"default_fontname" : "Arial",
						"gridonopen" : 1,
						"gridsize" : [ 15.0, 15.0 ],
						"gridsnaponopen" : 1,
						"objectsnaponopen" : 1,
						"statusbarvisible" : 2,
						"toolbarvisible" : 0,
						"lefttoolbarpinned" : 0,
						"toptoolbarpinned" : 0,
						"righttoolbarpinned" : 0,
						"bottomtoolbarpinned" : 0,
						"toolbars_unpinned_last_save" : 0,
						"tallnewobj" : 0,
						"boxanimatetime" : 200,
						"enablehscroll" : 0,
						"enablevscroll" : 0,
						"devicewidth" : 0.0,
						"description" : "",
						"digest" : "",
						"tags" : "",
						"style" : "",
						"subpatcher_template" : "",
						"visible" : 1,
						"boxes" : [ 							{
								"box" : 								{
									"id" : "obj-14",
									"maxclass" : "gain~",
									"numinlets" : 1,
									"numoutlets" : 2,
									"outlettype" : [ "signal", "int" ],
									"parameter_enable" : 0,
									"patching_rect" : [ 56.5, 332.0, 16.0, 78.0 ],
									"presentation" : 1,
									"presentation_rect" : [ 30.0, 12.0, 16.0, 78.0 ],
									"style" : ""
								}

							}
, 							{
								"box" : 								{
									"id" : "obj-19",
									"maxclass" : "gain~",
									"numinlets" : 1,
									"numoutlets" : 2,
									"outlettype" : [ "signal", "int" ],
									"parameter_enable" : 0,
									"patching_rect" : [ 32.5, 332.0, 16.0, 78.0 ],
									"presentation" : 1,
									"presentation_rect" : [ 11.0, 37.0, 16.0, 78.0 ],
									"style" : ""
								}

							}
, 							{
								"box" : 								{
									"id" : "obj-24",
									"maxclass" : "newobj",
									"numinlets" : 1,
									"numoutlets" : 0,
									"patching_rect" : [ 56.5, 428.5625, 47.0, 22.0 ],
									"style" : "",
									"text" : "dac~ 2"
								}

							}
, 							{
								"box" : 								{
									"id" : "obj-27",
									"maxclass" : "newobj",
									"numinlets" : 1,
									"numoutlets" : 0,
									"patching_rect" : [ 5.5, 428.5625, 47.0, 22.0 ],
									"style" : "",
									"text" : "dac~ 1"
								}

							}
, 							{
								"box" : 								{
									"id" : "obj-12",
									"maxclass" : "gain~",
									"numinlets" : 1,
									"numoutlets" : 2,
									"outlettype" : [ "signal", "int" ],
									"parameter_enable" : 0,
									"patching_rect" : [ 406.5, 324.0, 16.0, 78.0 ],
									"presentation" : 1,
									"presentation_rect" : [ 340.0, 14.0, 16.0, 78.0 ],
									"style" : ""
								}

							}
, 							{
								"box" : 								{
									"id" : "obj-13",
									"maxclass" : "gain~",
									"numinlets" : 1,
									"numoutlets" : 2,
									"outlettype" : [ "signal", "int" ],
									"parameter_enable" : 0,
									"patching_rect" : [ 382.5, 324.0, 16.0, 78.0 ],
									"presentation" : 1,
									"presentation_rect" : [ 316.0, 44.0, 16.0, 78.0 ],
									"style" : ""
								}

							}
, 							{
								"box" : 								{
									"id" : "obj-4",
									"maxclass" : "newobj",
									"numinlets" : 1,
									"numoutlets" : 0,
									"patching_rect" : [ 406.5, 420.5625, 47.0, 22.0 ],
									"style" : "",
									"text" : "dac~ 2"
								}

							}
, 							{
								"box" : 								{
									"id" : "obj-1",
									"maxclass" : "newobj",
									"numinlets" : 1,
									"numoutlets" : 1,
									"outlettype" : [ "signal" ],
									"patching_rect" : [ 448.0, 305.5625, 47.0, 22.0 ],
									"style" : "",
									"text" : "adc~ 2"
								}

							}
, 							{
								"box" : 								{
									"annotation" : "none",
									"fontsize" : 9.0,
									"id" : "obj-74",
									"maxclass" : "newobj",
									"numinlets" : 4,
									"numoutlets" : 4,
									"outlettype" : [ "", "", "", "" ],
									"patcher" : 									{
										"fileversion" : 1,
										"appversion" : 										{
											"major" : 7,
											"minor" : 3,
											"revision" : 3,
											"architecture" : "x86",
											"modernui" : 1
										}
,
										"rect" : [ 59.0, 104.0, 945.0, 375.0 ],
										"bglocked" : 0,
										"openinpresentation" : 0,
										"default_fontsize" : 12.0,
										"default_fontface" : 0,
										"default_fontname" : "Arial",
										"gridonopen" : 1,
										"gridsize" : [ 15.0, 15.0 ],
										"gridsnaponopen" : 1,
										"objectsnaponopen" : 1,
										"statusbarvisible" : 2,
										"toolbarvisible" : 1,
										"lefttoolbarpinned" : 0,
										"toptoolbarpinned" : 0,
										"righttoolbarpinned" : 0,
										"bottomtoolbarpinned" : 0,
										"toolbars_unpinned_last_save" : 0,
										"tallnewobj" : 0,
										"boxanimatetime" : 200,
										"enablehscroll" : 1,
										"enablevscroll" : 1,
										"devicewidth" : 0.0,
										"description" : "",
										"digest" : "",
										"tags" : "",
										"style" : "",
										"subpatcher_template" : "",
										"boxes" : [ 											{
												"box" : 												{
													"id" : "obj-13",
													"maxclass" : "newobj",
													"numinlets" : 1,
													"numoutlets" : 2,
													"outlettype" : [ "", "" ],
													"patching_rect" : [ 400.0, 129.0, 154.0, 22.0 ],
													"style" : "",
													"text" : "j.parameter rogs2/rvrbGain"
												}

											}
, 											{
												"box" : 												{
													"id" : "obj-14",
													"maxclass" : "newobj",
													"numinlets" : 1,
													"numoutlets" : 2,
													"outlettype" : [ "", "" ],
													"patching_rect" : [ 400.0, 191.0, 155.0, 22.0 ],
													"style" : "",
													"text" : "j.parameter rogs2/finalGain"
												}

											}
, 											{
												"box" : 												{
													"id" : "obj-8",
													"maxclass" : "newobj",
													"numinlets" : 1,
													"numoutlets" : 2,
													"outlettype" : [ "", "" ],
													"patching_rect" : [ 50.0, 100.0, 154.0, 22.0 ],
													"style" : "",
													"text" : "j.parameter rogs1/rvrbGain"
												}

											}
, 											{
												"box" : 												{
													"id" : "obj-4",
													"maxclass" : "newobj",
													"numinlets" : 1,
													"numoutlets" : 2,
													"outlettype" : [ "", "" ],
													"patching_rect" : [ 50.0, 162.0, 155.0, 22.0 ],
													"style" : "",
													"text" : "j.parameter rogs1/finalGain"
												}

											}
, 											{
												"box" : 												{
													"id" : "obj-3",
													"maxclass" : "newobj",
													"numinlets" : 1,
													"numoutlets" : 2,
													"outlettype" : [ "", "" ],
													"patching_rect" : [ 91.5, 196.0, 49.0, 22.0 ],
													"style" : "",
													"text" : "j.model"
												}

											}
, 											{
												"box" : 												{
													"comment" : "",
													"id" : "obj-62",
													"index" : 1,
													"maxclass" : "inlet",
													"numinlets" : 0,
													"numoutlets" : 1,
													"outlettype" : [ "" ],
													"patching_rect" : [ 50.0, 40.0, 30.0, 30.0 ],
													"style" : ""
												}

											}
, 											{
												"box" : 												{
													"comment" : "",
													"id" : "obj-63",
													"index" : 2,
													"maxclass" : "inlet",
													"numinlets" : 0,
													"numoutlets" : 1,
													"outlettype" : [ "" ],
													"patching_rect" : [ 85.0, 40.0, 30.0, 30.0 ],
													"style" : ""
												}

											}
, 											{
												"box" : 												{
													"comment" : "",
													"id" : "obj-64",
													"index" : 3,
													"maxclass" : "inlet",
													"numinlets" : 0,
													"numoutlets" : 1,
													"outlettype" : [ "" ],
													"patching_rect" : [ 400.0, 40.0, 30.0, 30.0 ],
													"style" : ""
												}

											}
, 											{
												"box" : 												{
													"comment" : "",
													"id" : "obj-65",
													"index" : 4,
													"maxclass" : "inlet",
													"numinlets" : 0,
													"numoutlets" : 1,
													"outlettype" : [ "" ],
													"patching_rect" : [ 435.0, 40.0, 30.0, 30.0 ],
													"style" : ""
												}

											}
, 											{
												"box" : 												{
													"comment" : "",
													"id" : "obj-68",
													"index" : 1,
													"maxclass" : "outlet",
													"numinlets" : 1,
													"numoutlets" : 0,
													"patching_rect" : [ 50.0, 278.0, 30.0, 30.0 ],
													"style" : ""
												}

											}
, 											{
												"box" : 												{
													"comment" : "",
													"id" : "obj-69",
													"index" : 2,
													"maxclass" : "outlet",
													"numinlets" : 1,
													"numoutlets" : 0,
													"patching_rect" : [ 85.0, 278.0, 30.0, 30.0 ],
													"style" : ""
												}

											}
, 											{
												"box" : 												{
													"comment" : "",
													"id" : "obj-70",
													"index" : 3,
													"maxclass" : "outlet",
													"numinlets" : 1,
													"numoutlets" : 0,
													"patching_rect" : [ 400.0, 278.0, 30.0, 30.0 ],
													"style" : ""
												}

											}
, 											{
												"box" : 												{
													"comment" : "",
													"id" : "obj-71",
													"index" : 4,
													"maxclass" : "outlet",
													"numinlets" : 1,
													"numoutlets" : 0,
													"patching_rect" : [ 435.0, 278.0, 30.0, 30.0 ],
													"style" : ""
												}

											}
 ],
										"lines" : [ 											{
												"patchline" : 												{
													"destination" : [ "obj-70", 0 ],
													"disabled" : 0,
													"hidden" : 0,
													"source" : [ "obj-13", 0 ]
												}

											}
, 											{
												"patchline" : 												{
													"destination" : [ "obj-71", 0 ],
													"disabled" : 0,
													"hidden" : 0,
													"source" : [ "obj-14", 0 ]
												}

											}
, 											{
												"patchline" : 												{
													"destination" : [ "obj-69", 0 ],
													"disabled" : 0,
													"hidden" : 0,
													"source" : [ "obj-4", 0 ]
												}

											}
, 											{
												"patchline" : 												{
													"destination" : [ "obj-8", 0 ],
													"disabled" : 0,
													"hidden" : 0,
													"source" : [ "obj-62", 0 ]
												}

											}
, 											{
												"patchline" : 												{
													"destination" : [ "obj-4", 0 ],
													"disabled" : 0,
													"hidden" : 0,
													"source" : [ "obj-63", 0 ]
												}

											}
, 											{
												"patchline" : 												{
													"destination" : [ "obj-13", 0 ],
													"disabled" : 0,
													"hidden" : 0,
													"source" : [ "obj-64", 0 ]
												}

											}
, 											{
												"patchline" : 												{
													"destination" : [ "obj-14", 0 ],
													"disabled" : 0,
													"hidden" : 0,
													"source" : [ "obj-65", 0 ]
												}

											}
, 											{
												"patchline" : 												{
													"destination" : [ "obj-68", 0 ],
													"disabled" : 0,
													"hidden" : 0,
													"source" : [ "obj-8", 0 ]
												}

											}
 ]
									}
,
									"patching_rect" : [ 31.0, 164.5625, 535.25, 19.0 ],
									"saved_object_attributes" : 									{
										"description" : "",
										"digest" : "",
										"globalpatchername" : "",
										"style" : "",
										"tags" : ""
									}
,
									"style" : "",
									"text" : "p rogsGainCntrl"
								}

							}
, 							{
								"box" : 								{
									"annotation" : "none",
									"color" : [ 0.113725, 0.580392, 0.737255, 1.0 ],
									"id" : "obj-61",
									"maxclass" : "newobj",
									"numinlets" : 0,
									"numoutlets" : 0,
									"patcher" : 									{
										"fileversion" : 1,
										"appversion" : 										{
											"major" : 7,
											"minor" : 3,
											"revision" : 3,
											"architecture" : "x86",
											"modernui" : 1
										}
,
										"rect" : [ 443.0, 423.0, 285.0, 116.0 ],
										"bglocked" : 0,
										"openinpresentation" : 1,
										"default_fontsize" : 12.0,
										"default_fontface" : 0,
										"default_fontname" : "Arial",
										"gridonopen" : 1,
										"gridsize" : [ 15.0, 15.0 ],
										"gridsnaponopen" : 1,
										"objectsnaponopen" : 0,
										"statusbarvisible" : 2,
										"toolbarvisible" : 0,
										"lefttoolbarpinned" : 0,
										"toptoolbarpinned" : 0,
										"righttoolbarpinned" : 0,
										"bottomtoolbarpinned" : 0,
										"toolbars_unpinned_last_save" : 0,
										"tallnewobj" : 0,
										"boxanimatetime" : 200,
										"enablehscroll" : 0,
										"enablevscroll" : 0,
										"devicewidth" : 0.0,
										"description" : "",
										"digest" : "",
										"tags" : "",
										"style" : "",
										"subpatcher_template" : "",
										"boxes" : [ 											{
												"box" : 												{
													"id" : "obj-2",
													"maxclass" : "newobj",
													"numinlets" : 1,
													"numoutlets" : 2,
													"outlettype" : [ "", "" ],
													"patching_rect" : [ 254.0, 235.0, 49.0, 22.0 ],
													"style" : "",
													"text" : "j.model"
												}

											}
, 											{
												"box" : 												{
													"fontname" : "Arial",
													"fontsize" : 9.0,
													"id" : "obj-19",
													"maxclass" : "newobj",
													"numinlets" : 0,
													"numoutlets" : 1,
													"outlettype" : [ "" ],
													"patching_rect" : [ 102.5, 18.200195, 82.0, 19.0 ],
													"style" : "",
													"text" : "r 2rogsRVRBcntrl"
												}

											}
, 											{
												"box" : 												{
													"fontname" : "Arial",
													"fontsize" : 9.0,
													"id" : "obj-11",
													"maxclass" : "newobj",
													"numinlets" : 1,
													"numoutlets" : 0,
													"patching_rect" : [ 24.0, 218.200195, 80.0, 19.0 ],
													"style" : "",
													"text" : "s 2rogsRVRBcntrl"
												}

											}
, 											{
												"box" : 												{
													"fontface" : 0,
													"fontsize" : 9.0,
													"id" : "obj-52",
													"maxclass" : "live.slider",
													"numinlets" : 1,
													"numoutlets" : 2,
													"orientation" : 1,
													"outlettype" : [ "", "float" ],
													"parameter_enable" : 1,
													"patching_rect" : [ 128.5, 175.200195, 90.0, 38.0 ],
													"presentation" : 1,
													"presentation_rect" : [ 6.5, 63.5625, 267.0, 38.0 ],
													"saved_attribute_attributes" : 													{
														"valueof" : 														{
															"parameter_linknames" : 1,
															"parameter_longname" : "reverb Length",
															"parameter_shortname" : "rvrbLength",
															"parameter_type" : 0,
															"parameter_mmin" : 0.1,
															"parameter_mmax" : 30.0,
															"parameter_initial" : [ 3 ],
															"parameter_unitstyle" : 9,
															"parameter_units" : "s",
															"parameter_speedlim" : 0.0
														}

													}
,
													"varname" : "reverb Length"
												}

											}
, 											{
												"box" : 												{
													"id" : "obj-53",
													"maxclass" : "newobj",
													"numinlets" : 1,
													"numoutlets" : 2,
													"outlettype" : [ "", "" ],
													"patching_rect" : [ 241.0, 183.200195, 132.0, 22.0 ],
													"style" : "",
													"text" : "j.parameter rvrbLength"
												}

											}
, 											{
												"box" : 												{
													"fontsize" : 9.0,
													"id" : "obj-51",
													"maxclass" : "message",
													"numinlets" : 2,
													"numoutlets" : 1,
													"outlettype" : [ "" ],
													"patching_rect" : [ 128.5, 221.200195, 65.0, 19.0 ],
													"style" : "",
													"text" : "reverb tr0 $1"
												}

											}
, 											{
												"box" : 												{
													"fontsize" : 9.0,
													"id" : "obj-48",
													"maxclass" : "message",
													"numinlets" : 2,
													"numoutlets" : 1,
													"outlettype" : [ "" ],
													"patching_rect" : [ 128.5, 146.200195, 68.0, 19.0 ],
													"style" : "",
													"text" : "reverb gain $1"
												}

											}
, 											{
												"box" : 												{
													"fontface" : 0,
													"fontsize" : 9.0,
													"id" : "obj-46",
													"maxclass" : "live.slider",
													"numinlets" : 1,
													"numoutlets" : 2,
													"orientation" : 1,
													"outlettype" : [ "", "float" ],
													"parameter_enable" : 1,
													"patching_rect" : [ 128.5, 100.200195, 90.0, 38.0 ],
													"presentation" : 1,
													"presentation_rect" : [ 6.5, 24.5625, 267.0, 38.0 ],
													"saved_attribute_attributes" : 													{
														"valueof" : 														{
															"parameter_linknames" : 1,
															"parameter_longname" : "reverb gain",
															"parameter_shortname" : "rvrbGain",
															"parameter_type" : 0,
															"parameter_mmin" : -30.0,
															"parameter_mmax" : 30.0,
															"parameter_initial" : [ -14.615385 ],
															"parameter_unitstyle" : 4,
															"parameter_speedlim" : 0.0
														}

													}
,
													"varname" : "reverb gain"
												}

											}
, 											{
												"box" : 												{
													"id" : "obj-36",
													"maxclass" : "newobj",
													"numinlets" : 1,
													"numoutlets" : 2,
													"outlettype" : [ "", "" ],
													"patching_rect" : [ 241.0, 108.200195, 121.0, 22.0 ],
													"style" : "",
													"text" : "j.parameter rvrbGain"
												}

											}
, 											{
												"box" : 												{
													"fontsize" : 9.0,
													"id" : "obj-37",
													"maxclass" : "newobj",
													"numinlets" : 2,
													"numoutlets" : 0,
													"patching_rect" : [ 14.0, 91.200195, 45.0, 19.0 ],
													"style" : "",
													"text" : "dac~ 1 2"
												}

											}
, 											{
												"box" : 												{
													"fontname" : "Arial",
													"fontsize" : 9.0,
													"id" : "obj-6",
													"maxclass" : "newobj",
													"numinlets" : 0,
													"numoutlets" : 1,
													"outlettype" : [ "" ],
													"patching_rect" : [ 14.0, 35.200195, 63.0, 19.0 ],
													"style" : "",
													"text" : "r 2rogsRVRB"
												}

											}
, 											{
												"box" : 												{
													"color" : [ 0.113725, 0.580392, 0.737255, 1.0 ],
													"fontname" : "Arial",
													"fontsize" : 9.0,
													"id" : "obj-12",
													"maxclass" : "newobj",
													"numinlets" : 1,
													"numoutlets" : 2,
													"outlettype" : [ "", "" ],
													"patching_rect" : [ 102.5, 42.200195, 226.0, 19.0 ],
													"presentation" : 1,
													"presentation_rect" : [ 29.0, 3.5625, 226.0, 19.0 ],
													"saved_object_attributes" : 													{
														"parameter_enable" : 0
													}
,
													"style" : "",
													"text" : "ircamverb~.control @numsources 1 @numspeakers 1"
												}

											}
, 											{
												"box" : 												{
													"color" : [ 0.113725, 0.580392, 0.737255, 1.0 ],
													"fontname" : "Arial",
													"fontsize" : 9.0,
													"id" : "obj-1",
													"maxclass" : "newobj",
													"numinlets" : 1,
													"numoutlets" : 2,
													"outlettype" : [ "signal", "" ],
													"patching_rect" : [ 14.0, 65.200195, 267.0, 19.0 ],
													"saved_object_attributes" : 													{
														"parameter_enable" : 0
													}
,
													"style" : "",
													"text" : "ircamverb~ @numsources 1 @numspeakers 1 @numinternals 8"
												}

											}
 ],
										"lines" : [ 											{
												"patchline" : 												{
													"destination" : [ "obj-37", 1 ],
													"disabled" : 0,
													"hidden" : 0,
													"order" : 0,
													"source" : [ "obj-1", 0 ]
												}

											}
, 											{
												"patchline" : 												{
													"destination" : [ "obj-37", 0 ],
													"disabled" : 0,
													"hidden" : 0,
													"order" : 1,
													"source" : [ "obj-1", 0 ]
												}

											}
, 											{
												"patchline" : 												{
													"destination" : [ "obj-1", 0 ],
													"disabled" : 0,
													"hidden" : 0,
													"source" : [ "obj-12", 0 ]
												}

											}
, 											{
												"patchline" : 												{
													"destination" : [ "obj-12", 0 ],
													"disabled" : 0,
													"hidden" : 0,
													"source" : [ "obj-19", 0 ]
												}

											}
, 											{
												"patchline" : 												{
													"destination" : [ "obj-46", 0 ],
													"disabled" : 0,
													"hidden" : 0,
													"source" : [ "obj-36", 0 ]
												}

											}
, 											{
												"patchline" : 												{
													"destination" : [ "obj-36", 0 ],
													"disabled" : 0,
													"hidden" : 0,
													"order" : 0,
													"source" : [ "obj-46", 0 ]
												}

											}
, 											{
												"patchline" : 												{
													"destination" : [ "obj-48", 0 ],
													"disabled" : 0,
													"hidden" : 0,
													"order" : 1,
													"source" : [ "obj-46", 0 ]
												}

											}
, 											{
												"patchline" : 												{
													"destination" : [ "obj-11", 0 ],
													"disabled" : 0,
													"hidden" : 0,
													"source" : [ "obj-48", 0 ]
												}

											}
, 											{
												"patchline" : 												{
													"destination" : [ "obj-11", 0 ],
													"disabled" : 0,
													"hidden" : 0,
													"source" : [ "obj-51", 0 ]
												}

											}
, 											{
												"patchline" : 												{
													"destination" : [ "obj-51", 0 ],
													"disabled" : 0,
													"hidden" : 0,
													"order" : 1,
													"source" : [ "obj-52", 0 ]
												}

											}
, 											{
												"patchline" : 												{
													"destination" : [ "obj-53", 0 ],
													"disabled" : 0,
													"hidden" : 0,
													"order" : 0,
													"source" : [ "obj-52", 0 ]
												}

											}
, 											{
												"patchline" : 												{
													"destination" : [ "obj-52", 0 ],
													"disabled" : 0,
													"hidden" : 0,
													"source" : [ "obj-53", 0 ]
												}

											}
, 											{
												"patchline" : 												{
													"destination" : [ "obj-1", 0 ],
													"disabled" : 0,
													"hidden" : 0,
													"source" : [ "obj-6", 0 ]
												}

											}
 ]
									}
,
									"patching_rect" : [ 158.0, 318.5625, 69.0, 22.0 ],
									"presentation" : 1,
									"presentation_rect" : [ 204.5, 165.5625, 69.0, 22.0 ],
									"saved_object_attributes" : 									{
										"description" : "",
										"digest" : "",
										"globalpatchername" : "",
										"style" : "",
										"tags" : ""
									}
,
									"style" : "",
									"text" : "p rogsRvrb",
									"textcolor" : [ 1.0, 1.0, 1.0, 1.0 ]
								}

							}
, 							{
								"box" : 								{
									"id" : "obj-38",
									"maxclass" : "ezadc~",
									"numinlets" : 1,
									"numoutlets" : 2,
									"outlettype" : [ "signal", "signal" ],
									"patching_rect" : [ 158.0, 377.5625, 45.0, 45.0 ],
									"presentation" : 1,
									"presentation_rect" : [ 88.5, 176.5625, 22.0, 22.0 ],
									"style" : ""
								}

							}
, 							{
								"box" : 								{
									"id" : "obj-21",
									"maxclass" : "newobj",
									"numinlets" : 1,
									"numoutlets" : 1,
									"outlettype" : [ "signal" ],
									"patching_rect" : [ 158.0, 236.5625, 47.0, 22.0 ],
									"presentation" : 1,
									"presentation_rect" : [ 118.5, 165.5625, 47.0, 22.0 ],
									"style" : "",
									"text" : "adc~ 1"
								}

							}
, 							{
								"box" : 								{
									"color" : [ 0.941176, 0.690196, 0.196078, 1.0 ],
									"id" : "obj-20",
									"maxclass" : "newobj",
									"numinlets" : 2,
									"numoutlets" : 3,
									"outlettype" : [ "", "signal", "" ],
									"patching_rect" : [ 158.0, 266.5625, 147.0, 22.0 ],
									"presentation" : 1,
									"presentation_rect" : [ 118.5, 189.5625, 145.0, 22.0 ],
									"style" : "",
									"text" : "j.nav.scale~.module tfEnv"
								}

							}
, 							{
								"box" : 								{
									"bgcolor" : [ 0.376187, 0.409384, 0.445165, 1.0 ],
									"elementcolor" : [ 0.560317, 0.570942, 0.601066, 1.0 ],
									"id" : "obj-17",
									"knobcolor" : [ 0.542056, 0.874461, 0.737068, 1.0 ],
									"maxclass" : "slider",
									"numinlets" : 1,
									"numoutlets" : 1,
									"outlettype" : [ "" ],
									"parameter_enable" : 0,
									"patching_rect" : [ 381.0, 258.5625, 67.0, 12.0 ],
									"presentation" : 1,
									"presentation_rect" : [ 311.0, 134.5625, 296.0, 12.0 ],
									"style" : ""
								}

							}
, 							{
								"box" : 								{
									"elementcolor" : [ 0.522397, 0.541645, 0.600966, 1.0 ],
									"id" : "obj-22",
									"knobcolor" : [ 0.122515, 0.504828, 0.753071, 1.0 ],
									"maxclass" : "slider",
									"numinlets" : 1,
									"numoutlets" : 1,
									"outlettype" : [ "" ],
									"parameter_enable" : 0,
									"patching_rect" : [ 381.0, 190.5625, 67.0, 12.0 ],
									"presentation" : 1,
									"presentation_rect" : [ 311.0, 151.5625, 296.0, 12.0 ],
									"style" : ""
								}

							}
, 							{
								"box" : 								{
									"bgcolor" : [ 0.376187, 0.409384, 0.445165, 1.0 ],
									"elementcolor" : [ 0.560317, 0.570942, 0.601066, 1.0 ],
									"id" : "obj-9",
									"knobcolor" : [ 0.542056, 0.874461, 0.737068, 1.0 ],
									"maxclass" : "slider",
									"numinlets" : 1,
									"numoutlets" : 1,
									"outlettype" : [ "" ],
									"parameter_enable" : 0,
									"patching_rect" : [ 31.0, 271.5625, 67.0, 12.0 ],
									"presentation" : 1,
									"presentation_rect" : [ 2.0, 134.5625, 300.0, 12.0 ],
									"style" : ""
								}

							}
, 							{
								"box" : 								{
									"elementcolor" : [ 0.522397, 0.541645, 0.600966, 1.0 ],
									"id" : "obj-25",
									"knobcolor" : [ 0.122515, 0.504828, 0.753071, 1.0 ],
									"maxclass" : "slider",
									"numinlets" : 1,
									"numoutlets" : 1,
									"outlettype" : [ "" ],
									"parameter_enable" : 0,
									"patching_rect" : [ 31.0, 209.5625, 67.0, 12.0 ],
									"presentation" : 1,
									"presentation_rect" : [ 2.0, 151.5625, 300.0, 12.0 ],
									"style" : ""
								}

							}
, 							{
								"box" : 								{
									"annotation" : "none",
									"args" : [ "rogs2" ],
									"bgmode" : 0,
									"border" : 0,
									"clickthrough" : 0,
									"enablehscroll" : 0,
									"enablevscroll" : 0,
									"id" : "obj-26",
									"lockeddragscroll" : 0,
									"maxclass" : "bpatcher",
									"name" : "j.nav.rogs=.module.maxpat",
									"numinlets" : 1,
									"numoutlets" : 2,
									"offset" : [ 0.0, 0.0 ],
									"outlettype" : [ "audio.connect", "" ],
									"patching_rect" : [ 349.0, 17.5625, 300.0, 140.0 ],
									"presentation" : 1,
									"presentation_rect" : [ 311.0, 0.5625, 300.0, 140.0 ],
									"viewvisibility" : 1
								}

							}
, 							{
								"box" : 								{
									"id" : "obj-15",
									"maxclass" : "newobj",
									"numinlets" : 1,
									"numoutlets" : 0,
									"patching_rect" : [ 355.5, 420.5625, 47.0, 22.0 ],
									"style" : "",
									"text" : "dac~ 1"
								}

							}
, 							{
								"box" : 								{
									"fontname" : "Arial",
									"fontsize" : 12.0,
									"id" : "obj-16",
									"maxclass" : "newobj",
									"numinlets" : 2,
									"numoutlets" : 1,
									"outlettype" : [ "signal" ],
									"patcher" : 									{
										"fileversion" : 1,
										"appversion" : 										{
											"major" : 7,
											"minor" : 3,
											"revision" : 3,
											"architecture" : "x86",
											"modernui" : 1
										}
,
										"rect" : [ 34.0, 79.0, 107.0, 184.0 ],
										"bglocked" : 0,
										"openinpresentation" : 0,
										"default_fontsize" : 12.0,
										"default_fontface" : 0,
										"default_fontname" : "Arial",
										"gridonopen" : 1,
										"gridsize" : [ 15.0, 15.0 ],
										"gridsnaponopen" : 1,
										"objectsnaponopen" : 1,
										"statusbarvisible" : 2,
										"toolbarvisible" : 1,
										"lefttoolbarpinned" : 0,
										"toptoolbarpinned" : 0,
										"righttoolbarpinned" : 0,
										"bottomtoolbarpinned" : 0,
										"toolbars_unpinned_last_save" : 0,
										"tallnewobj" : 0,
										"boxanimatetime" : 200,
										"enablehscroll" : 1,
										"enablevscroll" : 1,
										"devicewidth" : 0.0,
										"description" : "",
										"digest" : "",
										"tags" : "",
										"style" : "",
										"subpatcher_template" : "",
										"boxes" : [ 											{
												"box" : 												{
													"id" : "obj-2",
													"maxclass" : "newobj",
													"numinlets" : 1,
													"numoutlets" : 2,
													"outlettype" : [ "signal", "" ],
													"patching_rect" : [ 9.0, 117.0, 72.0, 22.0 ],
													"style" : "",
													"text" : "j.unpack= 1"
												}

											}
, 											{
												"box" : 												{
													"comment" : "",
													"id" : "obj-6",
													"index" : 1,
													"maxclass" : "outlet",
													"numinlets" : 1,
													"numoutlets" : 0,
													"patching_rect" : [ 9.0, 146.0, 30.0, 30.0 ],
													"style" : ""
												}

											}
, 											{
												"box" : 												{
													"fontname" : "Verdana",
													"fontsize" : 10.0,
													"id" : "obj-15",
													"maxclass" : "message",
													"numinlets" : 2,
													"numoutlets" : 1,
													"outlettype" : [ "" ],
													"patching_rect" : [ 9.0, 47.0, 71.0, 21.0 ],
													"style" : "",
													"text" : "midiGain $1"
												}

											}
, 											{
												"box" : 												{
													"fontname" : "Arial",
													"fontsize" : 12.0,
													"id" : "obj-1",
													"linecount" : 2,
													"maxclass" : "newobj",
													"numinlets" : 1,
													"numoutlets" : 2,
													"outlettype" : [ "audio.connect", "" ],
													"patching_rect" : [ 9.0, 75.0, 95.0, 35.0 ],
													"style" : "",
													"text" : "j.gain= @interpolated 1"
												}

											}
, 											{
												"box" : 												{
													"comment" : "",
													"id" : "obj-7",
													"index" : 1,
													"maxclass" : "inlet",
													"numinlets" : 0,
													"numoutlets" : 1,
													"outlettype" : [ "" ],
													"patching_rect" : [ 9.0, 6.0, 25.0, 25.0 ],
													"style" : ""
												}

											}
, 											{
												"box" : 												{
													"comment" : "",
													"id" : "obj-8",
													"index" : 2,
													"maxclass" : "inlet",
													"numinlets" : 0,
													"numoutlets" : 1,
													"outlettype" : [ "audio.connect" ],
													"patching_rect" : [ 39.0, 6.0, 25.0, 25.0 ],
													"style" : ""
												}

											}
 ],
										"lines" : [ 											{
												"patchline" : 												{
													"destination" : [ "obj-2", 0 ],
													"disabled" : 0,
													"hidden" : 0,
													"source" : [ "obj-1", 0 ]
												}

											}
, 											{
												"patchline" : 												{
													"destination" : [ "obj-1", 0 ],
													"disabled" : 0,
													"hidden" : 0,
													"source" : [ "obj-15", 0 ]
												}

											}
, 											{
												"patchline" : 												{
													"destination" : [ "obj-6", 0 ],
													"disabled" : 0,
													"hidden" : 0,
													"source" : [ "obj-2", 0 ]
												}

											}
, 											{
												"patchline" : 												{
													"destination" : [ "obj-15", 0 ],
													"disabled" : 0,
													"hidden" : 0,
													"source" : [ "obj-7", 0 ]
												}

											}
, 											{
												"patchline" : 												{
													"destination" : [ "obj-1", 0 ],
													"disabled" : 0,
													"hidden" : 0,
													"source" : [ "obj-8", 0 ]
												}

											}
 ]
									}
,
									"patching_rect" : [ 381.0, 281.5625, 63.0, 22.0 ],
									"saved_object_attributes" : 									{
										"description" : "",
										"digest" : "",
										"globalpatchername" : "",
										"style" : "",
										"tags" : ""
									}
,
									"style" : "",
									"text" : "p dryGain"
								}

							}
, 							{
								"box" : 								{
									"fontname" : "Arial",
									"fontsize" : 12.0,
									"id" : "obj-18",
									"maxclass" : "newobj",
									"numinlets" : 2,
									"numoutlets" : 0,
									"patcher" : 									{
										"fileversion" : 1,
										"appversion" : 										{
											"major" : 7,
											"minor" : 3,
											"revision" : 3,
											"architecture" : "x86",
											"modernui" : 1
										}
,
										"rect" : [ 34.0, 79.0, 107.0, 184.0 ],
										"bglocked" : 0,
										"openinpresentation" : 0,
										"default_fontsize" : 12.0,
										"default_fontface" : 0,
										"default_fontname" : "Arial",
										"gridonopen" : 1,
										"gridsize" : [ 15.0, 15.0 ],
										"gridsnaponopen" : 1,
										"objectsnaponopen" : 1,
										"statusbarvisible" : 2,
										"toolbarvisible" : 1,
										"lefttoolbarpinned" : 0,
										"toptoolbarpinned" : 0,
										"righttoolbarpinned" : 0,
										"bottomtoolbarpinned" : 0,
										"toolbars_unpinned_last_save" : 0,
										"tallnewobj" : 0,
										"boxanimatetime" : 200,
										"enablehscroll" : 1,
										"enablevscroll" : 1,
										"devicewidth" : 0.0,
										"description" : "",
										"digest" : "",
										"tags" : "",
										"style" : "",
										"subpatcher_template" : "",
										"boxes" : [ 											{
												"box" : 												{
													"id" : "obj-2",
													"maxclass" : "newobj",
													"numinlets" : 1,
													"numoutlets" : 2,
													"outlettype" : [ "signal", "" ],
													"patching_rect" : [ 9.0, 117.0, 72.0, 22.0 ],
													"style" : "",
													"text" : "j.unpack= 1"
												}

											}
, 											{
												"box" : 												{
													"fontname" : "Arial",
													"fontsize" : 12.0,
													"id" : "obj-6",
													"maxclass" : "newobj",
													"numinlets" : 1,
													"numoutlets" : 0,
													"patching_rect" : [ 9.0, 146.0, 83.0, 22.0 ],
													"style" : "",
													"text" : "s 2rogsRVRB"
												}

											}
, 											{
												"box" : 												{
													"fontname" : "Verdana",
													"fontsize" : 10.0,
													"id" : "obj-15",
													"maxclass" : "message",
													"numinlets" : 2,
													"numoutlets" : 1,
													"outlettype" : [ "" ],
													"patching_rect" : [ 9.0, 47.0, 71.0, 21.0 ],
													"style" : "",
													"text" : "midiGain $1"
												}

											}
, 											{
												"box" : 												{
													"fontname" : "Arial",
													"fontsize" : 12.0,
													"id" : "obj-1",
													"linecount" : 2,
													"maxclass" : "newobj",
													"numinlets" : 1,
													"numoutlets" : 2,
													"outlettype" : [ "audio.connect", "" ],
													"patching_rect" : [ 9.0, 75.0, 95.0, 35.0 ],
													"style" : "",
													"text" : "j.gain= @interpolated 1"
												}

											}
, 											{
												"box" : 												{
													"comment" : "",
													"id" : "obj-7",
													"index" : 1,
													"maxclass" : "inlet",
													"numinlets" : 0,
													"numoutlets" : 1,
													"outlettype" : [ "" ],
													"patching_rect" : [ 9.0, 6.0, 25.0, 25.0 ],
													"style" : ""
												}

											}
, 											{
												"box" : 												{
													"comment" : "",
													"id" : "obj-8",
													"index" : 2,
													"maxclass" : "inlet",
													"numinlets" : 0,
													"numoutlets" : 1,
													"outlettype" : [ "audio.connect" ],
													"patching_rect" : [ 39.0, 6.0, 25.0, 25.0 ],
													"style" : ""
												}

											}
 ],
										"lines" : [ 											{
												"patchline" : 												{
													"destination" : [ "obj-2", 0 ],
													"disabled" : 0,
													"hidden" : 0,
													"source" : [ "obj-1", 0 ]
												}

											}
, 											{
												"patchline" : 												{
													"destination" : [ "obj-1", 0 ],
													"disabled" : 0,
													"hidden" : 0,
													"source" : [ "obj-15", 0 ]
												}

											}
, 											{
												"patchline" : 												{
													"destination" : [ "obj-6", 0 ],
													"disabled" : 0,
													"hidden" : 0,
													"source" : [ "obj-2", 0 ]
												}

											}
, 											{
												"patchline" : 												{
													"destination" : [ "obj-15", 0 ],
													"disabled" : 0,
													"hidden" : 0,
													"source" : [ "obj-7", 0 ]
												}

											}
, 											{
												"patchline" : 												{
													"destination" : [ "obj-1", 0 ],
													"disabled" : 0,
													"hidden" : 0,
													"source" : [ "obj-8", 0 ]
												}

											}
 ]
									}
,
									"patching_rect" : [ 381.0, 224.5625, 67.0, 22.0 ],
									"saved_object_attributes" : 									{
										"description" : "",
										"digest" : "",
										"globalpatchername" : "",
										"style" : "",
										"tags" : ""
									}
,
									"style" : "",
									"text" : "p rvrbGain"
								}

							}
, 							{
								"box" : 								{
									"fontname" : "Arial",
									"fontsize" : 12.0,
									"id" : "obj-7",
									"maxclass" : "newobj",
									"numinlets" : 2,
									"numoutlets" : 1,
									"outlettype" : [ "signal" ],
									"patcher" : 									{
										"fileversion" : 1,
										"appversion" : 										{
											"major" : 7,
											"minor" : 3,
											"revision" : 3,
											"architecture" : "x86",
											"modernui" : 1
										}
,
										"rect" : [ 34.0, 79.0, 107.0, 184.0 ],
										"bglocked" : 0,
										"openinpresentation" : 0,
										"default_fontsize" : 12.0,
										"default_fontface" : 0,
										"default_fontname" : "Arial",
										"gridonopen" : 1,
										"gridsize" : [ 15.0, 15.0 ],
										"gridsnaponopen" : 1,
										"objectsnaponopen" : 1,
										"statusbarvisible" : 2,
										"toolbarvisible" : 1,
										"lefttoolbarpinned" : 0,
										"toptoolbarpinned" : 0,
										"righttoolbarpinned" : 0,
										"bottomtoolbarpinned" : 0,
										"toolbars_unpinned_last_save" : 0,
										"tallnewobj" : 0,
										"boxanimatetime" : 200,
										"enablehscroll" : 1,
										"enablevscroll" : 1,
										"devicewidth" : 0.0,
										"description" : "",
										"digest" : "",
										"tags" : "",
										"style" : "",
										"subpatcher_template" : "",
										"boxes" : [ 											{
												"box" : 												{
													"id" : "obj-2",
													"maxclass" : "newobj",
													"numinlets" : 1,
													"numoutlets" : 2,
													"outlettype" : [ "signal", "" ],
													"patching_rect" : [ 9.0, 117.0, 72.0, 22.0 ],
													"style" : "",
													"text" : "j.unpack= 1"
												}

											}
, 											{
												"box" : 												{
													"comment" : "",
													"id" : "obj-6",
													"index" : 1,
													"maxclass" : "outlet",
													"numinlets" : 1,
													"numoutlets" : 0,
													"patching_rect" : [ 9.0, 146.0, 30.0, 30.0 ],
													"style" : ""
												}

											}
, 											{
												"box" : 												{
													"fontname" : "Verdana",
													"fontsize" : 10.0,
													"id" : "obj-15",
													"maxclass" : "message",
													"numinlets" : 2,
													"numoutlets" : 1,
													"outlettype" : [ "" ],
													"patching_rect" : [ 9.0, 47.0, 71.0, 21.0 ],
													"style" : "",
													"text" : "midiGain $1"
												}

											}
, 											{
												"box" : 												{
													"fontname" : "Arial",
													"fontsize" : 12.0,
													"id" : "obj-1",
													"linecount" : 2,
													"maxclass" : "newobj",
													"numinlets" : 1,
													"numoutlets" : 2,
													"outlettype" : [ "audio.connect", "" ],
													"patching_rect" : [ 9.0, 75.0, 95.0, 35.0 ],
													"style" : "",
													"text" : "j.gain= @interpolated 1"
												}

											}
, 											{
												"box" : 												{
													"comment" : "",
													"id" : "obj-7",
													"index" : 1,
													"maxclass" : "inlet",
													"numinlets" : 0,
													"numoutlets" : 1,
													"outlettype" : [ "" ],
													"patching_rect" : [ 9.0, 6.0, 25.0, 25.0 ],
													"style" : ""
												}

											}
, 											{
												"box" : 												{
													"comment" : "",
													"id" : "obj-8",
													"index" : 2,
													"maxclass" : "inlet",
													"numinlets" : 0,
													"numoutlets" : 1,
													"outlettype" : [ "audio.connect" ],
													"patching_rect" : [ 39.0, 6.0, 25.0, 25.0 ],
													"style" : ""
												}

											}
 ],
										"lines" : [ 											{
												"patchline" : 												{
													"destination" : [ "obj-2", 0 ],
													"disabled" : 0,
													"hidden" : 0,
													"source" : [ "obj-1", 0 ]
												}

											}
, 											{
												"patchline" : 												{
													"destination" : [ "obj-1", 0 ],
													"disabled" : 0,
													"hidden" : 0,
													"source" : [ "obj-15", 0 ]
												}

											}
, 											{
												"patchline" : 												{
													"destination" : [ "obj-6", 0 ],
													"disabled" : 0,
													"hidden" : 0,
													"source" : [ "obj-2", 0 ]
												}

											}
, 											{
												"patchline" : 												{
													"destination" : [ "obj-15", 0 ],
													"disabled" : 0,
													"hidden" : 0,
													"source" : [ "obj-7", 0 ]
												}

											}
, 											{
												"patchline" : 												{
													"destination" : [ "obj-1", 0 ],
													"disabled" : 0,
													"hidden" : 0,
													"source" : [ "obj-8", 0 ]
												}

											}
 ]
									}
,
									"patching_rect" : [ 31.0, 294.5625, 63.0, 22.0 ],
									"saved_object_attributes" : 									{
										"description" : "",
										"digest" : "",
										"globalpatchername" : "",
										"style" : "",
										"tags" : ""
									}
,
									"style" : "",
									"text" : "p dryGain"
								}

							}
, 							{
								"box" : 								{
									"fontname" : "Arial",
									"fontsize" : 12.0,
									"id" : "obj-23",
									"maxclass" : "newobj",
									"numinlets" : 2,
									"numoutlets" : 0,
									"patcher" : 									{
										"fileversion" : 1,
										"appversion" : 										{
											"major" : 7,
											"minor" : 3,
											"revision" : 3,
											"architecture" : "x86",
											"modernui" : 1
										}
,
										"rect" : [ 34.0, 79.0, 107.0, 184.0 ],
										"bglocked" : 0,
										"openinpresentation" : 0,
										"default_fontsize" : 12.0,
										"default_fontface" : 0,
										"default_fontname" : "Arial",
										"gridonopen" : 1,
										"gridsize" : [ 15.0, 15.0 ],
										"gridsnaponopen" : 1,
										"objectsnaponopen" : 1,
										"statusbarvisible" : 2,
										"toolbarvisible" : 1,
										"lefttoolbarpinned" : 0,
										"toptoolbarpinned" : 0,
										"righttoolbarpinned" : 0,
										"bottomtoolbarpinned" : 0,
										"toolbars_unpinned_last_save" : 0,
										"tallnewobj" : 0,
										"boxanimatetime" : 200,
										"enablehscroll" : 1,
										"enablevscroll" : 1,
										"devicewidth" : 0.0,
										"description" : "",
										"digest" : "",
										"tags" : "",
										"style" : "",
										"subpatcher_template" : "",
										"boxes" : [ 											{
												"box" : 												{
													"id" : "obj-2",
													"maxclass" : "newobj",
													"numinlets" : 1,
													"numoutlets" : 2,
													"outlettype" : [ "signal", "" ],
													"patching_rect" : [ 9.0, 117.0, 72.0, 22.0 ],
													"style" : "",
													"text" : "j.unpack= 1"
												}

											}
, 											{
												"box" : 												{
													"fontname" : "Arial",
													"fontsize" : 12.0,
													"id" : "obj-6",
													"maxclass" : "newobj",
													"numinlets" : 1,
													"numoutlets" : 0,
													"patching_rect" : [ 9.0, 146.0, 83.0, 22.0 ],
													"style" : "",
													"text" : "s 2rogsRVRB"
												}

											}
, 											{
												"box" : 												{
													"fontname" : "Verdana",
													"fontsize" : 10.0,
													"id" : "obj-15",
													"maxclass" : "message",
													"numinlets" : 2,
													"numoutlets" : 1,
													"outlettype" : [ "" ],
													"patching_rect" : [ 9.0, 47.0, 71.0, 21.0 ],
													"style" : "",
													"text" : "midiGain $1"
												}

											}
, 											{
												"box" : 												{
													"fontname" : "Arial",
													"fontsize" : 12.0,
													"id" : "obj-1",
													"linecount" : 2,
													"maxclass" : "newobj",
													"numinlets" : 1,
													"numoutlets" : 2,
													"outlettype" : [ "audio.connect", "" ],
													"patching_rect" : [ 9.0, 75.0, 95.0, 35.0 ],
													"style" : "",
													"text" : "j.gain= @interpolated 1"
												}

											}
, 											{
												"box" : 												{
													"comment" : "",
													"id" : "obj-7",
													"index" : 1,
													"maxclass" : "inlet",
													"numinlets" : 0,
													"numoutlets" : 1,
													"outlettype" : [ "" ],
													"patching_rect" : [ 9.0, 6.0, 25.0, 25.0 ],
													"style" : ""
												}

											}
, 											{
												"box" : 												{
													"comment" : "",
													"id" : "obj-8",
													"index" : 2,
													"maxclass" : "inlet",
													"numinlets" : 0,
													"numoutlets" : 1,
													"outlettype" : [ "audio.connect" ],
													"patching_rect" : [ 39.0, 6.0, 25.0, 25.0 ],
													"style" : ""
												}

											}
 ],
										"lines" : [ 											{
												"patchline" : 												{
													"destination" : [ "obj-2", 0 ],
													"disabled" : 0,
													"hidden" : 0,
													"source" : [ "obj-1", 0 ]
												}

											}
, 											{
												"patchline" : 												{
													"destination" : [ "obj-1", 0 ],
													"disabled" : 0,
													"hidden" : 0,
													"source" : [ "obj-15", 0 ]
												}

											}
, 											{
												"patchline" : 												{
													"destination" : [ "obj-6", 0 ],
													"disabled" : 0,
													"hidden" : 0,
													"source" : [ "obj-2", 0 ]
												}

											}
, 											{
												"patchline" : 												{
													"destination" : [ "obj-15", 0 ],
													"disabled" : 0,
													"hidden" : 0,
													"source" : [ "obj-7", 0 ]
												}

											}
, 											{
												"patchline" : 												{
													"destination" : [ "obj-1", 0 ],
													"disabled" : 0,
													"hidden" : 0,
													"source" : [ "obj-8", 0 ]
												}

											}
 ]
									}
,
									"patching_rect" : [ 31.0, 237.5625, 67.0, 22.0 ],
									"saved_object_attributes" : 									{
										"description" : "",
										"digest" : "",
										"globalpatchername" : "",
										"style" : "",
										"tags" : ""
									}
,
									"style" : "",
									"text" : "p rvrbGain"
								}

							}
, 							{
								"box" : 								{
									"annotation" : "none",
									"args" : [ "rogs-I" ],
									"bgmode" : 0,
									"border" : 0,
									"clickthrough" : 0,
									"enablehscroll" : 0,
									"enablevscroll" : 0,
									"id" : "obj-5",
									"lockeddragscroll" : 0,
									"maxclass" : "bpatcher",
									"name" : "j.nav.rogs=.module.maxpat",
									"numinlets" : 1,
									"numoutlets" : 2,
									"offset" : [ 0.0, 0.0 ],
									"outlettype" : [ "audio.connect", "" ],
									"patching_rect" : [ 5.0, 17.5625, 300.0, 140.0 ],
									"presentation" : 1,
									"presentation_rect" : [ 2.0, 0.5625, 300.0, 140.0 ],
									"viewvisibility" : 1
								}

							}
 ],
						"lines" : [ 							{
								"patchline" : 								{
									"destination" : [ "obj-4", 0 ],
									"disabled" : 0,
									"hidden" : 0,
									"source" : [ "obj-12", 0 ]
								}

							}
, 							{
								"patchline" : 								{
									"destination" : [ "obj-15", 0 ],
									"disabled" : 0,
									"hidden" : 0,
									"source" : [ "obj-13", 0 ]
								}

							}
, 							{
								"patchline" : 								{
									"destination" : [ "obj-24", 0 ],
									"disabled" : 0,
									"hidden" : 0,
									"source" : [ "obj-14", 0 ]
								}

							}
, 							{
								"patchline" : 								{
									"destination" : [ "obj-12", 0 ],
									"disabled" : 0,
									"hidden" : 0,
									"order" : 0,
									"source" : [ "obj-16", 0 ]
								}

							}
, 							{
								"patchline" : 								{
									"destination" : [ "obj-13", 0 ],
									"disabled" : 0,
									"hidden" : 0,
									"order" : 1,
									"source" : [ "obj-16", 0 ]
								}

							}
, 							{
								"patchline" : 								{
									"destination" : [ "obj-16", 0 ],
									"disabled" : 0,
									"hidden" : 0,
									"order" : 1,
									"source" : [ "obj-17", 0 ]
								}

							}
, 							{
								"patchline" : 								{
									"destination" : [ "obj-74", 3 ],
									"disabled" : 0,
									"hidden" : 0,
									"order" : 0,
									"source" : [ "obj-17", 0 ]
								}

							}
, 							{
								"patchline" : 								{
									"destination" : [ "obj-27", 0 ],
									"disabled" : 0,
									"hidden" : 0,
									"source" : [ "obj-19", 0 ]
								}

							}
, 							{
								"patchline" : 								{
									"destination" : [ "obj-20", 0 ],
									"disabled" : 0,
									"hidden" : 0,
									"source" : [ "obj-21", 0 ]
								}

							}
, 							{
								"patchline" : 								{
									"destination" : [ "obj-18", 0 ],
									"disabled" : 0,
									"hidden" : 0,
									"order" : 0,
									"source" : [ "obj-22", 0 ]
								}

							}
, 							{
								"patchline" : 								{
									"destination" : [ "obj-74", 2 ],
									"disabled" : 0,
									"hidden" : 0,
									"order" : 1,
									"source" : [ "obj-22", 0 ]
								}

							}
, 							{
								"patchline" : 								{
									"destination" : [ "obj-23", 0 ],
									"disabled" : 0,
									"hidden" : 0,
									"order" : 0,
									"source" : [ "obj-25", 0 ]
								}

							}
, 							{
								"patchline" : 								{
									"destination" : [ "obj-74", 0 ],
									"disabled" : 0,
									"hidden" : 0,
									"order" : 1,
									"source" : [ "obj-25", 0 ]
								}

							}
, 							{
								"patchline" : 								{
									"destination" : [ "obj-16", 1 ],
									"disabled" : 0,
									"hidden" : 0,
									"midpoints" : [ 358.5, 278.5625, 434.5, 278.5625 ],
									"order" : 1,
									"source" : [ "obj-26", 0 ]
								}

							}
, 							{
								"patchline" : 								{
									"destination" : [ "obj-18", 1 ],
									"disabled" : 0,
									"hidden" : 0,
									"midpoints" : [ 358.5, 217.0625, 438.5, 217.0625 ],
									"order" : 0,
									"source" : [ "obj-26", 0 ]
								}

							}
, 							{
								"patchline" : 								{
									"destination" : [ "obj-23", 1 ],
									"disabled" : 0,
									"hidden" : 0,
									"midpoints" : [ 14.5, 233.0625, 88.5, 233.0625 ],
									"order" : 0,
									"source" : [ "obj-5", 0 ]
								}

							}
, 							{
								"patchline" : 								{
									"destination" : [ "obj-7", 1 ],
									"disabled" : 0,
									"hidden" : 0,
									"midpoints" : [ 14.5, 289.5625, 84.5, 289.5625 ],
									"order" : 1,
									"source" : [ "obj-5", 0 ]
								}

							}
, 							{
								"patchline" : 								{
									"destination" : [ "obj-14", 0 ],
									"disabled" : 0,
									"hidden" : 0,
									"order" : 0,
									"source" : [ "obj-7", 0 ]
								}

							}
, 							{
								"patchline" : 								{
									"destination" : [ "obj-19", 0 ],
									"disabled" : 0,
									"hidden" : 0,
									"order" : 1,
									"source" : [ "obj-7", 0 ]
								}

							}
, 							{
								"patchline" : 								{
									"destination" : [ "obj-17", 0 ],
									"disabled" : 0,
									"hidden" : 0,
									"source" : [ "obj-74", 3 ]
								}

							}
, 							{
								"patchline" : 								{
									"destination" : [ "obj-22", 0 ],
									"disabled" : 0,
									"hidden" : 0,
									"source" : [ "obj-74", 2 ]
								}

							}
, 							{
								"patchline" : 								{
									"destination" : [ "obj-25", 0 ],
									"disabled" : 0,
									"hidden" : 0,
									"source" : [ "obj-74", 0 ]
								}

							}
, 							{
								"patchline" : 								{
									"destination" : [ "obj-9", 0 ],
									"disabled" : 0,
									"hidden" : 0,
									"source" : [ "obj-74", 1 ]
								}

							}
, 							{
								"patchline" : 								{
									"destination" : [ "obj-7", 0 ],
									"disabled" : 0,
									"hidden" : 0,
									"order" : 1,
									"source" : [ "obj-9", 0 ]
								}

							}
, 							{
								"patchline" : 								{
									"destination" : [ "obj-74", 1 ],
									"disabled" : 0,
									"hidden" : 0,
									"order" : 0,
									"source" : [ "obj-9", 0 ]
								}

							}
 ]
					}
,
					"patching_rect" : [ 4.0, 4.4375, 71.0, 22.0 ],
					"saved_object_attributes" : 					{
						"description" : "",
						"digest" : "",
						"globalpatchername" : "",
						"style" : "",
						"tags" : ""
					}
,
					"style" : "",
					"text" : "p rogsLand"
				}

			}
 ],
		"lines" : [  ],
		"parameters" : 		{
			"obj-11::obj-26::obj-3::obj-7::obj-105::obj-10::obj-10::obj-145" : [ "live.menu[50]", "live.menu", 0 ],
			"obj-11::obj-26::obj-3::obj-7::obj-123::obj-182" : [ "live.text[100]", "live.text[4]", 0 ],
			"obj-11::obj-5::obj-3::obj-108::obj-87" : [ "Direction[10]", "Direction", 0 ],
			"obj-11::obj-26::obj-3::obj-7::obj-133::obj-10::obj-196" : [ "live.text[97]", "live.text", 0 ],
			"obj-11::obj-26::obj-3::obj-51" : [ "Soundfile[4]", "Soundfile", 0 ],
			"obj-11::obj-5::obj-3::obj-7::obj-66::obj-10::obj-196" : [ "live.text[95]", "live.text", 0 ],
			"obj-11::obj-5::obj-3::obj-7::obj-124::obj-182" : [ "live.text[78]", "live.text[4]", 0 ],
			"obj-11::obj-5::obj-3::obj-7::obj-68::obj-10::obj-10::obj-145" : [ "live.menu[44]", "live.menu", 0 ],
			"obj-11::obj-26::obj-3::obj-108::obj-87" : [ "Direction[12]", "Direction", 0 ],
			"obj-11::obj-5::obj-3::obj-7::obj-70::obj-182" : [ "live.text[88]", "live.text[4]", 0 ],
			"obj-11::obj-26::obj-3::obj-7::obj-67::obj-10::obj-196" : [ "live.text[113]", "live.text", 0 ],
			"obj-11::obj-5::obj-3::obj-7::obj-117::obj-10::obj-196" : [ "live.text[85]", "live.text", 0 ],
			"obj-11::obj-26::obj-3::obj-7::obj-70::obj-10::obj-10::obj-145" : [ "live.menu[53]", "live.menu", 0 ],
			"obj-11::obj-5::obj-3::obj-108::obj-103" : [ "Direction[9]", "Direction", 0 ],
			"obj-11::obj-5::obj-3::obj-7::obj-123::obj-10::obj-10::obj-145" : [ "live.menu[39]", "live.menu", 0 ],
			"obj-11::obj-26::obj-3::obj-7::obj-121::obj-182" : [ "live.text[106]", "live.text[4]", 0 ],
			"obj-11::obj-26::obj-3::obj-7::obj-105::obj-10::obj-196" : [ "live.text[103]", "live.text", 0 ],
			"obj-11::obj-26::obj-4::obj-131::obj-54::obj-9::obj-61" : [ "TriggersMode[3]", "Mode", 0 ],
			"obj-11::obj-26::obj-3::obj-7::obj-124::obj-10::obj-10::obj-145" : [ "live.menu[48]", "live.menu", 0 ],
			"obj-11::obj-26::obj-3::obj-7::obj-133::obj-182" : [ "live.text[96]", "live.text[4]", 0 ],
			"obj-11::obj-5::obj-3::obj-7::obj-133::obj-182" : [ "live.text[8]", "live.text[4]", 0 ],
			"obj-11::obj-5::obj-3::obj-74" : [ "note[1]", "Note", 0 ],
			"obj-11::obj-26::obj-3::obj-69" : [ "SelectFile[2]", "SelectFile", 0 ],
			"obj-11::obj-5::obj-3::obj-108::obj-101" : [ "Scrub[1]", "Scrub", 0 ],
			"obj-11::obj-61::obj-46" : [ "reverb gain", "rvrbGain", 0 ],
			"obj-11::obj-5::obj-3::obj-7::obj-66::obj-182" : [ "live.text[94]", "live.text[4]", 0 ],
			"obj-11::obj-26::obj-3::obj-108::obj-103" : [ "Direction[13]", "Direction", 0 ],
			"obj-11::obj-5::obj-3::obj-7::obj-68::obj-10::obj-196" : [ "live.text[91]", "live.text", 0 ],
			"obj-11::obj-26::obj-3::obj-7::obj-66::obj-10::obj-10::obj-145" : [ "live.menu[56]", "live.menu", 0 ],
			"obj-11::obj-5::obj-3::obj-7::obj-121::obj-10::obj-10::obj-145" : [ "live.menu[42]", "live.menu", 0 ],
			"obj-11::obj-26::obj-3::obj-7::obj-67::obj-182" : [ "live.text[112]", "live.text[4]", 0 ],
			"obj-11::obj-5::obj-3::obj-7::obj-117::obj-182" : [ "live.text[84]", "live.text[4]", 0 ],
			"obj-11::obj-26::obj-3::obj-7::obj-70::obj-10::obj-196" : [ "live.text[109]", "live.text", 0 ],
			"obj-11::obj-5::obj-3::obj-7::obj-123::obj-10::obj-196" : [ "live.text[81]", "live.text", 0 ],
			"obj-11::obj-26::obj-3::obj-7::obj-117::obj-10::obj-10::obj-145" : [ "live.menu[51]", "live.menu", 0 ],
			"obj-11::obj-26::obj-3::obj-7::obj-105::obj-182" : [ "live.text[102]", "live.text[4]", 0 ],
			"obj-11::obj-20::obj-1::obj-76" : [ "live.text", "live.text", 0 ],
			"obj-11::obj-26::obj-3::obj-7::obj-124::obj-10::obj-196" : [ "live.text[99]", "live.text", 0 ],
			"obj-11::obj-5::obj-3::obj-89" : [ "lock[1]", "Lock", 0 ],
			"obj-11::obj-26::obj-3::obj-89" : [ "lock[4]", "Lock", 0 ],
			"obj-11::obj-5::obj-3::obj-7::obj-133::obj-10::obj-10::obj-145" : [ "live.menu[4]", "live.menu", 0 ],
			"obj-11::obj-20::obj-1::obj-118" : [ "live.text[3]", "FILTER", 0 ],
			"obj-11::obj-5::obj-4::obj-131::obj-54::obj-9::obj-61" : [ "TriggersMode[6]", "Mode", 0 ],
			"obj-11::obj-5::obj-3::obj-7::obj-66::obj-10::obj-10::obj-145" : [ "live.menu[46]", "live.menu", 0 ],
			"obj-11::obj-5::obj-3::obj-7::obj-133::obj-10::obj-196" : [ "live.text[9]", "live.text", 0 ],
			"obj-11::obj-5::obj-3::obj-7::obj-67::obj-10::obj-10::obj-145" : [ "live.menu[45]", "live.menu", 0 ],
			"obj-11::obj-26::obj-3::obj-108::obj-101" : [ "Scrub[4]", "Scrub", 0 ],
			"obj-11::obj-5::obj-3::obj-7::obj-68::obj-182" : [ "live.text[90]", "live.text[4]", 0 ],
			"obj-11::obj-26::obj-3::obj-7::obj-66::obj-10::obj-196" : [ "live.text[115]", "live.text", 0 ],
			"obj-11::obj-5::obj-3::obj-108::obj-32" : [ "live.text[7]", "live.text[3]", 0 ],
			"obj-11::obj-5::obj-3::obj-7::obj-121::obj-10::obj-196" : [ "live.text[87]", "live.text", 0 ],
			"obj-11::obj-26::obj-3::obj-7::obj-68::obj-10::obj-10::obj-145" : [ "live.menu[54]", "live.menu", 0 ],
			"obj-11::obj-5::obj-3::obj-7::obj-105::obj-10::obj-10::obj-145" : [ "live.menu[40]", "live.menu", 0 ],
			"obj-11::obj-5::obj-3::obj-68" : [ "DropFile[1]", "DropFile", 0 ],
			"obj-11::obj-26::obj-3::obj-7::obj-70::obj-182" : [ "live.text[108]", "live.text[4]", 0 ],
			"obj-11::obj-5::obj-3::obj-7::obj-123::obj-182" : [ "live.text[80]", "live.text[4]", 0 ],
			"obj-11::obj-26::obj-3::obj-7::obj-117::obj-10::obj-196" : [ "live.text[105]", "live.text", 0 ],
			"obj-11::obj-26::obj-3::obj-7::obj-123::obj-10::obj-10::obj-145" : [ "live.menu[49]", "live.menu", 0 ],
			"obj-11::obj-5::obj-3::obj-51" : [ "Soundfile[1]", "Soundfile", 0 ],
			"obj-11::obj-26::obj-3::obj-7::obj-124::obj-182" : [ "live.text[98]", "live.text[4]", 0 ],
			"obj-11::obj-26::obj-3::obj-68" : [ "DropFile[2]", "DropFile", 0 ],
			"obj-11::obj-61::obj-52" : [ "reverb Length", "rvrbLength", 0 ],
			"obj-11::obj-5::obj-3::obj-7::obj-124::obj-10::obj-10::obj-145" : [ "live.menu[38]", "live.menu", 0 ],
			"obj-11::obj-5::obj-3::obj-7::obj-67::obj-10::obj-196" : [ "live.text[93]", "live.text", 0 ],
			"obj-11::obj-26::obj-3::obj-108::obj-67" : [ "SelectAll[1]", "SelectAll", 0 ],
			"obj-11::obj-5::obj-3::obj-7::obj-70::obj-10::obj-10::obj-145" : [ "live.menu[43]", "live.menu", 0 ],
			"obj-11::obj-26::obj-3::obj-7::obj-66::obj-182" : [ "live.text[114]", "live.text[4]", 0 ],
			"obj-11::obj-5::obj-3::obj-7::obj-121::obj-182" : [ "live.text[86]", "live.text[4]", 0 ],
			"obj-11::obj-26::obj-3::obj-7::obj-68::obj-10::obj-196" : [ "live.text[111]", "live.text", 0 ],
			"obj-11::obj-5::obj-3::obj-7::obj-105::obj-10::obj-196" : [ "live.text[83]", "live.text", 0 ],
			"obj-11::obj-26::obj-3::obj-7::obj-121::obj-10::obj-10::obj-145" : [ "live.menu[52]", "live.menu", 0 ],
			"obj-11::obj-26::obj-3::obj-7::obj-117::obj-182" : [ "live.text[104]", "live.text[4]", 0 ],
			"obj-11::obj-26::obj-3::obj-7::obj-123::obj-10::obj-196" : [ "live.text[101]", "live.text", 0 ],
			"obj-11::obj-26::obj-3::obj-7::obj-133::obj-10::obj-10::obj-145" : [ "live.menu[47]", "live.menu", 0 ],
			"obj-11::obj-5::obj-3::obj-69" : [ "SelectFile[1]", "SelectFile", 0 ],
			"obj-11::obj-26::obj-3::obj-74" : [ "note[4]", "Note", 0 ],
			"obj-11::obj-5::obj-3::obj-7::obj-124::obj-10::obj-196" : [ "live.text[79]", "live.text", 0 ],
			"obj-11::obj-5::obj-3::obj-7::obj-67::obj-182" : [ "live.text[92]", "live.text[4]", 0 ],
			"obj-11::obj-26::obj-3::obj-108::obj-32" : [ "live.text[116]", "live.text[3]", 0 ],
			"obj-11::obj-5::obj-3::obj-7::obj-70::obj-10::obj-196" : [ "live.text[89]", "live.text", 0 ],
			"obj-11::obj-26::obj-3::obj-7::obj-67::obj-10::obj-10::obj-145" : [ "live.menu[55]", "live.menu", 0 ],
			"obj-11::obj-5::obj-3::obj-7::obj-117::obj-10::obj-10::obj-145" : [ "live.menu[41]", "live.menu", 0 ],
			"obj-11::obj-26::obj-3::obj-7::obj-68::obj-182" : [ "live.text[110]", "live.text[4]", 0 ],
			"obj-11::obj-5::obj-3::obj-108::obj-67" : [ "SelectAll[4]", "SelectAll", 0 ],
			"obj-11::obj-5::obj-3::obj-7::obj-105::obj-182" : [ "live.text[82]", "live.text[4]", 0 ],
			"obj-11::obj-26::obj-3::obj-7::obj-121::obj-10::obj-196" : [ "live.text[107]", "live.text", 0 ]
		}
,
		"dependency_cache" : [ 			{
				"name" : "j.nav.rogs=.module.maxpat",
				"bootpath" : "~/code/Nav/Jamoma-v1/j.nav.rogs=",
				"type" : "JSON",
				"implicit" : 1
			}
, 			{
				"name" : "j.nav.rogs=.model.maxpat",
				"bootpath" : "~/code/Nav/Jamoma-v1/j.nav.rogs=",
				"type" : "JSON",
				"implicit" : 1
			}
, 			{
				"name" : "j.absdiff.maxpat",
				"bootpath" : "~/Documents/Max 7/Packages/Jamoma/patchers/components/data/absdiff",
				"type" : "JSON",
				"implicit" : 1
			}
, 			{
				"name" : "j.nav.oscroute.model.maxpat",
				"bootpath" : "~/code/Nav/Jamoma-v1/j.nav.oscroute",
				"type" : "JSON",
				"implicit" : 1
			}
, 			{
				"name" : "thru.maxpat",
				"bootpath" : "C74:/patchers/m4l/Pluggo for Live resources/patches",
				"type" : "JSON",
				"implicit" : 1
			}
, 			{
				"name" : "j.nav.rogs=.view.maxpat",
				"bootpath" : "~/code/Nav/Jamoma-v1/j.nav.rogs=",
				"type" : "JSON",
				"implicit" : 1
			}
, 			{
				"name" : "j.nav.oscroute.view.maxpat",
				"bootpath" : "~/code/Nav/Jamoma-v1/j.nav.oscroute",
				"type" : "JSON",
				"implicit" : 1
			}
, 			{
				"name" : "j.namespacebrowser.view.maxpat",
				"bootpath" : "~/Documents/Max 7/Packages/Jamoma/patchers/components/namespace/namespacebrowser",
				"type" : "JSON",
				"implicit" : 1
			}
, 			{
				"name" : "j.get_onscreen_position.js",
				"bootpath" : "~/Documents/Max 7/Packages/Jamoma/javascript",
				"type" : "TEXT",
				"implicit" : 1
			}
, 			{
				"name" : "j.nav.scale~.module.maxpat",
				"bootpath" : "~/code/Nav/Jamoma-v1/j.nav.scale~",
				"type" : "JSON",
				"implicit" : 1
			}
, 			{
				"name" : "j.nav.scale~.model.maxpat",
				"bootpath" : "~/code/Nav/Jamoma-v1/j.nav.scale~",
				"type" : "JSON",
				"implicit" : 1
			}
, 			{
				"name" : "j.nav.autoscale~.model.maxpat",
				"bootpath" : "~/code/Nav/Jamoma-v1/j.nav.autoscale~",
				"type" : "JSON",
				"implicit" : 1
			}
, 			{
				"name" : "j.route~.maxpat",
				"bootpath" : "~/code/Nav/Jamoma-v1/j.route~",
				"type" : "JSON",
				"implicit" : 1
			}
, 			{
				"name" : "j.nav.clip~.model.maxpat",
				"bootpath" : "~/code/Nav/Jamoma-v1/j.nav.clip~",
				"type" : "JSON",
				"implicit" : 1
			}
, 			{
				"name" : "j.nav.scale~.view.maxpat",
				"bootpath" : "~/code/Nav/Jamoma-v1/j.nav.scale~",
				"type" : "JSON",
				"implicit" : 1
			}
, 			{
				"name" : "cue_manager.module.maxpat",
				"bootpath" : "~/Documents/Max 7/Packages/Jamoma/patchers/models/data/cue_manager",
				"type" : "JSON",
				"implicit" : 1
			}
, 			{
				"name" : "cue_manager.model.maxpat",
				"bootpath" : "~/Documents/Max 7/Packages/Jamoma/patchers/models/data/cue_manager",
				"type" : "JSON",
				"implicit" : 1
			}
, 			{
				"name" : "cue_manager.view.maxpat",
				"bootpath" : "~/Documents/Max 7/Packages/Jamoma/patchers/models/data/cue_manager",
				"type" : "JSON",
				"implicit" : 1
			}
, 			{
				"name" : "j.datetime.maxpat",
				"bootpath" : "~/Documents/Max 7/Packages/Jamoma/patchers/components/data/datetime",
				"type" : "JSON",
				"implicit" : 1
			}
, 			{
				"name" : "j.namespace_selector.maxpat",
				"bootpath" : "~/Documents/Max 7/Packages/Jamoma/patchers/components/namespace/namespace_selector",
				"type" : "JSON",
				"implicit" : 1
			}
, 			{
				"name" : "rogs~.mxo",
				"type" : "iLaX"
			}
, 			{
				"name" : "j.parameter.mxo",
				"type" : "iLaX"
			}
, 			{
				"name" : "j.message.mxo",
				"type" : "iLaX"
			}
, 			{
				"name" : "j.model.mxo",
				"type" : "iLaX"
			}
, 			{
				"name" : "j.parameter_array.mxo",
				"type" : "iLaX"
			}
, 			{
				"name" : "j.receive.mxo",
				"type" : "iLaX"
			}
, 			{
				"name" : "j.map.mxo",
				"type" : "iLaX"
			}
, 			{
				"name" : "j.stats.mxo",
				"type" : "iLaX"
			}
, 			{
				"name" : "j.out.mxo",
				"type" : "iLaX"
			}
, 			{
				"name" : "j.pack=.mxo",
				"type" : "iLaX"
			}
, 			{
				"name" : "j.gain=.mxo",
				"type" : "iLaX"
			}
, 			{
				"name" : "j.return.mxo",
				"type" : "iLaX"
			}
, 			{
				"name" : "j.dcblock=.mxo",
				"type" : "iLaX"
			}
, 			{
				"name" : "j.remote.mxo",
				"type" : "iLaX"
			}
, 			{
				"name" : "j.unit.mxo",
				"type" : "iLaX"
			}
, 			{
				"name" : "j.out~.mxo",
				"type" : "iLaX"
			}
, 			{
				"name" : "j.ui.mxo",
				"type" : "iLaX"
			}
, 			{
				"name" : "j.send.mxo",
				"type" : "iLaX"
			}
, 			{
				"name" : "j.view.mxo",
				"type" : "iLaX"
			}
, 			{
				"name" : "j.textslider.mxo",
				"type" : "iLaX"
			}
, 			{
				"name" : "j.remote_array.mxo",
				"type" : "iLaX"
			}
, 			{
				"name" : "j.init.mxo",
				"type" : "iLaX"
			}
, 			{
				"name" : "j.unpack=.mxo",
				"type" : "iLaX"
			}
, 			{
				"name" : "j.in~.mxo",
				"type" : "iLaX"
			}
, 			{
				"name" : "j.oscroute.mxo",
				"type" : "iLaX"
			}
, 			{
				"name" : "j.receive~.mxo",
				"type" : "iLaX"
			}
, 			{
				"name" : "ircamverb~.mxo",
				"type" : "iLaX"
			}
, 			{
				"name" : "ircamverb~.control.mxo",
				"type" : "iLaX"
			}
, 			{
				"name" : "j.cue.mxo",
				"type" : "iLaX"
			}
, 			{
				"name" : "j.namespace.mxo",
				"type" : "iLaX"
			}
 ],
		"autosave" : 0
	}

}
