{
	"patcher" : 	{
		"fileversion" : 1,
		"appversion" : 		{
			"major" : 8,
			"minor" : 5,
			"revision" : 2,
			"architecture" : "x64",
			"modernui" : 1
		}
,
		"classnamespace" : "box",
		"rect" : [ 325.0, 209.0, 640.0, 480.0 ],
		"bglocked" : 0,
		"openinpresentation" : 1,
		"default_fontsize" : 12.0,
		"default_fontface" : 0,
		"default_fontname" : "Arial",
		"gridonopen" : 2,
		"gridsize" : [ 15.0, 15.0 ],
		"gridsnaponopen" : 2,
		"objectsnaponopen" : 0,
		"statusbarvisible" : 2,
		"toolbarvisible" : 1,
		"lefttoolbarpinned" : 0,
		"toptoolbarpinned" : 0,
		"righttoolbarpinned" : 0,
		"bottomtoolbarpinned" : 0,
		"toolbars_unpinned_last_save" : 0,
		"tallnewobj" : 0,
		"boxanimatetime" : 200,
		"enablehscroll" : 1,
		"enablevscroll" : 1,
		"devicewidth" : 0.0,
		"description" : "",
		"digest" : "",
		"tags" : "",
		"style" : "",
		"subpatcher_template" : "evan_template",
		"assistshowspatchername" : 0,
		"boxes" : [ 			{
				"box" : 				{
					"id" : "obj-1272",
					"linecount" : 2,
					"maxclass" : "newobj",
					"numinlets" : 1,
					"numoutlets" : 3,
					"outlettype" : [ "", "", "" ],
					"patching_rect" : [ 45.000001788139343, 1380.0, 96.0, 35.0 ],
					"text" : "ossia.remote #1/input/value"
				}

			}
, 			{
				"box" : 				{
					"id" : "obj-1241",
					"maxclass" : "newobj",
					"numinlets" : 1,
					"numoutlets" : 1,
					"outlettype" : [ "" ],
					"patching_rect" : [ 45.000001788139343, 1155.0, 72.0, 22.0 ],
					"text" : "prepend set"
				}

			}
, 			{
				"box" : 				{
					"id" : "obj-1242",
					"maxclass" : "newobj",
					"numinlets" : 2,
					"numoutlets" : 1,
					"outlettype" : [ "int" ],
					"patching_rect" : [ 45.000001788139343, 1125.0, 29.5, 22.0 ],
					"text" : "- 1"
				}

			}
, 			{
				"box" : 				{
					"id" : "obj-1244",
					"maxclass" : "newobj",
					"numinlets" : 2,
					"numoutlets" : 1,
					"outlettype" : [ "int" ],
					"patching_rect" : [ 45.000001788139343, 1275.0, 29.5, 22.0 ],
					"text" : "+ 1"
				}

			}
, 			{
				"box" : 				{
					"id" : "obj-1245",
					"maxclass" : "live.tab",
					"num_lines_patching" : 2,
					"num_lines_presentation" : 2,
					"numinlets" : 1,
					"numoutlets" : 3,
					"outlettype" : [ "", "", "float" ],
					"parameter_enable" : 1,
					"patching_rect" : [ 45.000001788139343, 1200.0, 45.0, 60.0 ],
					"presentation" : 1,
					"presentation_rect" : [ 0.0, 289.0, 57.5, 75.0 ],
					"saved_attribute_attributes" : 					{
						"valueof" : 						{
							"parameter_enum" : [ "Fader", "Rand" ],
							"parameter_longname" : "live.tab[61]",
							"parameter_mmax" : 1,
							"parameter_shortname" : "live.tab",
							"parameter_type" : 2,
							"parameter_unitstyle" : 9
						}

					}
,
					"varname" : "live.tab[28]"
				}

			}
, 			{
				"box" : 				{
					"id" : "obj-1246",
					"linecount" : 2,
					"maxclass" : "newobj",
					"numinlets" : 1,
					"numoutlets" : 3,
					"outlettype" : [ "", "", "" ],
					"patching_rect" : [ 45.000001788139343, 1305.0, 137.0, 35.0 ],
					"text" : "ossia.remote #1/input/mixer/source"
				}

			}
, 			{
				"box" : 				{
					"bgcolor" : [ 0.227450980392157, 0.219607843137255, 0.211764705882353, 0.250980392156863 ],
					"fontsize" : 9.0,
					"id" : "obj-1155",
					"maxclass" : "number",
					"maximum" : 10000,
					"minimum" : 1,
					"numinlets" : 1,
					"numoutlets" : 2,
					"outlettype" : [ "", "bang" ],
					"parameter_enable" : 1,
					"patching_rect" : [ 45.0, 180.0, 66.0, 19.0 ],
					"presentation" : 1,
					"presentation_rect" : [ -0.199997544288635, 18.0, 45.0, 19.0 ],
					"saved_attribute_attributes" : 					{
						"valueof" : 						{
							"parameter_invisible" : 1,
							"parameter_longname" : "number[491]",
							"parameter_mmax" : 10000.0,
							"parameter_mmin" : 1.0,
							"parameter_shortname" : "number[96]",
							"parameter_type" : 3
						}

					}
,
					"textcolor" : [ 0.0, 0.0, 0.0, 1.0 ],
					"triangle" : 0,
					"varname" : "RTmin[65]"
				}

			}
, 			{
				"box" : 				{
					"fontname" : "Arial",
					"fontsize" : 13.0,
					"id" : "obj-1156",
					"linecount" : 2,
					"maxclass" : "newobj",
					"numinlets" : 1,
					"numoutlets" : 3,
					"outlettype" : [ "", "", "" ],
					"patching_rect" : [ 45.0, 210.0, 171.0, 38.0 ],
					"text" : "ossia.remote #1/input/random/rate/max",
					"varname" : "rate/max[4]"
				}

			}
, 			{
				"box" : 				{
					"bgcolor" : [ 0.227450980392157, 0.219607843137255, 0.211764705882353, 0.101960784313725 ],
					"fontsize" : 9.0,
					"id" : "obj-1157",
					"maxclass" : "number",
					"maximum" : 10000,
					"minimum" : 1,
					"numinlets" : 1,
					"numoutlets" : 2,
					"outlettype" : [ "", "bang" ],
					"parameter_enable" : 1,
					"patching_rect" : [ 45.0, 75.0, 66.0, 19.0 ],
					"presentation" : 1,
					"presentation_rect" : [ 0.0, 0.0, 45.0, 19.0 ],
					"saved_attribute_attributes" : 					{
						"valueof" : 						{
							"parameter_invisible" : 1,
							"parameter_longname" : "number[494]",
							"parameter_mmax" : 10000.0,
							"parameter_mmin" : 1.0,
							"parameter_shortname" : "number[96]",
							"parameter_type" : 3
						}

					}
,
					"textcolor" : [ 0.0, 0.0, 0.0, 1.0 ],
					"triangle" : 0,
					"varname" : "RTmin[66]"
				}

			}
, 			{
				"box" : 				{
					"fontname" : "Arial",
					"fontsize" : 13.0,
					"id" : "obj-1158",
					"linecount" : 2,
					"maxclass" : "newobj",
					"numinlets" : 1,
					"numoutlets" : 3,
					"outlettype" : [ "", "", "" ],
					"patching_rect" : [ 45.0, 105.0, 167.0, 38.0 ],
					"text" : "ossia.remote #1/input/random/rate/min",
					"varname" : "rate/min[57]"
				}

			}
, 			{
				"box" : 				{
					"id" : "obj-1171",
					"maxclass" : "newobj",
					"numinlets" : 0,
					"numoutlets" : 1,
					"outlettype" : [ "" ],
					"patcher" : 					{
						"fileversion" : 1,
						"appversion" : 						{
							"major" : 8,
							"minor" : 5,
							"revision" : 2,
							"architecture" : "x64",
							"modernui" : 1
						}
,
						"classnamespace" : "box",
						"rect" : [ 417.0, 157.0, 137.0, 194.0 ],
						"bglocked" : 0,
						"openinpresentation" : 0,
						"default_fontsize" : 12.0,
						"default_fontface" : 0,
						"default_fontname" : "Arial",
						"gridonopen" : 2,
						"gridsize" : [ 15.0, 15.0 ],
						"gridsnaponopen" : 2,
						"objectsnaponopen" : 0,
						"statusbarvisible" : 2,
						"toolbarvisible" : 1,
						"lefttoolbarpinned" : 0,
						"toptoolbarpinned" : 0,
						"righttoolbarpinned" : 0,
						"bottomtoolbarpinned" : 0,
						"toolbars_unpinned_last_save" : 0,
						"tallnewobj" : 0,
						"boxanimatetime" : 200,
						"enablehscroll" : 1,
						"enablevscroll" : 1,
						"devicewidth" : 0.0,
						"description" : "",
						"digest" : "",
						"tags" : "",
						"style" : "",
						"subpatcher_template" : "evan_template",
						"assistshowspatchername" : 0,
						"boxes" : [ 							{
								"box" : 								{
									"id" : "obj-983",
									"linecount" : 3,
									"maxclass" : "newobj",
									"numinlets" : 1,
									"numoutlets" : 3,
									"outlettype" : [ "", "", "" ],
									"patching_rect" : [ 15.0, 15.0, 120.0, 49.0 ],
									"presentation" : 1,
									"presentation_linecount" : 3,
									"presentation_rect" : [ 5070.0, 1335.0, 105.0, 49.0 ],
									"text" : "ossia.remote #1/input/mixer/source"
								}

							}
, 							{
								"box" : 								{
									"id" : "obj-931",
									"maxclass" : "newobj",
									"numinlets" : 1,
									"numoutlets" : 1,
									"outlettype" : [ "" ],
									"patching_rect" : [ 15.0, 120.0, 92.0, 22.0 ],
									"presentation" : 1,
									"presentation_rect" : [ 5070.0, 1440.0, 92.0, 22.0 ],
									"text" : "prepend hidden"
								}

							}
, 							{
								"box" : 								{
									"id" : "obj-930",
									"maxclass" : "newobj",
									"numinlets" : 2,
									"numoutlets" : 1,
									"outlettype" : [ "int" ],
									"patching_rect" : [ 15.0, 90.0, 29.5, 22.0 ],
									"presentation" : 1,
									"presentation_rect" : [ 5070.0, 1410.0, 33.0, 22.0 ],
									"text" : "!= 2"
								}

							}
, 							{
								"box" : 								{
									"comment" : "",
									"id" : "obj-984",
									"index" : 1,
									"maxclass" : "outlet",
									"numinlets" : 1,
									"numoutlets" : 0,
									"patching_rect" : [ 15.0, 150.0, 30.0, 30.0 ]
								}

							}
 ],
						"lines" : [ 							{
								"patchline" : 								{
									"destination" : [ "obj-931", 0 ],
									"source" : [ "obj-930", 0 ]
								}

							}
, 							{
								"patchline" : 								{
									"destination" : [ "obj-984", 0 ],
									"source" : [ "obj-931", 0 ]
								}

							}
, 							{
								"patchline" : 								{
									"destination" : [ "obj-930", 0 ],
									"midpoints" : [ 75.0, 77.0, 24.5, 77.0 ],
									"source" : [ "obj-983", 1 ]
								}

							}
 ]
					}
,
					"patching_rect" : [ 45.0, 15.0, 64.0, 22.0 ],
					"saved_object_attributes" : 					{
						"description" : "",
						"digest" : "",
						"globalpatchername" : "",
						"tags" : ""
					}
,
					"text" : "p hide_in1"
				}

			}
, 			{
				"box" : 				{
					"floatoutput" : 1,
					"id" : "obj-1172",
					"maxclass" : "dial",
					"numinlets" : 1,
					"numoutlets" : 1,
					"outlettype" : [ "float" ],
					"parameter_enable" : 1,
					"patching_rect" : [ 45.0, 405.0, 23.599999904632568, 23.599999904632568 ],
					"presentation" : 1,
					"presentation_rect" : [ 2.0, 70.0, 22.0, 22.0 ],
					"saved_attribute_attributes" : 					{
						"valueof" : 						{
							"parameter_longname" : "dial[79]",
							"parameter_mmax" : 1.0,
							"parameter_shortname" : "dial",
							"parameter_type" : 0
						}

					}
,
					"size" : 1.0,
					"varname" : "RTmin[69]"
				}

			}
, 			{
				"box" : 				{
					"fontname" : "Arial",
					"fontsize" : 13.0,
					"id" : "obj-1173",
					"linecount" : 2,
					"maxclass" : "newobj",
					"numinlets" : 1,
					"numoutlets" : 3,
					"outlettype" : [ "", "", "" ],
					"patching_rect" : [ 45.0, 435.0, 145.0, 38.0 ],
					"text" : "ossia.remote #1/input/random/step",
					"varname" : "rate/min[60]"
				}

			}
, 			{
				"box" : 				{
					"bgcolor" : [ 0.227450980392157, 0.219607843137255, 0.211764705882353, 0.101960784313725 ],
					"fontsize" : 9.0,
					"id" : "obj-1174",
					"maxclass" : "number",
					"maximum" : 10000,
					"minimum" : 0,
					"numinlets" : 1,
					"numoutlets" : 2,
					"outlettype" : [ "", "bang" ],
					"parameter_enable" : 1,
					"patching_rect" : [ 45.0, 285.0, 58.0, 19.0 ],
					"presentation" : 1,
					"presentation_rect" : [ 0.0, 45.0, 45.0, 19.0 ],
					"saved_attribute_attributes" : 					{
						"valueof" : 						{
							"parameter_invisible" : 1,
							"parameter_longname" : "number[490]",
							"parameter_mmax" : 10000.0,
							"parameter_shortname" : "number[96]",
							"parameter_type" : 3
						}

					}
,
					"textcolor" : [ 0.0, 0.0, 0.0, 1.0 ],
					"triangle" : 0,
					"varname" : "RTmin[70]"
				}

			}
, 			{
				"box" : 				{
					"fontname" : "Arial",
					"fontsize" : 13.0,
					"id" : "obj-1175",
					"linecount" : 2,
					"maxclass" : "newobj",
					"numinlets" : 1,
					"numoutlets" : 3,
					"outlettype" : [ "", "", "" ],
					"patching_rect" : [ 45.0, 315.0, 181.0, 38.0 ],
					"text" : "ossia.remote #1/input/random/interpolate",
					"varname" : "rate/min[61]"
				}

			}
, 			{
				"box" : 				{
					"id" : "obj-1176",
					"maxclass" : "newobj",
					"numinlets" : 0,
					"numoutlets" : 1,
					"outlettype" : [ "" ],
					"patcher" : 					{
						"fileversion" : 1,
						"appversion" : 						{
							"major" : 8,
							"minor" : 5,
							"revision" : 2,
							"architecture" : "x64",
							"modernui" : 1
						}
,
						"classnamespace" : "box",
						"rect" : [ 59.0, 104.0, 231.0, 168.0 ],
						"bglocked" : 0,
						"openinpresentation" : 0,
						"default_fontsize" : 12.0,
						"default_fontface" : 0,
						"default_fontname" : "Arial",
						"gridonopen" : 2,
						"gridsize" : [ 15.0, 15.0 ],
						"gridsnaponopen" : 2,
						"objectsnaponopen" : 0,
						"statusbarvisible" : 2,
						"toolbarvisible" : 1,
						"lefttoolbarpinned" : 0,
						"toptoolbarpinned" : 0,
						"righttoolbarpinned" : 0,
						"bottomtoolbarpinned" : 0,
						"toolbars_unpinned_last_save" : 0,
						"tallnewobj" : 0,
						"boxanimatetime" : 200,
						"enablehscroll" : 1,
						"enablevscroll" : 1,
						"devicewidth" : 0.0,
						"description" : "",
						"digest" : "",
						"tags" : "",
						"style" : "",
						"subpatcher_template" : "evan_template",
						"assistshowspatchername" : 0,
						"boxes" : [ 							{
								"box" : 								{
									"id" : "obj-929",
									"maxclass" : "newobj",
									"numinlets" : 1,
									"numoutlets" : 1,
									"outlettype" : [ "" ],
									"patching_rect" : [ 15.0, 90.0, 92.0, 22.0 ],
									"text" : "prepend hidden"
								}

							}
, 							{
								"box" : 								{
									"id" : "obj-927",
									"maxclass" : "newobj",
									"numinlets" : 2,
									"numoutlets" : 1,
									"outlettype" : [ "int" ],
									"patching_rect" : [ 15.0, 60.0, 29.5, 22.0 ],
									"text" : "!= 1"
								}

							}
, 							{
								"box" : 								{
									"id" : "obj-926",
									"linecount" : 2,
									"maxclass" : "newobj",
									"numinlets" : 1,
									"numoutlets" : 3,
									"outlettype" : [ "", "", "" ],
									"patching_rect" : [ 15.0, 15.0, 205.0, 35.0 ],
									"text" : "ossia.remote #1/input/mixer/source"
								}

							}
, 							{
								"box" : 								{
									"comment" : "",
									"id" : "obj-993",
									"index" : 1,
									"maxclass" : "outlet",
									"numinlets" : 1,
									"numoutlets" : 0,
									"patching_rect" : [ 15.0, 120.0, 30.0, 30.0 ]
								}

							}
 ],
						"lines" : [ 							{
								"patchline" : 								{
									"destination" : [ "obj-927", 0 ],
									"midpoints" : [ 117.5, 47.0, 24.5, 47.0 ],
									"source" : [ "obj-926", 1 ]
								}

							}
, 							{
								"patchline" : 								{
									"destination" : [ "obj-929", 0 ],
									"source" : [ "obj-927", 0 ]
								}

							}
, 							{
								"patchline" : 								{
									"destination" : [ "obj-993", 0 ],
									"source" : [ "obj-929", 0 ]
								}

							}
 ]
					}
,
					"patching_rect" : [ 45.0, 750.0, 64.0, 22.0 ],
					"saved_object_attributes" : 					{
						"description" : "",
						"digest" : "",
						"globalpatchername" : "",
						"tags" : ""
					}
,
					"text" : "p hide_in1"
				}

			}
, 			{
				"box" : 				{
					"id" : "obj-1177",
					"maxclass" : "newobj",
					"numinlets" : 1,
					"numoutlets" : 3,
					"outlettype" : [ "", "", "" ],
					"patching_rect" : [ 45.0, 930.0, 167.0, 22.0 ],
					"text" : "ossia.remote #1/input/fader"
				}

			}
, 			{
				"box" : 				{
					"contdata" : 1,
					"hidden" : 1,
					"id" : "obj-1178",
					"maxclass" : "multislider",
					"numinlets" : 1,
					"numoutlets" : 2,
					"outlettype" : [ "", "" ],
					"parameter_enable" : 1,
					"patching_rect" : [ 45.0, 780.0, 20.0, 140.0 ],
					"presentation" : 1,
					"presentation_rect" : [ 0.0, 139.0, 54.0, 144.0 ],
					"saved_attribute_attributes" : 					{
						"valueof" : 						{
							"parameter_longname" : "multislider[147]",
							"parameter_mmax" : 1.0,
							"parameter_shortname" : "multislider",
							"parameter_type" : 0
						}

					}
,
					"setminmax" : [ 0.0, 1.0 ],
					"setstyle" : 1,
					"varname" : "multislider[8]"
				}

			}
, 			{
				"box" : 				{
					"id" : "obj-1179",
					"maxclass" : "newobj",
					"numinlets" : 0,
					"numoutlets" : 1,
					"outlettype" : [ "" ],
					"patcher" : 					{
						"fileversion" : 1,
						"appversion" : 						{
							"major" : 8,
							"minor" : 5,
							"revision" : 2,
							"architecture" : "x64",
							"modernui" : 1
						}
,
						"classnamespace" : "box",
						"rect" : [ 59.0, 104.0, 137.0, 194.0 ],
						"bglocked" : 0,
						"openinpresentation" : 0,
						"default_fontsize" : 12.0,
						"default_fontface" : 0,
						"default_fontname" : "Arial",
						"gridonopen" : 2,
						"gridsize" : [ 15.0, 15.0 ],
						"gridsnaponopen" : 2,
						"objectsnaponopen" : 0,
						"statusbarvisible" : 2,
						"toolbarvisible" : 1,
						"lefttoolbarpinned" : 0,
						"toptoolbarpinned" : 0,
						"righttoolbarpinned" : 0,
						"bottomtoolbarpinned" : 0,
						"toolbars_unpinned_last_save" : 0,
						"tallnewobj" : 0,
						"boxanimatetime" : 200,
						"enablehscroll" : 1,
						"enablevscroll" : 1,
						"devicewidth" : 0.0,
						"description" : "",
						"digest" : "",
						"tags" : "",
						"style" : "",
						"subpatcher_template" : "evan_template",
						"assistshowspatchername" : 0,
						"boxes" : [ 							{
								"box" : 								{
									"id" : "obj-2",
									"maxclass" : "message",
									"numinlets" : 2,
									"numoutlets" : 1,
									"outlettype" : [ "" ],
									"patching_rect" : [ 90.0, 90.0, 50.0, 22.0 ],
									"text" : "2."
								}

							}
, 							{
								"box" : 								{
									"id" : "obj-983",
									"linecount" : 3,
									"maxclass" : "newobj",
									"numinlets" : 1,
									"numoutlets" : 3,
									"outlettype" : [ "", "", "" ],
									"patching_rect" : [ 15.0, 15.0, 120.0, 49.0 ],
									"presentation" : 1,
									"presentation_linecount" : 3,
									"presentation_rect" : [ 5070.0, 1335.0, 105.0, 49.0 ],
									"text" : "ossia.remote #1/input/mixer/source"
								}

							}
, 							{
								"box" : 								{
									"id" : "obj-931",
									"maxclass" : "newobj",
									"numinlets" : 1,
									"numoutlets" : 1,
									"outlettype" : [ "" ],
									"patching_rect" : [ 15.0, 120.0, 92.0, 22.0 ],
									"presentation" : 1,
									"presentation_rect" : [ 5070.0, 1440.0, 92.0, 22.0 ],
									"text" : "prepend hidden"
								}

							}
, 							{
								"box" : 								{
									"id" : "obj-930",
									"maxclass" : "newobj",
									"numinlets" : 2,
									"numoutlets" : 1,
									"outlettype" : [ "int" ],
									"patching_rect" : [ 15.0, 90.0, 33.0, 22.0 ],
									"presentation" : 1,
									"presentation_rect" : [ 5070.0, 1410.0, 33.0, 22.0 ],
									"text" : "== 1"
								}

							}
, 							{
								"box" : 								{
									"comment" : "",
									"id" : "obj-984",
									"index" : 1,
									"maxclass" : "outlet",
									"numinlets" : 1,
									"numoutlets" : 0,
									"patching_rect" : [ 15.0, 150.0, 30.0, 30.0 ]
								}

							}
 ],
						"lines" : [ 							{
								"patchline" : 								{
									"destination" : [ "obj-931", 0 ],
									"source" : [ "obj-930", 0 ]
								}

							}
, 							{
								"patchline" : 								{
									"destination" : [ "obj-984", 0 ],
									"source" : [ "obj-931", 0 ]
								}

							}
, 							{
								"patchline" : 								{
									"destination" : [ "obj-2", 1 ],
									"order" : 0,
									"source" : [ "obj-983", 1 ]
								}

							}
, 							{
								"patchline" : 								{
									"destination" : [ "obj-930", 0 ],
									"midpoints" : [ 75.0, 77.0, 24.5, 77.0 ],
									"order" : 1,
									"source" : [ "obj-983", 1 ]
								}

							}
 ]
					}
,
					"patching_rect" : [ 45.0, 510.0, 64.0, 22.0 ],
					"saved_object_attributes" : 					{
						"description" : "",
						"digest" : "",
						"globalpatchername" : "",
						"tags" : ""
					}
,
					"text" : "p hide_in1"
				}

			}
, 			{
				"box" : 				{
					"fontname" : "Arial",
					"fontsize" : 13.0,
					"id" : "obj-1184",
					"maxclass" : "newobj",
					"numinlets" : 1,
					"numoutlets" : 3,
					"outlettype" : [ "", "", "" ],
					"patching_rect" : [ 45.000001788139343, 1020.0, 227.0, 23.0 ],
					"text" : "ossia.remote #1/input/range1/mode",
					"varname" : "rate/max[5]"
				}

			}
, 			{
				"box" : 				{
					"arrow" : 0,
					"bgfillcolor_angle" : 270.0,
					"bgfillcolor_autogradient" : 0.0,
					"bgfillcolor_color" : [ 0.227450980392157, 0.219607843137255, 0.211764705882353, 0.4 ],
					"bgfillcolor_color1" : [ 0.227450980392157, 0.219607843137255, 0.211764705882353, 0.101960784313725 ],
					"bgfillcolor_color2" : [ 0.227450980392157, 0.219607843137255, 0.211764705882353, 0.4 ],
					"bgfillcolor_proportion" : 0.5,
					"bgfillcolor_type" : "gradient",
					"fontface" : 1,
					"fontname" : "Arial",
					"fontsize" : 7.0,
					"id" : "obj-1185",
					"items" : [ "bipolar", ",", "unipolar", ",", "additive" ],
					"maxclass" : "umenu",
					"numinlets" : 1,
					"numoutlets" : 3,
					"outlettype" : [ "int", "", "" ],
					"parameter_enable" : 1,
					"patching_rect" : [ 45.000001788139343, 987.5, 100.0, 16.0 ],
					"presentation" : 1,
					"presentation_rect" : [ 0.0, 119.0, 57.166665971279144, 16.0 ],
					"saved_attribute_attributes" : 					{
						"valueof" : 						{
							"parameter_enum" : [ "bipolar", "unipolar", "additive" ],
							"parameter_longname" : "umenu[84]",
							"parameter_mmax" : 2,
							"parameter_shortname" : "umenu[7]",
							"parameter_type" : 2
						}

					}
,
					"textcolor" : [ 0.0, 0.0, 0.0, 1.0 ],
					"varname" : "umenu[3]"
				}

			}
, 			{
				"box" : 				{
					"id" : "obj-1186",
					"maxclass" : "newobj",
					"numinlets" : 0,
					"numoutlets" : 0,
					"patcher" : 					{
						"fileversion" : 1,
						"appversion" : 						{
							"major" : 8,
							"minor" : 5,
							"revision" : 2,
							"architecture" : "x64",
							"modernui" : 1
						}
,
						"classnamespace" : "box",
						"rect" : [ 374.0, 517.0, 379.0, 233.0 ],
						"bglocked" : 0,
						"openinpresentation" : 0,
						"default_fontsize" : 12.0,
						"default_fontface" : 0,
						"default_fontname" : "Arial",
						"gridonopen" : 2,
						"gridsize" : [ 15.0, 15.0 ],
						"gridsnaponopen" : 2,
						"objectsnaponopen" : 0,
						"statusbarvisible" : 2,
						"toolbarvisible" : 1,
						"lefttoolbarpinned" : 0,
						"toptoolbarpinned" : 0,
						"righttoolbarpinned" : 0,
						"bottomtoolbarpinned" : 0,
						"toolbars_unpinned_last_save" : 0,
						"tallnewobj" : 0,
						"boxanimatetime" : 200,
						"enablehscroll" : 1,
						"enablevscroll" : 1,
						"devicewidth" : 0.0,
						"description" : "",
						"digest" : "",
						"tags" : "",
						"style" : "",
						"subpatcher_template" : "evan_template",
						"assistshowspatchername" : 0,
						"boxes" : [ 							{
								"box" : 								{
									"id" : "obj-2",
									"maxclass" : "newobj",
									"numinlets" : 1,
									"numoutlets" : 2,
									"outlettype" : [ "float", "float" ],
									"patching_rect" : [ 180.0, 75.0, 61.0, 22.0 ],
									"text" : "unpack f f"
								}

							}
, 							{
								"box" : 								{
									"id" : "obj-3",
									"maxclass" : "newobj",
									"numinlets" : 2,
									"numoutlets" : 1,
									"outlettype" : [ "int" ],
									"patching_rect" : [ 15.0, 75.0, 29.5, 22.0 ],
									"text" : "- 1"
								}

							}
, 							{
								"box" : 								{
									"id" : "obj-104",
									"linecount" : 3,
									"maxclass" : "newobj",
									"numinlets" : 1,
									"numoutlets" : 3,
									"outlettype" : [ "", "", "" ],
									"patching_rect" : [ 120.0, 180.0, 90.0, 49.0 ],
									"text" : "ossia.remote #1/input/random/max"
								}

							}
, 							{
								"box" : 								{
									"id" : "obj-93",
									"maxclass" : "newobj",
									"numinlets" : 2,
									"numoutlets" : 1,
									"outlettype" : [ "" ],
									"patching_rect" : [ 120.0, 150.0, 32.0, 22.0 ],
									"text" : "gate"
								}

							}
, 							{
								"box" : 								{
									"id" : "obj-5",
									"maxclass" : "newobj",
									"numinlets" : 2,
									"numoutlets" : 1,
									"outlettype" : [ "" ],
									"patching_rect" : [ 15.0, 150.0, 32.0, 22.0 ],
									"text" : "gate"
								}

							}
, 							{
								"box" : 								{
									"id" : "obj-99",
									"linecount" : 3,
									"maxclass" : "newobj",
									"numinlets" : 1,
									"numoutlets" : 3,
									"outlettype" : [ "", "", "" ],
									"patching_rect" : [ 15.0, 180.0, 81.0, 49.0 ],
									"text" : "ossia.remote #1/input/random/min"
								}

							}
, 							{
								"box" : 								{
									"id" : "obj-122",
									"linecount" : 2,
									"maxclass" : "newobj",
									"numinlets" : 1,
									"numoutlets" : 3,
									"outlettype" : [ "", "", "" ],
									"patching_rect" : [ 15.0, 15.0, 151.0, 35.0 ],
									"text" : "ossia.remote #1/input/mixer/source"
								}

							}
, 							{
								"box" : 								{
									"id" : "obj-123",
									"linecount" : 2,
									"maxclass" : "newobj",
									"numinlets" : 1,
									"numoutlets" : 3,
									"outlettype" : [ "", "", "" ],
									"patching_rect" : [ 180.0, 15.0, 150.0, 35.0 ],
									"text" : "ossia.remote #1/input/range1/minmax"
								}

							}
 ],
						"lines" : [ 							{
								"patchline" : 								{
									"destination" : [ "obj-3", 0 ],
									"source" : [ "obj-122", 1 ]
								}

							}
, 							{
								"patchline" : 								{
									"destination" : [ "obj-2", 0 ],
									"source" : [ "obj-123", 1 ]
								}

							}
, 							{
								"patchline" : 								{
									"destination" : [ "obj-5", 1 ],
									"midpoints" : [ 189.5, 123.0, 37.5, 123.0 ],
									"source" : [ "obj-2", 0 ]
								}

							}
, 							{
								"patchline" : 								{
									"destination" : [ "obj-93", 1 ],
									"midpoints" : [ 231.5, 123.0, 142.5, 123.0 ],
									"source" : [ "obj-2", 1 ]
								}

							}
, 							{
								"patchline" : 								{
									"destination" : [ "obj-5", 0 ],
									"order" : 1,
									"source" : [ "obj-3", 0 ]
								}

							}
, 							{
								"patchline" : 								{
									"destination" : [ "obj-93", 0 ],
									"midpoints" : [ 24.5, 134.5, 129.5, 134.5 ],
									"order" : 0,
									"source" : [ "obj-3", 0 ]
								}

							}
, 							{
								"patchline" : 								{
									"destination" : [ "obj-99", 0 ],
									"source" : [ "obj-5", 0 ]
								}

							}
, 							{
								"patchline" : 								{
									"destination" : [ "obj-104", 0 ],
									"source" : [ "obj-93", 0 ]
								}

							}
 ],
						"styles" : [ 							{
								"name" : "Jamoma_highlighted_orange",
								"default" : 								{
									"accentcolor" : [ 1.0, 0.5, 0.0, 1.0 ]
								}
,
								"parentstyle" : "",
								"multi" : 0
							}
 ]
					}
,
					"patching_rect" : [ 45.000001788139343, 1080.0, 136.0, 22.0 ],
					"saved_object_attributes" : 					{
						"description" : "",
						"digest" : "",
						"globalpatchername" : "",
						"tags" : ""
					}
,
					"text" : "p fader_in1_LFO1_rand"
				}

			}
, 			{
				"box" : 				{
					"id" : "obj-1187",
					"maxclass" : "newobj",
					"numinlets" : 1,
					"numoutlets" : 3,
					"outlettype" : [ "", "", "" ],
					"patching_rect" : [ 45.0, 675.0, 222.0, 22.0 ],
					"text" : "ossia.remote #1/input/range1/minmax"
				}

			}
, 			{
				"box" : 				{
					"bgcolor" : [ 0.875, 0.875, 0.875, 1.0 ],
					"bordercolor" : [ 0.5, 0.5, 0.5, 1.0 ],
					"fgcolor" : [ 0.537255, 0.537255, 0.537255, 1.0 ],
					"floatoutput" : 1,
					"id" : "obj-1188",
					"listmode" : 1,
					"maxclass" : "rslider",
					"numinlets" : 2,
					"numoutlets" : 2,
					"outlettype" : [ "", "" ],
					"parameter_enable" : 1,
					"patching_rect" : [ 45.0, 555.0, 41.0, 114.0 ],
					"presentation" : 1,
					"presentation_rect" : [ 0.0, 139.0, 57.5, 144.0 ],
					"saved_attribute_attributes" : 					{
						"valueof" : 						{
							"parameter_invisible" : 1,
							"parameter_longname" : "rslider[139]",
							"parameter_shortname" : "rslider[1]",
							"parameter_type" : 3
						}

					}
,
					"size" : 1.0,
					"varname" : "rslider[18]"
				}

			}
, 			{
				"box" : 				{
					"contdata" : 1,
					"id" : "obj-1104",
					"maxclass" : "multislider",
					"numinlets" : 1,
					"numoutlets" : 2,
					"outlettype" : [ "", "" ],
					"parameter_enable" : 1,
					"patching_rect" : [ 45.000001788139343, 1455.0, 15.0, 135.0 ],
					"presentation" : 1,
					"presentation_rect" : [ 50.0, 139.0, 10.0, 144.0 ],
					"saved_attribute_attributes" : 					{
						"valueof" : 						{
							"parameter_longname" : "multislider[146]",
							"parameter_mmax" : 100.0,
							"parameter_shortname" : "multislider",
							"parameter_type" : 0
						}

					}
,
					"setminmax" : [ 0.0, 100.0 ],
					"setstyle" : 1,
					"slidercolor" : [ 0.070588235294118, 0.647058823529412, 0.2, 1.0 ],
					"varname" : "live.numbox[52]"
				}

			}
, 			{
				"box" : 				{
					"id" : "obj-1105",
					"maxclass" : "newobj",
					"numinlets" : 2,
					"numoutlets" : 1,
					"outlettype" : [ "" ],
					"patching_rect" : [ 45.000001788139343, 1425.0, 73.0, 22.0 ],
					"text" : "speedlim 30"
				}

			}
 ],
		"lines" : [ 			{
				"patchline" : 				{
					"destination" : [ "obj-1104", 0 ],
					"midpoints" : [ 54.500001788139343, 1450.5, 54.000001788139343, 1450.5 ],
					"source" : [ "obj-1105", 0 ]
				}

			}
, 			{
				"patchline" : 				{
					"destination" : [ "obj-1156", 0 ],
					"midpoints" : [ 54.5, 203.0, 54.5, 203.0 ],
					"source" : [ "obj-1155", 0 ]
				}

			}
, 			{
				"patchline" : 				{
					"destination" : [ "obj-1155", 0 ],
					"midpoints" : [ 54.5, 249.0, 30.0, 249.0, 30.0, 174.0, 54.5, 174.0 ],
					"source" : [ "obj-1156", 0 ]
				}

			}
, 			{
				"patchline" : 				{
					"destination" : [ "obj-1158", 0 ],
					"midpoints" : [ 54.5, 98.0, 54.5, 98.0 ],
					"source" : [ "obj-1157", 0 ]
				}

			}
, 			{
				"patchline" : 				{
					"destination" : [ "obj-1157", 0 ],
					"midpoints" : [ 54.5, 144.0, 30.0, 144.0, 30.0, 69.0, 54.5, 69.0 ],
					"source" : [ "obj-1158", 0 ]
				}

			}
, 			{
				"patchline" : 				{
					"destination" : [ "obj-1155", 0 ],
					"midpoints" : [ 54.5, 60.0, 15.0, 60.0, 15.0, 174.0, 54.5, 174.0 ],
					"order" : 2,
					"source" : [ "obj-1171", 0 ]
				}

			}
, 			{
				"patchline" : 				{
					"destination" : [ "obj-1157", 0 ],
					"midpoints" : [ 54.5, 39.0, 54.5, 39.0 ],
					"order" : 3,
					"source" : [ "obj-1171", 0 ]
				}

			}
, 			{
				"patchline" : 				{
					"destination" : [ "obj-1172", 0 ],
					"midpoints" : [ 54.5, 60.0, 15.0, 60.0, 15.0, 390.0, 54.5, 390.0 ],
					"order" : 0,
					"source" : [ "obj-1171", 0 ]
				}

			}
, 			{
				"patchline" : 				{
					"destination" : [ "obj-1174", 0 ],
					"midpoints" : [ 54.5, 60.0, 15.0, 60.0, 15.0, 279.0, 54.5, 279.0 ],
					"order" : 1,
					"source" : [ "obj-1171", 0 ]
				}

			}
, 			{
				"patchline" : 				{
					"destination" : [ "obj-1173", 0 ],
					"midpoints" : [ 54.5, 428.0, 54.5, 428.0 ],
					"source" : [ "obj-1172", 0 ]
				}

			}
, 			{
				"patchline" : 				{
					"destination" : [ "obj-1172", 0 ],
					"midpoints" : [ 54.5, 474.0, 30.0, 474.0, 30.0, 399.0, 54.5, 399.0 ],
					"source" : [ "obj-1173", 0 ]
				}

			}
, 			{
				"patchline" : 				{
					"destination" : [ "obj-1175", 0 ],
					"midpoints" : [ 54.5, 308.0, 54.5, 308.0 ],
					"source" : [ "obj-1174", 0 ]
				}

			}
, 			{
				"patchline" : 				{
					"destination" : [ "obj-1174", 0 ],
					"midpoints" : [ 54.5, 354.0, 30.0, 354.0, 30.0, 279.0, 54.5, 279.0 ],
					"source" : [ "obj-1175", 0 ]
				}

			}
, 			{
				"patchline" : 				{
					"destination" : [ "obj-1178", 0 ],
					"source" : [ "obj-1176", 0 ]
				}

			}
, 			{
				"patchline" : 				{
					"destination" : [ "obj-1177", 0 ],
					"source" : [ "obj-1178", 0 ]
				}

			}
, 			{
				"patchline" : 				{
					"destination" : [ "obj-1188", 0 ],
					"source" : [ "obj-1179", 0 ]
				}

			}
, 			{
				"patchline" : 				{
					"destination" : [ "obj-1185", 0 ],
					"midpoints" : [ 54.500001788139343, 1059.5, 30.000001788139343, 1059.5, 30.000001788139343, 981.5, 54.500001788139343, 981.5 ],
					"source" : [ "obj-1184", 0 ]
				}

			}
, 			{
				"patchline" : 				{
					"destination" : [ "obj-1184", 0 ],
					"midpoints" : [ 54.500001788139343, 1008.5, 54.500001788139343, 1008.5 ],
					"source" : [ "obj-1185", 0 ]
				}

			}
, 			{
				"patchline" : 				{
					"destination" : [ "obj-1188", 0 ],
					"midpoints" : [ 54.5, 726.0, 30.0, 726.0, 30.0, 549.0, 54.5, 549.0 ],
					"source" : [ "obj-1187", 0 ]
				}

			}
, 			{
				"patchline" : 				{
					"destination" : [ "obj-1187", 0 ],
					"source" : [ "obj-1188", 0 ]
				}

			}
, 			{
				"patchline" : 				{
					"destination" : [ "obj-1245", 0 ],
					"source" : [ "obj-1241", 0 ]
				}

			}
, 			{
				"patchline" : 				{
					"destination" : [ "obj-1241", 0 ],
					"source" : [ "obj-1242", 0 ]
				}

			}
, 			{
				"patchline" : 				{
					"destination" : [ "obj-1246", 0 ],
					"midpoints" : [ 54.500001788139343, 1299.0, 54.500001788139343, 1299.0 ],
					"source" : [ "obj-1244", 0 ]
				}

			}
, 			{
				"patchline" : 				{
					"destination" : [ "obj-1244", 0 ],
					"midpoints" : [ 54.500001788139343, 1263.0, 54.500001788139343, 1263.0 ],
					"source" : [ "obj-1245", 0 ]
				}

			}
, 			{
				"patchline" : 				{
					"destination" : [ "obj-1242", 0 ],
					"midpoints" : [ 113.500001788139343, 1354.0, 30.000001788139343, 1354.0, 30.000001788139343, 1119.0, 54.500001788139343, 1119.0 ],
					"source" : [ "obj-1246", 1 ]
				}

			}
, 			{
				"patchline" : 				{
					"destination" : [ "obj-1105", 0 ],
					"source" : [ "obj-1272", 0 ]
				}

			}
 ]
	}

}
