{
	"patcher" : 	{
		"fileversion" : 1,
		"appversion" : 		{
			"major" : 6,
			"minor" : 0,
			"revision" : 8
		}
,
		"rect" : [ 234.0, 45.0, 1256.0, 582.0 ],
		"bglocked" : 0,
		"openinpresentation" : 1,
		"default_fontsize" : 12.0,
		"default_fontface" : 0,
		"default_fontname" : "Arial",
		"gridonopen" : 0,
		"gridsize" : [ 3.0, 3.0 ],
		"gridsnaponopen" : 0,
		"statusbarvisible" : 2,
		"toolbarvisible" : 1,
		"boxanimatetime" : 200,
		"imprint" : 0,
		"enablehscroll" : 0,
		"enablevscroll" : 0,
		"devicewidth" : 0.0,
		"description" : "",
		"digest" : "",
		"tags" : "",
		"boxes" : [ 			{
				"box" : 				{
					"id" : "obj-32",
					"maxclass" : "bpatcher",
					"name" : "nav.input~.maxpat",
					"numinlets" : 1,
					"numoutlets" : 2,
					"outlettype" : [ "signal", "signal" ],
					"patching_rect" : [ 1091.0, 421.5, 128.0, 128.0 ],
					"presentation" : 1,
					"presentation_rect" : [ 480.0, 321.5, 28.0, 27.0 ]
				}

			}
, 			{
				"box" : 				{
					"args" : [ "ENV" ],
					"id" : "obj-31",
					"maxclass" : "bpatcher",
					"name" : "jmod.nav.env~.maxpat",
					"numinlets" : 2,
					"numoutlets" : 2,
					"outlettype" : [ "", "" ],
					"patching_rect" : [ 825.0, 507.0, 150.0, 245.0 ],
					"presentation" : 1,
					"presentation_rect" : [ 480.0, 301.0, 150.0, 245.0 ]
				}

			}
, 			{
				"box" : 				{
					"fontname" : "Arial",
					"fontsize" : 12.0,
					"id" : "obj-17",
					"maxclass" : "newobj",
					"numinlets" : 2,
					"numoutlets" : 0,
					"patcher" : 					{
						"fileversion" : 1,
						"appversion" : 						{
							"major" : 6,
							"minor" : 0,
							"revision" : 8
						}
,
						"rect" : [ 25.0, 69.0, 640.0, 480.0 ],
						"bglocked" : 0,
						"openinpresentation" : 0,
						"default_fontsize" : 12.0,
						"default_fontface" : 0,
						"default_fontname" : "Arial",
						"gridonopen" : 0,
						"gridsize" : [ 15.0, 15.0 ],
						"gridsnaponopen" : 0,
						"statusbarvisible" : 2,
						"toolbarvisible" : 1,
						"boxanimatetime" : 200,
						"imprint" : 0,
						"enablehscroll" : 1,
						"enablevscroll" : 1,
						"devicewidth" : 0.0,
						"description" : "",
						"digest" : "",
						"tags" : "",
						"boxes" : [ 							{
								"box" : 								{
									"fontname" : "Arial",
									"fontsize" : 12.0,
									"id" : "obj-6",
									"maxclass" : "newobj",
									"numinlets" : 1,
									"numoutlets" : 0,
									"patching_rect" : [ 50.0, 147.0, 83.0, 20.0 ],
									"text" : "s 2rogsRVRB"
								}

							}
, 							{
								"box" : 								{
									"fontname" : "Verdana",
									"fontsize" : 10.0,
									"id" : "obj-15",
									"maxclass" : "message",
									"numinlets" : 2,
									"numoutlets" : 1,
									"outlettype" : [ "" ],
									"patching_rect" : [ 50.0, 100.0, 71.0, 17.0 ],
									"text" : "midiGain $1"
								}

							}
, 							{
								"box" : 								{
									"fontname" : "Arial",
									"fontsize" : 12.0,
									"id" : "obj-1",
									"maxclass" : "newobj",
									"numinlets" : 1,
									"numoutlets" : 2,
									"outlettype" : [ "audio.connect", "" ],
									"patching_rect" : [ 50.0, 120.0, 78.0, 20.0 ],
									"text" : "jcom.gain≈ 2"
								}

							}
, 							{
								"box" : 								{
									"comment" : "",
									"id" : "obj-7",
									"maxclass" : "inlet",
									"numinlets" : 0,
									"numoutlets" : 1,
									"outlettype" : [ "" ],
									"patching_rect" : [ 50.0, 40.0, 25.0, 25.0 ]
								}

							}
, 							{
								"box" : 								{
									"comment" : "",
									"id" : "obj-8",
									"maxclass" : "inlet",
									"numinlets" : 0,
									"numoutlets" : 1,
									"outlettype" : [ "audio.connect" ],
									"patching_rect" : [ 80.0, 40.0, 25.0, 25.0 ]
								}

							}
 ],
						"lines" : [ 							{
								"patchline" : 								{
									"destination" : [ "obj-6", 0 ],
									"disabled" : 0,
									"hidden" : 0,
									"source" : [ "obj-1", 0 ]
								}

							}
, 							{
								"patchline" : 								{
									"destination" : [ "obj-1", 0 ],
									"disabled" : 0,
									"hidden" : 0,
									"source" : [ "obj-15", 0 ]
								}

							}
, 							{
								"patchline" : 								{
									"destination" : [ "obj-15", 0 ],
									"disabled" : 0,
									"hidden" : 0,
									"source" : [ "obj-7", 0 ]
								}

							}
, 							{
								"patchline" : 								{
									"destination" : [ "obj-1", 0 ],
									"disabled" : 0,
									"hidden" : 0,
									"source" : [ "obj-8", 0 ]
								}

							}
 ]
					}
,
					"patching_rect" : [ 1415.0, 264.0, 67.0, 20.0 ],
					"saved_object_attributes" : 					{
						"default_fontface" : 0,
						"default_fontname" : "Arial",
						"default_fontsize" : 12.0,
						"description" : "",
						"digest" : "",
						"fontface" : 0,
						"fontname" : "Arial",
						"fontsize" : 12.0,
						"globalpatchername" : "",
						"tags" : ""
					}
,
					"text" : "p rvrbGain"
				}

			}
, 			{
				"box" : 				{
					"args" : [ "Rogs3~" ],
					"id" : "obj-18",
					"maxclass" : "bpatcher",
					"name" : "jmod.nav.rogs~.maxpat",
					"numinlets" : 1,
					"numoutlets" : 2,
					"outlettype" : [ "", "audio.connect" ],
					"patching_rect" : [ 1108.0, 123.0, 300.0, 140.0 ],
					"presentation" : 1,
					"presentation_rect" : [ 946.0, 72.0, 300.0, 140.0 ]
				}

			}
, 			{
				"box" : 				{
					"id" : "obj-19",
					"maxclass" : "slider",
					"numinlets" : 1,
					"numoutlets" : 1,
					"outlettype" : [ "" ],
					"parameter_enable" : 0,
					"patching_rect" : [ 1415.0, 246.0, 67.0, 12.0 ],
					"presentation" : 1,
					"presentation_rect" : [ 946.0, 272.0, 300.0, 12.0 ]
				}

			}
, 			{
				"box" : 				{
					"fontname" : "Verdana",
					"fontsize" : 10.0,
					"id" : "obj-21",
					"maxclass" : "newobj",
					"numinlets" : 1,
					"numoutlets" : 1,
					"outlettype" : [ "" ],
					"patcher" : 					{
						"fileversion" : 1,
						"appversion" : 						{
							"major" : 6,
							"minor" : 0,
							"revision" : 8
						}
,
						"rect" : [ 933.0, 647.0, 640.0, 480.0 ],
						"bglocked" : 0,
						"openinpresentation" : 0,
						"default_fontsize" : 13.0,
						"default_fontface" : 0,
						"default_fontname" : "Arial",
						"gridonopen" : 0,
						"gridsize" : [ 15.0, 15.0 ],
						"gridsnaponopen" : 0,
						"statusbarvisible" : 2,
						"toolbarvisible" : 1,
						"boxanimatetime" : 200,
						"imprint" : 0,
						"enablehscroll" : 1,
						"enablevscroll" : 1,
						"devicewidth" : 0.0,
						"description" : "",
						"digest" : "",
						"tags" : "",
						"boxes" : [ 							{
								"box" : 								{
									"fontname" : "Verdana",
									"fontsize" : 10.0,
									"id" : "obj-1",
									"maxclass" : "newobj",
									"numinlets" : 1,
									"numoutlets" : 1,
									"outlettype" : [ "" ],
									"patching_rect" : [ 247.0, 82.0, 178.0, 19.0 ],
									"text" : "prepend /buffer/message replace"
								}

							}
, 							{
								"box" : 								{
									"fontname" : "Verdana",
									"fontsize" : 10.0,
									"id" : "obj-16",
									"maxclass" : "newobj",
									"numinlets" : 1,
									"numoutlets" : 1,
									"outlettype" : [ "" ],
									"patching_rect" : [ 50.0, 133.0, 104.0, 19.0 ],
									"text" : "prepend /file/open"
								}

							}
, 							{
								"box" : 								{
									"fontname" : "Verdana",
									"fontsize" : 10.0,
									"id" : "obj-15",
									"maxclass" : "newobj",
									"numinlets" : 1,
									"numoutlets" : 2,
									"outlettype" : [ "", "" ],
									"patching_rect" : [ 50.0, 100.0, 105.0, 19.0 ],
									"text" : "jcom.oscroute /file"
								}

							}
, 							{
								"box" : 								{
									"comment" : "",
									"id" : "obj-18",
									"maxclass" : "inlet",
									"numinlets" : 0,
									"numoutlets" : 1,
									"outlettype" : [ "" ],
									"patching_rect" : [ 50.0, 40.0, 25.0, 25.0 ]
								}

							}
, 							{
								"box" : 								{
									"comment" : "",
									"id" : "obj-19",
									"maxclass" : "outlet",
									"numinlets" : 1,
									"numoutlets" : 0,
									"patching_rect" : [ 50.0, 199.0, 25.0, 25.0 ]
								}

							}
 ],
						"lines" : [ 							{
								"patchline" : 								{
									"destination" : [ "obj-16", 0 ],
									"disabled" : 0,
									"hidden" : 0,
									"source" : [ "obj-15", 0 ]
								}

							}
, 							{
								"patchline" : 								{
									"destination" : [ "obj-19", 0 ],
									"disabled" : 0,
									"hidden" : 0,
									"source" : [ "obj-16", 0 ]
								}

							}
, 							{
								"patchline" : 								{
									"destination" : [ "obj-15", 0 ],
									"disabled" : 0,
									"hidden" : 0,
									"source" : [ "obj-18", 0 ]
								}

							}
 ]
					}
,
					"patching_rect" : [ 1108.0, 98.0, 49.0, 19.0 ],
					"saved_object_attributes" : 					{
						"default_fontface" : 0,
						"default_fontname" : "Arial",
						"default_fontsize" : 13.0,
						"description" : "",
						"digest" : "",
						"fontface" : 0,
						"fontname" : "Arial",
						"fontsize" : 13.0,
						"globalpatchername" : "",
						"tags" : ""
					}
,
					"text" : "p adapt"
				}

			}
, 			{
				"box" : 				{
					"args" : [ "/fileBrowse-rogs3" ],
					"id" : "obj-29",
					"lockeddragscroll" : 1,
					"maxclass" : "bpatcher",
					"name" : "jmod.fileBrowser.maxpat",
					"numinlets" : 1,
					"numoutlets" : 1,
					"outlettype" : [ "" ],
					"patching_rect" : [ 1108.0, 16.0, 300.0, 70.0 ],
					"presentation" : 1,
					"presentation_rect" : [ 946.0, 2.0, 300.0, 70.0 ],
					"varname" : "/fileBrowser[4]"
				}

			}
, 			{
				"box" : 				{
					"args" : [ "Rogs3Out~" ],
					"id" : "obj-30",
					"lockeddragscroll" : 1,
					"maxclass" : "bpatcher",
					"name" : "jmod.sur.output~.maxpat",
					"numinlets" : 2,
					"numoutlets" : 1,
					"outlettype" : [ "" ],
					"patching_rect" : [ 1108.0, 331.0, 300.0, 70.0 ],
					"presentation" : 1,
					"presentation_rect" : [ 946.0, 214.0, 300.0, 70.0 ]
				}

			}
, 			{
				"box" : 				{
					"fontname" : "Arial",
					"fontsize" : 12.0,
					"id" : "obj-1",
					"maxclass" : "newobj",
					"numinlets" : 2,
					"numoutlets" : 0,
					"patcher" : 					{
						"fileversion" : 1,
						"appversion" : 						{
							"major" : 6,
							"minor" : 0,
							"revision" : 8
						}
,
						"rect" : [ 25.0, 69.0, 640.0, 480.0 ],
						"bglocked" : 0,
						"openinpresentation" : 0,
						"default_fontsize" : 12.0,
						"default_fontface" : 0,
						"default_fontname" : "Arial",
						"gridonopen" : 0,
						"gridsize" : [ 15.0, 15.0 ],
						"gridsnaponopen" : 0,
						"statusbarvisible" : 2,
						"toolbarvisible" : 1,
						"boxanimatetime" : 200,
						"imprint" : 0,
						"enablehscroll" : 1,
						"enablevscroll" : 1,
						"devicewidth" : 0.0,
						"description" : "",
						"digest" : "",
						"tags" : "",
						"boxes" : [ 							{
								"box" : 								{
									"fontname" : "Arial",
									"fontsize" : 12.0,
									"id" : "obj-6",
									"maxclass" : "newobj",
									"numinlets" : 1,
									"numoutlets" : 0,
									"patching_rect" : [ 50.0, 147.0, 83.0, 20.0 ],
									"text" : "s 2rogsRVRB"
								}

							}
, 							{
								"box" : 								{
									"fontname" : "Verdana",
									"fontsize" : 10.0,
									"id" : "obj-15",
									"maxclass" : "message",
									"numinlets" : 2,
									"numoutlets" : 1,
									"outlettype" : [ "" ],
									"patching_rect" : [ 50.0, 100.0, 71.0, 17.0 ],
									"text" : "midiGain $1"
								}

							}
, 							{
								"box" : 								{
									"fontname" : "Arial",
									"fontsize" : 12.0,
									"id" : "obj-1",
									"maxclass" : "newobj",
									"numinlets" : 1,
									"numoutlets" : 2,
									"outlettype" : [ "audio.connect", "" ],
									"patching_rect" : [ 50.0, 120.0, 78.0, 20.0 ],
									"text" : "jcom.gain≈ 2"
								}

							}
, 							{
								"box" : 								{
									"comment" : "",
									"id" : "obj-7",
									"maxclass" : "inlet",
									"numinlets" : 0,
									"numoutlets" : 1,
									"outlettype" : [ "" ],
									"patching_rect" : [ 50.0, 40.0, 25.0, 25.0 ]
								}

							}
, 							{
								"box" : 								{
									"comment" : "",
									"id" : "obj-8",
									"maxclass" : "inlet",
									"numinlets" : 0,
									"numoutlets" : 1,
									"outlettype" : [ "audio.connect" ],
									"patching_rect" : [ 80.0, 40.0, 25.0, 25.0 ]
								}

							}
 ],
						"lines" : [ 							{
								"patchline" : 								{
									"destination" : [ "obj-6", 0 ],
									"disabled" : 0,
									"hidden" : 0,
									"source" : [ "obj-1", 0 ]
								}

							}
, 							{
								"patchline" : 								{
									"destination" : [ "obj-1", 0 ],
									"disabled" : 0,
									"hidden" : 0,
									"source" : [ "obj-15", 0 ]
								}

							}
, 							{
								"patchline" : 								{
									"destination" : [ "obj-15", 0 ],
									"disabled" : 0,
									"hidden" : 0,
									"source" : [ "obj-7", 0 ]
								}

							}
, 							{
								"patchline" : 								{
									"destination" : [ "obj-1", 0 ],
									"disabled" : 0,
									"hidden" : 0,
									"source" : [ "obj-8", 0 ]
								}

							}
 ]
					}
,
					"patching_rect" : [ 1079.0, 264.0, 67.0, 20.0 ],
					"saved_object_attributes" : 					{
						"default_fontface" : 0,
						"default_fontname" : "Arial",
						"default_fontsize" : 12.0,
						"description" : "",
						"digest" : "",
						"fontface" : 0,
						"fontname" : "Arial",
						"fontsize" : 12.0,
						"globalpatchername" : "",
						"tags" : ""
					}
,
					"text" : "p rvrbGain"
				}

			}
, 			{
				"box" : 				{
					"args" : [ "Rogs3~" ],
					"id" : "obj-3",
					"maxclass" : "bpatcher",
					"name" : "jmod.nav.rogs~.maxpat",
					"numinlets" : 1,
					"numoutlets" : 2,
					"outlettype" : [ "", "audio.connect" ],
					"patching_rect" : [ 772.0, 123.0, 300.0, 140.0 ],
					"presentation" : 1,
					"presentation_rect" : [ 632.0, 72.0, 300.0, 140.0 ]
				}

			}
, 			{
				"box" : 				{
					"id" : "obj-7",
					"maxclass" : "slider",
					"numinlets" : 1,
					"numoutlets" : 1,
					"outlettype" : [ "" ],
					"parameter_enable" : 0,
					"patching_rect" : [ 1079.0, 246.0, 67.0, 12.0 ],
					"presentation" : 1,
					"presentation_rect" : [ 632.0, 272.0, 300.0, 12.0 ]
				}

			}
, 			{
				"box" : 				{
					"fontname" : "Verdana",
					"fontsize" : 10.0,
					"id" : "obj-8",
					"maxclass" : "newobj",
					"numinlets" : 1,
					"numoutlets" : 1,
					"outlettype" : [ "" ],
					"patcher" : 					{
						"fileversion" : 1,
						"appversion" : 						{
							"major" : 6,
							"minor" : 0,
							"revision" : 8
						}
,
						"rect" : [ 933.0, 647.0, 640.0, 480.0 ],
						"bglocked" : 0,
						"openinpresentation" : 0,
						"default_fontsize" : 13.0,
						"default_fontface" : 0,
						"default_fontname" : "Arial",
						"gridonopen" : 0,
						"gridsize" : [ 15.0, 15.0 ],
						"gridsnaponopen" : 0,
						"statusbarvisible" : 2,
						"toolbarvisible" : 1,
						"boxanimatetime" : 200,
						"imprint" : 0,
						"enablehscroll" : 1,
						"enablevscroll" : 1,
						"devicewidth" : 0.0,
						"description" : "",
						"digest" : "",
						"tags" : "",
						"boxes" : [ 							{
								"box" : 								{
									"fontname" : "Verdana",
									"fontsize" : 10.0,
									"id" : "obj-1",
									"maxclass" : "newobj",
									"numinlets" : 1,
									"numoutlets" : 1,
									"outlettype" : [ "" ],
									"patching_rect" : [ 247.0, 82.0, 178.0, 19.0 ],
									"text" : "prepend /buffer/message replace"
								}

							}
, 							{
								"box" : 								{
									"fontname" : "Verdana",
									"fontsize" : 10.0,
									"id" : "obj-16",
									"maxclass" : "newobj",
									"numinlets" : 1,
									"numoutlets" : 1,
									"outlettype" : [ "" ],
									"patching_rect" : [ 50.0, 133.0, 104.0, 19.0 ],
									"text" : "prepend /file/open"
								}

							}
, 							{
								"box" : 								{
									"fontname" : "Verdana",
									"fontsize" : 10.0,
									"id" : "obj-15",
									"maxclass" : "newobj",
									"numinlets" : 1,
									"numoutlets" : 2,
									"outlettype" : [ "", "" ],
									"patching_rect" : [ 50.0, 100.0, 105.0, 19.0 ],
									"text" : "jcom.oscroute /file"
								}

							}
, 							{
								"box" : 								{
									"comment" : "",
									"id" : "obj-18",
									"maxclass" : "inlet",
									"numinlets" : 0,
									"numoutlets" : 1,
									"outlettype" : [ "" ],
									"patching_rect" : [ 50.0, 40.0, 25.0, 25.0 ]
								}

							}
, 							{
								"box" : 								{
									"comment" : "",
									"id" : "obj-19",
									"maxclass" : "outlet",
									"numinlets" : 1,
									"numoutlets" : 0,
									"patching_rect" : [ 50.0, 199.0, 25.0, 25.0 ]
								}

							}
 ],
						"lines" : [ 							{
								"patchline" : 								{
									"destination" : [ "obj-16", 0 ],
									"disabled" : 0,
									"hidden" : 0,
									"source" : [ "obj-15", 0 ]
								}

							}
, 							{
								"patchline" : 								{
									"destination" : [ "obj-19", 0 ],
									"disabled" : 0,
									"hidden" : 0,
									"source" : [ "obj-16", 0 ]
								}

							}
, 							{
								"patchline" : 								{
									"destination" : [ "obj-15", 0 ],
									"disabled" : 0,
									"hidden" : 0,
									"source" : [ "obj-18", 0 ]
								}

							}
 ]
					}
,
					"patching_rect" : [ 772.0, 98.0, 49.0, 19.0 ],
					"saved_object_attributes" : 					{
						"default_fontface" : 0,
						"default_fontname" : "Arial",
						"default_fontsize" : 13.0,
						"description" : "",
						"digest" : "",
						"fontface" : 0,
						"fontname" : "Arial",
						"fontsize" : 13.0,
						"globalpatchername" : "",
						"tags" : ""
					}
,
					"text" : "p adapt"
				}

			}
, 			{
				"box" : 				{
					"args" : [ "/fileBrowse-rogs3" ],
					"id" : "obj-10",
					"lockeddragscroll" : 1,
					"maxclass" : "bpatcher",
					"name" : "jmod.fileBrowser.maxpat",
					"numinlets" : 1,
					"numoutlets" : 1,
					"outlettype" : [ "" ],
					"patching_rect" : [ 772.0, 16.0, 300.0, 70.0 ],
					"presentation" : 1,
					"presentation_rect" : [ 632.0, 2.0, 300.0, 70.0 ],
					"varname" : "/fileBrowser[3]"
				}

			}
, 			{
				"box" : 				{
					"args" : [ "Rogs3Out~" ],
					"id" : "obj-14",
					"lockeddragscroll" : 1,
					"maxclass" : "bpatcher",
					"name" : "jmod.sur.output~.maxpat",
					"numinlets" : 2,
					"numoutlets" : 1,
					"outlettype" : [ "" ],
					"patching_rect" : [ 772.0, 331.0, 300.0, 70.0 ],
					"presentation" : 1,
					"presentation_rect" : [ 632.0, 214.0, 300.0, 70.0 ]
				}

			}
, 			{
				"box" : 				{
					"fontname" : "Arial",
					"fontsize" : 12.0,
					"id" : "obj-23",
					"maxclass" : "newobj",
					"numinlets" : 2,
					"numoutlets" : 0,
					"patcher" : 					{
						"fileversion" : 1,
						"appversion" : 						{
							"major" : 6,
							"minor" : 0,
							"revision" : 8
						}
,
						"rect" : [ 25.0, 69.0, 640.0, 480.0 ],
						"bglocked" : 0,
						"openinpresentation" : 0,
						"default_fontsize" : 12.0,
						"default_fontface" : 0,
						"default_fontname" : "Arial",
						"gridonopen" : 0,
						"gridsize" : [ 15.0, 15.0 ],
						"gridsnaponopen" : 0,
						"statusbarvisible" : 2,
						"toolbarvisible" : 1,
						"boxanimatetime" : 200,
						"imprint" : 0,
						"enablehscroll" : 1,
						"enablevscroll" : 1,
						"devicewidth" : 0.0,
						"description" : "",
						"digest" : "",
						"tags" : "",
						"boxes" : [ 							{
								"box" : 								{
									"fontname" : "Arial",
									"fontsize" : 12.0,
									"id" : "obj-6",
									"maxclass" : "newobj",
									"numinlets" : 1,
									"numoutlets" : 0,
									"patching_rect" : [ 50.0, 147.0, 83.0, 20.0 ],
									"text" : "s 2rogsRVRB"
								}

							}
, 							{
								"box" : 								{
									"fontname" : "Verdana",
									"fontsize" : 10.0,
									"id" : "obj-15",
									"maxclass" : "message",
									"numinlets" : 2,
									"numoutlets" : 1,
									"outlettype" : [ "" ],
									"patching_rect" : [ 50.0, 100.0, 71.0, 17.0 ],
									"text" : "midiGain $1"
								}

							}
, 							{
								"box" : 								{
									"fontname" : "Arial",
									"fontsize" : 12.0,
									"id" : "obj-1",
									"maxclass" : "newobj",
									"numinlets" : 1,
									"numoutlets" : 2,
									"outlettype" : [ "audio.connect", "" ],
									"patching_rect" : [ 50.0, 120.0, 78.0, 20.0 ],
									"text" : "jcom.gain≈ 2"
								}

							}
, 							{
								"box" : 								{
									"comment" : "",
									"id" : "obj-7",
									"maxclass" : "inlet",
									"numinlets" : 0,
									"numoutlets" : 1,
									"outlettype" : [ "" ],
									"patching_rect" : [ 50.0, 40.0, 25.0, 25.0 ]
								}

							}
, 							{
								"box" : 								{
									"comment" : "",
									"id" : "obj-8",
									"maxclass" : "inlet",
									"numinlets" : 0,
									"numoutlets" : 1,
									"outlettype" : [ "audio.connect" ],
									"patching_rect" : [ 80.0, 40.0, 25.0, 25.0 ]
								}

							}
 ],
						"lines" : [ 							{
								"patchline" : 								{
									"destination" : [ "obj-6", 0 ],
									"disabled" : 0,
									"hidden" : 0,
									"source" : [ "obj-1", 0 ]
								}

							}
, 							{
								"patchline" : 								{
									"destination" : [ "obj-1", 0 ],
									"disabled" : 0,
									"hidden" : 0,
									"source" : [ "obj-15", 0 ]
								}

							}
, 							{
								"patchline" : 								{
									"destination" : [ "obj-15", 0 ],
									"disabled" : 0,
									"hidden" : 0,
									"source" : [ "obj-7", 0 ]
								}

							}
, 							{
								"patchline" : 								{
									"destination" : [ "obj-1", 0 ],
									"disabled" : 0,
									"hidden" : 0,
									"source" : [ "obj-8", 0 ]
								}

							}
 ]
					}
,
					"patching_rect" : [ 694.0, 264.0, 67.0, 20.0 ],
					"saved_object_attributes" : 					{
						"default_fontface" : 0,
						"default_fontname" : "Arial",
						"default_fontsize" : 12.0,
						"description" : "",
						"digest" : "",
						"fontface" : 0,
						"fontname" : "Arial",
						"fontsize" : 12.0,
						"globalpatchername" : "",
						"tags" : ""
					}
,
					"text" : "p rvrbGain"
				}

			}
, 			{
				"box" : 				{
					"args" : [ "Rogs2~" ],
					"id" : "obj-24",
					"maxclass" : "bpatcher",
					"name" : "jmod.nav.rogs~.maxpat",
					"numinlets" : 1,
					"numoutlets" : 2,
					"outlettype" : [ "", "audio.connect" ],
					"patching_rect" : [ 387.0, 123.0, 300.0, 140.0 ],
					"presentation" : 1,
					"presentation_rect" : [ 323.0, 74.0, 300.0, 140.0 ]
				}

			}
, 			{
				"box" : 				{
					"id" : "obj-25",
					"maxclass" : "slider",
					"numinlets" : 1,
					"numoutlets" : 1,
					"outlettype" : [ "" ],
					"parameter_enable" : 0,
					"patching_rect" : [ 694.0, 246.0, 67.0, 12.0 ],
					"presentation" : 1,
					"presentation_rect" : [ 323.0, 270.0, 300.0, 12.0 ]
				}

			}
, 			{
				"box" : 				{
					"fontname" : "Verdana",
					"fontsize" : 10.0,
					"id" : "obj-26",
					"maxclass" : "newobj",
					"numinlets" : 1,
					"numoutlets" : 1,
					"outlettype" : [ "" ],
					"patcher" : 					{
						"fileversion" : 1,
						"appversion" : 						{
							"major" : 6,
							"minor" : 0,
							"revision" : 8
						}
,
						"rect" : [ 933.0, 647.0, 640.0, 480.0 ],
						"bglocked" : 0,
						"openinpresentation" : 0,
						"default_fontsize" : 13.0,
						"default_fontface" : 0,
						"default_fontname" : "Arial",
						"gridonopen" : 0,
						"gridsize" : [ 15.0, 15.0 ],
						"gridsnaponopen" : 0,
						"statusbarvisible" : 2,
						"toolbarvisible" : 1,
						"boxanimatetime" : 200,
						"imprint" : 0,
						"enablehscroll" : 1,
						"enablevscroll" : 1,
						"devicewidth" : 0.0,
						"description" : "",
						"digest" : "",
						"tags" : "",
						"boxes" : [ 							{
								"box" : 								{
									"fontname" : "Verdana",
									"fontsize" : 10.0,
									"id" : "obj-1",
									"maxclass" : "newobj",
									"numinlets" : 1,
									"numoutlets" : 1,
									"outlettype" : [ "" ],
									"patching_rect" : [ 247.0, 82.0, 178.0, 19.0 ],
									"text" : "prepend /buffer/message replace"
								}

							}
, 							{
								"box" : 								{
									"fontname" : "Verdana",
									"fontsize" : 10.0,
									"id" : "obj-16",
									"maxclass" : "newobj",
									"numinlets" : 1,
									"numoutlets" : 1,
									"outlettype" : [ "" ],
									"patching_rect" : [ 50.0, 133.0, 104.0, 19.0 ],
									"text" : "prepend /file/open"
								}

							}
, 							{
								"box" : 								{
									"fontname" : "Verdana",
									"fontsize" : 10.0,
									"id" : "obj-15",
									"maxclass" : "newobj",
									"numinlets" : 1,
									"numoutlets" : 2,
									"outlettype" : [ "", "" ],
									"patching_rect" : [ 50.0, 100.0, 105.0, 19.0 ],
									"text" : "jcom.oscroute /file"
								}

							}
, 							{
								"box" : 								{
									"comment" : "",
									"id" : "obj-18",
									"maxclass" : "inlet",
									"numinlets" : 0,
									"numoutlets" : 1,
									"outlettype" : [ "" ],
									"patching_rect" : [ 50.0, 40.0, 25.0, 25.0 ]
								}

							}
, 							{
								"box" : 								{
									"comment" : "",
									"id" : "obj-19",
									"maxclass" : "outlet",
									"numinlets" : 1,
									"numoutlets" : 0,
									"patching_rect" : [ 50.0, 199.0, 25.0, 25.0 ]
								}

							}
 ],
						"lines" : [ 							{
								"patchline" : 								{
									"destination" : [ "obj-16", 0 ],
									"disabled" : 0,
									"hidden" : 0,
									"source" : [ "obj-15", 0 ]
								}

							}
, 							{
								"patchline" : 								{
									"destination" : [ "obj-19", 0 ],
									"disabled" : 0,
									"hidden" : 0,
									"source" : [ "obj-16", 0 ]
								}

							}
, 							{
								"patchline" : 								{
									"destination" : [ "obj-15", 0 ],
									"disabled" : 0,
									"hidden" : 0,
									"source" : [ "obj-18", 0 ]
								}

							}
 ]
					}
,
					"patching_rect" : [ 387.0, 98.0, 49.0, 19.0 ],
					"saved_object_attributes" : 					{
						"default_fontface" : 0,
						"default_fontname" : "Arial",
						"default_fontsize" : 13.0,
						"description" : "",
						"digest" : "",
						"fontface" : 0,
						"fontname" : "Arial",
						"fontsize" : 13.0,
						"globalpatchername" : "",
						"tags" : ""
					}
,
					"text" : "p adapt"
				}

			}
, 			{
				"box" : 				{
					"args" : [ "/fileBrowse-rogs2" ],
					"id" : "obj-27",
					"lockeddragscroll" : 1,
					"maxclass" : "bpatcher",
					"name" : "jmod.fileBrowser.maxpat",
					"numinlets" : 1,
					"numoutlets" : 1,
					"outlettype" : [ "" ],
					"patching_rect" : [ 387.0, 16.0, 300.0, 70.0 ],
					"presentation" : 1,
					"presentation_rect" : [ 323.0, 2.0, 300.0, 70.0 ],
					"varname" : "/fileBrowser[1]"
				}

			}
, 			{
				"box" : 				{
					"args" : [ "Rogs2Out~" ],
					"id" : "obj-28",
					"lockeddragscroll" : 1,
					"maxclass" : "bpatcher",
					"name" : "jmod.sur.output~.maxpat",
					"numinlets" : 2,
					"numoutlets" : 1,
					"outlettype" : [ "" ],
					"patching_rect" : [ 387.0, 331.0, 300.0, 70.0 ],
					"presentation" : 1,
					"presentation_rect" : [ 323.0, 212.0, 300.0, 70.0 ]
				}

			}
, 			{
				"box" : 				{
					"fontname" : "Arial",
					"fontsize" : 12.0,
					"frgb" : 0.0,
					"id" : "obj-22",
					"maxclass" : "comment",
					"numinlets" : 1,
					"numoutlets" : 0,
					"patching_rect" : [ 462.0, 446.5, 150.0, 20.0 ],
					"presentation" : 1,
					"presentation_rect" : [ 18.0, 301.0, 89.0, 20.0 ],
					"text" : "num speakers:"
				}

			}
, 			{
				"box" : 				{
					"fontname" : "Arial",
					"fontsize" : 12.0,
					"id" : "obj-6",
					"maxclass" : "newobj",
					"numinlets" : 0,
					"numoutlets" : 1,
					"outlettype" : [ "" ],
					"patching_rect" : [ 147.5, 375.0, 81.0, 20.0 ],
					"text" : "r 2rogsRVRB"
				}

			}
, 			{
				"box" : 				{
					"fontname" : "Arial",
					"fontsize" : 12.0,
					"id" : "obj-16",
					"maxclass" : "newobj",
					"numinlets" : 1,
					"numoutlets" : 1,
					"outlettype" : [ "" ],
					"patching_rect" : [ 555.0, 475.5, 135.0, 20.0 ],
					"text" : "prepend /*/numOutputs"
				}

			}
, 			{
				"box" : 				{
					"fontname" : "Arial",
					"fontsize" : 12.0,
					"id" : "obj-15",
					"maxclass" : "number",
					"numinlets" : 1,
					"numoutlets" : 2,
					"outlettype" : [ "int", "bang" ],
					"parameter_enable" : 0,
					"patching_rect" : [ 412.0, 446.5, 50.0, 20.0 ],
					"presentation" : 1,
					"presentation_rect" : [ 107.0, 301.0, 50.0, 20.0 ]
				}

			}
, 			{
				"box" : 				{
					"fontname" : "Arial",
					"fontsize" : 12.0,
					"id" : "obj-11",
					"maxclass" : "newobj",
					"numinlets" : 1,
					"numoutlets" : 1,
					"outlettype" : [ "" ],
					"patching_rect" : [ 412.0, 475.5, 143.0, 20.0 ],
					"text" : "prepend /*/numChannels"
				}

			}
, 			{
				"box" : 				{
					"color" : [ 0.619608, 0.0, 0.360784, 0.698039 ],
					"fontname" : "Verdana",
					"fontsize" : 10.0,
					"id" : "obj-12",
					"maxclass" : "newobj",
					"numinlets" : 1,
					"numoutlets" : 1,
					"outlettype" : [ "" ],
					"patching_rect" : [ 412.0, 505.5, 182.0, 19.0 ],
					"text" : "jcom.send jcom.remote.module.to"
				}

			}
, 			{
				"box" : 				{
					"fontname" : "Arial",
					"fontsize" : 12.0,
					"id" : "obj-9",
					"maxclass" : "newobj",
					"numinlets" : 2,
					"numoutlets" : 0,
					"patcher" : 					{
						"fileversion" : 1,
						"appversion" : 						{
							"major" : 6,
							"minor" : 0,
							"revision" : 8
						}
,
						"rect" : [ 25.0, 69.0, 640.0, 480.0 ],
						"bglocked" : 0,
						"openinpresentation" : 0,
						"default_fontsize" : 12.0,
						"default_fontface" : 0,
						"default_fontname" : "Arial",
						"gridonopen" : 0,
						"gridsize" : [ 15.0, 15.0 ],
						"gridsnaponopen" : 0,
						"statusbarvisible" : 2,
						"toolbarvisible" : 1,
						"boxanimatetime" : 200,
						"imprint" : 0,
						"enablehscroll" : 1,
						"enablevscroll" : 1,
						"devicewidth" : 0.0,
						"description" : "",
						"digest" : "",
						"tags" : "",
						"boxes" : [ 							{
								"box" : 								{
									"fontname" : "Arial",
									"fontsize" : 12.0,
									"id" : "obj-6",
									"maxclass" : "newobj",
									"numinlets" : 1,
									"numoutlets" : 0,
									"patching_rect" : [ 50.0, 147.0, 83.0, 20.0 ],
									"text" : "s 2rogsRVRB"
								}

							}
, 							{
								"box" : 								{
									"fontname" : "Verdana",
									"fontsize" : 10.0,
									"id" : "obj-15",
									"maxclass" : "message",
									"numinlets" : 2,
									"numoutlets" : 1,
									"outlettype" : [ "" ],
									"patching_rect" : [ 50.0, 100.0, 71.0, 17.0 ],
									"text" : "midiGain $1"
								}

							}
, 							{
								"box" : 								{
									"fontname" : "Arial",
									"fontsize" : 12.0,
									"id" : "obj-1",
									"maxclass" : "newobj",
									"numinlets" : 1,
									"numoutlets" : 2,
									"outlettype" : [ "audio.connect", "" ],
									"patching_rect" : [ 50.0, 120.0, 78.0, 20.0 ],
									"text" : "jcom.gain≈ 2"
								}

							}
, 							{
								"box" : 								{
									"comment" : "",
									"id" : "obj-7",
									"maxclass" : "inlet",
									"numinlets" : 0,
									"numoutlets" : 1,
									"outlettype" : [ "" ],
									"patching_rect" : [ 50.0, 40.0, 25.0, 25.0 ]
								}

							}
, 							{
								"box" : 								{
									"comment" : "",
									"id" : "obj-8",
									"maxclass" : "inlet",
									"numinlets" : 0,
									"numoutlets" : 1,
									"outlettype" : [ "audio.connect" ],
									"patching_rect" : [ 80.0, 40.0, 25.0, 25.0 ]
								}

							}
 ],
						"lines" : [ 							{
								"patchline" : 								{
									"destination" : [ "obj-6", 0 ],
									"disabled" : 0,
									"hidden" : 0,
									"source" : [ "obj-1", 0 ]
								}

							}
, 							{
								"patchline" : 								{
									"destination" : [ "obj-1", 0 ],
									"disabled" : 0,
									"hidden" : 0,
									"source" : [ "obj-15", 0 ]
								}

							}
, 							{
								"patchline" : 								{
									"destination" : [ "obj-15", 0 ],
									"disabled" : 0,
									"hidden" : 0,
									"source" : [ "obj-7", 0 ]
								}

							}
, 							{
								"patchline" : 								{
									"destination" : [ "obj-1", 0 ],
									"disabled" : 0,
									"hidden" : 0,
									"source" : [ "obj-8", 0 ]
								}

							}
 ]
					}
,
					"patching_rect" : [ 314.0, 264.0, 67.0, 20.0 ],
					"saved_object_attributes" : 					{
						"default_fontface" : 0,
						"default_fontname" : "Arial",
						"default_fontsize" : 12.0,
						"description" : "",
						"digest" : "",
						"fontface" : 0,
						"fontname" : "Arial",
						"fontsize" : 12.0,
						"globalpatchername" : "",
						"tags" : ""
					}
,
					"text" : "p rvrbGain"
				}

			}
, 			{
				"box" : 				{
					"args" : [ "Rogs1~" ],
					"id" : "obj-4",
					"maxclass" : "bpatcher",
					"name" : "jmod.nav.rogs~.maxpat",
					"numinlets" : 1,
					"numoutlets" : 2,
					"outlettype" : [ "", "audio.connect" ],
					"patching_rect" : [ 7.0, 123.0, 300.0, 140.0 ],
					"presentation" : 1,
					"presentation_rect" : [ 2.0, 72.0, 300.0, 140.0 ]
				}

			}
, 			{
				"box" : 				{
					"args" : [ "rvrbOut~" ],
					"id" : "obj-2",
					"lockeddragscroll" : 1,
					"maxclass" : "bpatcher",
					"name" : "jmod.sur.output~.maxpat",
					"numinlets" : 2,
					"numoutlets" : 1,
					"outlettype" : [ "" ],
					"patching_rect" : [ 7.0, 480.0, 300.0, 70.0 ],
					"presentation" : 1,
					"presentation_rect" : [ 165.0, 356.0, 300.0, 70.0 ]
				}

			}
, 			{
				"box" : 				{
					"id" : "obj-5",
					"maxclass" : "slider",
					"numinlets" : 1,
					"numoutlets" : 1,
					"outlettype" : [ "" ],
					"parameter_enable" : 0,
					"patching_rect" : [ 314.0, 246.0, 67.0, 12.0 ],
					"presentation" : 1,
					"presentation_rect" : [ 2.0, 270.0, 300.0, 12.0 ]
				}

			}
, 			{
				"box" : 				{
					"args" : [ "/reverb" ],
					"id" : "obj-43",
					"lockeddragscroll" : 1,
					"maxclass" : "bpatcher",
					"name" : "jmod.sur.reverb~.maxpat",
					"numinlets" : 3,
					"numoutlets" : 2,
					"outlettype" : [ "", "audio.connect" ],
					"patching_rect" : [ 7.0, 401.5, 300.0, 70.0 ],
					"presentation" : 1,
					"presentation_rect" : [ 165.0, 286.0, 300.0, 70.0 ],
					"varname" : "/reverb"
				}

			}
, 			{
				"box" : 				{
					"fontname" : "Verdana",
					"fontsize" : 10.0,
					"id" : "obj-20",
					"maxclass" : "newobj",
					"numinlets" : 1,
					"numoutlets" : 1,
					"outlettype" : [ "" ],
					"patcher" : 					{
						"fileversion" : 1,
						"appversion" : 						{
							"major" : 6,
							"minor" : 0,
							"revision" : 8
						}
,
						"rect" : [ 933.0, 647.0, 640.0, 480.0 ],
						"bglocked" : 0,
						"openinpresentation" : 0,
						"default_fontsize" : 13.0,
						"default_fontface" : 0,
						"default_fontname" : "Arial",
						"gridonopen" : 0,
						"gridsize" : [ 15.0, 15.0 ],
						"gridsnaponopen" : 0,
						"statusbarvisible" : 2,
						"toolbarvisible" : 1,
						"boxanimatetime" : 200,
						"imprint" : 0,
						"enablehscroll" : 1,
						"enablevscroll" : 1,
						"devicewidth" : 0.0,
						"description" : "",
						"digest" : "",
						"tags" : "",
						"boxes" : [ 							{
								"box" : 								{
									"fontname" : "Verdana",
									"fontsize" : 10.0,
									"id" : "obj-1",
									"maxclass" : "newobj",
									"numinlets" : 1,
									"numoutlets" : 1,
									"outlettype" : [ "" ],
									"patching_rect" : [ 247.0, 82.0, 178.0, 19.0 ],
									"text" : "prepend /buffer/message replace"
								}

							}
, 							{
								"box" : 								{
									"fontname" : "Verdana",
									"fontsize" : 10.0,
									"id" : "obj-16",
									"maxclass" : "newobj",
									"numinlets" : 1,
									"numoutlets" : 1,
									"outlettype" : [ "" ],
									"patching_rect" : [ 50.0, 133.0, 104.0, 19.0 ],
									"text" : "prepend /file/open"
								}

							}
, 							{
								"box" : 								{
									"fontname" : "Verdana",
									"fontsize" : 10.0,
									"id" : "obj-15",
									"maxclass" : "newobj",
									"numinlets" : 1,
									"numoutlets" : 2,
									"outlettype" : [ "", "" ],
									"patching_rect" : [ 50.0, 100.0, 105.0, 19.0 ],
									"text" : "jcom.oscroute /file"
								}

							}
, 							{
								"box" : 								{
									"comment" : "",
									"id" : "obj-18",
									"maxclass" : "inlet",
									"numinlets" : 0,
									"numoutlets" : 1,
									"outlettype" : [ "" ],
									"patching_rect" : [ 50.0, 40.0, 25.0, 25.0 ]
								}

							}
, 							{
								"box" : 								{
									"comment" : "",
									"id" : "obj-19",
									"maxclass" : "outlet",
									"numinlets" : 1,
									"numoutlets" : 0,
									"patching_rect" : [ 50.0, 199.0, 25.0, 25.0 ]
								}

							}
 ],
						"lines" : [ 							{
								"patchline" : 								{
									"destination" : [ "obj-16", 0 ],
									"disabled" : 0,
									"hidden" : 0,
									"source" : [ "obj-15", 0 ]
								}

							}
, 							{
								"patchline" : 								{
									"destination" : [ "obj-19", 0 ],
									"disabled" : 0,
									"hidden" : 0,
									"source" : [ "obj-16", 0 ]
								}

							}
, 							{
								"patchline" : 								{
									"destination" : [ "obj-15", 0 ],
									"disabled" : 0,
									"hidden" : 0,
									"source" : [ "obj-18", 0 ]
								}

							}
 ]
					}
,
					"patching_rect" : [ 7.0, 98.0, 49.0, 19.0 ],
					"saved_object_attributes" : 					{
						"default_fontface" : 0,
						"default_fontname" : "Arial",
						"default_fontsize" : 13.0,
						"description" : "",
						"digest" : "",
						"fontface" : 0,
						"fontname" : "Arial",
						"fontsize" : 13.0,
						"globalpatchername" : "",
						"tags" : ""
					}
,
					"text" : "p adapt"
				}

			}
, 			{
				"box" : 				{
					"args" : [ "/fileBrowse-rogs1" ],
					"id" : "obj-13",
					"lockeddragscroll" : 1,
					"maxclass" : "bpatcher",
					"name" : "jmod.fileBrowser.maxpat",
					"numinlets" : 1,
					"numoutlets" : 1,
					"outlettype" : [ "" ],
					"patching_rect" : [ 7.0, 16.0, 300.0, 70.0 ],
					"presentation" : 1,
					"presentation_rect" : [ 2.0, 2.0, 300.0, 70.0 ],
					"varname" : "/fileBrowser[2]"
				}

			}
, 			{
				"box" : 				{
					"args" : [ "Rogs1Out~" ],
					"id" : "obj-40",
					"lockeddragscroll" : 1,
					"maxclass" : "bpatcher",
					"name" : "jmod.sur.output~.maxpat",
					"numinlets" : 2,
					"numoutlets" : 1,
					"outlettype" : [ "" ],
					"patching_rect" : [ 7.0, 272.0, 300.0, 70.0 ],
					"presentation" : 1,
					"presentation_rect" : [ 2.0, 212.0, 300.0, 70.0 ]
				}

			}
 ],
		"lines" : [ 			{
				"patchline" : 				{
					"destination" : [ "obj-8", 0 ],
					"disabled" : 0,
					"hidden" : 0,
					"source" : [ "obj-10", 0 ]
				}

			}
, 			{
				"patchline" : 				{
					"destination" : [ "obj-12", 0 ],
					"disabled" : 0,
					"hidden" : 0,
					"source" : [ "obj-11", 0 ]
				}

			}
, 			{
				"patchline" : 				{
					"destination" : [ "obj-20", 0 ],
					"disabled" : 0,
					"hidden" : 0,
					"source" : [ "obj-13", 0 ]
				}

			}
, 			{
				"patchline" : 				{
					"destination" : [ "obj-11", 0 ],
					"disabled" : 0,
					"hidden" : 0,
					"source" : [ "obj-15", 0 ]
				}

			}
, 			{
				"patchline" : 				{
					"destination" : [ "obj-16", 0 ],
					"disabled" : 0,
					"hidden" : 0,
					"source" : [ "obj-15", 0 ]
				}

			}
, 			{
				"patchline" : 				{
					"destination" : [ "obj-12", 0 ],
					"disabled" : 0,
					"hidden" : 0,
					"source" : [ "obj-16", 0 ]
				}

			}
, 			{
				"patchline" : 				{
					"destination" : [ "obj-17", 1 ],
					"disabled" : 0,
					"hidden" : 0,
					"source" : [ "obj-18", 1 ]
				}

			}
, 			{
				"patchline" : 				{
					"destination" : [ "obj-30", 1 ],
					"disabled" : 0,
					"hidden" : 0,
					"source" : [ "obj-18", 1 ]
				}

			}
, 			{
				"patchline" : 				{
					"destination" : [ "obj-17", 0 ],
					"disabled" : 0,
					"hidden" : 0,
					"source" : [ "obj-19", 0 ]
				}

			}
, 			{
				"patchline" : 				{
					"destination" : [ "obj-4", 0 ],
					"disabled" : 0,
					"hidden" : 0,
					"source" : [ "obj-20", 0 ]
				}

			}
, 			{
				"patchline" : 				{
					"destination" : [ "obj-18", 0 ],
					"disabled" : 0,
					"hidden" : 0,
					"source" : [ "obj-21", 0 ]
				}

			}
, 			{
				"patchline" : 				{
					"destination" : [ "obj-23", 1 ],
					"disabled" : 0,
					"hidden" : 0,
					"source" : [ "obj-24", 1 ]
				}

			}
, 			{
				"patchline" : 				{
					"destination" : [ "obj-28", 1 ],
					"disabled" : 0,
					"hidden" : 0,
					"source" : [ "obj-24", 1 ]
				}

			}
, 			{
				"patchline" : 				{
					"destination" : [ "obj-23", 0 ],
					"disabled" : 0,
					"hidden" : 0,
					"source" : [ "obj-25", 0 ]
				}

			}
, 			{
				"patchline" : 				{
					"destination" : [ "obj-24", 0 ],
					"disabled" : 0,
					"hidden" : 0,
					"source" : [ "obj-26", 0 ]
				}

			}
, 			{
				"patchline" : 				{
					"destination" : [ "obj-26", 0 ],
					"disabled" : 0,
					"hidden" : 0,
					"source" : [ "obj-27", 0 ]
				}

			}
, 			{
				"patchline" : 				{
					"destination" : [ "obj-21", 0 ],
					"disabled" : 0,
					"hidden" : 0,
					"source" : [ "obj-29", 0 ]
				}

			}
, 			{
				"patchline" : 				{
					"destination" : [ "obj-1", 1 ],
					"disabled" : 0,
					"hidden" : 0,
					"source" : [ "obj-3", 1 ]
				}

			}
, 			{
				"patchline" : 				{
					"destination" : [ "obj-14", 1 ],
					"disabled" : 0,
					"hidden" : 0,
					"source" : [ "obj-3", 1 ]
				}

			}
, 			{
				"patchline" : 				{
					"destination" : [ "obj-31", 1 ],
					"disabled" : 0,
					"hidden" : 0,
					"source" : [ "obj-32", 0 ]
				}

			}
, 			{
				"patchline" : 				{
					"destination" : [ "obj-40", 1 ],
					"disabled" : 0,
					"hidden" : 0,
					"source" : [ "obj-4", 1 ]
				}

			}
, 			{
				"patchline" : 				{
					"destination" : [ "obj-9", 1 ],
					"disabled" : 0,
					"hidden" : 0,
					"source" : [ "obj-4", 1 ]
				}

			}
, 			{
				"patchline" : 				{
					"destination" : [ "obj-2", 1 ],
					"disabled" : 0,
					"hidden" : 0,
					"source" : [ "obj-43", 1 ]
				}

			}
, 			{
				"patchline" : 				{
					"destination" : [ "obj-9", 0 ],
					"disabled" : 0,
					"hidden" : 0,
					"source" : [ "obj-5", 0 ]
				}

			}
, 			{
				"patchline" : 				{
					"destination" : [ "obj-43", 1 ],
					"disabled" : 0,
					"hidden" : 0,
					"source" : [ "obj-6", 0 ]
				}

			}
, 			{
				"patchline" : 				{
					"destination" : [ "obj-1", 0 ],
					"disabled" : 0,
					"hidden" : 0,
					"source" : [ "obj-7", 0 ]
				}

			}
, 			{
				"patchline" : 				{
					"destination" : [ "obj-3", 0 ],
					"disabled" : 0,
					"hidden" : 0,
					"source" : [ "obj-8", 0 ]
				}

			}
 ],
		"parameters" : 		{
			"obj-24::obj-108::obj-67" : [ "SelectAll[1]", "SelectAll", 0 ],
			"obj-24::obj-43::obj-131::obj-54::obj-9::obj-61" : [ "TriggersMode[1]", "Mode", 0 ],
			"obj-3::obj-89" : [ "lock[2]", "Lock", 0 ],
			"obj-18::obj-108::obj-67" : [ "SelectAll[2]", "SelectAll", 0 ],
			"obj-4::obj-108::obj-32" : [ "live.text[3]", "live.text[3]", 0 ],
			"obj-4::obj-69" : [ "SelectFile", "SelectFile", 0 ],
			"obj-18::obj-108::obj-32" : [ "live.text[7]", "live.text[3]", 0 ],
			"obj-24::obj-89" : [ "lock[1]", "Lock", 0 ],
			"obj-4::obj-89" : [ "lock", "Lock", 0 ],
			"obj-18::obj-108::obj-87" : [ "Direction[5]", "Direction", 0 ],
			"obj-3::obj-68" : [ "DropFile[3]", "DropFile", 0 ],
			"obj-24::obj-69" : [ "SelectFile[1]", "SelectFile", 0 ],
			"obj-18::obj-108::obj-103" : [ "Direction[9]", "Direction", 0 ],
			"obj-3::obj-74" : [ "note[2]", "Note", 0 ],
			"obj-4::obj-108::obj-103" : [ "Direction[1]", "Direction", 0 ],
			"obj-18::obj-68" : [ "DropFile[2]", "DropFile", 0 ],
			"obj-3::obj-108::obj-101" : [ "Scrub[3]", "Scrub", 0 ],
			"obj-3::obj-69" : [ "SelectFile[3]", "SelectFile", 0 ],
			"obj-4::obj-43::obj-131::obj-54::obj-9::obj-61" : [ "TriggersMode[3]", "Mode", 0 ],
			"obj-3::obj-108::obj-103" : [ "Direction[8]", "Direction", 0 ],
			"obj-24::obj-108::obj-103" : [ "Direction[4]", "Direction", 0 ],
			"obj-24::obj-51" : [ "Soundfile[1]", "Soundfile", 0 ],
			"obj-24::obj-74" : [ "note[1]", "Note", 0 ],
			"obj-4::obj-108::obj-87" : [ "Direction[2]", "Direction", 0 ],
			"obj-18::obj-89" : [ "lock[3]", "Lock", 0 ],
			"obj-4::obj-51" : [ "Soundfile", "Soundfile", 0 ],
			"obj-4::obj-108::obj-101" : [ "Scrub", "Scrub", 0 ],
			"obj-4::obj-74" : [ "note", "Note", 0 ],
			"obj-3::obj-108::obj-87" : [ "Direction[7]", "Direction", 0 ],
			"obj-24::obj-108::obj-32" : [ "live.text[4]", "live.text[3]", 0 ],
			"obj-24::obj-68" : [ "DropFile[1]", "DropFile", 0 ],
			"obj-3::obj-51" : [ "Soundfile[3]", "Soundfile", 0 ],
			"obj-18::obj-51" : [ "Soundfile[2]", "Soundfile", 0 ],
			"obj-3::obj-108::obj-67" : [ "SelectAll[3]", "SelectAll", 0 ],
			"obj-18::obj-108::obj-101" : [ "Scrub[4]", "Scrub", 0 ],
			"obj-3::obj-108::obj-32" : [ "live.text[6]", "live.text[3]", 0 ],
			"obj-24::obj-108::obj-87" : [ "Direction[3]", "Direction", 0 ],
			"obj-24::obj-108::obj-101" : [ "Scrub[1]", "Scrub", 0 ],
			"obj-4::obj-68" : [ "DropFile", "DropFile", 0 ],
			"obj-3::obj-43::obj-131::obj-54::obj-9::obj-61" : [ "TriggersMode[4]", "Mode", 0 ],
			"obj-18::obj-43::obj-131::obj-54::obj-9::obj-61" : [ "TriggersMode[5]", "Mode", 0 ],
			"obj-4::obj-108::obj-67" : [ "SelectAll", "SelectAll", 0 ],
			"obj-18::obj-69" : [ "SelectFile[4]", "SelectFile", 0 ],
			"obj-18::obj-74" : [ "note[3]", "Note", 0 ]
		}
,
		"dependency_cache" : [ 			{
				"name" : "jmod.sur.output~.maxpat",
				"bootpath" : "/Applications/Max6/Cycling '74/Jamoma/modules/spatialization/sur.output~",
				"patcherrelativepath" : "../../../../../../../Applications/Max6/Cycling '74/Jamoma/modules/spatialization/sur.output~",
				"type" : "JSON",
				"implicit" : 1
			}
, 			{
				"name" : "jalg.sur.output~.maxpat",
				"bootpath" : "/Applications/Max6/Cycling '74/Jamoma/modules/spatialization/sur.output~",
				"patcherrelativepath" : "../../../../../../../Applications/Max6/Cycling '74/Jamoma/modules/spatialization/sur.output~",
				"type" : "JSON",
				"implicit" : 1
			}
, 			{
				"name" : "jcom.thru.maxpat",
				"bootpath" : "/Applications/Max6/Cycling '74/Jamoma/library/components/thru",
				"patcherrelativepath" : "../../../../../../../Applications/Max6/Cycling '74/Jamoma/library/components/thru",
				"type" : "JSON",
				"implicit" : 1
			}
, 			{
				"name" : "jcom.audioOnOff.maxpat",
				"bootpath" : "/Applications/Max6/Cycling '74/Jamoma/library/components/audioOnOff",
				"patcherrelativepath" : "../../../../../../../Applications/Max6/Cycling '74/Jamoma/library/components/audioOnOff",
				"type" : "JSON",
				"implicit" : 1
			}
, 			{
				"name" : "jcom.js_systeminfo.js",
				"bootpath" : "/Applications/Max6/Cycling '74/Jamoma/library/javascript",
				"patcherrelativepath" : "../../../../../../../Applications/Max6/Cycling '74/Jamoma/library/javascript",
				"type" : "TEXT",
				"implicit" : 1
			}
, 			{
				"name" : "jmod.fileBrowser.maxpat",
				"bootpath" : "/Applications/Max6/Cycling '74/Jamoma/modules/control/fileBrowser",
				"patcherrelativepath" : "../../../../../../../Applications/Max6/Cycling '74/Jamoma/modules/control/fileBrowser",
				"type" : "JSON",
				"implicit" : 1
			}
, 			{
				"name" : "jmod.sur.reverb~.maxpat",
				"bootpath" : "/Users/NavNav/code/SearchPath/JamomaUsers/ViMiC/spatialization/sur.reverb~",
				"patcherrelativepath" : "../../../../SearchPath/JamomaUsers/ViMiC/spatialization/sur.reverb~",
				"type" : "JSON",
				"implicit" : 1
			}
, 			{
				"name" : "jalg.sur.reverb~.maxpat",
				"bootpath" : "/Users/NavNav/code/SearchPath/JamomaUsers/ViMiC/spatialization/sur.reverb~",
				"patcherrelativepath" : "../../../../SearchPath/JamomaUsers/ViMiC/spatialization/sur.reverb~",
				"type" : "JSON",
				"implicit" : 1
			}
, 			{
				"name" : "FDN16-16-16d.maxpat",
				"bootpath" : "/Users/NavNav/code/SearchPath/JamomaUsers/ViMiC/spatialization/sur.reverb~",
				"patcherrelativepath" : "../../../../SearchPath/JamomaUsers/ViMiC/spatialization/sur.reverb~",
				"type" : "JSON",
				"implicit" : 1
			}
, 			{
				"name" : "FDN.gain.maxpat",
				"bootpath" : "/Users/NavNav/code/SearchPath/JamomaUsers/ViMiC/spatialization/sur.reverb~",
				"patcherrelativepath" : "../../../../SearchPath/JamomaUsers/ViMiC/spatialization/sur.reverb~",
				"type" : "JSON",
				"implicit" : 1
			}
, 			{
				"name" : "vary_unit.maxpat",
				"bootpath" : "/Users/NavNav/code/SearchPath/JamomaUsers/ViMiC/spatialization/sur.reverb~",
				"patcherrelativepath" : "../../../../SearchPath/JamomaUsers/ViMiC/spatialization/sur.reverb~",
				"type" : "JSON",
				"implicit" : 1
			}
, 			{
				"name" : "jcom.list2parameter.maxpat",
				"bootpath" : "/Applications/Max6/Cycling '74/Jamoma/library/components/list2parameter",
				"patcherrelativepath" : "../../../../../../../Applications/Max6/Cycling '74/Jamoma/library/components/list2parameter",
				"type" : "JSON",
				"implicit" : 1
			}
, 			{
				"name" : "jcom.message.array.maxpat",
				"bootpath" : "/Applications/Max6/Cycling '74/Jamoma/library/components/message.array",
				"patcherrelativepath" : "../../../../../../../Applications/Max6/Cycling '74/Jamoma/library/components/message.array",
				"type" : "JSON",
				"implicit" : 1
			}
, 			{
				"name" : "jcom.message.array.instance.maxpat",
				"bootpath" : "/Applications/Max6/Cycling '74/Jamoma/library/components/message.array",
				"patcherrelativepath" : "../../../../../../../Applications/Max6/Cycling '74/Jamoma/library/components/message.array",
				"type" : "JSON",
				"implicit" : 1
			}
, 			{
				"name" : "jcom.parameter.array.maxpat",
				"bootpath" : "/Applications/Max6/Cycling '74/Jamoma/library/components/parameter.array",
				"patcherrelativepath" : "../../../../../../../Applications/Max6/Cycling '74/Jamoma/library/components/parameter.array",
				"type" : "JSON",
				"implicit" : 1
			}
, 			{
				"name" : "jcom.parameter.array.instance.maxpat",
				"bootpath" : "/Applications/Max6/Cycling '74/Jamoma/library/components/parameter.array",
				"patcherrelativepath" : "../../../../../../../Applications/Max6/Cycling '74/Jamoma/library/components/parameter.array",
				"type" : "JSON",
				"implicit" : 1
			}
, 			{
				"name" : "jmod.nav.rogs~.maxpat",
				"bootpath" : "/Users/NavNav/code/Git/Nav/Jamoma/jmod.nav.rogs~",
				"patcherrelativepath" : "../../Jamoma/jmod.nav.rogs~",
				"type" : "JSON",
				"implicit" : 1
			}
, 			{
				"name" : "jalg.nav.rogs~.maxpat",
				"bootpath" : "/Users/NavNav/code/Git/Nav/Jamoma/jmod.nav.rogs~",
				"patcherrelativepath" : "../../Jamoma/jmod.nav.rogs~",
				"type" : "JSON",
				"implicit" : 1
			}
, 			{
				"name" : "jcom.absdiff.maxpat",
				"bootpath" : "/Applications/Max6/Cycling '74/Jamoma/library/components/absdiff",
				"patcherrelativepath" : "../../../../../../../Applications/Max6/Cycling '74/Jamoma/library/components/absdiff",
				"type" : "JSON",
				"implicit" : 1
			}
, 			{
				"name" : "jcom.nav.oscroute.maxpat",
				"bootpath" : "/Users/NavNav/code/Git/Nav/Jamoma/jmod.nav.oscRoute",
				"patcherrelativepath" : "../../Jamoma/jmod.nav.oscRoute",
				"type" : "JSON",
				"implicit" : 1
			}
, 			{
				"name" : "jcom.modulesDumper.maxpat",
				"bootpath" : "/Applications/Max6/Cycling '74/Jamoma/library/components/modulesDumper",
				"patcherrelativepath" : "../../../../../../../Applications/Max6/Cycling '74/Jamoma/library/components/modulesDumper",
				"type" : "JSON",
				"implicit" : 1
			}
, 			{
				"name" : "jcom.getAllAttributes.maxpat",
				"bootpath" : "/Applications/Max6/Cycling '74/Jamoma/library/components/getAllAttributes",
				"patcherrelativepath" : "../../../../../../../Applications/Max6/Cycling '74/Jamoma/library/components/getAllAttributes",
				"type" : "JSON",
				"implicit" : 1
			}
, 			{
				"name" : "jcom.getReturnNames.maxpat",
				"bootpath" : "/Applications/Max6/Cycling '74/Jamoma/library/components/getReturnNames",
				"patcherrelativepath" : "../../../../../../../Applications/Max6/Cycling '74/Jamoma/library/components/getReturnNames",
				"type" : "JSON",
				"implicit" : 1
			}
, 			{
				"name" : "jcom.getParameterNames.maxpat",
				"bootpath" : "/Applications/Max6/Cycling '74/Jamoma/library/components/getParameterNames",
				"patcherrelativepath" : "../../../../../../../Applications/Max6/Cycling '74/Jamoma/library/components/getParameterNames",
				"type" : "JSON",
				"implicit" : 1
			}
, 			{
				"name" : "jcom.getMessageNames.maxpat",
				"bootpath" : "/Applications/Max6/Cycling '74/Jamoma/library/components/getMessageNames",
				"patcherrelativepath" : "../../../../../../../Applications/Max6/Cycling '74/Jamoma/library/components/getMessageNames",
				"type" : "JSON",
				"implicit" : 1
			}
, 			{
				"name" : "jcom.getOneAttribute.maxpat",
				"bootpath" : "/Applications/Max6/Cycling '74/Jamoma/library/components/getOneAttribute",
				"patcherrelativepath" : "../../../../../../../Applications/Max6/Cycling '74/Jamoma/library/components/getOneAttribute",
				"type" : "JSON",
				"implicit" : 1
			}
, 			{
				"name" : "jcom.autoscale.maxpat",
				"bootpath" : "/Applications/Max6/Cycling '74/Jamoma/library/components/autoscale",
				"patcherrelativepath" : "../../../../../../../Applications/Max6/Cycling '74/Jamoma/library/components/autoscale",
				"type" : "JSON",
				"implicit" : 1
			}
, 			{
				"name" : "jmod.nav.env~.maxpat",
				"bootpath" : "/Users/NavNav/code/Git/Nav/Jamoma/jmod.nav.env~",
				"patcherrelativepath" : "../../Jamoma/jmod.nav.env~",
				"type" : "JSON",
				"implicit" : 1
			}
, 			{
				"name" : "jalg.nav.env~.maxpat",
				"bootpath" : "/Users/NavNav/code/Git/Nav/Jamoma/jmod.nav.env~",
				"patcherrelativepath" : "../../Jamoma/jmod.nav.env~",
				"type" : "JSON",
				"implicit" : 1
			}
, 			{
				"name" : "nav.input~.maxpat",
				"bootpath" : "/Users/NavNav/code/Git/Nav/snd/ADC-DAC~",
				"patcherrelativepath" : "../../snd/ADC-DAC~",
				"type" : "JSON",
				"implicit" : 1
			}
, 			{
				"name" : "thru.maxpat",
				"bootpath" : "/Applications/Max6/patches/m4l-patches/Pluggo for Live resources/patches",
				"patcherrelativepath" : "../../../../../../../Applications/Max6/patches/m4l-patches/Pluggo for Live resources/patches",
				"type" : "JSON",
				"implicit" : 1
			}
, 			{
				"name" : "jcom.ui.mxo",
				"type" : "iLaX"
			}
, 			{
				"name" : "jcom.hub.mxo",
				"type" : "iLaX"
			}
, 			{
				"name" : "jcom.parameter.mxo",
				"type" : "iLaX"
			}
, 			{
				"name" : "jcom.unpack≈.mxo",
				"type" : "iLaX"
			}
, 			{
				"name" : "jcom.oscroute.mxo",
				"type" : "iLaX"
			}
, 			{
				"name" : "jcom.pass.mxo",
				"type" : "iLaX"
			}
, 			{
				"name" : "jcom.route.mxo",
				"type" : "iLaX"
			}
, 			{
				"name" : "jcom.stats.mxo",
				"type" : "iLaX"
			}
, 			{
				"name" : "jcom.limiter≈.mxo",
				"type" : "iLaX"
			}
, 			{
				"name" : "jcom.gain≈.mxo",
				"type" : "iLaX"
			}
, 			{
				"name" : "jcom.in.mxo",
				"type" : "iLaX"
			}
, 			{
				"name" : "jcom.init.mxo",
				"type" : "iLaX"
			}
, 			{
				"name" : "jcom.message.mxo",
				"type" : "iLaX"
			}
, 			{
				"name" : "jcom.return.mxo",
				"type" : "iLaX"
			}
, 			{
				"name" : "jcom.textslider.mxo",
				"type" : "iLaX"
			}
, 			{
				"name" : "jcom.oscinstance.mxo",
				"type" : "iLaX"
			}
, 			{
				"name" : "jcom.dataspace.mxo",
				"type" : "iLaX"
			}
, 			{
				"name" : "jcom.in~.mxo",
				"type" : "iLaX"
			}
, 			{
				"name" : "jcom.pack≈.mxo",
				"type" : "iLaX"
			}
, 			{
				"name" : "jcom.out~.mxo",
				"type" : "iLaX"
			}
, 			{
				"name" : "rogs~.mxo",
				"type" : "iLaX"
			}
, 			{
				"name" : "jcom.loader.mxo",
				"type" : "iLaX"
			}
, 			{
				"name" : "jcom.loader.mxo",
				"type" : "iLaX"
			}
, 			{
				"name" : "jcom.map.mxo",
				"type" : "iLaX"
			}
, 			{
				"name" : "!.mxo",
				"type" : "iLaX"
			}
, 			{
				"name" : "mattrms~.mxo",
				"type" : "iLaX"
			}
 ]
	}

}
